<svg xmlns="http://www.w3.org/2000/svg" width="132.439" height="142.47" viewBox="0 0 132.439 142.47">
  <g id="Grupo_5361" data-name="Grupo 5361" transform="translate(-131.516 -2709.038)">
    <g id="Grupo_5359" data-name="Grupo 5359" transform="translate(-438.459 2416.039) rotate(-8)">
      <path id="Trazado_11312" data-name="Trazado 11312" d="M542.484,400.1c.26.381.352.72.515.9a.437.437,0,0,0,.234.088c.106.018.19-.037.4-.117.183-.082.5-.15.646-.383a1.1,1.1,0,0,0,.125-.832,2.892,2.892,0,0,0-1.791-2.049,3.165,3.165,0,0,0-2.165-.1,3.243,3.243,0,0,0-1.145.667,3.019,3.019,0,0,0-.355.346,5.037,5.037,0,0,0-.352.43c-.407.56-.652,1.068-.872,1.392a2.057,2.057,0,0,1-.57.625l-.134.1.036-.035a3.959,3.959,0,0,1-1.295.527,10.125,10.125,0,0,0-1.742.621,2.729,2.729,0,0,0-1.174,1.009c-.185.335-.176.582-.07.681a8.724,8.724,0,0,0,.209,1.76,33.821,33.821,0,0,1,.61,5.26,10.693,10.693,0,0,1-.495,3.614,7.877,7.877,0,0,1-2.542,3.293c-2.33,2.028-5.4,4.311-7.4,7.987a18.051,18.051,0,0,0-2,6.1,28.292,28.292,0,0,0-.251,3.324c-.037,1.1-.059,2.22-.055,3.361a58.666,58.666,0,0,0,1.729,14.282c2.414,9.776,7.7,19.282,14.084,27.708q2.4,3.165,4.98,6.17a72.052,72.052,0,0,0,43.457,24.227,51.688,51.688,0,0,0,19.353-.39c4.625-1.09,7-2.619,6.978-2.764-.064-.548-3.934,1.324-10.687,1.925a65.276,65.276,0,0,1-25.9-3.3,74.1,74.1,0,0,1-14.293-6.46,71.33,71.33,0,0,1-12.551-9.362,94.274,94.274,0,0,1-9.555-10.705,98.382,98.382,0,0,1-6.663-9.6,61.632,61.632,0,0,1-8.049-20.721,58.164,58.164,0,0,1-.883-11.234c.08.57.17,1.165.282,1.817a74.283,74.283,0,0,0,3.813,13.688,68.289,68.289,0,0,0,6.423,12.727,26.827,26.827,0,0,0,3.987,5.181c.344-.161-2.249-3.493-4.758-7.875a80.993,80.993,0,0,1-5.994-12.842,66.84,66.84,0,0,1-2.685-10.974c-.449-2.645-.689-4.842-.925-5.8a22.68,22.68,0,0,1,.242-2.275,16.177,16.177,0,0,1,1.672-5.018c1.608-3.062,4.163-5.167,6.579-7.273a11.389,11.389,0,0,0,3.19-3.95,10.484,10.484,0,0,0,.658-4.436,18.642,18.642,0,0,0-1.273-5.8,8.118,8.118,0,0,0-.724-1.454,2.25,2.25,0,0,0,.247-.022l1.061-.194c.434-.084.989-.17,1.612-.315a4.776,4.776,0,0,0,1.94-.848l-.035.02a3.529,3.529,0,0,0,1.148-1.425c.229-.482.381-.9.549-1.207a1.538,1.538,0,0,1,1.383-.874A1.735,1.735,0,0,1,542.484,400.1Z" transform="translate(0 0)" fill="none" stroke="#80cbc4" stroke-width="2"/>
      <path id="Trazado_11313" data-name="Trazado 11313" d="M601.713,492.293a38.937,38.937,0,0,0-7.537-4.756c-2.8-1.4-5.833-2.626-8.91-3.846-1.538-.617-3.09-1.225-4.593-1.914a48.688,48.688,0,0,1-4.425-2.328,87.518,87.518,0,0,1-15.286-11.939c-2.181-2.1-4.249-4.108-5.938-6.11a54.482,54.482,0,0,1-4.2-5.722,69.867,69.867,0,0,1-8.306-19.256c-.236-.9-.452-1.806-.632-2.716s-.4-1.888-.661-2.8a55.373,55.373,0,0,0-1.874-5.344,97.4,97.4,0,0,0-4.518-9.553,12.993,12.993,0,0,1-.824-6.544,29.577,29.577,0,0,1,1.141-5.46c.92-3.051,1.685-4.828,1.29-5.02-.282-.211-1.482,1.244-2.762,4.269a24.3,24.3,0,0,0-1.619,5.762,14.292,14.292,0,0,0,.91,7.983,102.661,102.661,0,0,1,5.328,11.443c.4,1.06.782,2.143,1.106,3.249.35,1.1.544,2.2.85,3.469a67.825,67.825,0,0,0,2.28,7.348,77.1,77.1,0,0,0,7.137,14.516,54.227,54.227,0,0,0,5.015,6.72c1.9,2.1,3.809,4.013,5.8,5.93a89.32,89.32,0,0,0,12.626,10.24,52.511,52.511,0,0,0,6.861,3.813c2.348,1.055,4.617,1.894,6.789,2.773a66.707,66.707,0,0,1,11.478,5.562,20.766,20.766,0,0,1,6.991,6.83l.071.125.209.2c-.057-.053.049.04.062.075a.523.523,0,0,1,.026.057c-.132.042-.279.081-.44.126a6.9,6.9,0,0,0-1.271.452,2.288,2.288,0,0,0-1.3,1.593,4.23,4.23,0,0,0,.218,1.762,2.6,2.6,0,0,1,.121,1.007,6.378,6.378,0,0,0-.055.965.608.608,0,0,0,.126.366c-.372.359-.626.548-.6.619.028.161.469.145,1.174-.275a3.9,3.9,0,0,0,1.121-1.055,4.168,4.168,0,0,0,.742-2.011,2.793,2.793,0,0,0,.007-.593c-.022-.057.005-.094.055-.123l.123-.1.238-.207a4.45,4.45,0,0,0,1.1-1.52,2.075,2.075,0,0,0-.4-2.249A18.978,18.978,0,0,0,601.713,492.293Z" transform="translate(9.159 1.244)" fill="none" stroke="#80cbc4" stroke-width="2"/>
    </g>
    <g id="Grupo_5360" data-name="Grupo 5360" transform="translate(-401.598 2399.771) rotate(-8)">
      <path id="Trazado_11312-2" data-name="Trazado 11312" d="M539.225,399.707c.221.324.3.611.437.764a.37.37,0,0,0,.2.075c.09.016.162-.031.341-.1.156-.07.423-.128.549-.325a.938.938,0,0,0,.106-.706,2.456,2.456,0,0,0-1.521-1.741,2.688,2.688,0,0,0-1.839-.084,2.754,2.754,0,0,0-.972.566,2.566,2.566,0,0,0-.3.294,4.286,4.286,0,0,0-.3.366c-.345.476-.554.907-.74,1.182a1.747,1.747,0,0,1-.484.53l-.113.082.031-.03a3.362,3.362,0,0,1-1.1.448,8.6,8.6,0,0,0-1.479.527,2.318,2.318,0,0,0-1,.857c-.157.285-.149.495-.059.579a7.406,7.406,0,0,0,.177,1.495,28.725,28.725,0,0,1,.518,4.467,9.083,9.083,0,0,1-.42,3.069,6.689,6.689,0,0,1-2.159,2.8c-1.979,1.722-4.589,3.662-6.282,6.783a15.33,15.33,0,0,0-1.7,5.184,24.017,24.017,0,0,0-.213,2.823c-.031.933-.05,1.885-.047,2.854a49.827,49.827,0,0,0,1.468,12.129c2.05,8.3,6.541,16.376,11.961,23.532q2.039,2.688,4.229,5.24a61.192,61.192,0,0,0,36.908,20.576,43.9,43.9,0,0,0,16.436-.331c3.928-.925,5.943-2.224,5.926-2.347-.054-.465-3.341,1.125-9.076,1.635a55.438,55.438,0,0,1-21.994-2.8,62.929,62.929,0,0,1-12.139-5.486,60.579,60.579,0,0,1-10.659-7.951,80.068,80.068,0,0,1-8.115-9.092,83.565,83.565,0,0,1-5.659-8.151,52.345,52.345,0,0,1-6.836-17.6,49.391,49.391,0,0,1-.75-9.541c.068.484.145.989.24,1.543a63.092,63.092,0,0,0,3.238,11.625,58,58,0,0,0,5.455,10.809,22.782,22.782,0,0,0,3.386,4.4c.292-.137-1.91-2.966-4.041-6.688a68.792,68.792,0,0,1-5.091-10.907,56.767,56.767,0,0,1-2.28-9.32c-.381-2.246-.585-4.113-.785-4.929a19.25,19.25,0,0,1,.205-1.932,13.739,13.739,0,0,1,1.42-4.262c1.366-2.6,3.536-4.388,5.587-6.177a9.672,9.672,0,0,0,2.71-3.355,8.9,8.9,0,0,0,.558-3.767,15.833,15.833,0,0,0-1.081-4.928,6.9,6.9,0,0,0-.614-1.235,1.908,1.908,0,0,0,.21-.019l.9-.165c.369-.072.84-.145,1.369-.268a4.057,4.057,0,0,0,1.647-.72l-.03.017a3,3,0,0,0,.975-1.21c.195-.409.323-.765.467-1.025a1.306,1.306,0,0,1,1.174-.742A1.474,1.474,0,0,1,539.225,399.707Z" transform="translate(0 0)" fill="none" stroke="#80cbc4" stroke-width="2"/>
      <path id="Trazado_11313-2" data-name="Trazado 11313" d="M591.187,478.227a33.069,33.069,0,0,0-6.4-4.039c-2.378-1.185-4.954-2.231-7.567-3.266-1.307-.524-2.624-1.041-3.9-1.626a41.369,41.369,0,0,1-3.758-1.977,74.331,74.331,0,0,1-12.982-10.14c-1.852-1.787-3.609-3.489-5.043-5.189a46.271,46.271,0,0,1-3.563-4.859,59.337,59.337,0,0,1-7.054-16.354c-.2-.765-.384-1.534-.537-2.307s-.338-1.6-.561-2.38a47.036,47.036,0,0,0-1.591-4.539,82.727,82.727,0,0,0-3.837-8.113,11.034,11.034,0,0,1-.7-5.558,25.122,25.122,0,0,1,.969-4.637c.781-2.591,1.431-4.1,1.1-4.263-.24-.179-1.258,1.056-2.346,3.626a20.635,20.635,0,0,0-1.375,4.893,12.138,12.138,0,0,0,.773,6.78A87.182,87.182,0,0,1,537.333,424c.341.9.664,1.82.94,2.759.3.938.462,1.87.722,2.946a57.59,57.59,0,0,0,1.937,6.24,65.479,65.479,0,0,0,6.062,12.328,46.056,46.056,0,0,0,4.259,5.707c1.61,1.786,3.235,3.408,4.929,5.037a75.856,75.856,0,0,0,10.723,8.7,44.6,44.6,0,0,0,5.827,3.238c1.994.9,3.921,1.608,5.766,2.355a56.652,56.652,0,0,1,9.748,4.724,17.637,17.637,0,0,1,5.937,5.8l.061.106.177.168c-.048-.045.042.034.053.064a.446.446,0,0,1,.022.048c-.112.036-.237.068-.373.107a5.858,5.858,0,0,0-1.079.384,1.943,1.943,0,0,0-1.1,1.353,3.593,3.593,0,0,0,.185,1.5,2.205,2.205,0,0,1,.1.855,5.425,5.425,0,0,0-.047.82.517.517,0,0,0,.107.311c-.316.3-.532.465-.51.526.023.137.4.123,1-.233a3.314,3.314,0,0,0,.952-.9,3.539,3.539,0,0,0,.63-1.708,2.373,2.373,0,0,0,.006-.5c-.019-.048,0-.079.047-.1l.1-.081.2-.176a3.779,3.779,0,0,0,.933-1.291,1.762,1.762,0,0,0-.342-1.91A16.117,16.117,0,0,0,591.187,478.227Z" transform="translate(6.118 0.831)" fill="none" stroke="#80cbc4" stroke-width="2"/>
    </g>
  </g>
</svg>
