<svg xmlns="http://www.w3.org/2000/svg" width="170.635" height="142.027" viewBox="0 0 170.635 142.027">
  <g id="Grupo_5347" data-name="Grupo 5347" transform="translate(-109.499 -607.595)">
    <g id="Grupo_5344" data-name="Grupo 5344" transform="translate(143.174 647.608) rotate(-30)">
      <path id="Trazado_11035" data-name="Trazado 11035" d="M629.005,613.722a22.012,22.012,0,0,0-13.808,1.85,44.5,44.5,0,0,0-11.511,8.176c-2.7,2.512-5.318,5.3-6.565,8.769a19.438,19.438,0,0,0-.9,7.463,35.8,35.8,0,0,0,3.6,14.063c1.055,2.155,2.361,4.335,2.32,6.734s-2.192,4.942-4.507,4.314c-1.03-.28-1.868-1.117-2.925-1.262a2.448,2.448,0,0,0-2.658,2.418" transform="translate(-591.85 -552.145)" fill="none" stroke="#80cbc4" stroke-miterlimit="10" stroke-width="2"/>
      <path id="Trazado_11036" data-name="Trazado 11036" d="M591.773,686.529a4.359,4.359,0,0,1,3.27-.724,11.587,11.587,0,0,1,3.677,1.826,4.983,4.983,0,0,0,3.91.874,4.921,4.921,0,0,0,2.562-2.457,16.074,16.074,0,0,0,1.219-2.664" transform="translate(-591.773 -572.179)" fill="none" stroke="#80cbc4" stroke-miterlimit="10" stroke-width="2"/>
      <path id="Trazado_11037" data-name="Trazado 11037" d="M613.132,665.283a23.437,23.437,0,0,0,17.82,1.415,33.8,33.8,0,0,0,15.061-10.086,24.7,24.7,0,0,0,5.005-7.9c1.673-4.636,1.273-9.818-.179-14.529s-3.892-9.044-6.314-13.337" transform="translate(-597.878 -554.305)" fill="none" stroke="#80cbc4" stroke-miterlimit="10" stroke-width="2"/>
      <path id="Trazado_11038" data-name="Trazado 11038" d="M629.822,678A27.423,27.423,0,0,0,617.5,658.014" transform="translate(-599.128 -564.927)" fill="none" stroke="#80cbc4" stroke-miterlimit="10" stroke-width="2"/>
      <path id="Trazado_11039" data-name="Trazado 11039" d="M641,673.3A25.265,25.265,0,0,0,630.345,652.7" transform="translate(-602.798 -563.408)" fill="none" stroke="#80cbc4" stroke-miterlimit="10" stroke-width="2"/>
      <path id="Trazado_11040" data-name="Trazado 11040" d="M650.972,666.7a28.134,28.134,0,0,0-8.279-19.3" transform="translate(-606.327 -561.894)" fill="none" stroke="#80cbc4" stroke-miterlimit="10" stroke-width="2"/>
      <path id="Trazado_11041" data-name="Trazado 11041" d="M598.712,655.761a8.781,8.781,0,0,1,6.741.851" transform="translate(-593.756 -564.191)" fill="none" stroke="#80cbc4" stroke-miterlimit="10" stroke-width="2"/>
      <path id="Trazado_11042" data-name="Trazado 11042" d="M599.327,643.073a17.054,17.054,0,0,1,11.227,2.456" transform="translate(-593.932 -560.616)" fill="none" stroke="#80cbc4" stroke-miterlimit="10" stroke-width="2"/>
      <path id="Trazado_11043" data-name="Trazado 11043" d="M603.8,631.354c3.906-.774,7.874.7,11.554,2.223,2.628,1.088,5.323,2.272,7.255,4.362" transform="translate(-595.211 -557.246)" fill="none" stroke="#80cbc4" stroke-miterlimit="10" stroke-width="2"/>
      <path id="Trazado_11044" data-name="Trazado 11044" d="M662.655,652.742c-.411-3.08-2.125-5.815-3.9-8.368a23.275,23.275,0,0,0-6.093-6.556" transform="translate(-609.177 -559.155)" fill="none" stroke="#80cbc4" stroke-miterlimit="10" stroke-width="2"/>
      <path id="Trazado_11045" data-name="Trazado 11045" d="M616.98,620.542a15.978,15.978,0,0,1,9.246,1.638,47.594,47.594,0,0,1,7.981,5.183" transform="translate(-598.978 -554.173)" fill="none" stroke="#80cbc4" stroke-miterlimit="10" stroke-width="2"/>
      <path id="Trazado_11046" data-name="Trazado 11046" d="M613.055,682.587a6.05,6.05,0,0,0-4.281-3.751" transform="translate(-596.632 -570.879)" fill="none" stroke="#80cbc4" stroke-miterlimit="10" stroke-width="2"/>
      <path id="Trazado_11047" data-name="Trazado 11047" d="M622.142,682.323a5.973,5.973,0,0,0-.421-2.588,16.932,16.932,0,0,0-9.123-9.82" transform="translate(-597.725 -568.329)" fill="none" stroke="#80cbc4" stroke-miterlimit="10" stroke-width="2"/>
      <path id="Trazado_11048" data-name="Trazado 11048" d="M643.192,613.813a16.867,16.867,0,0,1,2.725.936c2.837,1.16,5.771,2.385,7.851,4.636" transform="translate(-606.47 -552.294)" fill="none" stroke="#80cbc4" stroke-miterlimit="10" stroke-width="2"/>
      <path id="Trazado_11049" data-name="Trazado 11049" d="M653,613.908l5.846-10.225" transform="translate(-609.273 -549.398)" fill="none" stroke="#80cbc4" stroke-miterlimit="10" stroke-width="2"/>
      <path id="Trazado_11050" data-name="Trazado 11050" d="M655.807,617.033a41.13,41.13,0,0,1,5.461-8.409" transform="translate(-610.076 -550.81)" fill="none" stroke="#80cbc4" stroke-miterlimit="10" stroke-width="2"/>
      <path id="Trazado_11051" data-name="Trazado 11051" d="M659.338,623.252a59.03,59.03,0,0,0,9.966-4.339" transform="translate(-611.085 -553.751)" fill="none" stroke="#80cbc4" stroke-miterlimit="10" stroke-width="2"/>
      <path id="Trazado_11052" data-name="Trazado 11052" d="M660.986,626.9q5.46-1.562,10.76-3.626" transform="translate(-611.556 -554.998)" fill="none" stroke="#80cbc4" stroke-miterlimit="10" stroke-width="2"/>
      <path id="Trazado_11053" data-name="Trazado 11053" d="M662.184,607.807l3.356-4.829" transform="translate(-611.898 -549.197)" fill="none" stroke="#80cbc4" stroke-miterlimit="10" stroke-width="2"/>
      <path id="Trazado_11054" data-name="Trazado 11054" d="M659.961,580.839c-2.679.783-5.672,1.121-8.179-.105s-4.159-4.469-2.859-6.94c.639-1.216,1.876-2.1,2.252-3.424.494-1.732-.648-3.445-1.368-5.1a11.786,11.786,0,0,1,4.822-14.451,2.448,2.448,0,0,0,1.156-.984,2.654,2.654,0,0,0-.106-1.67,8.89,8.89,0,0,1,2.428-7.8,23.206,23.206,0,0,1,6.982-4.764,5.835,5.835,0,0,0,1.793-1.193c.886-.987.976-2.437,1.522-3.647,1.44-3.189,6.066-3.961,9.024-2.09s4.333,5.562,4.409,9.061a10.19,10.19,0,0,0,.368,3.525,12.241,12.241,0,0,0,1.3,2.123c2.645,4.059,2.141,9.732-.712,13.646-1.4,1.925-3.417,3.8-3.237,6.173.111,1.465,1.064,2.712,1.589,4.085a8.381,8.381,0,0,1-2.09,8.66,11.385,11.385,0,0,1-8.626,3.042,5.117,5.117,0,0,1-9.477,2.947" transform="translate(-607.978 -527.672)" fill="none" stroke="#80cbc4" stroke-miterlimit="10" stroke-width="2"/>
      <path id="Trazado_11055" data-name="Trazado 11055" d="M663.943,584.567a360.526,360.526,0,0,0,16.584-51.2" transform="translate(-612.401 -529.301)" fill="none" stroke="#80cbc4" stroke-miterlimit="10" stroke-width="2"/>
      <path id="Trazado_11056" data-name="Trazado 11056" d="M675.831,559.228c-.07-2.649-1.177-5.146-2.264-7.563l-2.658-5.908" transform="translate(-614.392 -532.841)" fill="none" stroke="#80cbc4" stroke-miterlimit="10" stroke-width="2"/>
      <path id="Trazado_11057" data-name="Trazado 11057" d="M678.546,561.164q5.807-4.769,11.136-10.083" transform="translate(-616.575 -534.363)" fill="none" stroke="#80cbc4" stroke-miterlimit="10" stroke-width="2"/>
      <path id="Trazado_11058" data-name="Trazado 11058" d="M669.3,581.284a75.853,75.853,0,0,1-5.568-10.331" transform="translate(-612.34 -540.043)" fill="none" stroke="#80cbc4" stroke-miterlimit="10" stroke-width="2"/>
      <path id="Trazado_11059" data-name="Trazado 11059" d="M671.319,582.316a51.8,51.8,0,0,0,11.6-6.524" transform="translate(-614.509 -541.426)" fill="none" stroke="#80cbc4" stroke-miterlimit="10" stroke-width="2"/>
      <path id="Trazado_11060" data-name="Trazado 11060" d="M672.284,610.408a9.473,9.473,0,0,1,13.591-8.325A14.679,14.679,0,0,1,699.87,593.3a5.706,5.706,0,0,0,2.113-.094,5.443,5.443,0,0,0,1.314-.753,18.676,18.676,0,0,1,19.33-.8,6.883,6.883,0,0,1,3.555,3.9c.866,3.324-2.425,6.208-5.5,7.73A6.454,6.454,0,0,0,717.6,605.6a8.806,8.806,0,0,0-.639,2.3c-1.054,4.621-5.465,7.627-9.741,9.672-2.8,1.341-6.582,2.305-8.666,0a9.964,9.964,0,0,1-17.851.241,9.094,9.094,0,0,1-4.5.813c-1.523-.252-2.982-1.6-2.78-3.127" transform="translate(-614.785 -545.297)" fill="none" stroke="#80cbc4" stroke-miterlimit="10" stroke-width="2"/>
      <path id="Trazado_11061" data-name="Trazado 11061" d="M673.175,615.134a185.675,185.675,0,0,0,43.892-16.39" transform="translate(-615.04 -547.987)" fill="none" stroke="#80cbc4" stroke-miterlimit="10" stroke-width="2"/>
      <path id="Trazado_11062" data-name="Trazado 11062" d="M713.872,605.569a70.476,70.476,0,0,1,7.993-8.134" transform="translate(-626.672 -547.612)" fill="none" stroke="#80cbc4" stroke-miterlimit="10" stroke-width="2"/>
      <path id="Trazado_11063" data-name="Trazado 11063" d="M714.84,608.538c-.317-.331.437-.616.87-.467l8.564,2.943" transform="translate(-626.927 -550.641)" fill="none" stroke="#80cbc4" stroke-miterlimit="10" stroke-width="2"/>
      <path id="Trazado_11064" data-name="Trazado 11064" d="M694.353,612.311l5.758-8.6" transform="translate(-621.093 -549.407)" fill="none" stroke="#80cbc4" stroke-miterlimit="10" stroke-width="2"/>
      <path id="Trazado_11065" data-name="Trazado 11065" d="M694.326,615.705a82.689,82.689,0,0,1,12.075,4.773" transform="translate(-621.085 -552.834)" fill="none" stroke="#80cbc4" stroke-miterlimit="10" stroke-width="2"/>
    </g>
    <g id="Grupo_5346" data-name="Grupo 5346" transform="translate(-4.148 433.188)">
      <path id="Trazado_11278" data-name="Trazado 11278" d="M137.109,216.5a17.972,17.972,0,0,0-2.326-.236,10.152,10.152,0,0,0-5.756,1.381,10.747,10.747,0,0,0-4.336,6.171,23.449,23.449,0,0,0-.661,9.453,25.893,25.893,0,0,0,3.268,10.052,14.43,14.43,0,0,0,3.519,4.058,18.582,18.582,0,0,0,4.883,2.745c3.521,1.356,7.635,1.8,11,.446a22.477,22.477,0,0,0,8.877-7.245,29.2,29.2,0,0,0,4.765-10.3,17.915,17.915,0,0,0-.856-10.282,11.4,11.4,0,0,0-6.111-6.571,10.393,10.393,0,0,0-4.016-.85,9.03,9.03,0,0,0-3.622.84,12.848,12.848,0,0,0-2.863,1.831,19.655,19.655,0,0,1-2.472,1.777,5.074,5.074,0,0,1-3.994.8c-.877-.294-1.169-.73-1.08-.885.116-.228.605-.122,1.313-.174a5.848,5.848,0,0,0,3.075-1.375c.029-.023.06-.052.089-.073a4.24,4.24,0,0,1-.073-1.091c-.245-.035-.525-.081-.869-.158C138.384,216.709,137.82,216.628,137.109,216.5Z" transform="translate(10.399 26.891)" fill="#fff" stroke="#80cbc4" stroke-width="1"/>
      <path id="Trazado_11279" data-name="Trazado 11279" d="M124.559,204.155a18.06,18.06,0,0,1,5.4,2.123,4.19,4.19,0,0,1,1.143,1.134c2.53-.427,5.1-.9,7.626-1.588-.353-.326-.786-.751-1.379-1.211a19.187,19.187,0,0,0-4.533-2.716c-1.441-.539-4-1.624-6.276-2.233a25.806,25.806,0,0,0-2.938-.639l-.359-.06c-.454.3-.908.591-1.36.9-1.219.838-2.424,1.744-3.629,2.664a6.483,6.483,0,0,1,.782.046A35.026,35.026,0,0,1,124.559,204.155Z" transform="translate(4.41 9.334)" fill="#fff" stroke="#80cbc4" stroke-width="1"/>
      <path id="Trazado_11280" data-name="Trazado 11280" d="M149.764,213.885c-.205,0-.4-.017-.574-.035.7.228,1.371.462,2.009.7.012-.22.031-.464.05-.738A11.638,11.638,0,0,1,149.764,213.885Z" transform="translate(37.617 25.268)" fill="#fff" stroke="#80cbc4" stroke-width="1"/>
      <path id="Trazado_11281" data-name="Trazado 11281" d="M150.584,251.733a14.34,14.34,0,0,0,4.939,1.5,19.883,19.883,0,0,0,11.543-2.134,14.306,14.306,0,0,0,4.833-4.068,20.429,20.429,0,0,0,2.957-5.814,32.812,32.812,0,0,0,1.458-12.918c-.5-4.166-1.449-8.323-3.564-11.218a8.494,8.494,0,0,0-3.919-3,11.51,11.51,0,0,0-4.4-.614,20.758,20.758,0,0,0-3.143.421,9.105,9.105,0,0,1-.408,1.688c.937.363,1.81.709,2.606,1,3.575,1.368,5.862,1.582,5.847,2-.01.23-.678.427-1.879.411a19.147,19.147,0,0,1-4.871-.871c-1.968-.556-4.191-1.416-6.629-2.09a13.564,13.564,0,0,0-7.809-.207,8,8,0,0,0-3.515,2.21,10.551,10.551,0,0,0-2.175,3.956,18.912,18.912,0,0,0-.473,1.837,19.427,19.427,0,0,1,.156,13.965c-.114.328-.249.641-.371.962A20.937,20.937,0,0,0,147,249.025,14.971,14.971,0,0,0,150.584,251.733Z" transform="translate(29.652 24.889)" fill="#fff" stroke="#80cbc4" stroke-width="1"/>
      <path id="Trazado_11282" data-name="Trazado 11282" d="M133.993,221a14.923,14.923,0,0,1,1.2-5.922,30.572,30.572,0,0,1,2.287-4.584c-1.037,1.584-2.013,3.075-2.793,4.479a24.509,24.509,0,0,0-2.5,6.065q-.143.575-.245,1.031c.012.031.05.066.039.091s-.044.012-.064.019c-.058.263-.112.5-.158.693.514-.419,1.049-.885,1.694-1.46C133.614,221.271,133.817,221.142,133.993,221Z" transform="translate(18.902 21.713)" fill="#fff" stroke="#80cbc4" stroke-width="1"/>
      <path id="Trazado_11283" data-name="Trazado 11283" d="M123.26,206.341a4.064,4.064,0,0,1,.7.651,27.723,27.723,0,0,1,3.04-.558c1.619-.226,3.316-.668,5.142-1.024l.272-.046c-.156-.135-.3-.272-.5-.413a12.042,12.042,0,0,0-4.037-1.92c-.632-.153-1.551-.33-2.521-.637-.972-.29-2.02-.622-2.988-.869a15.092,15.092,0,0,0-2.49-.46l-.164-.01-1.906,1.52a22.067,22.067,0,0,0-1.852,1.65,13.014,13.014,0,0,1,3.917.535A10.763,10.763,0,0,1,123.26,206.341Z" transform="translate(1.935 11.578)" fill="#fff" stroke="#80cbc4" stroke-width="1"/>
      <path id="Trazado_11284" data-name="Trazado 11284" d="M138.3,199.107a22.934,22.934,0,0,1,5.634,3.181c1.393,1.159,1.924,2.283,1.619,2.517-.379.315-1.024-.62-2.235-1.661a16.582,16.582,0,0,0-4.22-2.754,61.782,61.782,0,0,0-6.009-2.084c-1.632-.464-3.085-.6-3.691-.846-.6.218-1.2.442-1.789.711a57.955,57.955,0,0,0-6.434,3.564,9.156,9.156,0,0,1,1.232.137,26.434,26.434,0,0,1,6.434,2.19A28.469,28.469,0,0,1,134.8,207.2a5.408,5.408,0,0,1,1.655,1.839c.386-.114.773-.209,1.155-.338a30.189,30.189,0,0,0,9.8-5.256,50.353,50.353,0,0,0,6.227-6.119,28.027,28.027,0,0,1-3.527-.29c-3.388-.4-8.078-1.744-13.741-1.138a29.809,29.809,0,0,0-5.4,1.057,11.285,11.285,0,0,1,1.157.12A25.873,25.873,0,0,1,138.3,199.107Z" transform="translate(7.541 5.87)" fill="#fff" stroke="#80cbc4" stroke-width="1"/>
      <path id="Trazado_11285" data-name="Trazado 11285" d="M137.156,204.551a22.318,22.318,0,0,1,1.169-1.991c-1.354.431-2.8.838-4.354,1.167-1.1.249-2.241.454-3.394.657a1.625,1.625,0,0,1-.01.527,4.243,4.243,0,0,1-.966,1.818c-.989,1.2-2.438,2.223-3.241,3.239a17.519,17.519,0,0,1-4.234,3.782,8.217,8.217,0,0,1-2.318,1.01c.661.18,1.323.361,1.986.5a27.739,27.739,0,0,0,6.455.543c.668-.941,3.32-3.488,5.588-6.328A35.822,35.822,0,0,0,137.156,204.551Z" transform="translate(6.075 13.193)" fill="#fff" stroke="#80cbc4" stroke-width="1"/>
      <path id="Trazado_11286" data-name="Trazado 11286" d="M145.423,202.665a34.706,34.706,0,0,1-11.344,6.229c.176.379-.145,1.429-.838,2.621-.809,1.431-2.078,2.922-2.884,4.072a35.135,35.135,0,0,1-3.875,4.8,17.8,17.8,0,0,1-2.132,1.908,30.622,30.622,0,0,0,3.318-.359,29.375,29.375,0,0,0,4.993-1.339q1.257-.46,2.426-1.012a13.732,13.732,0,0,1,1.352-2.177c.943-1.354,2.26-3.085,3.376-4.9a21.146,21.146,0,0,0,2.405-5.26c.45-1.526.581-2.648,1-2.677.46-.046.527,1.3.039,2.88a25.711,25.711,0,0,1-2.119,4.483,34.507,34.507,0,0,1-4.62,6.882c.2-.114.415-.205.608-.326a33.673,33.673,0,0,0,6.99-5.824,31.573,31.573,0,0,0,4.614-6.187,40.081,40.081,0,0,0,2.484-5.459,10.121,10.121,0,0,0,.759-3.8,2.6,2.6,0,0,0-.139-.751l-.147.015A57.016,57.016,0,0,1,145.423,202.665Z" transform="translate(10.952 6.664)" fill="#fff" stroke="#80cbc4" stroke-width="1"/>
      <path id="Trazado_11287" data-name="Trazado 11287" d="M127.683,209.142c.353-.344.672-.684,1-1.053.344-.39.69-.742,1.014-1.082.653-.68,1.242-1.306,1.7-1.87a9.7,9.7,0,0,0,1.012-1.462l.1-.17-.06.01c-.019.06-.019.143-.066.168-.135.089-.28.031-.44-.079-.361.064-.722.124-1.08.193-1.937.39-3.89.894-5.818,1.113-.274.035-.529.1-.8.147a2.882,2.882,0,0,1-.661,1.124c-.684.8-1.68,1.468-2.229,2.115a16.523,16.523,0,0,1-2.718,2.557c-.512.4-.981.751-1.333.979a29.675,29.675,0,0,0,4.116,1.615c.328-.209,1.07-.527,1.995-1.064A21.429,21.429,0,0,0,127.683,209.142Z" transform="translate(3.391 14.206)" fill="#fff" stroke="#80cbc4" stroke-width="1"/>
      <path id="Trazado_11288" data-name="Trazado 11288" d="M119.885,206.256c1.136-.212,2.426-.549,3.844-.927.151-.039.326-.077.481-.116a7.659,7.659,0,0,0-2.461-1.487,24.67,24.67,0,0,0-3.564-.539c-.608-.066-1.157-.118-1.572-.207a7.391,7.391,0,0,0-2,3.751.166.166,0,0,0,0,.031c.45-.052,1.192-.1,2.246-.174C117.712,206.524,118.749,206.439,119.885,206.256Z" transform="translate(0.5 13.644)" fill="#fff" stroke="#80cbc4" stroke-width="1"/>
      <path id="Trazado_11289" data-name="Trazado 11289" d="M123.138,207.266c.881-.877,1.812-1.837,2.418-2.548.112-.122.205-.236.3-.35-.1.021-.2.035-.3.058a.325.325,0,0,1-.23.041c-.925.207-1.818.429-2.675.626a20.56,20.56,0,0,1-4.462.649,19.775,19.775,0,0,1-3.562-.156,3.2,3.2,0,0,0,.541,1.86,7.127,7.127,0,0,0,1.914,1.727A24.4,24.4,0,0,0,119.5,210.6a4.557,4.557,0,0,1,.863-1.016C121.116,208.864,122.234,208.074,123.138,207.266Z" transform="translate(0.513 15.133)" fill="#fff" stroke="#80cbc4" stroke-width="1"/>
      <path id="Trazado_11290" data-name="Trazado 11290" d="M131.857,216.079l-.025.11c.021-.006.058-.008.064-.019S131.869,216.11,131.857,216.079Z" transform="translate(18.983 27.705)" fill="#404040" stroke="#80cbc4" stroke-width="1"/>
      <path id="Trazado_11291" data-name="Trazado 11291" d="M136.38,220.783c-.089.156.2.591,1.08.885a5.074,5.074,0,0,0,3.994-.8,19.654,19.654,0,0,0,2.472-1.777,12.849,12.849,0,0,1,2.863-1.831,9.029,9.029,0,0,1,3.622-.84,10.393,10.393,0,0,1,4.016.85,11.4,11.4,0,0,1,6.111,6.571,17.915,17.915,0,0,1,.856,10.282,29.2,29.2,0,0,1-4.765,10.3,22.477,22.477,0,0,1-8.877,7.245c-3.365,1.352-7.479.91-11-.446a18.583,18.583,0,0,1-4.883-2.745,14.43,14.43,0,0,1-3.519-4.058,25.893,25.893,0,0,1-3.268-10.052,23.449,23.449,0,0,1,.661-9.453,10.747,10.747,0,0,1,4.336-6.171,10.152,10.152,0,0,1,5.756-1.381,17.973,17.973,0,0,1,2.326.236c.711.126,1.275.207,1.752.317.344.077.624.122.869.158,0-.176.014-.359.033-.562-.336-.168-.757-.357-1.319-.587a14.146,14.146,0,0,0-6.463-.879,10.034,10.034,0,0,0-4.381,1.58,11.225,11.225,0,0,0-3.577,3.964,21.419,21.419,0,0,0-2.163,11.618,27.8,27.8,0,0,0,3.658,12.246,16.291,16.291,0,0,0,4.354,4.85,20.819,20.819,0,0,0,5.609,2.932,17.246,17.246,0,0,0,11.485.28,23.052,23.052,0,0,0,7.67-5.372,29.4,29.4,0,0,0,4.935-6.99c.124-.245.234-.506.352-.755-.174-.558-.338-1.116-.477-1.678l1.24-2.762c.087.632.2,1.259.336,1.874.122-.321.257-.634.371-.962a19.427,19.427,0,0,0-.156-13.965c-.1.448-.185.9-.255,1.356l-1.493-2.671c.029-.122.05-.251.083-.373.089-.344.2-.682.311-1.022a13.931,13.931,0,0,0-1.518-1.968,12.045,12.045,0,0,0-4.037-2.857,17.448,17.448,0,0,0-2.248-.755,10.773,10.773,0,0,0-2.362-.311,10.625,10.625,0,0,0-4.414.892,12.193,12.193,0,0,0-2.04,1.145C144.128,217.189,136.5,220.555,136.38,220.783Z" transform="translate(9.346 25.797)" fill="none" stroke="#80cbc4" stroke-width="1"/>
      <path id="Trazado_11292" data-name="Trazado 11292" d="M160.138,231.753c-.176.023-.332.033-.5.052-.019.274-.037.518-.05.738.236.087.458.172.684.257a7.908,7.908,0,0,0,.214-.807,13.887,13.887,0,0,0,.085-4.858,20.142,20.142,0,0,0-2.27-6.548,43.35,43.35,0,0,0-4.452-6.517c-3.369-4.147-6.948-8.022-9.109-11.3-2.223-3.241-3.065-5.756-3.264-5.725-.23.027-.081,1.109.589,2.731a27.451,27.451,0,0,0,3.452,5.827c1.568,2.1,3.444,4.226,5.148,6.169s3.237,3.736,4.24,5.074a27.112,27.112,0,0,1,2.919,4.842,20.207,20.207,0,0,1,1.7,5.59,19.2,19.2,0,0,1,.168,3.4c.172-.039.315-.066.5-.11Z" transform="translate(29.228 7.27)" fill="none" stroke="#80cbc4" stroke-width="1"/>
      <path id="Trazado_11293" data-name="Trazado 11293" d="M161.988,238.775c-.1.019-.211.039-.309.056l-.027-1.3c.118-.031.218-.056.336-.085l.147-.037a17.7,17.7,0,0,0-.493-5.192,27.343,27.343,0,0,0-3.8-8.358c-1.818-2.826-4.072-5.586-6.268-8.34a69.994,69.994,0,0,1-5.97-8.342,25.731,25.731,0,0,1-3.187-8.194,27.167,27.167,0,0,1-.473-6.268c.062-1.528.255-2.391.16-2.438-.193-.124-.788,1.232-.939,3.575a22.938,22.938,0,0,0,1.24,8.943,35.05,35.05,0,0,0,5.3,9.329c2.092,2.762,4.155,5.132,5.551,6.878a50.994,50.994,0,0,1,4.334,6.194,23.624,23.624,0,0,1,3.49,15.076c.17.064.336.126.5.191A9.105,9.105,0,0,0,161.988,238.775Z" transform="translate(28.954 0)" fill="none" stroke="#80cbc4" stroke-width="1"/>
      <path id="Trazado_11294" data-name="Trazado 11294" d="M136.327,224.521a30.572,30.572,0,0,0-2.287,4.584,14.923,14.923,0,0,0-1.2,5.922c.035.483.126.784.265.778.187.006.313-.508.5-1.358a32.43,32.43,0,0,1,1.412-4.945,39.581,39.581,0,0,1,2.936-5.945c1.236-2.107,2.683-4.3,4.068-6.558a66.335,66.335,0,0,0,3.826-6.809,65.454,65.454,0,0,0,2.631-6.3c1.346-3.763,1.968-6.364,1.818-6.444-.448-.232-1.773,3.888-3.757,8.653a75.133,75.133,0,0,1-3.411,7.168c-1.259,2.235-2.461,4.253-3.324,5.677-.205.338-.425.688-.655,1.049-.2.348-.394.713-.6,1.051C137.8,222.265,137.053,223.411,136.327,224.521Z" transform="translate(20.053 7.69)" fill="none" stroke="#80cbc4" stroke-width="1"/>
      <path id="Trazado_11295" data-name="Trazado 11295" d="M148.9,195.939c.017.663.048,1.356.089,2.086a39.894,39.894,0,0,1,.06,5.082,29.407,29.407,0,0,1-1.068,5.408,55.089,55.089,0,0,1-1.754,5.252c-1.3,3.347-2.735,6.3-3.753,8.394a57.039,57.039,0,0,1-3.821,6.9c-1.551,2.351-3.274,4.686-4.582,6.994a19.483,19.483,0,0,0-2.434,6.312c-.052.323-.077.6-.1.875-.019.2-.029.386-.033.562a4.239,4.239,0,0,0,.073,1.091c.046.168.1.28.166.28.106.006.187-.226.29-.651.046-.189.1-.429.158-.693l.025-.11q.1-.454.245-1.031a24.509,24.509,0,0,1,2.5-6.065c.78-1.4,1.756-2.895,2.793-4.479.726-1.109,1.476-2.256,2.227-3.479.207-.338.4-.7.6-1.051.245-.421.493-.825.728-1.271l1.219-2.409c.817-1.615,1.653-3.264,2.453-4.937a63.768,63.768,0,0,0,3.985-10.193,32.622,32.622,0,0,0,1.053-5,26.988,26.988,0,0,0,0-4.58,63.778,63.778,0,0,1-.348-6.646c.031-1.037.116-1.748.147-2.156a1.714,1.714,0,0,1-.263-.1,10.155,10.155,0,0,0-.645,3.452c-.012.218,0,.477-.006.709.027-.025.058-.081.083-.077C149.144,194.431,149.157,195.047,148.9,195.939Z" transform="translate(18.626 0.064)" fill="none" stroke="#80cbc4" stroke-width="1"/>
      <path id="Trazado_11296" data-name="Trazado 11296" d="M127.994,203.18c-1.827.357-3.523.8-5.142,1.024a27.723,27.723,0,0,0-3.04.558c.313.371.444.7.3.908-.037.05-.085.052-.126.079.1-.023.2-.037.3-.058.448-.537.746-.952,1.08-.931.257.019.3.313.191.695.27-.046.525-.112.8-.147,1.928-.22,3.882-.724,5.818-1.113.359-.068.72-.129,1.08-.193-.236-.162-.547-.479-.991-.867Z" transform="translate(6.08 13.809)" fill="none" stroke="#80cbc4" stroke-width="1"/>
      <path id="Trazado_11297" data-name="Trazado 11297" d="M143.891,202.639a30.189,30.189,0,0,1-9.8,5.256c-.382.129-.769.224-1.155.338.172.357.226.643.085.734-.209.158-.51-.079-.945-.481-2.53.693-5.1,1.161-7.626,1.588a1.309,1.309,0,0,1,.33.975l.06-.01c.162-.292.284-.523.452-.539.149-.021.257.145.3.406,1.153-.2,2.3-.408,3.394-.657,1.553-.33,3-.736,4.354-1.167.185-.245.352-.408.5-.373.075.017.093.108.126.178a34.705,34.705,0,0,0,11.344-6.229,57.015,57.015,0,0,0,6.264-6.173c-.321.027-.817.046-1.46.035A50.353,50.353,0,0,1,143.891,202.639Z" transform="translate(11.061 6.672)" fill="none" stroke="#80cbc4" stroke-width="1"/>
      <path id="Trazado_11298" data-name="Trazado 11298" d="M118.2,206.074a20.56,20.56,0,0,0,4.462-.649c.856-.2,1.75-.419,2.675-.626a3.547,3.547,0,0,1-1.122-.738l-.006,0c-.156.039-.33.077-.481.116-1.418.377-2.708.715-3.844.927-1.136.182-2.173.267-3.023.332-1.053.071-1.8.122-2.246.174a2.654,2.654,0,0,0,.023.313A19.773,19.773,0,0,0,118.2,206.074Z" transform="translate(0.5 14.8)" fill="#404040" stroke="#80cbc4" stroke-width="1"/>
      <path id="Trazado_11299" data-name="Trazado 11299" d="M137.973,200.227c.035-.035.228.039.448.3.012.014.021.041.033.056a25.639,25.639,0,0,0,3.973-5.323,7.615,7.615,0,0,0,.566-1.441c.257-.892.245-1.507.089-1.524-.025,0-.056.052-.083.077-.2.18-.481,1.06-1.261,2.326a35.8,35.8,0,0,1-4.336,5.472c-.131.143-.27.3-.4.448.518.054.919.1,1.178.143C138.048,200.451,137.917,200.264,137.973,200.227Z" transform="translate(24.532 2.179)" fill="none" stroke="#80cbc4" stroke-width="1"/>
      <path id="Trazado_11300" data-name="Trazado 11300" d="M125.724,202.958c-1.619,1.118-3.191,2.3-4.713,3.5a38.022,38.022,0,0,0-4.342,3.782,8.412,8.412,0,0,0-2.515,4.893,4.1,4.1,0,0,0,.749,2.559,6.988,6.988,0,0,0,1.843,1.744,28.011,28.011,0,0,0,7.786,3.647,30.805,30.805,0,0,0,16.347.6,27.929,27.929,0,0,0,8.244-3.371,34.241,34.241,0,0,0,6.6-5.505,32.454,32.454,0,0,0,4.659-6.167,35.41,35.41,0,0,0,2.494-5.712,9.913,9.913,0,0,0,.608-4.319,2.606,2.606,0,0,0-.5-1.228c-.012-.015-.021-.041-.033-.056-.22-.265-.413-.34-.448-.3-.056.037.075.224.205.539-.259-.044-.659-.089-1.178-.143l-.5-.054c-1.375-.143-3.357-.485-5.81-.983a41.792,41.792,0,0,0-8.758-1.091,29.513,29.513,0,0,0-10.577,1.937A56.416,56.416,0,0,0,125.724,202.958Zm12.791-5.524a29.808,29.808,0,0,1,5.4-1.057c5.663-.605,10.353.742,13.741,1.138a28.027,28.027,0,0,0,3.527.29c.643.01,1.138-.008,1.46-.035l.147-.015a2.6,2.6,0,0,1,.139.751,10.121,10.121,0,0,1-.759,3.8,40.081,40.081,0,0,1-2.484,5.459,31.573,31.573,0,0,1-4.614,6.187,33.672,33.672,0,0,1-6.99,5.824c-.193.12-.408.212-.608.326-.707.784-1.265,1.23-1.468,1.033-.035-.031-.019-.126.035-.265q-1.169.554-2.426,1.012a29.375,29.375,0,0,1-4.993,1.339,30.621,30.621,0,0,1-3.318.359c-.583.419-1.01.6-1.151.411-.037-.05.044-.193.172-.375a27.739,27.739,0,0,1-6.455-.543c-.664-.141-1.325-.321-1.986-.5-.722.176-1.225.143-1.25-.108-.008-.052.064-.116.182-.193a29.678,29.678,0,0,1-4.116-1.615l-.012.008c-.357.224-.6.355-.8.226-.085-.058-.029-.267.133-.541a24.4,24.4,0,0,1-2.424-1.424,7.127,7.127,0,0,1-1.914-1.727,3.2,3.2,0,0,1-.541-1.86,2.654,2.654,0,0,1-.023-.313.167.167,0,0,1,0-.031,7.391,7.391,0,0,1,2-3.751c-.452-.1-.74-.234-.732-.483,0-.178.605-.313,1.505-.336a22.066,22.066,0,0,1,1.852-1.651l1.906-1.52c-.535-.041-.892-.025-.97-.236-.027-.077.22-.294.726-.427a4.613,4.613,0,0,1,1.267-.106c1.2-.921,2.409-1.827,3.629-2.664.452-.311.906-.6,1.36-.9-.545-.091-.894-.164-.906-.365-.025-.143.757-.375,1.966-.328a57.954,57.954,0,0,1,6.434-3.564c.591-.27,1.192-.494,1.789-.711-.2-.081-.3-.172-.3-.288S137.369,197.374,138.515,197.435Z" transform="translate(0 5.386)" fill="none" stroke="#80cbc4" stroke-width="1"/>
      <path id="Trazado_11301" data-name="Trazado 11301" d="M137.727,203.265c.487-1.578.421-2.926-.039-2.88-.419.029-.549,1.151-1,2.677a21.145,21.145,0,0,1-2.405,5.26c-1.116,1.812-2.432,3.544-3.376,4.9a13.732,13.732,0,0,0-1.352,2.177c-.054.139-.07.234-.035.265.2.2.761-.249,1.468-1.033a34.506,34.506,0,0,0,4.62-6.882A25.711,25.711,0,0,0,137.727,203.265Z" transform="translate(16.482 10.856)" fill="none" stroke="#80cbc4" stroke-width="1"/>
      <path id="Trazado_11302" data-name="Trazado 11302" d="M130.957,209.254c.732-1.044,1.843-2.367,2.81-3.943-.08.137,0,0,.074-.13.693-1.192,1.014-2.241.838-2.621-.033-.07-.052-.162-.126-.178-.151-.035-.319.129-.5.373a22.318,22.318,0,0,0-1.169,1.991,35.824,35.824,0,0,1-3.32,4.927c-2.268,2.841-4.92,5.387-5.588,6.328-.129.182-.209.326-.172.375.141.189.568.008,1.151-.411a17.8,17.8,0,0,0,2.132-1.908A35.135,35.135,0,0,0,130.957,209.254Z" transform="translate(10.351 12.997)" fill="none" stroke="#80cbc4" stroke-width="1"/>
      <path id="Trazado_11303" data-name="Trazado 11303" d="M127.007,209.235c.8-1.016,2.252-2.042,3.241-3.239a4.243,4.243,0,0,0,.966-1.818,1.626,1.626,0,0,0,.01-.527c-.039-.261-.147-.427-.3-.406-.168.017-.29.247-.452.539l-.1.17a9.7,9.7,0,0,1-1.012,1.462c-.462.564-1.051,1.19-1.7,1.87-.323.34-.67.693-1.014,1.082-.328.369-.647.709-1,1.053a21.429,21.429,0,0,1-4.265,3.241c-.925.537-1.667.854-1.995,1.064-.118.077-.191.141-.182.193.025.251.529.284,1.25.108a8.217,8.217,0,0,0,2.318-1.01A17.518,17.518,0,0,0,127.007,209.235Z" transform="translate(5.427 13.926)" fill="none" stroke="#80cbc4" stroke-width="1"/>
      <path id="Trazado_11304" data-name="Trazado 11304" d="M121.8,207.852c.549-.647,1.545-1.317,2.229-2.115a2.882,2.882,0,0,0,.661-1.124c.11-.382.066-.676-.191-.695-.334-.021-.632.394-1.08.931-.1.114-.189.228-.3.35-.605.711-1.536,1.671-2.418,2.548-.9.809-2.022,1.6-2.77,2.316a4.558,4.558,0,0,0-.863,1.016c-.162.274-.218.483-.133.541.2.129.444,0,.8-.226l.012-.008c.352-.228.821-.576,1.333-.979A16.523,16.523,0,0,0,121.8,207.852Z" transform="translate(2.95 14.65)" fill="none" stroke="#80cbc4" stroke-width="1"/>
      <path id="Trazado_11305" data-name="Trazado 11305" d="M125.294,196.84c.605.247,2.059.382,3.691.846a61.777,61.777,0,0,1,6.009,2.084,16.581,16.581,0,0,1,4.22,2.754c1.211,1.041,1.856,1.976,2.235,1.661.3-.234-.226-1.358-1.619-2.517a22.934,22.934,0,0,0-5.634-3.181,25.874,25.874,0,0,0-6.167-2.036,11.285,11.285,0,0,0-1.157-.12c-1.147-.06-1.874.1-1.877.222S125.1,196.759,125.294,196.84Z" transform="translate(11.644 6.491)" fill="none" stroke="#80cbc4" stroke-width="1"/>
      <path id="Trazado_11306" data-name="Trazado 11306" d="M124.428,200.026c2.273.61,4.835,1.694,6.276,2.233a19.187,19.187,0,0,1,4.533,2.716c.593.46,1.026.885,1.379,1.211.435.4.736.639.945.481.141-.091.087-.377-.085-.734a5.408,5.408,0,0,0-1.655-1.839,28.469,28.469,0,0,0-5.965-3.133,26.434,26.434,0,0,0-6.434-2.19,9.156,9.156,0,0,0-1.232-.137c-1.209-.048-1.991.185-1.966.328.012.2.361.274.906.365l.359.06A25.807,25.807,0,0,1,124.428,200.026Z" transform="translate(6.523 8.972)" fill="none" stroke="#80cbc4" stroke-width="1"/>
      <path id="Trazado_11307" data-name="Trazado 11307" d="M120.92,201.926c.968.247,2.015.578,2.988.869.97.307,1.889.483,2.521.637a12.042,12.042,0,0,1,4.037,1.92c.2.141.346.278.5.413.444.388.755.7.991.867.16.11.3.168.44.079.048-.025.048-.108.066-.168a1.309,1.309,0,0,0-.33-.975,4.19,4.19,0,0,0-1.143-1.134,18.06,18.06,0,0,0-5.4-2.123,35.025,35.025,0,0,0-5.522-1.578,6.483,6.483,0,0,0-.782-.046,4.612,4.612,0,0,0-1.267.106c-.506.133-.753.35-.726.427.079.211.435.195.97.236l.164.01A15.094,15.094,0,0,1,120.92,201.926Z" transform="translate(3.377 11.179)" fill="none" stroke="#80cbc4" stroke-width="1"/>
      <path id="Trazado_11308" data-name="Trazado 11308" d="M121.093,204.152a7.659,7.659,0,0,1,2.461,1.487l.006,0a3.547,3.547,0,0,0,1.122.738.325.325,0,0,0,.23-.041c.041-.027.089-.029.126-.079.141-.205.01-.537-.3-.908a4.065,4.065,0,0,0-.7-.651,10.763,10.763,0,0,0-3.392-1.58,13.014,13.014,0,0,0-3.917-.535c-.9.023-1.507.158-1.505.336-.008.249.28.388.732.483.415.089.964.141,1.572.207A24.671,24.671,0,0,1,121.093,204.152Z" transform="translate(1.156 13.218)" fill="none" stroke="#80cbc4" stroke-width="1"/>
      <path id="Trazado_11309" data-name="Trazado 11309" d="M141.031,222.76l1.493,2.671c.071-.458.16-.908.255-1.356a18.914,18.914,0,0,1,.473-1.837,10.551,10.551,0,0,1,2.175-3.956,8,8,0,0,1,3.515-2.21,13.564,13.564,0,0,1,7.809.207c2.438.674,4.661,1.534,6.629,2.09a19.146,19.146,0,0,0,4.871.871c1.2.017,1.868-.18,1.879-.411.015-.415-2.273-.628-5.847-2-.8-.286-1.669-.632-2.606-1-.164-.064-.33-.126-.5-.191s-.355-.135-.533-.2c-.226-.085-.448-.17-.684-.257-.639-.234-1.3-.469-2.009-.7.178.019.369.031.574.035a11.632,11.632,0,0,0,1.485-.077c.168-.019.323-.029.5-.052l.054-1.188c-.185.044-.328.07-.5.11a15.863,15.863,0,0,1-2.258.39,12.548,12.548,0,0,0-1.536.066c-.052.066.012.172.182.286a18.242,18.242,0,0,0-3-.541,12.751,12.751,0,0,0-5,.483,10,10,0,0,0-4.711,3.044,12.5,12.5,0,0,0-2.316,4.317c-.11.34-.222.678-.311,1.022C141.081,222.51,141.06,222.638,141.031,222.76Z" transform="translate(28.858 24.626)" fill="none" stroke="#80cbc4" stroke-width="1"/>
      <path id="Trazado_11310" data-name="Trazado 11310" d="M161.77,213.453l.027,1.3c.1-.017.207-.037.309-.056a20.758,20.758,0,0,1,3.143-.421,11.51,11.51,0,0,1,4.4.614,8.494,8.494,0,0,1,3.919,3c2.115,2.895,3.069,7.052,3.564,11.218a32.812,32.812,0,0,1-1.458,12.918,20.429,20.429,0,0,1-2.957,5.814,14.307,14.307,0,0,1-4.833,4.068,19.883,19.883,0,0,1-11.543,2.134,14.34,14.34,0,0,1-4.939-1.5,14.971,14.971,0,0,1-3.585-2.708,20.937,20.937,0,0,1-5.229-10.287c-.133-.616-.249-1.242-.336-1.874l-1.24,2.762c.139.562.3,1.12.477,1.678a24.708,24.708,0,0,0,2.625,5.729,18.634,18.634,0,0,0,4.794,5.184,15,15,0,0,0,3.189,1.785,17.568,17.568,0,0,0,3.492.96,21.588,21.588,0,0,0,13.718-2.4,16.051,16.051,0,0,0,5.277-4.663,22.323,22.323,0,0,0,3.031-6,34.058,34.058,0,0,0,1.665-12.281c-.048-1-.135-1.955-.28-2.942-.16-.95-.334-1.854-.539-2.762a25.743,25.743,0,0,0-1.7-5.161,13.174,13.174,0,0,0-3.015-4.244,9.827,9.827,0,0,0-4.232-2.266,13.971,13.971,0,0,0-5.88-.062c-.5.108-.946.226-1.379.338l-.147.037C161.987,213.4,161.888,213.422,161.77,213.453Z" transform="translate(28.836 24.08)" fill="none" stroke="#80cbc4" stroke-width="1"/>
    </g>
  </g>
</svg>
