<svg xmlns="http://www.w3.org/2000/svg" width="117.782" height="120.987" viewBox="0 0 117.782 120.987">
  <g id="Grupo_5362" data-name="Grupo 5362" transform="translate(-302.399 -411.785)">
    <path id="Trazado_11319" data-name="Trazado 11319" d="M346.166,466.488l1.6,1.534a6.27,6.27,0,0,0,1.619,1.128,3.182,3.182,0,0,0,3.425-.515,17.8,17.8,0,0,0,3.039-3.134l2.936-3.546a14.1,14.1,0,0,0,2.282-3.634,2.911,2.911,0,0,0-.591-3.325,8.323,8.323,0,0,0-1.632-1.212c-.623-.4-1.233-.774-1.851-1.146-1.241-.731-2.493-1.415-3.731-2.076l-7.193-3.7c-2.26-1.167-4.457-2.184-6.448-3.2a53.531,53.531,0,0,1-5.281-3.034,43.626,43.626,0,0,0-3.9-2.493,7.9,7.9,0,0,0-2.818-.974l-.026,0c.2.251.269.4.2.433-.032.018-.166-.063-.4-.23a2.968,2.968,0,0,0-.473,2.028,12.31,12.31,0,0,0,1.212,4.067A60.7,60.7,0,0,0,335,454.275c.766,1,1.566,2.015,2.414,3.029.821.993,1.782,1.986,2.72,3.01C342.033,462.348,344.046,464.423,346.166,466.488Z" transform="translate(39.405 40.806)" fill="none" stroke="#80cbc4" stroke-width="1"/>
    <path id="Trazado_11320" data-name="Trazado 11320" d="M337.424,432.118c-1.022,1.994-1.933,4.119-2.952,6.411-.512,1.138-1.051,2.3-1.666,3.462l-.457.861a7.321,7.321,0,0,1-.573.924c-.4.573-.832,1.088-1.257,1.611-.853,1.03-1.74,2.054-2.53,3.1a5.489,5.489,0,0,0-.454.692,1.381,1.381,0,0,0-.145.388c0,.056-.029.166.024.174l.206-.042a9.409,9.409,0,0,0,1.1-.33c.845-.3,1.687-.652,2.532-1.022,1.677-.742,3.346-1.576,5.049-2.392.856-.407,1.693-.8,2.6-1.191l2.633-1q2.59-1,5.11-2.089l2.485-1.1,1.236-.565c.441-.193.864-.357,1.283-.52,1.685-.642,3.314-1.223,4.806-1.957a9.2,9.2,0,0,0,3.649-2.8,5.189,5.189,0,0,0,.517-4.056,10.265,10.265,0,0,0-1.906-3.662,19.445,19.445,0,0,0-2.7-2.8,26.991,26.991,0,0,0-5.382-3.562,19.1,19.1,0,0,0-1.743-.787c.142.124.193.222.151.251a6.312,6.312,0,0,1-.834-.245,3.367,3.367,0,0,0-2.218.2c-1.867.776-3.879,3.269-5.735,6.535C339.309,428.249,338.4,430.106,337.424,432.118Z" transform="translate(40.164 12.272)" fill="none" stroke="#80cbc4" stroke-width="1"/>
    <path id="Trazado_11321" data-name="Trazado 11321" d="M342,442.819a26.5,26.5,0,0,0,2.448-3.433,4.033,4.033,0,0,0,.544-1.458.91.91,0,0,0-.066-.5,1.559,1.559,0,0,1,.042.518c-.032.309-.116.446-.177.417-.037-.013-.042-.156-.09-.385a1.458,1.458,0,0,0-.409-.805c-.544-.539-2.049-.5-3.784-.077a34.461,34.461,0,0,0-6.221,1.92,80.956,80.956,0,0,0-7.52,3.721c-2.693,1.46-5.654,3.113-8.822,4.51-1.6.776-3.229,1.447-4.8,2.258a12.926,12.926,0,0,0-4.14,2.976c-1.006,1.141-.9,2.913-.43,4.587a18.027,18.027,0,0,0,2.414,4.837c.518.766,1.072,1.505,1.661,2.226.293.362.6.713.9,1.059l.232.256a1.067,1.067,0,0,0,.182.169l.555.488c.713.644,1.4,1.275,2.1,1.869.351.293.708.581,1.062.832a3.69,3.69,0,0,0,.9.51l.053.008.032.01c.966.322,2.031-.454,2.957-1.481.462-.5.922-1.069,1.4-1.613.438-.533.882-1.083,1.3-1.64,1.7-2.221,3.214-4.531,4.787-6.686,3.148-4.368,6.67-7.737,9.337-10.827C339.826,445.568,340.961,444.094,342,442.819Z" transform="translate(8.752 40.165)" fill="none" stroke="#80cbc4" stroke-width="1"/>
    <path id="Trazado_11322" data-name="Trazado 11322" d="M320.355,420.223a8.728,8.728,0,0,0-2.276.99,16.93,16.93,0,0,0-2.181,1.455,18.466,18.466,0,0,0-3.615,3.831,27.083,27.083,0,0,0-2.651,4.666,24,24,0,0,0-1.883,4.938,4.741,4.741,0,0,0,.919,4.368,11.54,11.54,0,0,0,4.133,2.561c3.119,1.252,6.43,1.867,9.485,2.934a69.4,69.4,0,0,1,8.27,3.565c2.482,1.228,4.714,2.493,6.683,3.483,2.046,1.006,3.692,2.031,5.168,2.667A10.925,10.925,0,0,0,346,456.7c.586.042.985.024,1.212.04a3.691,3.691,0,0,0-.151-.687,12.911,12.911,0,0,0-1.732-3.219c-.885-1.349-2.157-2.823-3.438-4.774-1.244-1.907-2.583-4.085-4.024-6.47A161.246,161.246,0,0,0,327.5,425.8a44.441,44.441,0,0,0-3.145-4.1A3.949,3.949,0,0,0,320.355,420.223Z" transform="translate(7.69 12.812)" fill="none" stroke="#80cbc4" stroke-width="1"/>
    <path id="Trazado_11323" data-name="Trazado 11323" d="M369.69,531.68a57.56,57.56,0,0,0,23.919-9.2,59.608,59.608,0,0,0,24.1-33.3,53.11,53.11,0,0,0,1.962-12.361c.071-2.958-.166-4.581-.425-4.616-.243-.026-.412,1.4-.771,4.056a74.1,74.1,0,0,1-2.374,11.31,62.1,62.1,0,0,1-7.444,16.171,58.916,58.916,0,0,1-15.947,16.411,55.261,55.261,0,0,1-54.471,4.838,56.846,56.846,0,0,1-23.921-20.834,59.106,59.106,0,0,1-.533-62.918,56.747,56.747,0,0,1,23.562-21.215,54.822,54.822,0,0,1,54.431,4.082,57.865,57.865,0,0,1,16.013,16.282,59.863,59.863,0,0,1,7.412,16.163,65.815,65.815,0,0,1,2.189,11.394,39,39,0,0,0,.452,4.249c.246.187.57-2.023.351-6.166a55.688,55.688,0,0,0-3.942-17.254,59.011,59.011,0,0,0-15.015-21.592,56.719,56.719,0,0,0-62.868-9.305,58.959,58.959,0,0,0-25.226,23.383A61.2,61.2,0,0,0,321.4,515.813a58.256,58.256,0,0,0,21.917,13.443A57.563,57.563,0,0,0,369.69,531.68Z" transform="translate(0 0)" fill="none" stroke="#80cbc4" stroke-width="1"/>
    <path id="Trazado_11324" data-name="Trazado 11324" d="M413.369,466.088c.219,2.577.23,3.993.3,4.059.111.177.325-1.928.032-5.844a54.162,54.162,0,0,0-3.95-16.258,55.722,55.722,0,0,0-14.354-20.24,54.275,54.275,0,0,0-59.385-8.735A55.769,55.769,0,0,0,312,440.945a56.982,56.982,0,0,0,9.723,70.375,54.555,54.555,0,0,0,68.181,5.875,56.089,56.089,0,0,0,22.649-31.146,52.931,52.931,0,0,0,1.957-11.566c.127-2.767-.016-4.3-.14-4.328a23.249,23.249,0,0,0-.446,3.839,62.013,62.013,0,0,1-2.039,10.758,57.084,57.084,0,0,1-6.979,15.44,55.766,55.766,0,0,1-15.221,15.685,53.557,53.557,0,0,1-52.308,4.782,54.664,54.664,0,0,1-23.179-19.831,56.054,56.054,0,0,1-.547-60.425,54.628,54.628,0,0,1,22.831-20.248,53.319,53.319,0,0,1,52.406,3.982,55.2,55.2,0,0,1,15.411,15.574,56.242,56.242,0,0,1,7.079,15.482A58.968,58.968,0,0,1,413.369,466.088Z" transform="translate(1.866 2.647)" fill="none" stroke="#80cbc4" stroke-width="1"/>
    <path id="Trazado_11325" data-name="Trazado 11325" d="M348.771,466.2q1.612,1.6,3.251,3.113a5.15,5.15,0,0,0,4.135,1.574,6.824,6.824,0,0,0,3.594-2.213c.94-.977,1.735-2.007,2.5-2.968a43.1,43.1,0,0,0,3.969-5.236,6.6,6.6,0,0,0,1.014-3.074,3.93,3.93,0,0,0-1.516-3.079,56.337,56.337,0,0,0-6.208-3.882c-2.178-1.207-4.42-2.363-6.6-3.5-2.157-1.188-4.357-2.263-6.4-3.272s-3.937-1.994-5.582-3c-1.629-.967-3.076-2.01-4.457-2.691a7.867,7.867,0,0,0-3.639-1.027c-.988.026-1.5.393-1.452.5.021.077.235.058.584.058a2.555,2.555,0,0,0-.578.967,4.939,4.939,0,0,0-.153,2.186,15.547,15.547,0,0,0,1.373,4.383c-.283-.452-.568-.887-.853-1.283a11.734,11.734,0,0,0-2.791-2.931c-.829-.565-1.431-.673-1.481-.557s.362.364.988.951a15.461,15.461,0,0,1,2.279,2.823c1.7,2.622,3.578,6.62,6.089,11.415a54.182,54.182,0,0,0,4.782,7.349c2.047,2.424,4.6,4.465,6.628,7a11.433,11.433,0,0,1,2.234,4.127c.306,1.341-.62,2.643-1.917,3.639a23.655,23.655,0,0,1-4.441,2.551l-2.421,1.146a22.391,22.391,0,0,1-2.4.9,25.311,25.311,0,0,1-5.091.99c-.861.092-1.753.151-2.609.2-.4.029-.911.018-1.37.074l-1.3.129a2.051,2.051,0,0,1-1.767-.43,1.842,1.842,0,0,1-.473-.784,7.124,7.124,0,0,1-.28-1.122c-.285-1.608-.311-3.322-.5-5.033-.581-6.644-.771-12.934-.879-18.307-.026-2.685-.119-5.181-.1-7.344a35.824,35.824,0,0,1,.4-5.579A6.359,6.359,0,0,1,327.2,440.7c.026-.129-.763.013-1.479,1.164a13.1,13.1,0,0,0-1.521,5.347,67.452,67.452,0,0,0-.283,8.228c-.01,3.084.037,6.47.161,9.995s.333,7.193.663,10.858c.206,1.8.227,3.649.6,5.463a6.374,6.374,0,0,0,.425,1.355,2.963,2.963,0,0,0,.953,1.122,3.932,3.932,0,0,0,2.738.4c.882-.124,1.7-.148,2.575-.2.856-.056,1.7-.127,2.519-.222a26.63,26.63,0,0,0,4.7-.943,23.3,23.3,0,0,0,4-1.627c1.215-.578,2.347-1.114,3.343-1.661a17.2,17.2,0,0,0,2.971-1.972,5.081,5.081,0,0,0,1.946-3.269,4.291,4.291,0,0,0-.354-1.994,11.266,11.266,0,0,0-.887-1.833,20.839,20.839,0,0,0-2.5-3.29c-1.846-2.054-3.979-3.895-5.6-5.989a59.161,59.161,0,0,1-4.183-6.623q-.9-1.652-1.679-3.232c-.193-.378-.354-.721-.533-1.085a78.728,78.728,0,0,0,6.734,8.946C344.511,461.859,346.624,464.069,348.771,466.2Zm-8.836-11.555a60.7,60.7,0,0,1-6.855-10.813,12.31,12.31,0,0,1-1.212-4.067,2.969,2.969,0,0,1,.473-2.028c.23.166.364.248.4.23.066-.034-.008-.182-.2-.433l.026,0a7.9,7.9,0,0,1,2.818.974,43.625,43.625,0,0,1,3.9,2.493,53.527,53.527,0,0,0,5.281,3.034c1.991,1.014,4.188,2.031,6.448,3.2l7.193,3.7c1.238.66,2.49,1.344,3.731,2.076.618.372,1.228.745,1.851,1.146a8.323,8.323,0,0,1,1.632,1.212A2.911,2.911,0,0,1,366,458.69a14.1,14.1,0,0,1-2.282,3.634l-2.936,3.546A17.8,17.8,0,0,1,357.746,469a3.182,3.182,0,0,1-3.425.515,6.271,6.271,0,0,1-1.619-1.128l-1.6-1.534c-2.12-2.065-4.133-4.141-6.034-6.174-.937-1.025-1.9-2.017-2.72-3.01C341.5,456.659,340.7,455.643,339.935,454.645Z" transform="translate(34.468 40.436)" fill="none" stroke="#80cbc4" stroke-width="1"/>
    <path id="Trazado_11326" data-name="Trazado 11326" d="M335.835,431.226c-.145-.858-.351-1.732-.409-2.588l-.164-2.654a22.425,22.425,0,0,0-.795-5.316,6.682,6.682,0,0,0-1.273-2.395,4.113,4.113,0,0,0-2.332-1.344,11.164,11.164,0,0,0-5.022.238,25.8,25.8,0,0,0-4.383,1.566c-.673.3-1.323.62-1.946.935s-1.244.581-1.817.906a6.912,6.912,0,0,0-2.752,2.387,4.064,4.064,0,0,0-.129,3.433,16.924,16.924,0,0,0,1.682,3.3c1.347,2.131,2.77,4.349,4.243,6.578,1.45,2.239,3.058,4.434,4.479,6.641,1.439,2.213,2.81,4.407,4.082,6.5l1.843,3.06c.621,1.03,1.128,1.864,1.608,2.825a37.506,37.506,0,0,0,2.9,4.859,9.962,9.962,0,0,0,.763.927,5.435,5.435,0,0,0,.948.842,1.893,1.893,0,0,0,2.213.19,2.176,2.176,0,0,0,.808-1.209c.09-.333.058-.47.005-.5s-.14.074-.283.28a3.085,3.085,0,0,1-.676.779,1.149,1.149,0,0,1-1.452-.119,6.7,6.7,0,0,1-1.331-1.508,41.14,41.14,0,0,1-2.678-4.74l-.747-1.46c-.28-.52-.6-1.006-.887-1.518l-1.922-3.206c-1.363-2.226-2.881-4.613-4.55-7.106-1.7-2.49-3.538-5.012-5.334-7.729l-2.715-4.138a16.3,16.3,0,0,1-2.216-4.27,2.954,2.954,0,0,1,.053-1.975,4.021,4.021,0,0,1,1.413-1.561,13.671,13.671,0,0,1,2.128-1.2l2.347-1.106a25.381,25.381,0,0,1,4.75-1.658,9.532,9.532,0,0,1,4.671-.058c1.286.356,2.078,1.693,2.482,3.187a23.411,23.411,0,0,1,.639,4.735l.14,2.437a19.835,19.835,0,0,0,.351,2.445c.283,1.561.6,3.079.919,4.545.647,2.939,1.291,5.69,1.8,8.247a60.5,60.5,0,0,1,1.378,12.472c.008,3.1.518,4.919.636,4.922.158.024.069-.658.058-1.912-.026-1.114.055-2.709.1-4.663.108.673.222,1.318.351,1.914a10.368,10.368,0,0,0,1.479,3.9,1.778,1.778,0,0,0,1.249.792c.362.018.536-.145.547-.2.005-.071-.129-.047-.375-.116a1.485,1.485,0,0,1-.821-.7,11.086,11.086,0,0,1-1.038-3.544,116.015,116.015,0,0,1-1.122-13.053c-.351-5.514-1.867-11.735-1.592-18.434a19.875,19.875,0,0,1,.79-4.906,4.354,4.354,0,0,1,1.043-1.975,5,5,0,0,1,1.957-1.157,13.992,13.992,0,0,1,5.022-.528,31.762,31.762,0,0,1,5.239.753,38.477,38.477,0,0,1,5.107,1.51,18.949,18.949,0,0,1,4.568,2.3,3.934,3.934,0,0,1,1.595,3.879,14.345,14.345,0,0,1-1.79,4.521l-1.228,2.242c-.393.792-.726,1.553-1.062,2.305l-1.93,4.415c-.634,1.418-1.273,2.78-1.962,4.051l-2.1,3.7a84.613,84.613,0,0,1-7.159,11.014,11.3,11.3,0,0,1-2.569,2.477,2.341,2.341,0,0,1-1.088.351c-.042.045.074.18.4.219a2.538,2.538,0,0,0,1.421-.452,11.58,11.58,0,0,0,2.26-1.967c0,.029-.011.055-.011.085-.087.454.283.314.512.341a21.958,21.958,0,0,0,2.886-.829c.845-.3,1.608-.621,2.379-.961,1.529-.679,2.965-1.4,4.336-2.076s2.667-1.323,3.892-1.846c1.257-.478,2.419-.929,3.459-1.355,1.93-.782,4.024-1.661,6.208-2.619,2.139-1.067,4.518-1.724,6.868-2.738a16.347,16.347,0,0,0,3.383-1.883,5.939,5.939,0,0,0,2.321-3.261,6.954,6.954,0,0,0-.172-3.953,11.7,11.7,0,0,0-1.78-3.319,21.182,21.182,0,0,0-4.893-4.595,23.309,23.309,0,0,0-4.774-2.553c-2.889-1.159-5.02-.948-5-.658,0,.135.726.235,1.917.578a3.833,3.833,0,0,0-1.576.3,9.785,9.785,0,0,0-3.544,2.849,12.6,12.6,0,0,0,1.579-4.579,4.9,4.9,0,0,0-.552-2.8,5.956,5.956,0,0,0-1.9-2.041,22.419,22.419,0,0,0-4.732-2.242,39.935,39.935,0,0,0-4.666-1.347,28.757,28.757,0,0,0-8.123-.776,11.488,11.488,0,0,0-3.541.76,4.96,4.96,0,0,0-2.81,2.641,22.069,22.069,0,0,0-1.273,8.107,70.866,70.866,0,0,0,.578,8.395c.293,2.749.774,5.466.887,7.946.013.4.034.787.053,1.175-.457-2.617-1.064-5.392-1.693-8.268C336.524,434.659,336.159,432.953,335.835,431.226Zm31.291-4.185a3.368,3.368,0,0,1,2.218-.2,6.3,6.3,0,0,0,.834.246c.042-.029-.008-.127-.151-.251a19.113,19.113,0,0,1,1.743.787,26.988,26.988,0,0,1,5.382,3.562,19.445,19.445,0,0,1,2.7,2.8,10.265,10.265,0,0,1,1.907,3.663,5.189,5.189,0,0,1-.518,4.056,9.2,9.2,0,0,1-3.649,2.8c-1.492.734-3.121,1.315-4.806,1.957-.42.164-.842.327-1.283.52l-1.236.565-2.485,1.1q-2.515,1.089-5.11,2.089l-2.633,1c-.906.391-1.743.784-2.6,1.191-1.7.816-3.372,1.65-5.049,2.392-.845.37-1.687.718-2.532,1.022a9.429,9.429,0,0,1-1.1.33l-.206.042c-.053-.008-.026-.119-.024-.174a1.38,1.38,0,0,1,.145-.388,5.491,5.491,0,0,1,.454-.692c.79-1.043,1.677-2.068,2.53-3.1.425-.523.856-1.038,1.257-1.611a7.313,7.313,0,0,0,.573-.924l.457-.861c.615-1.162,1.154-2.324,1.666-3.462,1.019-2.292,1.93-4.418,2.952-6.411.972-2.012,1.886-3.868,2.831-5.511C363.247,430.31,365.259,427.817,367.126,427.041Z" transform="translate(19.028 5.302)" fill="none" stroke="#80cbc4" stroke-width="1"/>
    <path id="Trazado_11327" data-name="Trazado 11327" d="M323.079,419.831a4.87,4.87,0,0,0-2.839.124,17.944,17.944,0,0,0-7.975,6.319,35.685,35.685,0,0,0-3.882,7.33,15.762,15.762,0,0,0-1.072,3.515,5.769,5.769,0,0,0,.623,3.879,7.86,7.86,0,0,0,3.105,2.741,23.83,23.83,0,0,0,3.908,1.677c2.7.919,5.519,1.545,8.1,2.532a73.421,73.421,0,0,1,7.409,3.29c2.332,1.17,4.452,2.316,6.493,3.369,1.991.879,3.715,1.922,5.345,2.556a9.573,9.573,0,0,0,4.146.85,3.248,3.248,0,0,0,1.386-.341c.01.19,0,.3.026.314.1.116.5-.594.087-1.933a18.992,18.992,0,0,0-2.757-5.014c-2.794-3.895-5.928-9.807-9.77-15.986a103.232,103.232,0,0,0-6.359-9.245,37.693,37.693,0,0,0-3.52-4.463A5.828,5.828,0,0,0,323.079,419.831Zm15.384,22.461c1.442,2.385,2.781,4.563,4.024,6.47,1.281,1.951,2.553,3.425,3.438,4.774a12.908,12.908,0,0,1,1.732,3.219,3.693,3.693,0,0,1,.151.686c-.227-.016-.626,0-1.212-.04A10.925,10.925,0,0,1,343,456.38c-1.476-.636-3.121-1.661-5.168-2.667-1.97-.99-4.2-2.255-6.683-3.483a69.4,69.4,0,0,0-8.27-3.565c-3.055-1.067-6.367-1.682-9.485-2.934a11.541,11.541,0,0,1-4.133-2.561,4.741,4.741,0,0,1-.919-4.368,24,24,0,0,1,1.883-4.938,27.086,27.086,0,0,1,2.651-4.666,18.467,18.467,0,0,1,3.615-3.831,16.928,16.928,0,0,1,2.181-1.455,8.729,8.729,0,0,1,2.276-.99,3.949,3.949,0,0,1,4,1.476,44.448,44.448,0,0,1,3.145,4.1A161.249,161.249,0,0,1,338.463,442.292Z" transform="translate(7.092 12.113)" fill="none" stroke="#80cbc4" stroke-width="1"/>
    <path id="Trazado_11328" data-name="Trazado 11328" d="M312.1,449.458l0,0h-.01Z" transform="translate(15.08 60.971)" fill="none" stroke="#80cbc4" stroke-width="1"/>
    <path id="Trazado_11329" data-name="Trazado 11329" d="M355.317,455.561c-.04-1.595-.087-2.947-.945-4.014a1.652,1.652,0,0,0-.858-.51,1.4,1.4,0,0,0-.713.026c-.33.108-.428.24-.415.3s.148.053.4.053a1.245,1.245,0,0,1,1,.415c.565.732.578,1.933.536,3.4a100.266,100.266,0,0,1-1.833,12.123c-1.075,5.128-.219,11.2-.581,17.428a24.99,24.99,0,0,1-.71,4.647,10.719,10.719,0,0,1-.755,2.11,3.015,3.015,0,0,1-1.495,1.228,9.047,9.047,0,0,1-4.544.283,21.386,21.386,0,0,1-4.7-1.31,21.679,21.679,0,0,1-4.323-2.292,8.58,8.58,0,0,1-3.066-3.285,8.345,8.345,0,0,1-.264-4.431,17.145,17.145,0,0,1,1.532-4.352c2.8-5.58,6.992-9.939,9.715-14.407,2.667-4.331,5.112-7.861,7.28-9.77a5.177,5.177,0,0,1,1.529-.98,1.193,1.193,0,0,1,1.088.061c.525.359.687.84.761.805.066,0,.077-.161-.027-.457a1.58,1.58,0,0,0-.985-.988,2.852,2.852,0,0,0-2.245.557c-.2.127-.4.267-.591.42a7.13,7.13,0,0,0,.692-1.685,2.772,2.772,0,0,0,.063-1.1,1.585,1.585,0,0,0-.663-1.056,1.706,1.706,0,0,0-1.244-.246,4.471,4.471,0,0,0-1.595-.222,17.326,17.326,0,0,0-3,.43,23.373,23.373,0,0,0-2.873.708l2.408-.916c.871-.3,1.8-.57,2.6-.869a13.032,13.032,0,0,0,2.189-1,4.532,4.532,0,0,0,.9-.692,1.894,1.894,0,0,0,.576-1.172,1.513,1.513,0,0,0-.383-1.085,1.891,1.891,0,0,0-.491-.4c-.269-.151-.428-.169-.47-.116s.048.156.211.343a1.781,1.781,0,0,1,.518,1.011c.011.578-.512.961-1.043,1.252a12.2,12.2,0,0,1-2,.8c-.768.254-1.627.481-2.572.75-.969.3-1.922.676-2.994,1.046-2.126.761-4.523,1.608-7.156,2.485-2.643.845-5.511,1.822-8.513,2.931-1.5.56-3.037,1.164-4.584,1.856-.763.364-1.54.695-2.332,1.122l-2.263,1.278c-1.463.813-3.076,1.621-4.449,1.357-1.349-.222-2.35-1.73-3.013-3.282-1.323-3.187-1.463-6.942-2.023-10.634a34.765,34.765,0,0,1-.428-5.408,16.064,16.064,0,0,1,.906-5.131A7,7,0,0,1,310,431.262a7.15,7.15,0,0,1,4.605-.658c3.261.494,6.316,1.986,9.205,3.3,2.9,1.384,5.778,2.479,8.371,3.486,2.612,1,5.022,1.893,7.09,2.767,2.157.932,4.1,1.384,5.619,1.938a16.706,16.706,0,0,1,3.383,1.529,10.518,10.518,0,0,0,1.13.747c.129-.04-.259-.673-1.365-1.471a21.379,21.379,0,0,0-5.231-2.387,33.444,33.444,0,0,1-3.641-1.479c-1.326-.57-2.728-1.149-4.217-1.74-2.958-1.2-6.253-2.421-9.543-3.95-3.306-1.5-6.755-3.309-10.618-3.9a8.093,8.093,0,0,0-5.672,1.009,8.368,8.368,0,0,0-3.24,4.587c-1.151,3.544-.816,7.143-.359,10.235.486,3.105.729,5.928,1.275,8.231a17.187,17.187,0,0,0,1.162,3.509,6.515,6.515,0,0,0,2.527,3.045,4.81,4.81,0,0,0,4.13-.111,37.942,37.942,0,0,0,3.784-1.962,61.568,61.568,0,0,1,7.827-3.282c2.659-.948,5.268-1.811,7.779-2.606,1.344-.438,2.633-.882,3.874-1.32-.327.137-.65.264-.98.414-2.693,1.2-5.516,2.757-8.466,4.331-2.936,1.6-6.1,3.016-9.274,4.478a23.625,23.625,0,0,0-4.539,2.654,7.14,7.14,0,0,0-1.78,1.97,4.929,4.929,0,0,0-.578,2.559,11.438,11.438,0,0,0,1.336,4.74,25,25,0,0,0,2.429,3.853,20.786,20.786,0,0,0,2.725,3.074c.953.845,1.835,1.648,2.68,2.324a6.622,6.622,0,0,0,2.144,1.315,3.4,3.4,0,0,0,3.185-1.027,30.582,30.582,0,0,0,2.408-2.633c1.563-1.859,3.008-3.9,4.468-5.928a70.012,70.012,0,0,1,4.558-5.83c1.3-1.479,2.609-2.881,3.876-4.251-.312.475-.615.956-.953,1.426-.911,1.283-1.912,2.58-2.921,3.919a56.054,56.054,0,0,0-5.661,8.68,17.684,17.684,0,0,0-1.677,5,8.864,8.864,0,0,0,.6,5.136,10.454,10.454,0,0,0,3.483,3.483,23,23,0,0,0,4.038,2.107,19.781,19.781,0,0,0,7.468,1.606,7.356,7.356,0,0,0,3.314-.726,3.834,3.834,0,0,0,1.376-1.191,6.245,6.245,0,0,0,.753-1.7,27.843,27.843,0,0,0,1.164-7.6c.2-5.239-.327-10.618.6-15.236A73.208,73.208,0,0,0,355.317,455.561Zm-21.046,14.576c-1.574,2.155-3.089,4.465-4.787,6.686-.422.557-.866,1.106-1.3,1.64-.481.544-.94,1.112-1.4,1.613-.927,1.027-1.991,1.8-2.957,1.481l-.032-.01-.053-.008a3.69,3.69,0,0,1-.9-.51c-.354-.251-.71-.539-1.062-.832-.705-.594-1.392-1.225-2.1-1.87l-.555-.488a1.067,1.067,0,0,1-.182-.169l-.232-.256c-.306-.346-.61-.7-.9-1.059-.589-.721-1.143-1.46-1.661-2.226a18.026,18.026,0,0,1-2.414-4.837c-.47-1.674-.576-3.446.43-4.587a12.924,12.924,0,0,1,4.14-2.976c1.569-.811,3.2-1.481,4.8-2.258,3.169-1.4,6.129-3.05,8.822-4.51a80.951,80.951,0,0,1,7.52-3.721,34.464,34.464,0,0,1,6.221-1.92c1.735-.425,3.24-.462,3.784.077a1.458,1.458,0,0,1,.409.805c.048.23.053.372.09.385.061.029.145-.108.177-.417a1.56,1.56,0,0,0-.042-.517.91.91,0,0,1,.066.5,4.033,4.033,0,0,1-.544,1.458,26.5,26.5,0,0,1-2.448,3.433c-1.043,1.275-2.178,2.749-3.544,4.267C340.941,462.4,337.419,465.769,334.271,470.137Z" transform="translate(3.605 27.942)" fill="none" stroke="#80cbc4" stroke-width="1"/>
    <path id="Trazado_11330" data-name="Trazado 11330" d="M372.053,448.472a9.329,9.329,0,0,0,1.437-5.627,24.525,24.525,0,0,0-.827-5.54,39.535,39.535,0,0,0-1.753-5.242c-.341-.848-.758-1.708-1.13-2.5a5.247,5.247,0,0,0-2.078-2.379,4.878,4.878,0,0,0-3.132-.491,11.731,11.731,0,0,0-2.725.8c-1.685.692-3.185,1.54-4.7,2.194-3.05,1.347-6.174,2.379-9.063,3.676-.716.317-1.442.663-2.107,1.009s-1.31.607-1.986.9c-1.331.56-2.641,1.051-3.913,1.481s-2.509.808-3.694,1.143l-1.735.473-.84.219c-.116.032-.3.079-.454.132l-.423.164a27.321,27.321,0,0,0-5.125,2.849,8.46,8.46,0,0,0-1.666,1.529,2.083,2.083,0,0,0-.449.977,1.08,1.08,0,0,0,.4.982,2.229,2.229,0,0,0,1.067.433c.24.04.372.032.388.011.042-.063-.111-.145-.417-.288a3.925,3.925,0,0,1-.544-.306.772.772,0,0,1-.391-.634c.061-.578.718-1.135,1.434-1.669a21.905,21.905,0,0,1,2.691-1.613,24.628,24.628,0,0,1,3.457-1.532c1.312-.306,2.786-.663,4.275-1.093a51.977,51.977,0,0,0,9.448-3.6c3.179-1.518,6.715-2.643,10.111-4.156,1.711-.747,3.314-1.672,4.985-2.332a9.1,9.1,0,0,1,2.543-.655,3.385,3.385,0,0,1,2.358.6,4.76,4.76,0,0,1,1.447,2c.393.774.737,1.534,1.056,2.3a39.9,39.9,0,0,1,1.566,4.51,19.222,19.222,0,0,1,.8,7.932,6.2,6.2,0,0,1-1.392,3.166,5.114,5.114,0,0,1-3.243,1.629c-2.572.269-5.273-.335-8-.795a37.122,37.122,0,0,0-4.162-.541c-1.376-.114-2.749-.277-4.111-.444-2.712-.338-5.416-.673-7.969-.842l-7.116-.525-3.061-.2c-1.019-.09-1.9-.069-2.68-.114a7.656,7.656,0,0,1-1.867-.28.588.588,0,0,1-.478-.5c-.053-.351.248-.93.1-.977-.055-.069-.486.206-.731.9a1.037,1.037,0,0,0,.544,1.231,5.4,5.4,0,0,0,2.012.584c3.145.259,7.624.7,13.023,1.075,2.7.169,5.569.507,8.664.858,1.537.177,3.169.312,4.772.43,1.159.1,2.366.3,3.594.5-2.664-.2-5.25-.161-7.592-.29l-7.565-.663a85.436,85.436,0,0,0-11.466-.325,11.48,11.48,0,0,0-3.282.578,1.915,1.915,0,0,0-.835.562c-.145.2-.143.343-.127.364.055.069.119-.079.372-.243a3.429,3.429,0,0,1,1.22-.362,29.757,29.757,0,0,1,4.772-.119c4.061.129,9.67.665,15.793,1.289,3.108.306,6.3.129,9.464.438,3.119.306,6.374.908,8.693,2.81a4.39,4.39,0,0,1,1.656,3.744A11.863,11.863,0,0,1,370.3,462c-1.188,2.366-1.714,4.758-2.807,6.374a3.477,3.477,0,0,1-1.035,1.033,2.436,2.436,0,0,1-1.389.494c-1.017-.063-1.909-.85-2.873-1.413-2-1.117-4.148-2.094-6.282-3.185-2.155-1.077-4.228-2.229-6.266-3.512l-6.087-3.306a95.052,95.052,0,0,1-9.427-5.709,12.1,12.1,0,0,1-2.271-1.988,2.314,2.314,0,0,1-.293-.457c-.045-.114-.066-.187-.135-.209-.077-.04-.412.238-.151.887a7.071,7.071,0,0,0,2.017,2.379,59.616,59.616,0,0,0,9.562,6.095c2.044,1.133,4.36,2.284,6.638,3.557a78.74,78.74,0,0,0,7.521,3.972c1.315.631,2.672,1.273,3.985,1.936.626.3,1.223.739,1.909,1.143a6.9,6.9,0,0,0,1.17.584,2.877,2.877,0,0,0,1.579.127,3.8,3.8,0,0,0,1.341-.6,4.324,4.324,0,0,0,1.048-.951,10.162,10.162,0,0,0,1.246-2.216c.325-.745.6-1.492.882-2.2s.584-1.336.935-2.1a13.082,13.082,0,0,0,1.339-4.819,5.51,5.51,0,0,0-.594-2.677,6.368,6.368,0,0,0-1.751-2.023,12.667,12.667,0,0,0-4.426-2.076c-.314-.087-.626-.156-.94-.23a19.633,19.633,0,0,0,2.065.077A6.386,6.386,0,0,0,372.053,448.472Z" transform="translate(37.37 23.517)" fill="none" stroke="#80cbc4" stroke-width="1"/>
  </g>
</svg>
