<svg xmlns="http://www.w3.org/2000/svg" width="140.507" height="108.554" viewBox="0 0 140.507 108.554">
  <g id="Grupo_5349" data-name="Grupo 5349" transform="translate(-109.824 -976.94)">
    <g id="Grupo_5348" data-name="Grupo 5348" transform="matrix(0.848, 0.53, -0.53, 0.848, -77.821, 370.392)">
      <path id="Trazado_11312" data-name="Trazado 11312" d="M535.871,399.3c.18.264.244.5.357.624a.3.3,0,0,0,.163.061c.074.013.132-.025.278-.081.127-.057.346-.1.449-.266a.767.767,0,0,0,.087-.577,2.008,2.008,0,0,0-1.244-1.423,2.2,2.2,0,0,0-1.5-.069,2.251,2.251,0,0,0-.795.463,2.1,2.1,0,0,0-.247.24,3.5,3.5,0,0,0-.244.3c-.282.389-.453.741-.605.966a1.428,1.428,0,0,1-.4.434l-.093.067.025-.024a2.747,2.747,0,0,1-.9.366,7.031,7.031,0,0,0-1.209.431,1.894,1.894,0,0,0-.815.7c-.128.233-.122.4-.048.473a6.058,6.058,0,0,0,.145,1.222,23.475,23.475,0,0,1,.423,3.652,7.424,7.424,0,0,1-.343,2.509,5.469,5.469,0,0,1-1.765,2.286c-1.617,1.408-3.751,2.993-5.135,5.545a12.532,12.532,0,0,0-1.388,4.238,19.641,19.641,0,0,0-.174,2.308c-.025.763-.041,1.541-.038,2.333a40.73,40.73,0,0,0,1.2,9.915c1.676,6.787,5.346,13.386,9.778,19.236q1.667,2.2,3.457,4.284a50.02,50.02,0,0,0,30.169,16.819,35.883,35.883,0,0,0,13.435-.271c3.211-.757,4.858-1.818,4.844-1.919-.044-.38-2.731.919-7.419,1.336a45.316,45.316,0,0,1-17.978-2.289,51.442,51.442,0,0,1-9.922-4.484,49.52,49.52,0,0,1-8.713-6.5,65.448,65.448,0,0,1-6.633-7.432,68.3,68.3,0,0,1-4.626-6.662,42.787,42.787,0,0,1-5.588-14.385,40.38,40.38,0,0,1-.613-7.8c.056.4.118.809.2,1.261a51.57,51.57,0,0,0,2.647,9.5,47.409,47.409,0,0,0,4.459,8.835,18.624,18.624,0,0,0,2.768,3.6c.239-.112-1.561-2.425-3.3-5.467a56.228,56.228,0,0,1-4.161-8.915,46.4,46.4,0,0,1-1.864-7.619c-.312-1.836-.478-3.362-.642-4.029a15.756,15.756,0,0,1,.168-1.579,11.231,11.231,0,0,1,1.161-3.484,18.1,18.1,0,0,1,4.567-5.049,7.906,7.906,0,0,0,2.215-2.743,7.279,7.279,0,0,0,.456-3.079,12.941,12.941,0,0,0-.884-4.028,5.636,5.636,0,0,0-.5-1.01,1.565,1.565,0,0,0,.172-.015l.736-.135c.3-.059.687-.118,1.119-.219a3.315,3.315,0,0,0,1.346-.589l-.024.014a2.45,2.45,0,0,0,.8-.989c.159-.334.264-.626.381-.838a1.068,1.068,0,0,1,.96-.607A1.2,1.2,0,0,1,535.871,399.3Z" transform="translate(0 0)" fill="none" stroke="#80cbc4" stroke-width="2"/>
      <path id="Trazado_11313" data-name="Trazado 11313" d="M580.358,463.755a27.031,27.031,0,0,0-5.232-3.3c-1.944-.969-4.049-1.823-6.186-2.67-1.068-.429-2.145-.851-3.189-1.329a33.806,33.806,0,0,1-3.072-1.616,60.758,60.758,0,0,1-10.612-8.289c-1.514-1.461-2.95-2.852-4.122-4.242a37.821,37.821,0,0,1-2.913-3.972,48.505,48.505,0,0,1-5.766-13.368c-.164-.626-.314-1.254-.439-1.886s-.276-1.311-.459-1.945a38.437,38.437,0,0,0-1.3-3.71,67.612,67.612,0,0,0-3.137-6.632,9.02,9.02,0,0,1-.572-4.543,20.534,20.534,0,0,1,.792-3.79c.638-2.118,1.17-3.352.9-3.485-.2-.146-1.029.863-1.917,2.964a16.868,16.868,0,0,0-1.124,4,9.922,9.922,0,0,0,.632,5.542,71.276,71.276,0,0,1,3.7,7.944c.279.736.543,1.488.768,2.256.243.767.378,1.528.59,2.408a47.083,47.083,0,0,0,1.583,5.1,53.523,53.523,0,0,0,4.955,10.078,37.644,37.644,0,0,0,3.481,4.665c1.316,1.46,2.645,2.786,4.029,4.117a62,62,0,0,0,8.765,7.109,36.457,36.457,0,0,0,4.763,2.647c1.63.732,3.205,1.315,4.713,1.925a46.31,46.31,0,0,1,7.968,3.861,14.417,14.417,0,0,1,4.853,4.741l.05.086.145.137c-.039-.037.034.028.043.052a.369.369,0,0,1,.018.039c-.092.029-.193.056-.305.088a4.788,4.788,0,0,0-.882.314,1.588,1.588,0,0,0-.9,1.106,2.937,2.937,0,0,0,.151,1.223,1.8,1.8,0,0,1,.084.7,4.423,4.423,0,0,0-.038.67.422.422,0,0,0,.088.254c-.258.249-.435.38-.417.43.019.112.326.1.815-.191a2.71,2.71,0,0,0,.778-.732,2.893,2.893,0,0,0,.515-1.4,1.94,1.94,0,0,0,.005-.412c-.015-.039,0-.065.038-.085l.085-.066.165-.144a3.089,3.089,0,0,0,.763-1.055,1.44,1.44,0,0,0-.28-1.561A13.175,13.175,0,0,0,580.358,463.755Z" transform="translate(2.99 0.406)" fill="none" stroke="#80cbc4" stroke-width="2"/>
    </g>
    <g id="Grupo_5146" data-name="Grupo 5146" transform="matrix(0.809, 0.588, -0.588, 0.809, 191.23, 967.886)">
      <path id="Trazado_10997" data-name="Trazado 10997" d="M17.489.818A13.18,13.18,0,0,0,8.142.9,13.865,13.865,0,0,0,1.117,7.078a6.912,6.912,0,0,0-.925,5.164" transform="translate(1.914 17.52)" fill="none" stroke="#80cbc4" stroke-miterlimit="10" stroke-width="2"/>
      <path id="Trazado_10998" data-name="Trazado 10998" d="M2.341,0A4.492,4.492,0,0,0,.428,5.822C1.327,7.576,3.3,8.5,5.2,9.062A11.927,11.927,0,0,0,9.73,9.63a6.029,6.029,0,0,0,4.031-1.961,9.448,9.448,0,0,0,1.224-2.107l1.421-3.019" transform="translate(0 29.674)" fill="none" stroke="#80cbc4" stroke-miterlimit="10" stroke-width="2"/>
      <path id="Trazado_10999" data-name="Trazado 10999" d="M0,7.752c.016-.413.789-.764,1.2-.7A2.975,2.975,0,0,1,2.308,7.6,12.029,12.029,0,0,0,5.8,8.9a10.553,10.553,0,0,0,4.888.462c1.961-.44,3.488-1.945,4.784-3.473,1.441-1.7,2.8-3.668,2.849-5.885" transform="translate(16.175 24.669)" fill="none" stroke="#80cbc4" stroke-miterlimit="10" stroke-width="2"/>
      <path id="Trazado_11000" data-name="Trazado 11000" d="M10.985,12.328c1.837-.756,3.8-1.617,4.812-3.315,1.492-2.5.164-5.947-2.267-7.546S7.947-.232,5.065.264A8.4,8.4,0,0,0,1.718,1.442,3.667,3.667,0,0,0,0,4.395" transform="translate(23.591 14.937)" fill="none" stroke="#80cbc4" stroke-miterlimit="10" stroke-width="2"/>
      <path id="Trazado_11001" data-name="Trazado 11001" d="M.353,13.083C-.687,10.8.739,7.153,2.442,5.3A16.726,16.726,0,0,1,12.787.048c1.4-.157,3.1.024,3.739,1.26" transform="translate(17.583 4.722)" fill="none" stroke="#80cbc4" stroke-miterlimit="10" stroke-width="2"/>
      <path id="Trazado_11002" data-name="Trazado 11002" d="M0,1.946C.865.306,3.082.044,4.944.011A16.367,16.367,0,0,1,8.767.252a9.124,9.124,0,0,1,5.726,4.188,10.731,10.731,0,0,1,1.36,6.995,6.962,6.962,0,0,1-.873,2.679c-1.019,1.67-2.909,2.579-4.695,3.4L6.491,19.255" transform="translate(34.377 3.922)" fill="none" stroke="#80cbc4" stroke-miterlimit="10" stroke-width="2"/>
      <path id="Trazado_11003" data-name="Trazado 11003" d="M15.213,3.383c-.188-1.756-1.34-2.671-3.05-3.154a8.241,8.241,0,0,0-5.22.507C3.163,2.247.044,5.834,0,9.87a4.05,4.05,0,0,0,1.781,3.841" transform="translate(15.974 1.319)" fill="none" stroke="#80cbc4" stroke-miterlimit="10" stroke-width="2"/>
      <path id="Trazado_11004" data-name="Trazado 11004" d="M0,4.32a6.771,6.771,0,0,1,3.009-2.6,18.614,18.614,0,0,1,16.034.188c1.014.511,1.859.593,2.43,1.569.691,1.179,1.238,2.2.424,3.3" transform="translate(31.808 0)" fill="none" stroke="#80cbc4" stroke-miterlimit="10" stroke-width="2"/>
      <path id="Trazado_11005" data-name="Trazado 11005" d="M0,5.813C1.844,2.84,5.247,1.107,8.688.385A14.184,14.184,0,0,1,16.2.633c2.394.829,4.885,1.55,5.7,3.931s-.027,4.272-2.073,5.77" transform="translate(49.846 4.415)" fill="none" stroke="#80cbc4" stroke-miterlimit="10" stroke-width="2"/>
      <path id="Trazado_11006" data-name="Trazado 11006" d="M3.973,0C6.586,1.882,5.534,8.467,0,8.6" transform="translate(65.385 14.558)" fill="none" stroke="#80cbc4" stroke-miterlimit="10" stroke-width="2"/>
      <path id="Trazado_11007" data-name="Trazado 11007" d="M0,1.11A19.9,19.9,0,0,1,9.912.286,10.921,10.921,0,0,1,14.72,2.178a11.406,11.406,0,0,1,3.545,5.447,16.591,16.591,0,0,1,.618,9.928,10.483,10.483,0,0,1-6.573,7.2c-1.243.394-3.666.551-4.645-.3" transform="translate(49.465 19.427)" fill="none" stroke="#80cbc4" stroke-miterlimit="10" stroke-width="2"/>
      <path id="Trazado_11008" data-name="Trazado 11008" d="M18.323,0a3.994,3.994,0,0,1-1.271,4.272A8.687,8.687,0,0,1,12.709,6.1,21.086,21.086,0,0,1,0,4.385" transform="translate(38.605 42.137)" fill="none" stroke="#80cbc4" stroke-miterlimit="10" stroke-width="2"/>
      <path id="Trazado_11009" data-name="Trazado 11009" d="M10.462,16.106c-1.6.716-3.463,1.308-5.076.626a5.925,5.925,0,0,1-2.5-2.432A18.555,18.555,0,0,1,0,5.016,10.037,10.037,0,0,1,1.1,0" transform="translate(29.589 31.696)" fill="none" stroke="#80cbc4" stroke-miterlimit="10" stroke-width="2"/>
      <path id="Trazado_11010" data-name="Trazado 11010" d="M3.04,0C5.952,1.454,7.155,4.758,8.53,7.689A11.549,11.549,0,0,1,9.76,12.306,6.281,6.281,0,0,1,8.2,16.744a9.286,9.286,0,0,1-2.72,1.815,9.59,9.59,0,0,1-2.593.954A5.324,5.324,0,0,1,0,19.2" transform="translate(68.972 10.092)" fill="none" stroke="#80cbc4" stroke-miterlimit="10" stroke-width="2"/>
      <path id="Trazado_11011" data-name="Trazado 11011" d="M0,0A24.911,24.911,0,0,0,1.5,7.579,8.5,8.5,0,0,0,6.982,12.7a10.969,10.969,0,0,0,4.791-.187,11.968,11.968,0,0,0,4.091-1.49,5.049,5.049,0,0,0,2.39-3.482" transform="translate(13.789 38.059)" fill="none" stroke="#80cbc4" stroke-miterlimit="10" stroke-width="2"/>
      <path id="Trazado_11012" data-name="Trazado 11012" d="M0,0A4.479,4.479,0,0,1,1.631,1.765c2.722,4.324,5.362,9.154,7.794,13.646" transform="translate(35.719 48.3)" fill="none" stroke="#80cbc4" stroke-miterlimit="10" stroke-width="2"/>
      <path id="Trazado_11013" data-name="Trazado 11013" d="M0,0A58.042,58.042,0,0,1,2.144,15.436" transform="translate(42.999 48.275)" fill="none" stroke="#80cbc4" stroke-miterlimit="10" stroke-width="2"/>
      <path id="Trazado_11014" data-name="Trazado 11014" d="M0,0Q1,6.9,2.607,13.693" transform="translate(52.234 47.748)" fill="none" stroke="#80cbc4" stroke-miterlimit="10" stroke-width="2"/>
      <path id="Trazado_11015" data-name="Trazado 11015" d="M1.741,0A84.686,84.686,0,0,0,0,16.253" transform="translate(54.918 45.403)" fill="none" stroke="#80cbc4" stroke-miterlimit="10" stroke-width="2"/>
      <path id="Trazado_11016" data-name="Trazado 11016" d="M0,4.995l7.322,8.72c2.7,3.219,5.5,6.641,6.228,10.774a34.558,34.558,0,0,1,.227,5.645,78.6,78.6,0,0,0,1.951,14.49,4.231,4.231,0,0,0,1.023,2.382,4.164,4.164,0,0,0,2.948.737,53.423,53.423,0,0,0,8.88-.892c2.633-.49,6.747-3.258,6.747-3.258,2.014-3.4,1.021-7.755-.676-11.3s-4.065-6.866-4.794-10.729C28.511,14.436,33.947,7.22,33.274,0" transform="translate(28.486 44.434)" fill="none" stroke="#80cbc4" stroke-miterlimit="10" stroke-width="2"/>
      <path id="Trazado_11017" data-name="Trazado 11017" d="M5.942.046A4.082,4.082,0,0,0,2.86,1.1,6.815,6.815,0,0,0,0,4.9" transform="translate(10.116 13.242)" fill="none" stroke="#80cbc4" stroke-miterlimit="10" stroke-width="2"/>
    </g>
  </g>
</svg>
