<svg xmlns="http://www.w3.org/2000/svg" width="123.6" height="126.645" viewBox="0 0 123.6 126.645">
  <path id="Trazado_11318" data-name="Trazado 11318" d="M558.566,491.28c.024.026.05.057.074.079a1.657,1.657,0,0,0,.707.456c.461.275.79.314.812.281.072-.113-.31-.3-.818-.823a12.644,12.644,0,0,1-.927-1.037,9.274,9.274,0,0,1-.79-2.3,28.045,28.045,0,0,1-.513-4.654c-.1-1.772-.059-3.718-.321-5.793a32.756,32.756,0,0,0-4.248-11.816,27.546,27.546,0,0,0-7.135-7.563,74.734,74.734,0,0,0-7.627-4.8,50.3,50.3,0,0,0-8.72-3.934,20.769,20.769,0,0,0-7.67-1.178,6.9,6.9,0,0,0-2.97.722,16.622,16.622,0,0,0-2.221-1.008,7.471,7.471,0,0,0-2.293-.5c.063-.3.006-.508-.29-.544-.406-.042-.755.423-1.049,1.152a7.872,7.872,0,0,0-.532,2.854,5.579,5.579,0,0,0,.69,2.68c-.952-.347-1.979-.751-3.075-1.228-.537-.229-1.106-.463-1.684-.7a6.71,6.71,0,0,0,1.242-1.29,10.694,10.694,0,0,0,1.276-2.23,10.934,10.934,0,0,0,.463-1.294l.081-.3.026-.124a2.338,2.338,0,0,0,.042-.262c.05-.074.19-.039.286-.052a2.307,2.307,0,0,1,.369.013c.421.057.812.126,1.146.183.67.116,1.113.164,1.174.033.135-.279-.255-.607-.947-.882a6.182,6.182,0,0,0-1.231-.343,3.6,3.6,0,0,0-1.643.006,13.873,13.873,0,0,1-.617,2.8,7.846,7.846,0,0,1-1.857,2.507,9.766,9.766,0,0,0-.786.853,25.772,25.772,0,0,0-2.745-.873,13.836,13.836,0,0,0-6.943-.035c-4.864,1.373-9.5,4.582-14.293,8.052-4.857,3.373-10.184,7.343-14.574,12.765a36.282,36.282,0,0,0-5.49,9.187,32.6,32.6,0,0,0-1.641,5.3c-.4,1.859-.611,3.64-.838,5.484a80.811,80.811,0,0,0,.441,22.764,47.782,47.782,0,0,0,1.353,5.778,25.1,25.1,0,0,0,2.562,5.56c2.114,3.491,4.938,6.357,7.087,9.387a76.937,76.937,0,0,1,5.839,9.807c.214.41.441.875.716,1.349a11.8,11.8,0,0,0,.934,1.388,6.93,6.93,0,0,0,1.338,1.3,4.765,4.765,0,0,0,2.008.847,6.3,6.3,0,0,0,3.819-.8,27.751,27.751,0,0,0,2.664-1.632,32.869,32.869,0,0,1,4.8-2.846,45.984,45.984,0,0,1,5.254-1.936c1.815-.58,3.672-1.135,5.514-1.828,1.87-.7,3.585-1.523,5.3-2.357,6.808-3.354,13.078-7.853,17.154-13.734a29.962,29.962,0,0,0,4.344-9.291,73.4,73.4,0,0,0,1.85-9.124c1.639-11.8.526-21.843-1.514-28.522a38.433,38.433,0,0,0-1.54-4.225c.738.855,1.508,1.687,2.324,2.485,5.638,5.532,12.665,9.259,17.93,11.84,2.688,1.174,4.777,2.333,6.309,3.138Q557.945,490.992,558.566,491.28Zm-37.334-42.207a24.481,24.481,0,0,1,7.406,1.289,54.922,54.922,0,0,1,9.7,4.316,41.322,41.322,0,0,1,9.793,6.963,26.124,26.124,0,0,1,6.093,10.049,40.3,40.3,0,0,1,1.4,5.318,35.121,35.121,0,0,1,.43,4.908,28.281,28.281,0,0,0,.836,6.269c-.646-.93-1.346-2-2.112-3.171-.48-.735-.976-1.5-1.552-2.283-.617-.77-1.281-1.48-1.933-2.248-2.629-3.027-5.444-6.344-8.093-9.333s-5.148-5.632-6.985-7.461c-1.8-1.863-4.067-3.928-6.387-6.051s-4.781-4.216-7.14-5.957a37.819,37.819,0,0,0-3.79-2.492C519.406,449.153,520.192,449.074,521.232,449.072Zm-7.5-1.13a13.607,13.607,0,0,1,1.957.711,23.723,23.723,0,0,1,2.586,1.368,10,10,0,0,0,0,1.545,16,16,0,0,0,1.017,4.493,16.4,16.4,0,0,0-2.178-.936c-.829-.325-1.874-.672-3.086-1.1-.1-.308-.288-.685-.467-1.108a7.1,7.1,0,0,1-.635-2.614A7.338,7.338,0,0,1,513.731,447.942Zm17.92,34.722a75.08,75.08,0,0,1,.443,17.6,81.761,81.761,0,0,1-1.543,10.282,53.432,53.432,0,0,1-1.4,5.281,27.573,27.573,0,0,1-2.293,5.078,32.139,32.139,0,0,1-7.552,8.728,53.131,53.131,0,0,1-10.112,6.413,56.159,56.159,0,0,1-5.506,2.444c-1.881.694-3.815,1.266-5.735,1.9a39.579,39.579,0,0,0-5.634,2.243,53.111,53.111,0,0,0-5.019,3.151,13.488,13.488,0,0,1-2.444,1.349,3.025,3.025,0,0,1-2.442.055,4.88,4.88,0,0,1-1.839-1.743,22.623,22.623,0,0,1-1.307-2.324,79.99,79.99,0,0,0-5.342-8.886c-1.89-2.73-4.065-5.021-5.8-7.347a26.143,26.143,0,0,1-3.928-6.948,55.564,55.564,0,0,1-2.51-15.552,85.325,85.325,0,0,1,1.259-17.32,31.027,31.027,0,0,1,2.878-8.323,36.673,36.673,0,0,1,5.006-7.275,68.764,68.764,0,0,1,13.139-11.142c2.289-1.636,4.469-3.212,6.643-4.556a33.62,33.62,0,0,1,6.439-3.2c4.109-1.48,7.936-.107,11.221,1.108.825.3,1.6.607,2.427.881.8.264,1.54.478,2.234.666,1.388.373,2.579.653,3.557.86a11.57,11.57,0,0,0,2.955.4c.231.578.493,1.174.8,1.781a66.665,66.665,0,0,0,5.386,8.29c.79,1.078,1.517,2.235,2.335,3.4.175.4.362.818.565,1.3A48.56,48.56,0,0,1,531.652,482.665Zm20.647,4.373c-1.516-.705-3.11-1.575-4.8-2.47a77.274,77.274,0,0,1-9.9-6.18,43.95,43.95,0,0,1-7.042-6.511,76.378,76.378,0,0,1-4.751-6.732,63.948,63.948,0,0,1-4.541-7.3A22.678,22.678,0,0,1,519,450.466q1.393.875,2.978,2.027c2.464,1.8,5.215,4.063,8.078,6.594,1.412,1.27,2.93,2.588,4.323,3.973,1.408,1.4,2.815,2.88,4.187,4.377,2.741,3,5.381,6.108,7.871,9.023l3.614,4.194,1.7,1.912a11.6,11.6,0,0,1,.761.9l.676.936c1.5,2.169,2.8,4.057,3.96,5.4-.29-.188-.6-.38-.936-.591A43.824,43.824,0,0,0,552.3,487.038Z" transform="translate(-323.313 -535.842) rotate(13)" fill="none" stroke="#80cbc4" stroke-width="2"/>
</svg>
