<svg xmlns="http://www.w3.org/2000/svg" width="142.648" height="83.867" viewBox="0 0 142.648 83.867">
  <g id="Grupo_5350" data-name="Grupo 5350" transform="translate(-113.328 -811.752)">
    <g id="Grupo_5345" data-name="Grupo 5345" transform="matrix(0.899, -0.438, 0.438, 0.899, 108.553, 829.524)">
      <path id="Trazado_11066" data-name="Trazado 11066" d="M528.1,145.671a4.055,4.055,0,0,1-3.3-.951,11.071,11.071,0,0,1-4.107-5,7.009,7.009,0,0,1,.559-6.3,8.71,8.71,0,0,1,4.86-3.159,8.933,8.933,0,0,1,4.239-.363" transform="translate(-506.853 -79.679)" fill="none" stroke="#80cbc4" stroke-miterlimit="10" stroke-width="2"/>
      <path id="Trazado_11067" data-name="Trazado 11067" d="M514.1,116.691a8.739,8.739,0,0,1-4.566-10.661,9.67,9.67,0,0,1,10.177-6.015,1.419,1.419,0,0,0,.784-.031c.421-.193.514-.732.645-1.177.5-1.708,2.215-2.748,3.867-3.412a10.7,10.7,0,0,1,6.762-.749c2.225.62,4.178,2.614,4.154,4.924" transform="translate(-501.211 -61.727)" fill="none" stroke="#80cbc4" stroke-miterlimit="10" stroke-width="2"/>
      <path id="Trazado_11068" data-name="Trazado 11068" d="M567.337,125.52c.667-2.177-.572-3.551-2-5.326a7.358,7.358,0,0,0-2.984-2.415,6.135,6.135,0,0,0-6.309,1.779" transform="translate(-525.027 -73.444)" fill="none" stroke="#80cbc4" stroke-miterlimit="10" stroke-width="2"/>
      <path id="Trazado_11069" data-name="Trazado 11069" d="M575.932,153.06a10.688,10.688,0,0,0,10.282-5,3.091,3.091,0,0,1,1.752-1.7,9.332,9.332,0,0,0,5.092-8.2,7.419,7.419,0,0,0-6.1-7.081" transform="translate(-535.111 -80.343)" fill="none" stroke="#80cbc4" stroke-miterlimit="10" stroke-width="2"/>
      <path id="Trazado_11070" data-name="Trazado 11070" d="M602.841,143.043c3.464.253,7.249-2.2,8.987-5.207,1.878-3.249,2.346-7.627.085-10.622a3.47,3.47,0,0,0-1.648-1.3" transform="translate(-548.757 -77.722)" fill="none" stroke="#80cbc4" stroke-miterlimit="10" stroke-width="2"/>
      <path id="Trazado_11071" data-name="Trazado 11071" d="M611.762,112.937a13.336,13.336,0,0,0,4.794-8.483c.3-3.314-1.414-6.916-4.505-8.148a3.487,3.487,0,0,1-.853-.407,3.335,3.335,0,0,1-.851-1.366,8.458,8.458,0,0,0-10.535-4.157" transform="translate(-547.22 -59.416)" fill="none" stroke="#80cbc4" stroke-miterlimit="10" stroke-width="2"/>
      <path id="Trazado_11072" data-name="Trazado 11072" d="M599.246,112.873a4.283,4.283,0,0,0,.581-4.214,8.749,8.749,0,0,0-2.673-3.511,8.878,8.878,0,0,0-4.032-2.171,4.375,4.375,0,0,0-4.2,1.343" transform="translate(-541.698 -66.047)" fill="none" stroke="#80cbc4" stroke-miterlimit="10" stroke-width="2"/>
      <path id="Trazado_11073" data-name="Trazado 11073" d="M512.941,112.487" transform="translate(-503.168 -70.913)" fill="none" stroke="#80cbc4" stroke-miterlimit="10" stroke-width="2"/>
      <path id="Trazado_11074" data-name="Trazado 11074" d="M511.773,88.374a19.738,19.738,0,0,1-.717-7.085,7.868,7.868,0,0,1,3.573-5.912,8.045,8.045,0,0,0,2.06-1.261,5.932,5.932,0,0,0,.983-1.885A12.936,12.936,0,0,1,531.2,64.581" transform="translate(-502.163 -46.552)" fill="none" stroke="#80cbc4" stroke-miterlimit="10" stroke-width="2"/>
      <path id="Trazado_11075" data-name="Trazado 11075" d="M538.7,78.576c2.12-2.121,5.371-2.51,8.362-2.741a8.274,8.274,0,0,1,2.638.084c1.966.492,3.27,2.286,4.527,3.875a1.093,1.093,0,0,0,.573.453,1.151,1.151,0,0,0,.684-.148,9.018,9.018,0,0,1,6.045-.65,5.31,5.31,0,0,1,3.9,4.345" transform="translate(-516.233 -52.294)" fill="none" stroke="#80cbc4" stroke-miterlimit="10" stroke-width="2"/>
      <path id="Trazado_11076" data-name="Trazado 11076" d="M596.763,81.649c2.217-2.693,1.187-6.421-.33-9.562a12.718,12.718,0,0,0-4.71-5.63,6.524,6.524,0,0,0-7.03.04c-2.028-2.147-4.234-4.268-7-5.293s-6.246-.684-8.178,1.549" transform="translate(-531.856 -44.628)" fill="none" stroke="#80cbc4" stroke-miterlimit="10" stroke-width="2"/>
      <path id="Trazado_11077" data-name="Trazado 11077" d="M560.364,67.136a8.478,8.478,0,0,0-3.633-5.256,6.948,6.948,0,0,0-6.279-.6c-.895.378-1.979.517-2.369,1.407" transform="translate(-520.989 -44.697)" fill="none" stroke="#80cbc4" stroke-miterlimit="10" stroke-width="2"/>
      <path id="Trazado_11078" data-name="Trazado 11078" d="M561.992,56.29c3.234-2.013,6.562-4.064,10.3-4.786s8.04.169,10.383,3.172c.87,1.115,1.428,2.455,2.342,3.536" transform="translate(-528.042 -39.868)" fill="none" stroke="#80cbc4" stroke-miterlimit="10" stroke-width="2"/>
      <path id="Trazado_11079" data-name="Trazado 11079" d="M602.171,55.107a12.644,12.644,0,0,1,5.368.948,6.608,6.608,0,0,1,2.448,1.611c1.721,1.931,1.45,4.839,1.636,7.42.034.472-.249,1.607.161,1.844" transform="translate(-548.417 -41.81)" fill="none" stroke="#80cbc4" stroke-miterlimit="10" stroke-width="2"/>
      <path id="Trazado_11080" data-name="Trazado 11080" d="M621.462,78.327a14.355,14.355,0,0,1,7.874,1.014,12.513,12.513,0,0,0,3.471,1.284,13.6,13.6,0,0,0,2.417-.1,14.724,14.724,0,0,1,5.511.706" transform="translate(-558.199 -53.506)" fill="none" stroke="#80cbc4" stroke-miterlimit="10" stroke-width="2"/>
      <path id="Trazado_11081" data-name="Trazado 11081" d="M634.1,99.767a10.367,10.367,0,0,0,7.967-9.075,2.643,2.643,0,0,1,.2-1.013,2.536,2.536,0,0,1,.811-.8,14.884,14.884,0,0,0,4.285-5.055" transform="translate(-564.61 -56.376)" fill="none" stroke="#80cbc4" stroke-miterlimit="10" stroke-width="2"/>
      <path id="Trazado_11082" data-name="Trazado 11082" d="M627.074,90.219c5.5-1.315,10.579-3.957,15.591-6.576" transform="translate(-561.045 -56.286)" fill="none" stroke="#80cbc4" stroke-miterlimit="10" stroke-width="2"/>
      <path id="Trazado_11083" data-name="Trazado 11083" d="M636.226,88.812a10.409,10.409,0,0,0,2.683-5.843" transform="translate(-565.686 -55.944)" fill="none" stroke="#80cbc4" stroke-miterlimit="10" stroke-width="2"/>
      <path id="Trazado_11084" data-name="Trazado 11084" d="M643.61,91.812a5.29,5.29,0,0,1,3.585,2.642" transform="translate(-569.431 -60.429)" fill="none" stroke="#80cbc4" stroke-miterlimit="10" stroke-width="2"/>
      <path id="Trazado_11085" data-name="Trazado 11085" d="M634.557,95.273a7.193,7.193,0,0,1,3.734,1.887,13.091,13.091,0,0,1,2.536,3.382" transform="translate(-564.84 -62.184)" fill="none" stroke="#80cbc4" stroke-miterlimit="10" stroke-width="2"/>
      <path id="Trazado_11086" data-name="Trazado 11086" d="M626.939,88.1a12.158,12.158,0,0,0,3.39-8.859" transform="translate(-560.977 -54.053)" fill="none" stroke="#80cbc4" stroke-miterlimit="10" stroke-width="2"/>
      <path id="Trazado_11087" data-name="Trazado 11087" d="M584.858,58.212a10.224,10.224,0,0,1,5.865-3.369" transform="translate(-539.637 -41.682)" fill="none" stroke="#80cbc4" stroke-miterlimit="10" stroke-width="2"/>
      <path id="Trazado_11088" data-name="Trazado 11088" d="M592.917,61.734a11.56,11.56,0,0,1,5.741-3.818" transform="translate(-543.724 -43.24)" fill="none" stroke="#80cbc4" stroke-miterlimit="10" stroke-width="2"/>
      <path id="Trazado_11089" data-name="Trazado 11089" d="M569.761,41.565a8.929,8.929,0,0,0-.678-3.724c-.534-1.4-1.322-2.7-1.88-4.092s-1.086-3.615-.628-5.045" transform="translate(-530.278 -28.426)" fill="none" stroke="#80cbc4" stroke-miterlimit="10" stroke-width="2"/>
      <path id="Trazado_11090" data-name="Trazado 11090" d="M549.262,28.141c-.151,1.252-1.444,1.988-2.585,2.524-1.224.574-2.447,1.148-3.688,1.685a31.029,31.029,0,0,0-5.3,2.606,12.857,12.857,0,0,0-5.159,13.111" transform="translate(-512.956 -28.141)" fill="none" stroke="#80cbc4" stroke-miterlimit="10" stroke-width="2"/>
      <path id="Trazado_11091" data-name="Trazado 11091" d="M548.182,47.406a11.853,11.853,0,0,1,.986-3.167,33.9,33.9,0,0,1,5.536-8.73c.992-1.134,2.14-2.456,1.86-3.937" transform="translate(-521.039 -29.881)" fill="none" stroke="#80cbc4" stroke-miterlimit="10" stroke-width="2"/>
      <path id="Trazado_11092" data-name="Trazado 11092" d="M558.391,39.786a15.515,15.515,0,0,0-.682-3.4" transform="translate(-525.87 -32.321)" fill="none" stroke="#80cbc4" stroke-miterlimit="10" stroke-width="2"/>
      <path id="Trazado_11093" data-name="Trazado 11093" d="M556.731,42.584a33.216,33.216,0,0,1,6.078-2.328" transform="translate(-525.374 -34.285)" fill="none" stroke="#80cbc4" stroke-miterlimit="10" stroke-width="2"/>
      <path id="Trazado_11094" data-name="Trazado 11094" d="M548.323,48.258a5.13,5.13,0,0,0-.4-3.693,5.283,5.283,0,0,0-1.74-2.5" transform="translate(-520.023 -35.199)" fill="none" stroke="#80cbc4" stroke-miterlimit="10" stroke-width="2"/>
      <path id="Trazado_11095" data-name="Trazado 11095" d="M542.59,54.187a20.457,20.457,0,0,0-5.152-6.135" transform="translate(-515.591 -38.238)" fill="none" stroke="#80cbc4" stroke-miterlimit="10" stroke-width="2"/>
      <path id="Trazado_11096" data-name="Trazado 11096" d="M551.621,50.872a34.049,34.049,0,0,1,9.447-2.558" transform="translate(-522.783 -38.371)" fill="none" stroke="#80cbc4" stroke-miterlimit="10" stroke-width="2"/>
      <path id="Trazado_11097" data-name="Trazado 11097" d="M512.663,63.15a3.915,3.915,0,0,0-2.756-2.527,29.518,29.518,0,0,0-3.848-.652,12.631,12.631,0,0,1-5.016-2.079,3.115,3.115,0,0,0-2.241-.88,2.2,2.2,0,0,0-1.373,1.231c-1.245,2.356-.581,5.355-1.755,7.747-.34.693-.821,1.3-1.22,1.965a10.26,10.26,0,0,0-.1,9.962,13.2,13.2,0,0,0,8.253,6.5" transform="translate(-493.114 -42.767)" fill="none" stroke="#80cbc4" stroke-miterlimit="10" stroke-width="2"/>
      <path id="Trazado_11098" data-name="Trazado 11098" d="M508.972,73.687c-.694-2.7-2.6-4.966-3.259-7.671-.351-1.439-.334-2.941-.559-4.4a6.234,6.234,0,0,0-1.461-3.422" transform="translate(-498.478 -43.378)" fill="none" stroke="#80cbc4" stroke-miterlimit="10" stroke-width="2"/>
      <path id="Trazado_11099" data-name="Trazado 11099" d="M510.5,72.218l1.48-4.534a7.663,7.663,0,0,0,.52-4.44" transform="translate(-501.93 -45.942)" fill="none" stroke="#80cbc4" stroke-miterlimit="10" stroke-width="2"/>
      <path id="Trazado_11100" data-name="Trazado 11100" d="M511.25,81.547a.308.308,0,0,0-.455.15" transform="translate(-502.08 -55.198)" fill="none" stroke="#80cbc4" stroke-miterlimit="10" stroke-width="2"/>
      <path id="Trazado_11101" data-name="Trazado 11101" d="M503.566,80.527c-2.057-.787-4.483-.328-6.429-1.36" transform="translate(-495.154 -54.016)" fill="none" stroke="#80cbc4" stroke-miterlimit="10" stroke-width="2"/>
      <path id="Trazado_11102" data-name="Trazado 11102" d="M505.032,113.115c-.077-.079.049.06-.194.154-.608.235-.1.187-.2.233-1.54.7-3.326,1.005-4.558,2.167a6.048,6.048,0,0,0-1.583,4.663,41.057,41.057,0,0,0,.809,5.009,30.658,30.658,0,0,1,.021,8.438,22.155,22.155,0,0,0-.223,2.7,9.44,9.44,0,0,0,5.1,8.188" transform="translate(-495.84 -71.219)" fill="none" stroke="#80cbc4" stroke-miterlimit="10" stroke-width="2"/>
      <path id="Trazado_11103" data-name="Trazado 11103" d="M510.265,170.081a7.2,7.2,0,0,1,1-4.624,5.163,5.163,0,0,1,3.507-2.483c1.648-.28,3.3.32,4.922.721s3.492.557,4.824-.453" transform="translate(-501.768 -96.478)" fill="none" stroke="#80cbc4" stroke-miterlimit="10" stroke-width="2"/>
      <path id="Trazado_11104" data-name="Trazado 11104" d="M511.492,137.243a18.132,18.132,0,0,0-3.938,7.954,27.453,27.453,0,0,0,.334,9.034,4.4,4.4,0,0,0,.919,2.489" transform="translate(-500.305 -83.467)" fill="none" stroke="#80cbc4" stroke-miterlimit="10" stroke-width="2"/>
      <path id="Trazado_11105" data-name="Trazado 11105" d="M506.079,142.511c-.407.562-1.462.547-2.149.648a14.607,14.607,0,0,0-3.514.978" transform="translate(-496.817 -86.138)" fill="none" stroke="#80cbc4" stroke-miterlimit="10" stroke-width="2"/>
      <path id="Trazado_11106" data-name="Trazado 11106" d="M512.421,142.766a9.27,9.27,0,0,0,1.015,4.84,41.989,41.989,0,0,1,2.034,4.573" transform="translate(-502.883 -86.268)" fill="none" stroke="#80cbc4" stroke-miterlimit="10" stroke-width="2"/>
      <path id="Trazado_11107" data-name="Trazado 11107" d="M504.373,158.076a10.632,10.632,0,0,0-2.551,4.132" transform="translate(-497.53 -94.031)" fill="none" stroke="#80cbc4" stroke-miterlimit="10" stroke-width="2"/>
      <path id="Trazado_11108" data-name="Trazado 11108" d="M507.354,158.943a14.88,14.88,0,0,0,3.014,3.2" transform="translate(-500.335 -94.471)" fill="none" stroke="#80cbc4" stroke-miterlimit="10" stroke-width="2"/>
      <path id="Trazado_11109" data-name="Trazado 11109" d="M537.567,148.2a10.531,10.531,0,0,1,3.275-3.262c.763-.4,1.617-.615,2.362-1.049,1.372-.8,2.217-2.261,3.449-3.264a23.628,23.628,0,0,1,3.321-1.937,27.225,27.225,0,0,0,3.084-2.172l5.479-4.25" transform="translate(-515.656 -80.944)" fill="none" stroke="#80cbc4" stroke-miterlimit="10" stroke-width="2"/>
      <path id="Trazado_11110" data-name="Trazado 11110" d="M551.193,132.57a17.207,17.207,0,0,0-.587,5.27,36.412,36.412,0,0,1,.641,5.1c-.039,2.1-.82,4.106-1.137,6.18-.356,2.331-.194,4.93-1.666,6.773s-4.092,2.273-6.45,2.218c-5.038-.117-9.889-1.808-14.643-3.481a7.327,7.327,0,0,1-1.911-.888c-1.656-1.2-2-3.483-2.216-5.517" transform="translate(-508.383 -81.097)" fill="none" stroke="#80cbc4" stroke-miterlimit="10" stroke-width="2"/>
      <path id="Trazado_11111" data-name="Trazado 11111" d="M547.415,162.074a6.816,6.816,0,0,0,3.272-4.006,50.321,50.321,0,0,1,1.787-5c2.11-4.146,7.036-6.453,8.663-10.811" transform="translate(-520.65 -86.011)" fill="none" stroke="#80cbc4" stroke-miterlimit="10" stroke-width="2"/>
      <path id="Trazado_11112" data-name="Trazado 11112" d="M564.166,149.774a5.353,5.353,0,0,0,.419-2.946,3.345,3.345,0,0,1,.9-2.767" transform="translate(-529.144 -86.925)" fill="none" stroke="#80cbc4" stroke-miterlimit="10" stroke-width="2"/>
      <path id="Trazado_11113" data-name="Trazado 11113" d="M565.084,154.46a8.805,8.805,0,0,0,6.294-1.733" transform="translate(-529.61 -91.319)" fill="none" stroke="#80cbc4" stroke-miterlimit="10" stroke-width="2"/>
      <path id="Trazado_11114" data-name="Trazado 11114" d="M555.529,159.931a7.319,7.319,0,0,0-.312-4.007,4.337,4.337,0,0,1-.547-2.515" transform="translate(-524.299 -91.665)" fill="none" stroke="#80cbc4" stroke-miterlimit="10" stroke-width="2"/>
      <path id="Trazado_11115" data-name="Trazado 11115" d="M557.332,164.605c1.813-.989,4.047-.42,6.1-.647a3.108,3.108,0,0,0,2.113-.94" transform="translate(-525.679 -96.537)" fill="none" stroke="#80cbc4" stroke-miterlimit="10" stroke-width="2"/>
      <path id="Trazado_11116" data-name="Trazado 11116" d="M548.666,171.072c.712-1.391.159-3.077-.5-4.494s-1.441-2.925-1.146-4.46" transform="translate(-520.417 -96.081)" fill="none" stroke="#80cbc4" stroke-miterlimit="10" stroke-width="2"/>
      <path id="Trazado_11117" data-name="Trazado 11117" d="M550.4,178.81a14.382,14.382,0,0,1,6.457-1.348,4.687,4.687,0,0,0,2.909-.78" transform="translate(-522.163 -103.466)" fill="none" stroke="#80cbc4" stroke-miterlimit="10" stroke-width="2"/>
      <path id="Trazado_11118" data-name="Trazado 11118" d="M572.684,179.966a13.931,13.931,0,0,0,10.112.162c.813-.306,1.6-.689,2.426-.956a11.7,11.7,0,0,1,3.006-.512c3.437-.172,6.824.748,10.243,1.143a3.941,3.941,0,0,0,3.123-.574" transform="translate(-533.464 -104.459)" fill="none" stroke="#80cbc4" stroke-miterlimit="10" stroke-width="2"/>
      <path id="Trazado_11119" data-name="Trazado 11119" d="M620.229,150.942a6.979,6.979,0,0,1,3.76,5.572c.059.736,0,1.477.034,2.215a8.584,8.584,0,0,0,1.582,4.551,2.45,2.45,0,0,1,.472.854c.071.32-.181,1.356-.489,1.466" transform="translate(-557.574 -90.414)" fill="none" stroke="#80cbc4" stroke-miterlimit="10" stroke-width="2"/>
      <path id="Trazado_11120" data-name="Trazado 11120" d="M618.218,170.519c-1.909-1.461-4.656-1.367-6.624-2.748a10.353,10.353,0,0,1-1.87-1.86l-4.275-5.047" transform="translate(-550.079 -95.445)" fill="none" stroke="#80cbc4" stroke-miterlimit="10" stroke-width="2"/>
      <path id="Trazado_11121" data-name="Trazado 11121" d="M607.346,164.031a9.219,9.219,0,0,0,.864,5.737" transform="translate(-550.973 -97.051)" fill="none" stroke="#80cbc4" stroke-miterlimit="10" stroke-width="2"/>
      <path id="Trazado_11122" data-name="Trazado 11122" d="M608.176,163.67a52.29,52.29,0,0,1,6.985,1.067" transform="translate(-551.462 -96.868)" fill="none" stroke="#80cbc4" stroke-miterlimit="10" stroke-width="2"/>
    </g>
    <path id="Trazado_11311" data-name="Trazado 11311" d="M455.723,142.69c-.127.115-.254.225-.381.337A31.976,31.976,0,0,0,451.093,141a26.634,26.634,0,0,0-3.231-1.047,20.971,20.971,0,0,0-3.412-.541,22.2,22.2,0,0,0-6.935.583,24.622,24.622,0,0,0-6.46,2.526,16.2,16.2,0,0,0-5.006,4.566,19.8,19.8,0,0,0-2.777,5.837,34.7,34.7,0,0,0-1.174,5.893,33.3,33.3,0,0,0,0,10.082,41.118,41.118,0,0,0,1.059,4.337,18.609,18.609,0,0,0,2.014,4.337,15.589,15.589,0,0,0,3.339,3.749,19.888,19.888,0,0,0,4.38,2.767,27.857,27.857,0,0,0,4.955,1.732q1.275.32,2.571.536a13.561,13.561,0,0,0,2.644.246,17.176,17.176,0,0,0,5.128-.934,22.484,22.484,0,0,0,4.512-2.19,60.492,60.492,0,0,0,7.119-5.483,26.28,26.28,0,0,0,4.928-5.475,18.349,18.349,0,0,0,2.2-4.453c.356-1.124.414-1.782.3-1.828s-.331.485-.783,1.443a26.369,26.369,0,0,1-2.266,3.943,27.648,27.648,0,0,1-4.723,5.174,72.033,72.033,0,0,1-7.211,5.577,21.715,21.715,0,0,1-4.589,2.256,15.436,15.436,0,0,1-5.308.856,21.861,21.861,0,0,1-2.808-.387c-.953-.181-1.909-.409-2.86-.689a23.151,23.151,0,0,1-5.512-2.375,15.75,15.75,0,0,1-7.314-9.659,29.179,29.179,0,0,1-1.17-6.381,42.82,42.82,0,0,1,.339-6.591,34.15,34.15,0,0,1,1.311-6.438,18.312,18.312,0,0,1,2.891-5.67,15.139,15.139,0,0,1,4.728-4.019,24.294,24.294,0,0,1,5.8-2.184,20.687,20.687,0,0,1,11.574.465,31.751,31.751,0,0,1,5.124,2.248l-.009.009c-.854.736-1.7,1.453-2.455,2.146a19.137,19.137,0,0,0-3.133,3.5l.048-.048a1.3,1.3,0,0,0-.221.285c-.025.04-.041.068-.061.1a3.381,3.381,0,0,1-.572-.136,2.715,2.715,0,0,1-1.414-1.237c-.279-.506-.262-.885-.534-.84-.2.017-.325.55.082,1.2a3.725,3.725,0,0,0,2.2,1.476,4.437,4.437,0,0,0,2.667-.083c.717-.273,1.035-.73.966-.793-.174-.2-.712.248-1.562.387a4.694,4.694,0,0,1-.96.092c.56-.376,1.7-1.433,3-2.635.991-.918,2.065-1.922,3.022-2.81a27.967,27.967,0,0,1,3.138,2.184,23.186,23.186,0,0,1,3.354,3.314,32.011,32.011,0,0,1,2.453,3.525,16.73,16.73,0,0,1,2.4,6.448,18.025,18.025,0,0,1-.061,4.5,13.823,13.823,0,0,0-.222,1.659c.094.1.481-.694.789-2.3a15.372,15.372,0,0,0,.256-2.989,13.567,13.567,0,0,0-.648-3.965,20.522,20.522,0,0,0-2.045-4.413,24.537,24.537,0,0,0-8.578-8.733c.4-.368.761-.7,1.061-.966,2.074-1.862,5.959-4.429,6.407-5.189a.364.364,0,0,0,.048.015.306.306,0,0,0,.262-.124.6.6,0,0,0,.1-.189,1.991,1.991,0,0,0,.081-.314,2.512,2.512,0,0,0,.089-.651.889.889,0,0,0-.45-.677c-.424-.256-.66-.334-.729-.091a.229.229,0,0,0,.026.2c-.1.009-.176.277-.407.646a5.14,5.14,0,0,1-1.325,1.284c-.31.236-.671.494-1.021.814l-1.086.964-2.2,1.944a7.743,7.743,0,0,0-.3-1.249,17.056,17.056,0,0,0-1.861-3.911,22.478,22.478,0,0,0-4.025-4.656,33.64,33.64,0,0,0-5.77-4.062,79.836,79.836,0,0,0-12.056-5.269c-1.694-.592-3.072-1.14-4.087-1.467a10.9,10.9,0,0,0-1.535-.417c-.074-.029-.125-.032-.148-.007-.073.083.262.476.921,1.088s1.653,1.429,2.677,2.541a12.912,12.912,0,0,1,1.462,1.937,26.273,26.273,0,0,1,1.258,2.426,24.235,24.235,0,0,0,3,5.326,8.429,8.429,0,0,0,5.4,3.051,10.063,10.063,0,0,0,5.351-.84,12.669,12.669,0,0,0,3.225-2.046,7.263,7.263,0,0,0,.93-.943,22.573,22.573,0,0,1,2.877,3.614,35.78,35.78,0,0,1,2.474,5.063l-.034.029C456.554,141.907,456.138,142.308,455.723,142.69Zm-5.772-8.813a13.4,13.4,0,0,1-4.67,2.074,9.082,9.082,0,0,1-3.038.141,7.938,7.938,0,0,1-2.875-.96,7.793,7.793,0,0,1-2.151-1.768,12.923,12.923,0,0,1-1.332-1.859,41.034,41.034,0,0,1-1.914-3.968,20.722,20.722,0,0,0-1.093-2.127,12.4,12.4,0,0,0-1.386-1.865,20.806,20.806,0,0,0-2.761-2.488c-.135-.105-.262-.2-.381-.284.368.158.834.349,1.385.581,1.417.625,3.44,1.376,5.622,2.212s4.529,1.787,6.63,2.773a45.389,45.389,0,0,1,5.212,2.831,25.654,25.654,0,0,1,3.986,3.159c.133.128.257.266.387.4C451.31,132.875,450.763,133.324,449.951,133.877Zm13.8,2.223a.42.42,0,0,1,.184.349,1.836,1.836,0,0,1-.069.354,3.845,3.845,0,0,1-.241-.419c-.112-.216-.184-.375-.249-.471a.651.651,0,0,0-.012-.11A2.858,2.858,0,0,0,463.747,136.1Zm-6.679,5.984c1.185-1.1,2.964-2.5,4.328-3.654a5.928,5.928,0,0,0,1.743-1.684c.009-.017.014-.035.024-.052.02.046.036.094.061.143a2.217,2.217,0,0,0,.232.385c.042.043.081.091.127.135-.991.424-4.268,3.055-7.442,5.827-1.83,1.594-3.62,3.238-4.927,4.519a19.213,19.213,0,0,0-2,2.159c-.1-.006-.2-.015-.293-.024.055-.053.11-.108.171-.172l.035-.006c.363-.38.872-.963,1.516-1.613s1.411-1.372,2.212-2.091l2.363-2.108C455.96,143.185,456.578,142.536,457.068,142.084Z" transform="translate(-236.239 768.442) rotate(-9)" fill="none" stroke="#80cbc4" stroke-width="2"/>
  </g>
</svg>
