<svg id="Grupo_5105" data-name="Grupo 5105" xmlns="http://www.w3.org/2000/svg" width="62.767" height="62.767" viewBox="0 0 62.767 62.767">
  <g id="Grupo_5104" data-name="Grupo 5104" transform="translate(0 0)">
    <path id="Trazado_10904" data-name="Trazado 10904" d="M31.383,0A31.383,31.383,0,1,1,0,31.383,31.383,31.383,0,0,1,31.383,0Z" fill="#7cb342"/>
    <path id="Trazado_1178" data-name="Trazado 1178" d="M28.008,0A28.008,28.008,0,1,1,0,28.008,28.008,28.008,0,0,1,28.008,0Z" transform="translate(3.631 3.631)" fill="#fff"/>
  </g>
  <rect id="Rectángulo_3113" data-name="Rectángulo 3113" width="18.142" height="15.965" transform="translate(7.983 23.774)" fill="#fed83d"/>
  <g id="Grupo_5073" data-name="Grupo 5073" transform="translate(20.231 9.089) rotate(-22)">
    <g id="Grupo_4328" data-name="Grupo 4328" transform="translate(0 0)">
      <g id="Grupo_4323" data-name="Grupo 4323" transform="translate(11.058 1.155)">
        <path id="Trazado_8858" data-name="Trazado 8858" d="M.215,15.219c.053.372.116.742.189,1.1.035.177.073.349.11.514.021.091.04.183.061.273h0l.043.194c.063.3.114.574.154.865.018.146.037.29.052.437.008.073.016.147.023.218s.015.156.022.233a7.618,7.618,0,0,0,.146.966,5.816,5.816,0,0,0,.267.87l.083.2c.027.057.054.112.08.168l0,0,.09.183.013.025h0c.027.05.053.1.08.143s.057.1.086.144q.056.093.114.179a5.513,5.513,0,0,0,.557.7,4.6,4.6,0,0,0,.331.323c.1.09.187.161.259.217s.129.1.168.124l.059.041-.094-.262c-.029-.084-.064-.187-.1-.31s-.082-.261-.125-.416-.085-.325-.122-.51c-.013-.072-.027-.147-.04-.223-.02-.119-.039-.243-.054-.37,0-.052-.012-.106-.016-.158,0-.022,0-.045,0-.067l-.006-.087c0-.061-.009-.122-.014-.186l0-.023,0,.005v-.059c0-.028,0-.057,0-.085a6.555,6.555,0,0,1,.031-.71c.024-.245.065-.492.115-.77.013-.073.026-.146.039-.22s.024-.162.037-.243c.026-.163.043-.334.062-.507a8.88,8.88,0,0,0,.04-1.1c0-.058,0-.117-.005-.176,0-.033,0-.065,0-.1,0-.088-.008-.176-.012-.266q-.013-.254-.026-.513c-.016-.336-.031-.669-.041-1.011-.007-.171-.009-.339-.013-.51,0-.053,0-.107,0-.161q-.005-.19-.009-.381v-.124l0-.132c0-.088,0-.176,0-.264,0-.175,0-.35,0-.525,0-.346,0-.69.02-1.028s.036-.682.059-1.054l.018-.281c0-.1.008-.192.013-.289.007-.193.016-.387.016-.581.006-.387,0-.77-.021-1.143-.009-.186-.022-.373-.034-.558l-.021-.277c-.007-.093-.016-.176-.025-.264s-.018-.174-.026-.26S2.8,6.978,2.791,6.89c-.02-.169-.041-.336-.06-.5S2.69,6.062,2.669,5.9s-.04-.318-.06-.474c-.08-.625-.155-1.216-.224-1.762-.036-.276-.071-.541-.1-.793,0-.032-.009-.064-.012-.1s-.009-.067-.013-.1c-.008-.071-.019-.136-.03-.2-.021-.124-.043-.241-.065-.353C2.119,1.9,2.078,1.7,2.042,1.5S1.978,1.139,1.953.98s-.037-.3-.045-.421a1.967,1.967,0,0,1,0-.31A.669.669,0,0,1,1.954.062.307.307,0,0,1,1.978.016L1.987,0,1.971.007a.37.37,0,0,0-.048.025.677.677,0,0,0-.162.151,2.549,2.549,0,0,0-.37.736,9.5,9.5,0,0,0-.319,1.195q-.025.118-.051.241h0c-.007.035-.015.069-.023.1-.011.058-.025.115-.038.167-.007.023-.013.056-.021.087s-.014.062-.021.094c-.058.249-.114.524-.167.8-.107.563-.2,1.18-.268,1.834-.018.164-.033.329-.047.5S.409,6.28.4,6.45s-.023.342-.031.515c0,.083-.01.166-.016.25s-.009.173-.013.26-.008.177-.014.26-.01.168-.016.253Q.3,8.239.277,8.5c-.01.172-.021.344-.035.515s-.025.344-.04.515-.032.345-.048.518S.118,10.4.1,10.579c-.038.366-.071.764-.088,1.167s-.014.8,0,1.2c.009.195.016.39.03.582.007.1.014.19.021.286l.023.293.057.548C.166,14.842.188,15.034.215,15.219Z" transform="translate(0 0)" fill="#38572b"/>
      </g>
      <g id="Grupo_4324" data-name="Grupo 4324" transform="translate(6.1 0)">
        <path id="Trazado_8859" data-name="Trazado 8859" d="M.41,11.231c.033.213.063.428.109.638s.09.419.14.626c.107.411.225.817.364,1.207s.285.772.442,1.14c.313.737.655,1.424.993,2.071.084.163.169.319.252.475s.168.315.251.466.17.315.258.468.173.3.261.451c.35.59.705,1.133,1.053,1.621.069.1.137.19.206.283.2.271.394.523.584.755h0c.059.071.117.141.174.209h0l.038.045c.315.373.6.686.849.936l.008.007.132.135.035.035.119.114.041.039c.038.037.076.072.11.1.053.05.1.094.145.131.141.125.22.19.22.19s-.026-.1-.082-.278l-.077-.248c-.046-.147-.1-.322-.166-.523-.092-.279-.2-.609-.323-.983-.012-.039-.025-.079-.039-.118h0c-.153-.467-.326-1-.517-1.576l-.454-1.392h0l-.12-.366q-.15-.466-.309-.955c-.056-.17-.109-.336-.168-.506s-.117-.346-.178-.516c-.241-.686-.494-1.376-.731-2.062q-.076-.219-.148-.436c-.179-.54-.341-1.077-.475-1.61-.087-.338-.155-.675-.218-1.009-.033-.184-.064-.377-.1-.57s-.071-.38-.108-.568c-.146-.749-.3-1.467-.444-2.157s-.272-1.35-.376-1.975-.183-1.215-.234-1.764a14.335,14.335,0,0,1-.061-1.508,11.2,11.2,0,0,1,.08-1.188C1.951.982,1.965.9,1.975.829s.019-.147.032-.211S2.03.492,2.04.436s.018-.108.028-.153C2.1.111,2.123.01,2.125,0c-.009.008-.08.078-.2.209A5.6,5.6,0,0,0,1.41.863a7.013,7.013,0,0,0-.6,1.115l-.017.039A8.982,8.982,0,0,0,.285,3.644,12.658,12.658,0,0,0,.026,5.63,19.013,19.013,0,0,0,.038,7.824c.045.751.124,1.514.22,2.271l.036.278h0c.012.1.024.19.037.287C.356,10.846.38,11.035.41,11.231Z" transform="translate(0 0)" fill="#38572b"/>
      </g>
      <g id="Grupo_4325" data-name="Grupo 4325" transform="translate(4.435 7.473)">
        <path id="Trazado_8860" data-name="Trazado 8860" d="M.2,4.061c.079.461.182.938.317,1.433.035.124.069.254.1.37.017.06.035.119.053.179L.7,6.133l.034.1c.042.123.084.248.126.373s.087.25.134.375c.1.248.194.5.3.745s.221.492.337.737l.185.366c.061.119.123.237.187.353s.131.236.2.352.131.233.2.345c.276.456.569.891.873,1.3.145.192.287.38.436.558l.025.031c.154.189.31.371.467.543.071.079.142.157.214.232l0,0c.083.09.167.176.251.26l.034.034q.214.217.424.408c.218.2.432.384.634.547.075.061.149.119.221.174.224.173.432.32.615.441l.1.064.145.093.1.057h0l.035.021c.082.048.152.088.21.12l.079.042.1.054s-.016-.071-.053-.2-.086-.287-.153-.492h0l-.015-.046c-.036-.115-.081-.238-.127-.372s-.1-.281-.154-.433c-.112-.306-.244-.644-.389-1.008q-.072-.173-.145-.355c-.029-.068-.057-.138-.086-.209l-.07-.165h0l-.181-.428-.134-.306c-.044-.1-.089-.208-.137-.313-.094-.209-.189-.423-.286-.639-.2-.432-.4-.875-.611-1.32-.107-.223-.208-.45-.32-.673s-.215-.451-.325-.675-.215-.452-.329-.673-.219-.448-.33-.667c-.057-.11-.109-.221-.164-.331l-.166-.326q-.167-.327-.33-.643c-.215-.416-.433-.827-.643-1.213-.087-.16-.174-.318-.259-.472h0c-.12-.215-.236-.423-.35-.621-.195-.34-.381-.652-.55-.93S.735.832.6.633l0,0C.534.528.476.439.42.361S.321.218.282.164C.205.057.16,0,.16,0S.144.07.121.2C.11.266.1.347.085.441S.059.644.048.765C.025,1.007.005,1.3,0,1.635c0,.084,0,.17,0,.259,0,.267.013.555.036.861C.068,3.162.119,3.6.2,4.061Z" transform="translate(0 0)" fill="#38572b"/>
      </g>
      <g id="Grupo_4326" data-name="Grupo 4326" transform="translate(0 14.62)">
        <path id="Trazado_8861" data-name="Trazado 8861" d="M0,.324s.053.037.151.1L.288.511.329.537.565.686c.174.111.382.243.609.392s.476.318.733.5c.065.047.13.092.195.142s.132.1.2.148.128.1.189.15l.046.038.056.043.116.088.029.022.014.011-.01,0,0,0,.006.005.049.041.092.08c.058.053.114.106.173.162s.12.118.188.183.136.133.209.2c.292.278.614.576.951.861s.689.568,1.048.838.729.527,1.1.771c.185.122.373.238.558.352s.371.221.537.314l.23.13c.038.023.069.04.116.07l.123.076.151.094.094.057.241.148c.319.2.626.379.915.55.2.118.393.229.573.333l.233.131.25.138.1.053.143.076h0c.055.029.109.058.16.083.092.048.176.091.251.126l.114.056.078.037c.106.05.165.074.165.074s-.011-.064-.038-.177-.069-.278-.137-.482l-.045-.133h0c-.06-.173-.135-.37-.23-.582-.08-.182-.174-.377-.282-.579h0c-.051-.1-.107-.2-.165-.3a9.927,9.927,0,0,0-.639-.966c-.123-.165-.253-.332-.393-.5L9.56,4.43c-.03-.036-.078-.085-.118-.129-.084-.089-.172-.179-.258-.259l-.078-.075c-.14-.133-.273-.254-.41-.378-.163-.144-.327-.288-.5-.429-.3-.252-.608-.5-.923-.74l-.119-.091q-.447-.335-.906-.647c-.061-.043-.122-.084-.183-.124C5.7,1.312,5.333,1.084,4.947.865c-.1-.055-.2-.109-.3-.163-.065-.035-.133-.07-.2-.1L4.329.541C4.218.488,4.1.437,3.988.394,3.932.372,3.875.351,3.822.332L3.741.305l-.01,0H3.725L3.708.292s0,0,0,0l-.018,0L3.653.277,3.512.239,3.358.2C3.25.17,3.142.142,3.043.124s-.2-.04-.3-.053S2.553.043,2.458.034A5.941,5.941,0,0,0,1.434.013,5.293,5.293,0,0,0,.657.124L.507.159.375.2C.294.218.225.241.17.26.059.3,0,.324,0,.324Z" fill="#38572b"/>
      </g>
      <g id="Grupo_4327" data-name="Grupo 4327" transform="translate(13.519 7.53)">
        <path id="Trazado_8862" data-name="Trazado 8862" d="M0,15.456s.06-.042.165-.128l.1-.08.094-.083q.11-.1.243-.231c.091-.088.184-.189.286-.3s.207-.236.315-.374a8.663,8.663,0,0,0,.661-.968c.11-.185.217-.382.321-.59l.076-.159.038-.081.009-.02,0-.005v0c0,.006,0,.016,0,.02l0-.009.019-.038c.051-.1.1-.2.15-.307.026-.05.051-.108.076-.154l.075-.138q.076-.139.148-.281c.109-.2.215-.408.324-.619.222-.424.446-.867.67-1.323s.444-.925.658-1.4.418-.956.611-1.436.371-.959.532-1.429a22.869,22.869,0,0,0,.745-2.652c.02-.1.042-.2.06-.3.009-.049.018-.1.028-.144l.013-.071,0-.018v0s0,0,0,0l0-.009.006-.035c.008-.046.016-.091.024-.135s.013-.082.019-.122c.015-.083.029-.164.043-.242.056-.315.113-.6.162-.832L6.789.2c.026-.123.039-.2.039-.2s-.073.037-.182.1c-.058.035-.129.08-.21.136s-.174.121-.273.2-.207.167-.322.268c-.058.051-.117.1-.177.161h0c-.059.057-.119.118-.18.181s-.123.13-.187.2l-.188.219-.185.225c-.063.075-.124.153-.188.232A23.036,23.036,0,0,0,3.156,4.177c-.262.426-.523.875-.769,1.341s-.483.947-.7,1.438-.422.992-.6,1.5S.739,9.465.607,9.968c-.035.124-.062.254-.091.379-.012.05-.023.1-.035.15-.017.076-.033.15-.048.227q-.04.2-.073.392c-.011.065-.023.129-.033.192s-.014.118-.021.176c-.012.115-.025.228-.034.341l0,.041v.011S.261,11.9.26,11.9v.024l0,.078c0,.051-.006.1-.008.154q-.019.309-.037.6c-.027.385-.056.744-.082,1.068s-.051.618-.071.854c-.005.057-.01.11-.014.16a.072.072,0,0,0,0,.012c0,.055-.008.106-.011.154-.008.095-.013.177-.018.245C0,15.382,0,15.456,0,15.456Z" transform="translate(0 0)" fill="#2d5c18"/>
      </g>
    </g>
    <g id="Grupo_4358" data-name="Grupo 4358" transform="translate(3.776 21.582)">
      <path id="Trazado_8863" data-name="Trazado 8863" d="M18.222,12.146c-.146,3.565-1.562,7.46-4.608,9.151a6.734,6.734,0,0,1-.8.378,7.9,7.9,0,0,1-6.447-.524A11.467,11.467,0,0,1,1.7,16.5,13.868,13.868,0,0,1,.193,7.445a17.289,17.289,0,0,1,.616-2.5C1.206,3.694,2.747,2.7,3.8,1.981,5.429.864,7.308-.2,9.349.031a10.408,10.408,0,0,1,3.5,1.038,10.171,10.171,0,0,1,3.11,2.389c.129.148.252.3.368.458C18,6.187,18.334,9.405,18.222,12.146Z" transform="translate(0.031 0.032)" fill="#fed83d"/>
      <g id="Grupo_4357" data-name="Grupo 4357" transform="translate(0 0)">
        <g id="Grupo_4329" data-name="Grupo 4329" transform="translate(0.816 4.725)">
          <path id="Trazado_8864" data-name="Trazado 8864" d="M.21.015h0L.207,0,.428.633l.217.634L1.09,2.526l.055.158.027.079.028.072c.04.1.08.2.122.305q.126.3.266.6c.093.2.189.4.288.593l.152.294.156.289q.159.29.328.574c.112.19.224.38.34.568.231.376.472.747.718,1.115l.185.276.189.272.382.549.765,1.1.379.552.095.138.092.129.194.272.389.545.1.136.1.128.2.265a25.824,25.824,0,0,0,1.7,2.026c.3.322.613.63.935.93s.656.583,1,.848a10.918,10.918,0,0,0,1.087.74c.189.111.38.22.577.317s.4.191.6.277l-.071.2c-.216-.068-.431-.14-.641-.225s-.417-.18-.621-.279a10.468,10.468,0,0,1-1.175-.689,13.289,13.289,0,0,1-1.085-.823c-.346-.291-.679-.6-1-.918-.161-.159-.318-.322-.474-.486s-.306-.333-.454-.5c-.3-.339-.585-.687-.866-1.04-.07-.089-.141-.178-.208-.267l-.105-.139-.1-.135-.393-.542-.2-.271-.1-.142-.1-.137-.382-.549-.757-1.1-.378-.552L3.241,7.8l-.183-.283c-.242-.379-.478-.762-.706-1.151s-.445-.785-.647-1.189c-.051-.1-.1-.2-.151-.305L1.41,4.562c-.094-.206-.186-.413-.27-.623S.974,3.517.9,3.3C.86,3.2.823,3.089.788,2.982L.76,2.9l-.023-.08L.69,2.655.508,2.01.417,1.688.372,1.527c-.017-.061-.029-.11-.043-.166L.164.713,0,.063,0,.049v0H0Z" transform="translate(0 0)" fill="#e8a410"/>
        </g>
        <g id="Grupo_4330" data-name="Grupo 4330" transform="translate(2.797 2.623)">
          <path id="Trazado_8865" data-name="Trazado 8865" d="M.2,0,.223.056C.238.094.261.148.292.218c.061.14.156.344.286.6s.3.558.506.9.455.718.734,1.123.6.834.932,1.3l.512.708c.176.242.351.491.531.744.359.507.734,1.027,1.107,1.562l.281.4.071.1.07.1.146.2c.193.263.391.527.591.787.4.523.807,1.034,1.229,1.52.211.242.427.481.636.71l.164.173.161.164q.164.164.33.322c.444.419.892.808,1.327,1.17l1.238,1.014c.772.627,1.4,1.179,1.819,1.586l.149.146.127.13.2.205.166.171-.144.156-.182-.154c-.118-.1-.293-.251-.513-.431s-.5-.4-.817-.641-.685-.511-1.084-.806-.836-.611-1.289-.961-.929-.728-1.395-1.154Q8,11.9,7.83,11.728l-.175-.171-.168-.17-.17-.178-.168-.178q-.166-.181-.33-.367c-.436-.5-.86-1.014-1.267-1.543q-.3-.4-.595-.8l-.145-.2-.073-.1-.07-.1-.278-.4c-.371-.536-.727-1.07-1.077-1.583-.174-.257-.346-.509-.511-.758l-.487-.73C2,3.969,1.7,3.515,1.436,3.089S.946,2.263.757,1.9.42,1.212.308.941.121.451.072.3C.047.225.029.168.018.13L0,.071Z" transform="translate(0 0)" fill="#e8a410"/>
        </g>
        <g id="Grupo_4331" data-name="Grupo 4331" transform="translate(4.979 1.176)">
          <path id="Trazado_8866" data-name="Trazado 8866" d="M.2,0,.218.046C.233.077.255.122.285.177.344.289.439.453.567.655s.3.44.5.707.448.558.719.872.577.645.9,1.006l.241.273.25.278.254.285.064.072.062.067.132.143c.351.378.731.757,1.12,1.135s.8.749,1.219,1.107.845.712,1.276,1.045.859.655,1.283.955l.628.44.3.213.3.206c.4.268.77.522,1.118.754l.952.628.738.48.644.419-.106.184-.18-.09c-.117-.06-.29-.142-.508-.256s-.482-.25-.781-.415-.637-.35-1-.562-.757-.442-1.166-.7L9.218,9.71l-.317-.2q-.16-.1-.321-.207l-.328-.217c-.437-.3-.887-.606-1.328-.943S6.04,7.451,5.611,7.084s-.842-.755-1.238-1.145S3.6,5.147,3.252,4.75L3.123,4.6l-.068-.078-.062-.074-.243-.294-.237-.289-.23-.284c-.3-.369-.592-.725-.848-1.061S.952,1.869.763,1.578A8.573,8.573,0,0,1,.31.8,5.52,5.52,0,0,1,.07.274C.045.21.029.163.017.131L0,.083Z" transform="translate(0 0)" fill="#e8a410"/>
        </g>
        <g id="Grupo_4332" data-name="Grupo 4332" transform="translate(8.29 0)">
          <path id="Trazado_8867" data-name="Trazado 8867" d="M.186,0,.2.027C.217.045.235.073.258.1A3.279,3.279,0,0,0,.477.369,5.125,5.125,0,0,0,.865.747q.118.1.257.217c.089.071.2.152.3.233l.33.255.346.272c.236.185.493.371.759.562q.2.143.411.284l.427.284c.288.19.586.377.888.56s.6.366.9.546l.88.526c.288.169.562.339.822.5s.5.317.727.461.429.279.61.4.338.227.467.315l.4.278-.1.186-.118-.051c-.078-.035-.188-.086-.329-.154s-.311-.149-.5-.247-.414-.206-.65-.329l-.37-.191-.4-.209c-.271-.142-.558-.29-.85-.45s-.6-.32-.9-.5-.615-.355-.921-.543-.606-.386-.9-.585l-.219-.151-.212-.153q-.21-.155-.411-.311c-.269-.206-.518-.419-.75-.628l-.171-.156-.161-.149-.3-.285L.979,1.4.91,1.34C.883,1.316.864,1.294.842,1.272Q.711,1.138.6,1.011A4.1,4.1,0,0,1,.243.551,2.7,2.7,0,0,1,.053.222C.033.181.022.152.013.132L0,.1Z" transform="translate(0 0)" fill="#e8a410"/>
        </g>
        <g id="Grupo_4333" data-name="Grupo 4333" transform="translate(0.32 0.198)">
          <path id="Trazado_8868" data-name="Trazado 8868" d="M0,6.408l.114-.076c.075-.048.183-.121.323-.21s.31-.2.506-.32L1.6,5.394,2.368,4.9l.851-.559c.291-.19.594-.408.9-.611l.941-.625.947-.613c.313-.2.627-.4.93-.583s.6-.362.885-.525c.142-.081.28-.161.415-.235L8.628.937l.182-.1L8.892.791,8.977.74,9.294.554c.2-.118.374-.217.519-.3s.259-.145.336-.189L10.269,0l.118.177-.106.086c-.07.055-.171.138-.3.239S9.687.727,9.5.866l-.294.222-.079.059-.09.061-.172.118L8.5,1.576l-.394.26L7.259,2.4l-.9.612-.47.314-.474.312-.95.613c-.156.1-.313.2-.468.3L3.763,4.7l-.117.072-.115.07c-.3.186-.605.357-.891.517s-.56.305-.816.435-.493.242-.7.341-.393.182-.544.252S.309,6.5.228,6.54L.1,6.594Z" transform="translate(0 0)" fill="#e8a410"/>
        </g>
        <g id="Grupo_4334" data-name="Grupo 4334" transform="translate(0 1.104)">
          <path id="Trazado_8869" data-name="Trazado 8869" d="M.022,9.1h0L0,9.1c.3-.139.6-.287.9-.433.076-.037.152-.073.234-.108l.228-.1q.228-.1.452-.2c.3-.138.6-.282.892-.434s.585-.3.872-.467.571-.33.852-.5.558-.351.831-.535.546-.37.811-.564.53-.392.788-.6.516-.41.767-.623q.19-.159.376-.321c.127-.11.249-.22.381-.329.259-.218.519-.43.78-.641s.523-.417.786-.623.521-.414.781-.621.515-.419.766-.633.5-.434.739-.661.473-.462.7-.7L13.1.133a9.977,9.977,0,0,1-.625.8c-.221.256-.454.5-.692.742s-.484.469-.732.7-.5.447-.754.668-.505.438-.759.653-.5.434-.749.654l-.371.333q-.188.17-.38.335-.385.33-.784.644t-.815.6c-.137.1-.278.2-.418.29l-.21.141c-.07.047-.142.092-.213.138q-.429.272-.869.524c-.293.169-.592.328-.895.479s-.607.3-.919.431-.623.262-.939.379q-.238.087-.478.168l-.24.079c-.074.025-.153.052-.23.08C.716,9.085.4,9.2.075,9.3L.057,9.3h0Z" fill="#e8a410"/>
        </g>
        <g id="Grupo_4335" data-name="Grupo 4335" transform="translate(0.533 2.733)">
          <path id="Trazado_8870" data-name="Trazado 8870" d="M0,10.9l.052-.016L.2,10.84c.13-.042.319-.11.559-.2s.529-.205.862-.339.706-.286,1.108-.462.831-.379,1.283-.6.918-.472,1.4-.735.966-.555,1.457-.855l.184-.114L7.1,7.507l.042-.027.092-.06.369-.24.185-.12L7.878,7l.088-.059L8.329,6.7c.485-.328.964-.664,1.421-1.01s.9-.7,1.3-1.059c.2-.18.4-.364.584-.545s.364-.365.53-.549a9.923,9.923,0,0,0,.862-1.092c.062-.088.115-.179.171-.265l.169-.264.081-.125.042-.066.041-.06.159-.231.535-.762c.146-.212.263-.377.339-.491L14.684,0l.184.107-.1.19c-.066.123-.161.3-.29.529s-.287.5-.47.806l-.139.239-.036.063-.033.06-.072.131-.149.268c-.054.095-.1.194-.164.291-.114.2-.246.394-.385.6s-.3.4-.463.6a12.421,12.421,0,0,1-1.12,1.181c-.1.1-.208.191-.314.287s-.218.192-.326.283c-.219.188-.447.371-.68.551-.466.359-.95.707-1.441,1.043l-.371.247-.1.063-.093.059-.186.119-.371.236-.092.059-.1.061-.188.114c-.5.3-1.009.58-1.5.84s-.983.49-1.452.7-.917.389-1.335.544c-.209.078-.411.15-.6.215l-.547.177c-.343.112-.647.2-.9.27s-.452.113-.59.143L.106,11.1l-.053.011Z" fill="#e8a410"/>
        </g>
        <g id="Grupo_4336" data-name="Grupo 4336" transform="translate(2.582 6.234)">
          <path id="Trazado_8871" data-name="Trazado 8871" d="M0,11.583.2,11.5c.127-.056.314-.145.551-.258l.856-.415c.167-.08.345-.164.537-.249s.405-.164.6-.248a11.674,11.674,0,0,0,1.279-.635l.166-.1.163-.1L4.7,9.278l.343-.215.349-.229c.468-.309.94-.646,1.418-.99s.952-.709,1.419-1.083S9.156,6.01,9.6,5.624s.917-.756,1.353-1.113.855-.7,1.231-1.042a12.239,12.239,0,0,0,1-1.02c.289-.338.536-.661.746-.957s.383-.562.52-.784.244-.4.314-.521L14.874,0l.19.1-.088.2c-.059.13-.144.321-.265.559s-.272.525-.466.844a11.026,11.026,0,0,1-.706,1.039,10.542,10.542,0,0,1-.99,1.116c-.375.372-.788.742-1.221,1.109s-.877.745-1.318,1.13S9.1,6.88,8.621,7.26,7.657,8,7.169,8.35s-.981.671-1.463.976l-.36.224L5.3,9.58l-.045.026-.089.052-.178.1-.35.2-.178.1-.176.093a10.248,10.248,0,0,1-1.369.6c-.111.039-.217.073-.319.107s-.2.068-.293.1c-.191.069-.372.138-.543.205-.34.135-.641.252-.889.345s-.447.16-.584.205l-.207.066Z" transform="translate(0 0)" fill="#e8a410"/>
        </g>
        <g id="Grupo_4337" data-name="Grupo 4337" transform="translate(6.277 11.874)">
          <path id="Trazado_8872" data-name="Trazado 8872" d="M.035,9.17h0L0,9.181c.258-.171.518-.348.779-.525s.522-.349.779-.527.515-.353.765-.537.5-.368.74-.562l.365-.3L3.8,6.441l.749-.578c.25-.192.5-.377.754-.566l.751-.565c.25-.188.5-.376.747-.567l.74-.576.747-.577c.248-.193.5-.382.747-.572s.494-.384.74-.576.489-.388.728-.588.48-.4.709-.6l.348-.32.175-.158.022-.02.005,0,0,0h0l.011-.01.042-.041L11.9.034,11.938,0l.03,0h0L12,.21h0l.064-.034L11.99.27l-.037.046-.009.012-.013.015-.019.022-.153.18L11.45.9c-.219.24-.438.462-.664.688s-.46.437-.694.65-.475.418-.715.624-.481.408-.725.607l-.727.6c-.246.2-.486.395-.737.6s-.5.387-.752.577L5.676,5.8c-.254.185-.507.372-.762.555l-.762.551-.761.556c-.26.186-.524.367-.794.535s-.543.331-.817.488-.553.307-.831.454L.53,9.158C.391,9.23.245,9.3.1,9.368l-.023.011H.065Z" fill="#e8a410"/>
        </g>
        <g id="Grupo_4338" data-name="Grupo 4338" transform="translate(1.859 14.393)">
          <path id="Trazado_8873" data-name="Trazado 8873" d="M.067,0V.062A.522.522,0,0,0,.081.129C.09.155.1.185.112.216A1.3,1.3,0,0,0,.236.431c.055.08.122.167.2.263s.161.2.249.327c.022.031.045.07.065.1l.056.1.111.2c.038.064.075.127.113.186.02.028.039.059.06.084l.03.04.031.036a.466.466,0,0,0,.247.166l.032,0a.108.108,0,0,0,.034,0h.052l.031,0,.039-.008.046-.01c.031-.008.063-.017.1-.029.066-.023.135-.051.209-.08l.112-.046.058-.023.015-.005h0l.01,0h0l.007,0,.028-.009L2.226,1.7l.066-.018.066-.017.061-.012c.08-.015.157-.027.231-.035.148-.016.283-.024.406-.032s.233-.016.331-.027a2.171,2.171,0,0,0,.251-.042A1.209,1.209,0,0,0,3.8,1.471l.058-.021s-.013.017-.04.048a.867.867,0,0,1-.13.123,1.411,1.411,0,0,1-.237.149,2.8,2.8,0,0,1-.329.139c-.121.043-.252.084-.383.128-.066.022-.132.043-.2.068-.033.013-.065.025-.091.037l-.043.018-.052.025-.2.1a2.445,2.445,0,0,1-.237.113c-.043.018-.089.035-.137.05-.024.008-.048.015-.074.021s-.058.013-.083.017l-.031,0H1.59l-.011,0H1.552L1.464,2.5a.5.5,0,0,1-.09,0c-.03,0-.061-.006-.091-.012a.91.91,0,0,1-.33-.148,1.074,1.074,0,0,1-.229-.227,1.53,1.53,0,0,1-.152-.241,2.459,2.459,0,0,1-.107-.234C.434,1.563.4,1.488.381,1.42l-.037-.1C.332,1.283.323,1.257.31,1.226.259,1.1.2.978.151.859A2.5,2.5,0,0,1,.037.518,1.056,1.056,0,0,1,0,.235.612.612,0,0,1,.013.129.586.586,0,0,1,.037.054Z" transform="translate(0 0)" fill="#e8a410"/>
        </g>
        <g id="Grupo_4339" data-name="Grupo 4339" transform="translate(6.063 13.073)">
          <path id="Trazado_8874" data-name="Trazado 8874" d="M0,0,.049,0A.49.49,0,0,1,.187.053.827.827,0,0,1,.37.188,1.81,1.81,0,0,1,.559.4C.683.563.8.76.932.928c.034.04.066.081.1.114a.911.911,0,0,0,.1.086.445.445,0,0,0,.1.049l.012,0,.006,0h0l-.017,0h.009l.024.005c.006,0,.02.005.016,0s0,0,0,0H1.3a.833.833,0,0,0,.26-.075c.1-.044.2-.1.3-.152.2-.111.4-.224.572-.314A3.08,3.08,0,0,1,2.883.454,1.041,1.041,0,0,1,3.066.41L3.033.447c-.021.023-.051.059-.088.1-.075.088-.177.213-.309.359a4.247,4.247,0,0,1-.492.47,2.21,2.21,0,0,1-.34.228,1.162,1.162,0,0,1-.472.147H1.256a.936.936,0,0,1-.095-.012.309.309,0,0,1-.031-.007l-.023-.006-.006,0h0l-.02-.006h0L1.06,1.713,1.027,1.7A.883.883,0,0,1,.793,1.56,1.213,1.213,0,0,1,.51,1.2,2.357,2.357,0,0,1,.363.852C.326.744.3.643.269.553A1.939,1.939,0,0,0,.111.137a.587.587,0,0,0-.075-.1Z" fill="#e8a410"/>
        </g>
        <g id="Grupo_4340" data-name="Grupo 4340" transform="translate(9.659 10.307)">
          <path id="Trazado_8875" data-name="Trazado 8875" d="M.033.9l.018.05a1.16,1.16,0,0,0,.06.13A1.48,1.48,0,0,0,.4,1.456a.884.884,0,0,0,.23.16l.015.007.007,0L.642,1.618h0l.005,0L.7,1.638l.022.008H.745c.014,0,.038,0,.056,0s.042,0,.064-.008a1.207,1.207,0,0,0,.3-.1,2.947,2.947,0,0,0,.324-.186c.11-.069.217-.148.324-.225L1.97,1,2.124.886c.2-.158.392-.31.557-.441L3.241,0s0,.018-.015.052S3.2.134,3.175.193a3.03,3.03,0,0,1-.25.471,4.1,4.1,0,0,1-.461.592,3.624,3.624,0,0,1-.308.3,3.416,3.416,0,0,1-.359.271,2.376,2.376,0,0,1-.417.216,1.378,1.378,0,0,1-.235.071,1.112,1.112,0,0,1-.254.028c-.043,0-.089-.006-.133-.01a1,1,0,0,1-.135-.033l-.073-.03L.515,2.049l-.02-.013L.456,2.011l0,0,0,0h0L.431,2,.419,1.987.4,1.968A1.048,1.048,0,0,1,.14,1.65,1.145,1.145,0,0,1,0,1.1.816.816,0,0,1,.018.95Z" transform="translate(0 0)" fill="#e8a410"/>
        </g>
        <g id="Grupo_4341" data-name="Grupo 4341" transform="translate(12.879 6.255)">
          <path id="Trazado_8876" data-name="Trazado 8876" d="M0,1.955l.06.015a1.223,1.223,0,0,1,.167.063,2.3,2.3,0,0,1,.242.132l.289.183c.052.031.1.063.158.089l.04.019.01,0,.005,0h0l0,0,.024.01c.031.013.068.031.1.04s.052.017.079.023a.5.5,0,0,0,.081.015.366.366,0,0,0,.141-.007.575.575,0,0,0,.141-.061c.051-.03.109-.072.168-.116l.376-.3.1-.079a.388.388,0,0,0,.041-.037l.036-.035c.049-.043.1-.1.149-.152a3.626,3.626,0,0,0,.261-.35c.078-.124.153-.247.22-.371L3.078.7c.064-.11.126-.211.184-.3s.112-.162.16-.221.089-.1.115-.134L3.579,0,3.565.061c-.01.039-.025.1-.041.168L3.382.821c-.031.123-.066.256-.111.4a3.593,3.593,0,0,1-.172.444,2.483,2.483,0,0,1-.123.229,2.261,2.261,0,0,1-.151.225,2.178,2.178,0,0,1-.188.213l-.054.052a.7.7,0,0,1-.052.048l-.1.081-.024.02-.034.026-.05.037-.1.075c-.067.051-.138.1-.212.15a1.681,1.681,0,0,1-.248.14.922.922,0,0,1-.311.085.792.792,0,0,1-.317-.037,1.11,1.11,0,0,1-.252-.119C.849,2.864.826,2.845.8,2.824L.775,2.808l-.008,0h0l0,0-.006,0L.745,2.786C.73,2.774.714,2.762.7,2.749A2.031,2.031,0,0,1,.548,2.6c-.089-.1-.16-.19-.224-.271S.207,2.18.16,2.124.074,2.026.045,2Z" fill="#e8a410"/>
        </g>
        <g id="Grupo_4342" data-name="Grupo 4342" transform="translate(8.427 16.021)">
          <path id="Trazado_8877" data-name="Trazado 8877" d="M0,.237.041.256A.908.908,0,0,1,.152.319a1.974,1.974,0,0,1,.16.116C.371.482.435.537.5.6S.638.715.71.774A1.312,1.312,0,0,0,.928.921L.98.944l.048.015c.016,0,.03,0,.045.006s.029,0,.042,0,.029-.005.043-.006l.011,0h.008L1.16.96h0L1.206.946,1.249.934A.141.141,0,0,0,1.284.922L1.33.9A1.718,1.718,0,0,0,1.579.756c.042-.027.085-.061.128-.09l.128-.1a5.714,5.714,0,0,1,.5-.351A2.132,2.132,0,0,1,2.563.1c.036-.015.069-.03.1-.041L2.752.031A.8.8,0,0,1,2.879.005L2.924,0l-.03.034c-.02.022-.049.051-.081.093L2.758.193c-.019.026-.04.051-.061.08-.043.057-.091.12-.142.191S2.446.61,2.384.69s-.132.165-.209.25a2.394,2.394,0,0,1-.265.254,1.612,1.612,0,0,1-.35.224l-.117.045a.337.337,0,0,1-.049.015l-.043.011L1.308,1.5,1.285,1.5H1.276l-.016,0-.033,0a.646.646,0,0,1-.131,0,.783.783,0,0,1-.448-.177,1.265,1.265,0,0,1-.255-.279A2.249,2.249,0,0,1,.242.794C.2.711.168.635.139.568L.067.394C.047.346.031.3.018.279Z" transform="translate(0 0)" fill="#e8a410"/>
        </g>
        <g id="Grupo_4343" data-name="Grupo 4343" transform="translate(15.547 8.706)">
          <path id="Trazado_8878" data-name="Trazado 8878" d="M0,1.849l.045-.007a.87.87,0,0,1,.127-.011c.057,0,.122,0,.2.006s.159.015.246.024.18.021.273.029a1.307,1.307,0,0,0,.263,0l.056-.011.048-.015c.014-.007.027-.015.04-.021s.023-.017.035-.024.021-.021.032-.03l.008-.007,0,0,0,0-.012.013h0l0,0L1.4,1.752l.028-.034a.139.139,0,0,0,.022-.03c.008-.015.017-.03.026-.044a1.707,1.707,0,0,0,.123-.26c.019-.046.035-.1.055-.147L1.7,1.086A5.7,5.7,0,0,1,1.916.513a2.144,2.144,0,0,1,.12-.227c.021-.033.04-.063.059-.091s.04-.052.058-.073A.832.832,0,0,1,2.243.03L2.277,0,2.271.045c0,.029-.011.07-.014.123L2.249.253c0,.032,0,.065-.005.1,0,.071-.007.15-.009.238s-.007.182-.013.284-.015.211-.031.324a2.4,2.4,0,0,1-.075.36,1.611,1.611,0,0,1-.162.382c-.023.035-.047.069-.071.1a.338.338,0,0,1-.032.04l-.029.033-.029.033-.017.018-.006.005-.013.011-.025.021a.648.648,0,0,1-.106.076.785.785,0,0,1-.469.108A1.272,1.272,0,0,1,.789,2.3a2.232,2.232,0,0,1-.275-.132C.434,2.127.364,2.083.3,2.044l-.158-.1C.1,1.912.064,1.888.038,1.874Z" transform="translate(0 0)" fill="#e8a410"/>
        </g>
        <g id="Grupo_4344" data-name="Grupo 4344" transform="translate(11.877 12.808)">
          <path id="Trazado_8879" data-name="Trazado 8879" d="M0,.941l.058,0A1.21,1.21,0,0,1,.224.943,1.9,1.9,0,0,1,.8,1.109q.085.039.174.089l.045.026.022.014.007.005h0l0,0,0,0,.01.007a.931.931,0,0,1,.094.074c.116.1.21.209.3.276a.319.319,0,0,0,.108.059.1.1,0,0,0,.038,0h.014l.028,0,.013,0,0,0a.107.107,0,0,1,.019-.006l.037-.012c.026-.011.052-.02.081-.034a1.6,1.6,0,0,0,.173-.092c.119-.069.237-.153.354-.236s.231-.172.34-.259c.22-.174.424-.343.6-.492s.317-.276.415-.371c.048-.047.086-.086.111-.114L3.823,0s0,.02-.008.058a1.175,1.175,0,0,1-.044.16,2.6,2.6,0,0,1-.262.524A4.223,4.223,0,0,1,3,1.39a3.932,3.932,0,0,1-.341.322,3.17,3.17,0,0,1-.4.291,2.151,2.151,0,0,1-.239.12,1.162,1.162,0,0,1-.135.049l-.074.019c-.026.006-.063.011-.094.015l-.024,0h-.1l-.047,0a.637.637,0,0,1-.18-.05.769.769,0,0,1-.257-.186,3.287,3.287,0,0,1-.261-.348A.433.433,0,0,0,.8,1.561L.792,1.552l0,0,0,0h0l0,0L.774,1.532.743,1.5C.7,1.459.66,1.421.619,1.384A3.539,3.539,0,0,0,.187,1.05C.13,1.014.084.986.051.968Z" fill="#e8a410"/>
        </g>
        <g id="Grupo_4345" data-name="Grupo 4345" transform="translate(4.601 18.154)">
          <path id="Trazado_8880" data-name="Trazado 8880" d="M0,0,.039.026C.064.043.1.068.146.1a4.47,4.47,0,0,1,.34.31C.618.543.764.7.921.827A1.585,1.585,0,0,0,1.16.994l.03.015.015.008.007,0-.021-.01h0l.005,0,.086.032a.056.056,0,0,0,.029.006l.02,0,.02,0h.033a1.169,1.169,0,0,0,.284-.012,2.667,2.667,0,0,0,.3-.069c.051-.012.1-.031.148-.046s.1-.034.143-.05S2.356.848,2.4.831,2.487.8,2.528.778s.08-.035.117-.052.073-.033.106-.05L2.845.631,2.925.588c.05-.025.086-.047.113-.062L3.08.5s-.005.016-.017.044a1,1,0,0,1-.057.121c-.014.025-.03.053-.048.083S2.916.81,2.893.844a1.262,1.262,0,0,1-.08.1c-.029.035-.062.07-.1.1a2.065,2.065,0,0,1-.244.209c-.046.034-.095.068-.147.1a1.584,1.584,0,0,1-.164.091c-.029.014-.057.03-.088.042l-.093.036a1.518,1.518,0,0,1-.2.062,1.373,1.373,0,0,1-.447.037l-.059-.006L1.205,1.6l-.07-.018a.408.408,0,0,1-.059-.019L.992,1.53.959,1.515.946,1.507.921,1.492.872,1.462A1.2,1.2,0,0,1,.7,1.325a1.356,1.356,0,0,1-.139-.148,2.071,2.071,0,0,1-.205-.3A3.054,3.054,0,0,1,.216.6C.139.424.089.275.053.17L.013.045Z" transform="translate(0 0)" fill="#e8a410"/>
        </g>
        <g id="Grupo_4346" data-name="Grupo 4346" transform="translate(8.097 20.362)">
          <path id="Trazado_8881" data-name="Trazado 8881" d="M0,0,.039.026C.064.043.1.068.146.1a4.446,4.446,0,0,1,.34.31C.618.543.764.7.921.827A1.584,1.584,0,0,0,1.16.994l.03.015.015.008.007,0-.021-.01h0l.005,0,.086.032a.055.055,0,0,0,.029.006l.021,0,.02,0h.033a1.16,1.16,0,0,0,.284-.012,2.687,2.687,0,0,0,.3-.069c.051-.012.1-.031.148-.046s.1-.034.143-.05S2.356.848,2.4.831,2.487.8,2.528.778s.08-.035.117-.052.074-.033.106-.05L2.846.631,2.925.588c.05-.025.086-.048.113-.062L3.08.5s-.005.016-.017.044a1.016,1.016,0,0,1-.057.121c-.014.025-.03.053-.048.083S2.916.81,2.893.844a1.26,1.26,0,0,1-.081.1,1.418,1.418,0,0,1-.1.1,2.054,2.054,0,0,1-.244.209c-.046.034-.095.068-.147.1a1.562,1.562,0,0,1-.164.09c-.029.014-.057.03-.088.042l-.093.036a1.553,1.553,0,0,1-.2.062,1.376,1.376,0,0,1-.447.037l-.06-.006L1.205,1.6l-.07-.017a.4.4,0,0,1-.059-.019L.992,1.53.959,1.515.946,1.507.921,1.492l-.049-.03A1.2,1.2,0,0,1,.7,1.325a1.324,1.324,0,0,1-.139-.148,2.077,2.077,0,0,1-.205-.3A3.074,3.074,0,0,1,.216.6C.14.424.089.275.053.17L.014.045Z" fill="#e8a410"/>
        </g>
        <g id="Grupo_4347" data-name="Grupo 4347" transform="translate(15.455 14.218)">
          <path id="Trazado_8882" data-name="Trazado 8882" d="M0,2.865l.035-.032c.023-.02.056-.05.1-.084a4.46,4.46,0,0,1,.383-.254c.157-.1.341-.2.507-.322a1.576,1.576,0,0,0,.22-.191l.022-.025.011-.013.005-.006-.015.018h0l0,0,0,0c.017-.026.034-.051.052-.076a.057.057,0,0,0,.013-.027c0-.007,0-.013.007-.019a.152.152,0,0,1,.009-.018l.009-.032A1.168,1.168,0,0,0,1.423,1.5a2.676,2.676,0,0,0,.007-.31c0-.052-.006-.1-.008-.155s-.01-.1-.014-.151S1.395.785,1.39.738,1.376.646,1.369.6,1.355.516,1.347.476,1.333.4,1.325.36L1.3.258,1.281.171C1.27.117,1.256.075,1.249.046L1.237,0l.038.027a1,1,0,0,1,.1.085c.021.02.044.042.069.067s.047.054.074.085.051.066.077.1.053.077.078.119A2.055,2.055,0,0,1,1.82.774c.022.053.043.108.06.167a1.578,1.578,0,0,1,.048.181c.006.031.015.063.02.1l.013.1a1.558,1.558,0,0,1,.012.206,1.372,1.372,0,0,1-.073.443l-.02.056-.032.065-.034.063a.4.4,0,0,1-.033.053c-.018.025-.037.049-.056.073L1.7,2.3l-.01.01-.021.02-.042.04a1.212,1.212,0,0,1-.174.133,1.349,1.349,0,0,1-.177.1,2.073,2.073,0,0,1-.34.127,3.065,3.065,0,0,1-.3.069c-.188.032-.345.045-.456.054l-.13.009Z" transform="translate(0 0)" fill="#e8a410"/>
        </g>
        <g id="Grupo_4348" data-name="Grupo 4348" transform="translate(11.528 18.406)">
          <path id="Trazado_8883" data-name="Trazado 8883" d="M0,.786l.051,0,.062,0C.137.78.166.783.2.787A.806.806,0,0,1,.3.8,1.183,1.183,0,0,1,.426.833,2.486,2.486,0,0,1,.7.932c.1.041.2.088.307.139s.213.1.32.149a1.76,1.76,0,0,0,.313.108.7.7,0,0,0,.136.013H1.8l.025,0h.013l0,0,.008,0,.028-.009a1.271,1.271,0,0,0,.277-.156c.1-.07.191-.145.282-.223.183-.157.351-.316.5-.455S3.2.229,3.284.142c.042-.044.076-.078.1-.1L3.416,0s0,.018,0,.052A1.332,1.332,0,0,1,3.384.2,2.39,2.39,0,0,1,3.2.681a3.154,3.154,0,0,1-.4.614,2.475,2.475,0,0,1-.3.3,1.466,1.466,0,0,1-.423.255c-.022.008-.046.014-.07.021l-.041.01L1.912,1.9l-.023,0-.015,0-.025,0H1.8l-.035,0A1.063,1.063,0,0,1,1.5,1.858l-.117-.04c-.036-.016-.071-.033-.106-.049a1.688,1.688,0,0,1-.189-.109A3.148,3.148,0,0,1,.78,1.427C.688,1.351.605,1.276.53,1.209s-.144-.13-.205-.183C.294,1,.264.976.237.953S.184.91.161.893L.1.846.044.814Z" transform="translate(0 0)" fill="#e8a410"/>
        </g>
        <g id="Grupo_4349" data-name="Grupo 4349" transform="translate(3.9 10.122)">
          <path id="Trazado_8884" data-name="Trazado 8884" d="M0,.07.032.052a.317.317,0,0,1,.1-.038A.345.345,0,0,1,.208,0,.453.453,0,0,1,.3,0,.567.567,0,0,1,.406.022a.823.823,0,0,1,.11.037C.555.073.589.092.628.11S.7.151.735.172C.807.216.874.262.94.306a1.56,1.56,0,0,0,.185.11.377.377,0,0,0,.041.019l.019.007.009,0,0,0h0L1.183.442h.005l.065.019.016.005.012,0H1.3a.256.256,0,0,0,.03,0l.041,0c.014,0,.029,0,.043,0a.218.218,0,0,0,.045,0A1.062,1.062,0,0,0,1.647.439c.067-.021.136-.042.2-.069.034-.011.066-.026.1-.039s.064-.026.1-.038L2.218.225c.053-.02.1-.038.142-.051.081-.027.131-.039.131-.039s0,.012-.014.034S2.454.222,2.434.26a1.756,1.756,0,0,1-.191.3A1.443,1.443,0,0,1,1.854.9a1.072,1.072,0,0,1-.142.069L1.634,1l-.084.022a.536.536,0,0,1-.088.015.772.772,0,0,1-.091.008l-.094,0a.813.813,0,0,1-.1-.015L1.12,1.012,1.1,1.007,1.083,1,1.019.979h0L1,.971h0L.982.965.96.955.919.933A.664.664,0,0,1,.842.888,1.228,1.228,0,0,1,.61.683C.487.547.406.421.33.327.312.3.293.281.276.262A.576.576,0,0,0,.222.206.45.45,0,0,0,.169.161.375.375,0,0,0,.12.127.376.376,0,0,0,.033.084Z" transform="translate(0 0)" fill="#e8a410"/>
        </g>
        <g id="Grupo_4350" data-name="Grupo 4350" transform="translate(7.104 7.914)">
          <path id="Trazado_8885" data-name="Trazado 8885" d="M0,.283l.04,0a.569.569,0,0,1,.116,0A.746.746,0,0,1,.334.32,1.024,1.024,0,0,1,.547.429,2.133,2.133,0,0,1,.758.594a2.16,2.16,0,0,0,.19.155A.229.229,0,0,0,1.08.8.469.469,0,0,0,1.238.762,1.827,1.827,0,0,0,1.463.656L1.585.589,1.7.523c.156-.089.3-.176.433-.252L2.454.078,2.548.02,2.583,0s0,.014-.008.039a1.074,1.074,0,0,1-.031.109A1.626,1.626,0,0,1,2.367.5,2.192,2.192,0,0,1,2,.928c-.038.035-.078.068-.12.1s-.09.068-.129.095a1.523,1.523,0,0,1-.318.17A.838.838,0,0,1,1,1.34.623.623,0,0,1,.77,1.252a.7.7,0,0,1-.159-.133A1.392,1.392,0,0,1,.431.866L.315.66A1.626,1.626,0,0,0,.21.5a1.224,1.224,0,0,0-.1-.118A.944.944,0,0,0,.03.309Z" transform="translate(0 0)" fill="#e8a410"/>
        </g>
        <g id="Grupo_4351" data-name="Grupo 4351" transform="translate(9.677 4.556)">
          <path id="Trazado_8886" data-name="Trazado 8886" d="M0,.926.053.92a.985.985,0,0,1,.154,0A1.3,1.3,0,0,1,.446.957a1.965,1.965,0,0,1,.294.1c.1.046.21.1.317.16l.01.005.005,0h0l.006,0,.02.012.04.024c.025.014.059.04.089.06.06.042.111.083.164.123s.1.076.139.1a.151.151,0,0,0,.029.017l.026.013a.213.213,0,0,0,.04.012c.011,0,.022,0,.032,0s.022,0,.04-.006l.024,0,.03-.01a.385.385,0,0,0,.065-.026.524.524,0,0,0,.072-.034L1.928,1.5l0,0h0l-.01.006.011-.007.022-.014c.058-.038.127-.075.16-.1s.083-.062.125-.1A.619.619,0,0,0,2.3,1.228a.527.527,0,0,0,.053-.056A1.184,1.184,0,0,0,2.53.916c.051-.094.094-.2.138-.294S2.756.432,2.8.353a1.591,1.591,0,0,1,.13-.2,1.079,1.079,0,0,1,.1-.115C3.056.013,3.069,0,3.069,0L3.064.054c0,.034-.011.084-.015.146s-.01.137-.014.221S3.028.6,3.024.709a2.229,2.229,0,0,1-.045.363,1.328,1.328,0,0,1-.165.422.7.7,0,0,1-.068.1,1.2,1.2,0,0,1-.078.1l-.085.091c-.029.03-.065.057-.1.085a1.673,1.673,0,0,1-.184.136l-.022.015-.011.007-.018.011-.007,0-.055.031a.963.963,0,0,1-.117.059.936.936,0,0,1-.133.048l-.071.02-.08.013a.756.756,0,0,1-.169,0,.8.8,0,0,1-.322-.107c-.022-.014-.041-.028-.061-.042a.54.54,0,0,1-.054-.042,1.488,1.488,0,0,1-.166-.163c-.044-.05-.088-.1-.123-.139C.871,1.7.86,1.687.835,1.664L.8,1.631.786,1.615l0,0h0l0,0,0,0L.774,1.6.537,1.364a3.147,3.147,0,0,0-.371-.327C.115,1,.076.972.045.955Z" transform="translate(0 0)" fill="#e8a410"/>
        </g>
        <g id="Grupo_4352" data-name="Grupo 4352" transform="translate(1.035 11.048)">
          <path id="Trazado_8887" data-name="Trazado 8887" d="M.032,0s.036.038.09.11a3.268,3.268,0,0,1,.195.3C.389.532.465.676.544.821c.04.072.08.145.122.213.021.033.042.067.064.1l.077.115.057.089s0,0,0,0L.85,1.324a.182.182,0,0,0-.068-.034l-.022,0-.015,0a.113.113,0,0,0-.027,0H.711l0,0h0c.014,0,.066-.015.109-.025s.093-.023.14-.031c.1-.019.175-.027.256-.037l.222-.023c.138-.013.254-.025.338-.039.042-.007.077-.011.1-.017l.037-.007s-.005.012-.018.033a.661.661,0,0,1-.06.088,1.233,1.233,0,0,1-.282.249,2.262,2.262,0,0,1-.211.123c-.074.038-.16.076-.233.109l-.116.053a1.021,1.021,0,0,1-.153.06l-.014,0-.021,0-.042.007a.445.445,0,0,1-.062,0l-.033,0L.629,1.827A.367.367,0,0,1,.5,1.761C.486,1.75.475,1.74.464,1.729A.361.361,0,0,1,.436,1.7a1.328,1.328,0,0,1-.1-.144L.3,1.5c-.013-.02-.024-.038-.039-.064A1.448,1.448,0,0,1,.18,1.289,1.834,1.834,0,0,1,.078,1,2.3,2.3,0,0,1,0,.5,2.557,2.557,0,0,1,.012.14C.022.052.032,0,.032,0Z" transform="translate(0 0)" fill="#e8a410"/>
        </g>
        <g id="Grupo_4353" data-name="Grupo 4353" transform="translate(4.991 4.843)">
          <path id="Trazado_8888" data-name="Trazado 8888" d="M0,0,.029.021A.982.982,0,0,1,.108.086C.14.115.179.15.22.193s.087.09.136.142.1.106.153.159a1.556,1.556,0,0,0,.169.15A.8.8,0,0,0,.767.7.263.263,0,0,0,.811.723l.011,0,.005,0h0L.813.725h0L.85.737.917.759c.017,0,.025,0,.038,0a.489.489,0,0,0,.087,0A.781.781,0,0,0,1.248.719c.036-.011.073-.03.11-.044s.074-.036.111-.052L1.69.51c.072-.037.143-.071.209-.1s.13-.055.189-.075A1.371,1.371,0,0,1,2.241.291a.885.885,0,0,1,.1-.016l.036,0s-.037.036-.1.094L2.039.611c-.05.051-.105.1-.166.161s-.129.114-.205.171A1.464,1.464,0,0,1,1.4,1.1a.983.983,0,0,1-.339.09l-.095,0a.459.459,0,0,1-.1-.013.943.943,0,0,1-.1-.025L.706,1.123.673,1.109l0,0L.652,1.1h0l-.01-.006L.619,1.08a.61.61,0,0,1-.074-.05A.822.822,0,0,1,.422.919,1.219,1.219,0,0,1,.254.685,1.876,1.876,0,0,1,.149.466,3.183,3.183,0,0,1,.037.131C.024.091.017.057.009.035Z" transform="translate(0 0)" fill="#e8a410"/>
        </g>
        <g id="Grupo_4354" data-name="Grupo 4354" transform="translate(0.134 8.129)">
          <path id="Trazado_8889" data-name="Trazado 8889" d="M0,0A.732.732,0,0,1,.079.07a2.6,2.6,0,0,1,.18.2c.07.083.146.182.23.266a.671.671,0,0,0,.127.1L.631.649h0L.619.643h0l.006,0L.642.652l.05.022c.014,0,.017,0,.025,0l.01,0H.742A.323.323,0,0,0,.879.66a1.1,1.1,0,0,0,.16-.075c.109-.06.217-.13.316-.183.05-.026.1-.05.141-.067A.952.952,0,0,1,1.611.3.567.567,0,0,1,1.688.279l.027,0-.07.076c-.043.048-.1.118-.17.2a2.126,2.126,0,0,1-.27.275A.825.825,0,0,1,1.111.9.705.705,0,0,1,1,.958a.577.577,0,0,1-.285.053.391.391,0,0,1-.039,0L.634,1A.728.728,0,0,1,.554.972L.506.948.468.928.438.907A.734.734,0,0,1,.262.723a1.184,1.184,0,0,1-.1-.188A1.779,1.779,0,0,1,.091.364,2.649,2.649,0,0,1,.022.1C.014.071.01.044.005.027Z" fill="#e8a410"/>
        </g>
        <g id="Grupo_4355" data-name="Grupo 4355" transform="translate(7.796 2.763)">
          <path id="Trazado_8890" data-name="Trazado 8890" d="M0,.382S.037.411.1.463C.125.488.162.518.2.551a1.107,1.107,0,0,0,.133.1A.456.456,0,0,0,.482.706.44.44,0,0,0,.641.7,1.164,1.164,0,0,0,.833.647L.858.638.887.626.948.6c.037-.015.074-.028.112-.044C1.136.531,1.211.5,1.285.468L1.4.422,1.5.375c.07-.031.138-.062.2-.092S1.831.223,1.888.2l.282-.14C2.239.019,2.282,0,2.282,0L2.269.031c-.009.019-.021.05-.04.085A1.387,1.387,0,0,1,2.154.24,1.548,1.548,0,0,1,2.04.389,1.9,1.9,0,0,1,1.689.7a2.312,2.312,0,0,1-.474.252C1.173.971,1.127.986,1.084,1l-.062.019L.991,1.03l-.037.01-.071.018-.074.012a.681.681,0,0,1-.076.007.536.536,0,0,1-.077,0A.647.647,0,0,1,.358,1,.616.616,0,0,1,.163.821.829.829,0,0,1,.068.646,1.159,1.159,0,0,1,.024.506.853.853,0,0,1,0,.415Z" fill="#e8a410"/>
        </g>
        <g id="Grupo_4356" data-name="Grupo 4356" transform="translate(1.985 6.616)">
          <path id="Trazado_8891" data-name="Trazado 8891" d="M0,.182.038.17A.371.371,0,0,1,.154.159a.482.482,0,0,1,.182.05.893.893,0,0,1,.2.137C.662.458.78.608.9.717A.958.958,0,0,0,1,.787a.508.508,0,0,0,.09.043.36.36,0,0,0,.091.016h.048l.039,0a.165.165,0,0,0,.034,0L1.348.828c.016,0,.039-.011.058-.016.04-.01.08-.028.12-.042A2.036,2.036,0,0,0,1.76.647C1.836.6,1.908.551,1.977.5s.132-.1.19-.149.111-.095.158-.136.088-.08.12-.113L2.55,0,2.543.039a.8.8,0,0,1-.026.109,1.452,1.452,0,0,1-.059.164,1.909,1.909,0,0,1-.1.2c-.021.036-.046.071-.071.109S2.228.694,2.2.733a1.826,1.826,0,0,1-.215.218C1.962.968,1.942.986,1.92,1l-.069.049a1.34,1.34,0,0,1-.148.09,1.215,1.215,0,0,1-.169.071c-.031.009-.057.02-.093.027l-.106.02a.312.312,0,0,1-.043,0l-.039,0H1.2l-.054,0a.68.68,0,0,1-.21-.053.81.81,0,0,1-.3-.236A1.705,1.705,0,0,1,.463.72L.345.5A.705.705,0,0,0,.13.24.464.464,0,0,0,.038.195Z" transform="translate(0 0)" fill="#e8a410"/>
        </g>
      </g>
    </g>
  </g>
</svg>
