<svg id="Grupo_5106" data-name="Grupo 5106" xmlns="http://www.w3.org/2000/svg" width="62.767" height="62.767" viewBox="0 0 62.767 62.767">
  <g id="Grupo_5103" data-name="Grupo 5103" transform="translate(0 0)">
    <path id="Trazado_10904" data-name="Trazado 10904" d="M31.383,0A31.383,31.383,0,1,1,0,31.383,31.383,31.383,0,0,1,31.383,0Z" transform="translate(0)" fill="#7cb342"/>
    <path id="Trazado_1178" data-name="Trazado 1178" d="M28.008,0A28.008,28.008,0,1,1,0,28.008,28.008,28.008,0,0,1,28.008,0Z" transform="translate(3.631 3.631)" fill="#fff"/>
  </g>
  <rect id="Rectángulo_3104" data-name="Rectángulo 3104" width="18.868" height="15.24" transform="translate(8.708 24.674)" fill="#e01f00"/>
  <g id="Grupo_5072" data-name="Grupo 5072" transform="translate(29.568 17.102)">
    <g id="Grupo_4286" data-name="Grupo 4286" transform="translate(14.455)">
      <path id="Trazado_8721" data-name="Trazado 8721" d="M304.135,427.245l-.065.037c-.044.026-.11.065-.195.117-.168.1-.409.257-.691.452a13.033,13.033,0,0,0-1.912,1.588,6.374,6.374,0,0,0-.8.992,3.072,3.072,0,0,0-.413.935,1.813,1.813,0,0,0-.047.372,1.486,1.486,0,0,0,.019.279.984.984,0,0,0,.02.1.624.624,0,0,0,.019.074l.018.062.011.038a.518.518,0,0,1-.988.31l-.034-.1c-.012-.033-.025-.074-.037-.123s-.029-.1-.04-.169a2.548,2.548,0,0,1-.052-.465,2.892,2.892,0,0,1,.049-.593,4.167,4.167,0,0,1,.5-1.306,7.512,7.512,0,0,1,.9-1.216,14.247,14.247,0,0,1,2.026-1.83c.3-.223.548-.4.729-.521.09-.061.162-.108.213-.14l.081-.051a.674.674,0,1,1,.722,1.139l-.021.013Z" transform="translate(-298.947 -425.982)" fill="#3f3b30"/>
    </g>
    <g id="Grupo_4287" data-name="Grupo 4287" transform="translate(15.559 3.302)">
      <path id="Trazado_8722" data-name="Trazado 8722" d="M323.98,484.864a11.593,11.593,0,0,1-3.645-.41,10.969,10.969,0,0,1-1.917-.549c-.048-.02-.1-.041-.144-.063a3.989,3.989,0,0,1-1-.64.985.985,0,0,1-.335-.443.536.536,0,0,1-.018-.094h0a.866.866,0,0,1,.006-.2c0-.042.012-.088.022-.137s.019-.1.03-.151l.015-.07c.012-.051.025-.1.038-.153h0c.008-.033.017-.066.026-.1q.035-.123.079-.243a3.034,3.034,0,0,1,.254-.539,2.39,2.39,0,0,1,.78-.8,4.176,4.176,0,0,1,2.576-.534,12.392,12.392,0,0,1,2.6.6l5.965,1.837.1.03-.05.036-.06.044-.349.253q-.212.153-.428.3A9.861,9.861,0,0,1,323.98,484.864Z" transform="translate(-316.921 -479.722)" fill="#42762b"/>
      <path id="Trazado_8723" data-name="Trazado 8723" d="M516.035,519.821c-.053.009-.107.017-.16.024.056-.046.114-.092.174-.133l.1.03Z" transform="translate(-503.65 -517.255)" fill="#42762b"/>
    </g>
    <path id="Trazado_8724" data-name="Trazado 8724" d="M87.025,482.876c0,.022-.008.045-.012.067a14.179,14.179,0,0,1-4.34,8.112l-.008.007-.01.008a15.236,15.236,0,0,1-6.3,2.971,4.317,4.317,0,0,1-.953.1h-.022a19.9,19.9,0,0,1-4.809-1.344h0l0,0c-.228-.237-.408-.448-.435-.479l0,0h-.912c-.745,0-1.809-1.34-2.3-1.875a11.256,11.256,0,0,1-1.794-2.639,14.124,14.124,0,0,1-1.331-4.821c-.048-.471-.076-.945-.084-1.418A12.08,12.08,0,0,1,64.1,477.9a9.96,9.96,0,0,1,.459-1.281,8.741,8.741,0,0,1,2.886-3.731,5.815,5.815,0,0,1,3.542-1.383c2.078.052,4.391,1.682,5.995,2.651.3.182.577.341.822.461a2.282,2.282,0,0,0,.532.179,3.45,3.45,0,0,0,.653.072,3.741,3.741,0,0,0,.434-.015h0l.044,0a10,10,0,0,1,6.2,3.152c.055.063.108.126.161.191a5.705,5.705,0,0,1,1.278,3.008A5.654,5.654,0,0,1,87.025,482.876Z" transform="translate(-63.706 -468.709)" fill="#e01f00"/>
  </g>
</svg>
