<svg xmlns="http://www.w3.org/2000/svg" width="810.616" height="167.318" viewBox="0 0 810.616 167.318">
  <g id="Grupo_5150" data-name="Grupo 5150" transform="translate(-182.812 -3621.703)">
    <g id="Grupo_5144" data-name="Grupo 5144" transform="translate(795.599 3699.796) rotate(-60)">
      <path id="Trazado_10980" data-name="Trazado 10980" d="M31.73,5.518c5.6-3.544,11.985-6.811,18.246-5C55.375,2.07,59.063,7.015,64,9.7c4.058,2.207,9.345,3.232,11.392,7.372,1.151,2.328.945,5.154,2.135,7.462,1.712,3.321,5.986,4.96,7.091,8.529,1.115,3.6-1.535,7.269-1.741,11.036-.24,4.387,2.794,8.185,4.358,12.292a19.333,19.333,0,0,1-2.558,18.149c-2.263,3.014-5.508,5.515-6.441,9.166-.4,1.559-.329,3.2-.6,4.787-.939,5.549-5.7,9.508-8.823,14.187-7.362,11.019-5.422,25.554-3.2,38.616l4.428,25.987c.327,1.916.543,1.693-.053,3.543s-1.73,3.688-3.642,3.34c-1.735,2.536-6.037,1.628-7.785-.9s-1.709-5.835-1.668-8.909a223.865,223.865,0,0,0-3.833-44.3c-.6-3.2-1.56-6.795-4.435-8.33a11.334,11.334,0,0,0-5.609-.845c-4.362.085-8.851.132-12.918-1.445s-7.659-5.186-7.868-9.543a12.657,12.657,0,0,0-.26-3.584c-.945-2.723-4.428-3.287-7.062-4.454A11.932,11.932,0,0,1,8.2,79.256c.467-2.646,1.846-5.363.9-7.88-.772-2.064-2.86-3.261-4.506-4.725a14.357,14.357,0,0,1-3.281-16.51c1.733-3.572,4.934-6.3,6.464-9.968,1.462-3.5,1.238-7.458,2.055-11.165,2.242-10.177,11.7-16.866,20.432-22.552Q30.99,5.987,31.73,5.518Z" transform="translate(0)" fill="none" stroke="#80cbc4" stroke-miterlimit="10" stroke-width="2"/>
      <path id="Trazado_10981" data-name="Trazado 10981" d="M18.67,124.608c.107-10.768-1-21.507-2.113-32.218-1.584-15.3-3.17-30.606-4.9-45.892-.789-6.947-1.616-13.932-3.617-20.631C7.017,22.455,5.7,19.13,4.9,15.662,3.658,10.269,3.542,4.251,0,0" transform="translate(41.434 15.763)" fill="none" stroke="#80cbc4" stroke-miterlimit="10" stroke-width="2"/>
      <path id="Trazado_10982" data-name="Trazado 10982" d="M34.055,12.811A15.625,15.625,0,0,0,23.579,5.852a24.68,24.68,0,0,1-4.818-.873C16.3,4.04,14.544,1.759,12.086.821A13.729,13.729,0,0,0,8.045.154,26.182,26.182,0,0,0,0,.473" transform="translate(23.319 86.327)" fill="none" stroke="#80cbc4" stroke-miterlimit="10" stroke-width="2"/>
      <path id="Trazado_10983" data-name="Trazado 10983" d="M38.219,23.4l-7.365-8.24a17.823,17.823,0,0,0-3.725-3.444c-3.344-2.074-7.593-1.717-11.5-1.277a6.826,6.826,0,0,1-2.746-.064c-2.1-.636-3.023-2.991-4.211-4.83A12.557,12.557,0,0,0,0,0" transform="translate(15.993 51.977)" fill="none" stroke="#80cbc4" stroke-miterlimit="10" stroke-width="2"/>
      <path id="Trazado_10984" data-name="Trazado 10984" d="M24.653,19.568a16.913,16.913,0,0,0-12.746-8.937C10.6,10.468,9.17,10.422,8.155,9.58a6.8,6.8,0,0,1-1.5-2.249A19.307,19.307,0,0,0,0,0" transform="translate(24.872 23.05)" fill="none" stroke="#80cbc4" stroke-miterlimit="10" stroke-width="2"/>
      <path id="Trazado_10985" data-name="Trazado 10985" d="M0,27.309A33.888,33.888,0,0,1,1.941,18.27,33.846,33.846,0,0,1,3.65,14.9L8.077,6.919a12.92,12.92,0,0,0,1.472-3.38A4.356,4.356,0,0,0,8.966,0" transform="translate(49.99 14.411)" fill="none" stroke="#80cbc4" stroke-miterlimit="10" stroke-width="2"/>
      <path id="Trazado_10986" data-name="Trazado 10986" d="M0,36.514c.634-3.959,2.419-7.626,4.148-11.244q1.932-4.039,3.824-8.095l1.213-2.582C11.447,9.775,13.712,4.952,15.664,0" transform="translate(55.17 38.216)" fill="none" stroke="#80cbc4" stroke-miterlimit="10" stroke-width="2"/>
      <path id="Trazado_10987" data-name="Trazado 10987" d="M0,33.614C1.487,26.965,8.391,22.556,9.85,15.9c.585-2.667.261-5.591,1.567-7.989C13.092,4.838,17.1,3.337,18.152,0" transform="translate(57.895 64.403)" fill="none" stroke="#80cbc4" stroke-miterlimit="10" stroke-width="2"/>
    </g>
    <g id="Grupo_5145" data-name="Grupo 5145" transform="translate(706.383 3650.534)">
      <path id="Trazado_10988" data-name="Trazado 10988" d="M593.447,444.7a21.237,21.237,0,0,0-19.794-13.4,9.533,9.533,0,0,0-4.115.852,10.088,10.088,0,0,0-4.113,4.713,33.3,33.3,0,0,0-2.946,18.245,75.345,75.345,0,0,1,.787,8.224,56.088,56.088,0,0,1-.948,7.8,72.318,72.318,0,0,0-.3,19.241,37.608,37.608,0,0,0,3.727,13.3,19.34,19.34,0,0,0,9.941,9.256c4.338,1.618,9.6,1.046,13.065-2.022" transform="translate(-561.514 -412.078)" fill="none" stroke="#80cbc4" stroke-miterlimit="10" stroke-width="2"/>
      <path id="Trazado_10989" data-name="Trazado 10989" d="M631.629,451.709c-3.319.42-6.6-.835-9.706-2.067l-8.583-3.4c-3.884-1.538-7.947-3.1-12.108-2.726-6.034.55-11.078,5.214-13.73,10.663s-3.323,11.62-3.843,17.658c-1.109,12.875-1.608,26.37,3.691,38.156,2.165,4.812,5.546,9.434,10.473,11.321a17.635,17.635,0,0,0,6.486,1.035,29.068,29.068,0,0,0,9.327-1.707c8.653-3.044,16.089-10.126,18.331-19.02a58.426,58.426,0,0,0,1.152-7.719,76.359,76.359,0,0,1,4.5-19.562c1.9-4.8,4.5-9.308,6.164-14.191s2.338-10.375.335-15.129-7.279-8.359-12.3-7.16c-4.036.965-6.892,4.626-8.519,8.443" transform="translate(-561.36 -412.032)" fill="none" stroke="#80cbc4" stroke-miterlimit="10" stroke-width="2"/>
      <path id="Trazado_10990" data-name="Trazado 10990" d="M573,431.064c.036-.684,9.092-4.529,13.191-5.168a27.294,27.294,0,0,1,13.668,1.611" transform="translate(-561.431 -412.118)" fill="none" stroke="#80cbc4" stroke-miterlimit="10" stroke-width="2"/>
      <path id="Trazado_10991" data-name="Trazado 10991" d="M608.093,428.711a20.243,20.243,0,0,1,13.334-1.42,36.377,36.377,0,0,1,12.394,5.582c2.307,1.532,4.707,3.557,4.941,6.318" transform="translate(-561.178 -412.11)" fill="none" stroke="#80cbc4" stroke-miterlimit="10" stroke-width="2"/>
      <path id="Trazado_10992" data-name="Trazado 10992" d="M596.817,444.788c-1.239-.088-2.644-.264-3.367-1.273-.24-.334-.38-.735-.642-1.052a36.869,36.869,0,0,0,7.969-1.354" transform="translate(-561.289 -412.007)" fill="none" stroke="#80cbc4" stroke-miterlimit="10" stroke-width="2"/>
      <path id="Trazado_10993" data-name="Trazado 10993" d="M616.719,447.929a13.93,13.93,0,0,1,1.983-1.444c.476-.287,1.042-.673.988-1.226a1.268,1.268,0,0,0-.679-.854c-1.348-.851-3.033-1.089-4.311-2.043a9.227,9.227,0,0,0-.751-.562c-.883-.532-1.408-.331-2.432-.2" transform="translate(-561.153 -412.004)" fill="none" stroke="#80cbc4" stroke-miterlimit="10" stroke-width="2"/>
      <path id="Trazado_10994" data-name="Trazado 10994" d="M611.589,445.623a1.8,1.8,0,0,0,1.315-2.469,5.7,5.7,0,0,0-1.252-1.347,8.907,8.907,0,0,1-1.953-4.3l-1.357-5.414c-.9-3.6-1.8-7.2-2.55-10.835a14.878,14.878,0,0,1-.417-4.923,5.472,5.472,0,0,0,.107-1.8c-.282-1.374-1.849-2.055-3.24-2.232a10.736,10.736,0,0,0-9.293,3.541" transform="translate(-561.287 -412.215)" fill="none" stroke="#80cbc4" stroke-miterlimit="10" stroke-width="2"/>
      <path id="Trazado_10995" data-name="Trazado 10995" d="M600.021,443.969c2.061-4.287,1.114-9.33.378-14.029a21.831,21.831,0,0,0-1.536-6.151,6.66,6.66,0,0,0-4.7-3.911,4.911,4.911,0,0,1-1.375-.275,1.007,1.007,0,0,1-.625-1.126" transform="translate(-561.293 -412.17)" fill="none" stroke="#80cbc4" stroke-miterlimit="10" stroke-width="2"/>
      <path id="Trazado_10996" data-name="Trazado 10996" d="M592.876,415.478a3.887,3.887,0,0,0-.151,3.474" transform="translate(-561.292 -412.192)" fill="none" stroke="#80cbc4" stroke-miterlimit="10" stroke-width="2"/>
    </g>
    <g id="Grupo_5146" data-name="Grupo 5146" transform="matrix(0.695, 0.719, -0.719, 0.695, 621.012, 3623.36)">
      <path id="Trazado_10997" data-name="Trazado 10997" d="M21.755,1.017a16.394,16.394,0,0,0-11.628.1A17.247,17.247,0,0,0,1.389,8.8,8.6,8.6,0,0,0,.238,15.228" transform="translate(2.38 21.793)" fill="none" stroke="#80cbc4" stroke-miterlimit="10" stroke-width="2"/>
      <path id="Trazado_10998" data-name="Trazado 10998" d="M2.912,0A5.588,5.588,0,0,0,.533,7.242c1.118,2.181,3.57,3.333,5.937,4.029a14.836,14.836,0,0,0,5.634.707A7.5,7.5,0,0,0,17.117,9.54,11.753,11.753,0,0,0,18.64,6.919l1.768-3.755" transform="translate(0 36.911)" fill="none" stroke="#80cbc4" stroke-miterlimit="10" stroke-width="2"/>
      <path id="Trazado_10999" data-name="Trazado 10999" d="M0,9.643c.02-.514.982-.95,1.494-.875a3.7,3.7,0,0,1,1.377.682A14.963,14.963,0,0,0,7.22,11.066a13.127,13.127,0,0,0,6.08.574c2.439-.548,4.339-2.42,5.951-4.32C21.045,5.206,22.736,2.757,22.8,0" transform="translate(20.119 30.685)" fill="none" stroke="#80cbc4" stroke-miterlimit="10" stroke-width="2"/>
      <path id="Trazado_11000" data-name="Trazado 11000" d="M13.664,15.335c2.285-.94,4.725-2.011,5.986-4.123,1.856-3.108.2-7.4-2.82-9.387S9.885-.289,6.3.329A10.449,10.449,0,0,0,2.136,1.793,4.561,4.561,0,0,0,0,5.467" transform="translate(29.344 18.581)" fill="none" stroke="#80cbc4" stroke-miterlimit="10" stroke-width="2"/>
      <path id="Trazado_11001" data-name="Trazado 11001" d="M.44,16.274C-.855,13.44.919,8.9,3.038,6.589A20.806,20.806,0,0,1,15.906.06c1.736-.2,3.851.03,4.651,1.568" transform="translate(21.871 5.873)" fill="none" stroke="#80cbc4" stroke-miterlimit="10" stroke-width="2"/>
      <path id="Trazado_11002" data-name="Trazado 11002" d="M0,2.421C1.076.381,3.833.055,6.15.013a20.359,20.359,0,0,1,4.756.3,11.349,11.349,0,0,1,7.123,5.21,13.348,13.348,0,0,1,1.692,8.7,8.66,8.66,0,0,1-1.086,3.332c-1.267,2.077-3.619,3.209-5.84,4.228L8.074,23.951" transform="translate(42.761 4.879)" fill="none" stroke="#80cbc4" stroke-miterlimit="10" stroke-width="2"/>
      <path id="Trazado_11003" data-name="Trazado 11003" d="M18.923,4.208C18.689,2.024,17.257.885,15.129.285A10.251,10.251,0,0,0,8.635.916C3.934,2.8.055,7.257,0,12.277c-.021,2.054.485,3.656,2.215,4.778" transform="translate(19.87 1.64)" fill="none" stroke="#80cbc4" stroke-miterlimit="10" stroke-width="2"/>
      <path id="Trazado_11004" data-name="Trazado 11004" d="M0,5.374C.536,4.1,2.483,2.736,3.743,2.142a23.154,23.154,0,0,1,19.944.234c1.262.635,2.312.737,3.023,1.951.859,1.466,1.539,2.735.528,4.109" transform="translate(39.565 0)" fill="none" stroke="#80cbc4" stroke-miterlimit="10" stroke-width="2"/>
      <path id="Trazado_11005" data-name="Trazado 11005" d="M0,7.231C2.294,3.532,6.527,1.377,10.807.479a17.643,17.643,0,0,1,9.349.309c2.978,1.031,6.076,1.928,7.091,4.89s-.034,5.314-2.579,7.178" transform="translate(62.003 5.492)" fill="none" stroke="#80cbc4" stroke-miterlimit="10" stroke-width="2"/>
      <path id="Trazado_11006" data-name="Trazado 11006" d="M4.941,0C8.192,2.34,6.884,10.533,0,10.7" transform="translate(81.332 18.108)" fill="none" stroke="#80cbc4" stroke-miterlimit="10" stroke-width="2"/>
      <path id="Trazado_11007" data-name="Trazado 11007" d="M0,1.381A24.754,24.754,0,0,1,12.33.356,13.585,13.585,0,0,1,18.31,2.71a14.188,14.188,0,0,1,4.409,6.776,20.637,20.637,0,0,1,.768,12.349,13.039,13.039,0,0,1-8.176,8.959c-1.546.49-4.56.685-5.778-.371" transform="translate(61.53 24.166)" fill="none" stroke="#80cbc4" stroke-miterlimit="10" stroke-width="2"/>
      <path id="Trazado_11008" data-name="Trazado 11008" d="M22.792,0a4.968,4.968,0,0,1-1.581,5.314,10.805,10.805,0,0,1-5.4,2.276A26.228,26.228,0,0,1,0,5.455" transform="translate(48.021 52.414)" fill="none" stroke="#80cbc4" stroke-miterlimit="10" stroke-width="2"/>
      <path id="Trazado_11009" data-name="Trazado 11009" d="M13.014,20.034c-1.994.891-4.308,1.627-6.314.779a7.37,7.37,0,0,1-3.116-3.026A23.081,23.081,0,0,1,.006,6.239,12.485,12.485,0,0,1,1.368,0" transform="translate(36.805 39.427)" fill="none" stroke="#80cbc4" stroke-miterlimit="10" stroke-width="2"/>
      <path id="Trazado_11010" data-name="Trazado 11010" d="M3.782,0C7.4,1.808,8.9,5.918,10.611,9.564a14.366,14.366,0,0,1,1.529,5.743,7.813,7.813,0,0,1-1.944,5.52,11.551,11.551,0,0,1-3.384,2.258,11.928,11.928,0,0,1-3.225,1.186A6.622,6.622,0,0,1,0,23.879" transform="translate(85.794 12.553)" fill="none" stroke="#80cbc4" stroke-miterlimit="10" stroke-width="2"/>
      <path id="Trazado_11011" data-name="Trazado 11011" d="M0,0A30.987,30.987,0,0,0,1.87,9.427c1.266,2.959,3.665,5.619,6.815,6.376a13.644,13.644,0,0,0,5.96-.232,14.887,14.887,0,0,0,5.089-1.854,6.28,6.28,0,0,0,2.973-4.331" transform="translate(17.152 47.341)" fill="none" stroke="#80cbc4" stroke-miterlimit="10" stroke-width="2"/>
      <path id="Trazado_11012" data-name="Trazado 11012" d="M0,0A5.571,5.571,0,0,1,2.029,2.2C5.414,7.574,8.7,13.581,11.723,19.169" transform="translate(44.43 60.08)" fill="none" stroke="#80cbc4" stroke-miterlimit="10" stroke-width="2"/>
      <path id="Trazado_11013" data-name="Trazado 11013" d="M0,0A72.2,72.2,0,0,1,2.667,19.2" transform="translate(53.486 60.049)" fill="none" stroke="#80cbc4" stroke-miterlimit="10" stroke-width="2"/>
      <path id="Trazado_11014" data-name="Trazado 11014" d="M0,0Q1.245,8.583,3.243,17.033" transform="translate(64.974 59.394)" fill="none" stroke="#80cbc4" stroke-miterlimit="10" stroke-width="2"/>
      <path id="Trazado_11015" data-name="Trazado 11015" d="M2.166,0A105.34,105.34,0,0,0,0,20.217" transform="translate(68.312 56.476)" fill="none" stroke="#80cbc4" stroke-miterlimit="10" stroke-width="2"/>
      <path id="Trazado_11016" data-name="Trazado 11016" d="M0,6.213,9.108,17.06c3.362,4,6.846,8.261,7.747,13.4a42.986,42.986,0,0,1,.282,7.022c.058,6.073,1.245,12.069,2.426,18.023a5.263,5.263,0,0,0,1.273,2.963,5.179,5.179,0,0,0,3.667.916,66.451,66.451,0,0,0,11.046-1.11c3.276-.609,8.392-4.053,8.392-4.053,2.5-4.225,1.27-9.646-.841-14.059s-5.057-8.541-5.963-13.346C35.464,17.956,42.227,8.981,41.39,0" transform="translate(35.434 55.271)" fill="none" stroke="#80cbc4" stroke-miterlimit="10" stroke-width="2"/>
      <path id="Trazado_11017" data-name="Trazado 11017" d="M7.391.057A5.078,5.078,0,0,0,3.558,1.368,8.477,8.477,0,0,0,0,6.092" transform="translate(12.583 16.471)" fill="none" stroke="#80cbc4" stroke-miterlimit="10" stroke-width="2"/>
    </g>
    <g id="Grupo_5147" data-name="Grupo 5147" transform="translate(456.76 3650.534)">
      <path id="Trazado_11018" data-name="Trazado 11018" d="M129.769,387.026c2.1-3.842,2.352-8.389,2.556-12.763" transform="translate(-88.62 -363.926)" fill="none" stroke="#80cbc4" stroke-miterlimit="10" stroke-width="2"/>
      <path id="Trazado_11019" data-name="Trazado 11019" d="M131.937,374.179a5.648,5.648,0,0,0,3.471-.949,2.5,2.5,0,0,0-2.449-.328c-.8.331-.918.42-1.022,1.277" transform="translate(-88.294 -364.158)" fill="none" stroke="#80cbc4" stroke-miterlimit="10" stroke-width="2"/>
      <path id="Trazado_11020" data-name="Trazado 11020" d="M134.763,373.127a31.425,31.425,0,0,1,.926,6.7c.067,1.01.132,2.02.131,3.032a22.775,22.775,0,0,1-.457,4.511" transform="translate(-87.87 -364.097)" fill="none" stroke="#80cbc4" stroke-miterlimit="10" stroke-width="2"/>
      <path id="Trazado_11021" data-name="Trazado 11021" d="M136.566,385.753a4.1,4.1,0,0,1-3.648.8,5.672,5.672,0,0,1-1.384-.573l-3.815-1.992" transform="translate(-88.928 -362.466)" fill="none" stroke="#80cbc4" stroke-miterlimit="10" stroke-width="2"/>
      <path id="Trazado_11022" data-name="Trazado 11022" d="M131.723,383.443a49.508,49.508,0,0,0-15.242-4.371,21.643,21.643,0,0,0-7.638.2,10.289,10.289,0,0,0-6.268,4.118,6.812,6.812,0,0,0-.252,7.258" transform="translate(-92.881 -363.24)" fill="none" stroke="#80cbc4" stroke-miterlimit="10" stroke-width="2"/>
      <path id="Trazado_11023" data-name="Trazado 11023" d="M102.259,390.067a10.032,10.032,0,0,1,11.357-9.192,20.1,20.1,0,0,1,4.832,1.518l12.678,5.192" transform="translate(-92.751 -362.947)" fill="none" stroke="#80cbc4" stroke-miterlimit="10" stroke-width="2"/>
      <path id="Trazado_11024" data-name="Trazado 11024" d="M132.024,386c-3.33.03-6.376,2.091-8.413,4.725a33.246,33.246,0,0,0-4.391,8.925c-.812,2.177-1.632,4.555-.936,6.77" transform="translate(-90.384 -362.164)" fill="none" stroke="#80cbc4" stroke-miterlimit="10" stroke-width="2"/>
      <path id="Trazado_11025" data-name="Trazado 11025" d="M118.572,406.445a3.679,3.679,0,0,1-.063-2.345c1.158-5.232,5.088-9.423,9.386-12.622,2.737-2.036,6.089-3.86,9.411-3.085" transform="translate(-90.335 -361.832)" fill="none" stroke="#80cbc4" stroke-miterlimit="10" stroke-width="2"/>
      <path id="Trazado_11026" data-name="Trazado 11026" d="M134.258,388.625c2.915.513,5.706-1.141,8.482-2.163a21.252,21.252,0,0,1,24.161,7.72" transform="translate(-87.946 -362.271)" fill="none" stroke="#80cbc4" stroke-miterlimit="10" stroke-width="2"/>
      <path id="Trazado_11027" data-name="Trazado 11027" d="M166.719,394.581c-.577-2.351-2.421-4.16-4.287-5.7a52.9,52.9,0,0,0-6.25-4.445,12.1,12.1,0,0,0-5.958-2.161,13.589,13.589,0,0,0-4.151.832l-7.21,2.246" transform="translate(-87.254 -362.724)" fill="none" stroke="#80cbc4" stroke-miterlimit="10" stroke-width="2"/>
      <path id="Trazado_11028" data-name="Trazado 11028" d="M138.863,386.5c-.007-1.136,2.054-3.442,2.753-4.339a21.707,21.707,0,0,1,8.611-6.611,10.328,10.328,0,0,1,10.707,1.182" transform="translate(-87.254 -363.879)" fill="none" stroke="#80cbc4" stroke-miterlimit="10" stroke-width="2"/>
      <path id="Trazado_11029" data-name="Trazado 11029" d="M161.417,377.116c-3.085-3.591-7.882-5.91-12.48-4.784a15.8,15.8,0,0,0-5.629,3.035,56.287,56.287,0,0,0-7.654,7.067" transform="translate(-87.736 -364.259)" fill="none" stroke="#80cbc4" stroke-miterlimit="10" stroke-width="2"/>
      <path id="Trazado_11030" data-name="Trazado 11030" d="M133.421,378.3a103.47,103.47,0,0,0-5.193-9,9.446,9.446,0,0,0-3.438-3.612c-1.51-.745-3.647-.488-4.47.981" transform="translate(-90.038 -365.276)" fill="none" stroke="#80cbc4" stroke-miterlimit="10" stroke-width="2"/>
      <path id="Trazado_11031" data-name="Trazado 11031" d="M120.389,366.734a2.178,2.178,0,0,1,2.752.261A6.049,6.049,0,0,1,124.6,369.6a80.172,80.172,0,0,1,3.7,15.266" transform="translate(-90.028 -365.114)" fill="none" stroke="#80cbc4" stroke-miterlimit="10" stroke-width="2"/>
      <path id="Trazado_11032" data-name="Trazado 11032" d="M146.331,373.953c-5.715-2.235-11.619-3.7-17.731-3.1" transform="translate(-88.795 -364.458)" fill="none" stroke="#80cbc4" stroke-miterlimit="10" stroke-width="2"/>
      <path id="Trazado_11033" data-name="Trazado 11033" d="M102.554,386.106q-.776,1-1.488,2.054a41.9,41.9,0,0,0-6.029,32.546,57.391,57.391,0,0,0,8.149,18.033,39.669,39.669,0,0,0,7.6,9.073,35.472,35.472,0,0,0,9.775,5.512c10.9,4.3,23.517,5.224,34.241.5a44.4,44.4,0,0,0,9.777-5.585,53.914,53.914,0,0,0,8.89-8.334c6.5-7.779,9.382-17.868,9.112-28a36.585,36.585,0,0,0-10.112-24.669c-3.8-3.892-7.331-7.738-12.223-10.112-1.041-.5-2.088-1.006-3.141-1.5" transform="translate(-93.992 -363.722)" fill="none" stroke="#80cbc4" stroke-miterlimit="10" stroke-width="2"/>
      <path id="Trazado_11034" data-name="Trazado 11034" d="M127.175,371.132a41.87,41.87,0,0,0-20.8,9.668" transform="translate(-92.132 -364.396)" fill="none" stroke="#80cbc4" stroke-miterlimit="10" stroke-width="2"/>
    </g>
    <g id="Grupo_5148" data-name="Grupo 5148" transform="translate(316.367 3635.922)">
      <path id="Trazado_11035" data-name="Trazado 11035" d="M629.005,613.722a22.012,22.012,0,0,0-13.808,1.85,44.5,44.5,0,0,0-11.511,8.176c-2.7,2.512-5.318,5.3-6.565,8.769a19.438,19.438,0,0,0-.9,7.463,35.8,35.8,0,0,0,3.6,14.063c1.055,2.155,2.361,4.335,2.32,6.734s-2.192,4.942-4.507,4.314c-1.03-.28-1.868-1.117-2.925-1.262a2.448,2.448,0,0,0-2.658,2.418" transform="translate(-591.85 -552.145)" fill="none" stroke="#80cbc4" stroke-miterlimit="10" stroke-width="2"/>
      <path id="Trazado_11036" data-name="Trazado 11036" d="M591.773,686.529a4.359,4.359,0,0,1,3.27-.724,11.587,11.587,0,0,1,3.677,1.826,4.983,4.983,0,0,0,3.91.874,4.921,4.921,0,0,0,2.562-2.457,16.074,16.074,0,0,0,1.219-2.664" transform="translate(-591.773 -572.179)" fill="none" stroke="#80cbc4" stroke-miterlimit="10" stroke-width="2"/>
      <path id="Trazado_11037" data-name="Trazado 11037" d="M613.132,665.283a23.437,23.437,0,0,0,17.82,1.415,33.8,33.8,0,0,0,15.061-10.086,24.7,24.7,0,0,0,5.005-7.9c1.673-4.636,1.273-9.818-.179-14.529s-3.892-9.044-6.314-13.337" transform="translate(-597.878 -554.305)" fill="none" stroke="#80cbc4" stroke-miterlimit="10" stroke-width="2"/>
      <path id="Trazado_11038" data-name="Trazado 11038" d="M629.822,678A27.423,27.423,0,0,0,617.5,658.014" transform="translate(-599.128 -564.927)" fill="none" stroke="#80cbc4" stroke-miterlimit="10" stroke-width="2"/>
      <path id="Trazado_11039" data-name="Trazado 11039" d="M641,673.3A25.265,25.265,0,0,0,630.345,652.7" transform="translate(-602.798 -563.408)" fill="none" stroke="#80cbc4" stroke-miterlimit="10" stroke-width="2"/>
      <path id="Trazado_11040" data-name="Trazado 11040" d="M650.972,666.7a28.134,28.134,0,0,0-8.279-19.3" transform="translate(-606.327 -561.894)" fill="none" stroke="#80cbc4" stroke-miterlimit="10" stroke-width="2"/>
      <path id="Trazado_11041" data-name="Trazado 11041" d="M598.712,655.761a8.781,8.781,0,0,1,6.741.851" transform="translate(-593.756 -564.191)" fill="none" stroke="#80cbc4" stroke-miterlimit="10" stroke-width="2"/>
      <path id="Trazado_11042" data-name="Trazado 11042" d="M599.327,643.073a17.054,17.054,0,0,1,11.227,2.456" transform="translate(-593.932 -560.616)" fill="none" stroke="#80cbc4" stroke-miterlimit="10" stroke-width="2"/>
      <path id="Trazado_11043" data-name="Trazado 11043" d="M603.8,631.354c3.906-.774,7.874.7,11.554,2.223,2.628,1.088,5.323,2.272,7.255,4.362" transform="translate(-595.211 -557.246)" fill="none" stroke="#80cbc4" stroke-miterlimit="10" stroke-width="2"/>
      <path id="Trazado_11044" data-name="Trazado 11044" d="M662.655,652.742c-.411-3.08-2.125-5.815-3.9-8.368a23.275,23.275,0,0,0-6.093-6.556" transform="translate(-609.177 -559.155)" fill="none" stroke="#80cbc4" stroke-miterlimit="10" stroke-width="2"/>
      <path id="Trazado_11045" data-name="Trazado 11045" d="M616.98,620.542a15.978,15.978,0,0,1,9.246,1.638,47.594,47.594,0,0,1,7.981,5.183" transform="translate(-598.978 -554.173)" fill="none" stroke="#80cbc4" stroke-miterlimit="10" stroke-width="2"/>
      <path id="Trazado_11046" data-name="Trazado 11046" d="M613.055,682.587a6.05,6.05,0,0,0-4.281-3.751" transform="translate(-596.632 -570.879)" fill="none" stroke="#80cbc4" stroke-miterlimit="10" stroke-width="2"/>
      <path id="Trazado_11047" data-name="Trazado 11047" d="M622.142,682.323a5.973,5.973,0,0,0-.421-2.588,16.932,16.932,0,0,0-9.123-9.82" transform="translate(-597.725 -568.329)" fill="none" stroke="#80cbc4" stroke-miterlimit="10" stroke-width="2"/>
      <path id="Trazado_11048" data-name="Trazado 11048" d="M643.192,613.813a16.867,16.867,0,0,1,2.725.936c2.837,1.16,5.771,2.385,7.851,4.636" transform="translate(-606.47 -552.294)" fill="none" stroke="#80cbc4" stroke-miterlimit="10" stroke-width="2"/>
      <path id="Trazado_11049" data-name="Trazado 11049" d="M653,613.908l5.846-10.225" transform="translate(-609.273 -549.398)" fill="none" stroke="#80cbc4" stroke-miterlimit="10" stroke-width="2"/>
      <path id="Trazado_11050" data-name="Trazado 11050" d="M655.807,617.033a41.13,41.13,0,0,1,5.461-8.409" transform="translate(-610.076 -550.81)" fill="none" stroke="#80cbc4" stroke-miterlimit="10" stroke-width="2"/>
      <path id="Trazado_11051" data-name="Trazado 11051" d="M659.338,623.252a59.03,59.03,0,0,0,9.966-4.339" transform="translate(-611.085 -553.751)" fill="none" stroke="#80cbc4" stroke-miterlimit="10" stroke-width="2"/>
      <path id="Trazado_11052" data-name="Trazado 11052" d="M660.986,626.9q5.46-1.562,10.76-3.626" transform="translate(-611.556 -554.998)" fill="none" stroke="#80cbc4" stroke-miterlimit="10" stroke-width="2"/>
      <path id="Trazado_11053" data-name="Trazado 11053" d="M662.184,607.807l3.356-4.829" transform="translate(-611.898 -549.197)" fill="none" stroke="#80cbc4" stroke-miterlimit="10" stroke-width="2"/>
      <path id="Trazado_11054" data-name="Trazado 11054" d="M659.961,580.839c-2.679.783-5.672,1.121-8.179-.105s-4.159-4.469-2.859-6.94c.639-1.216,1.876-2.1,2.252-3.424.494-1.732-.648-3.445-1.368-5.1a11.786,11.786,0,0,1,4.822-14.451,2.448,2.448,0,0,0,1.156-.984,2.654,2.654,0,0,0-.106-1.67,8.89,8.89,0,0,1,2.428-7.8,23.206,23.206,0,0,1,6.982-4.764,5.835,5.835,0,0,0,1.793-1.193c.886-.987.976-2.437,1.522-3.647,1.44-3.189,6.066-3.961,9.024-2.09s4.333,5.562,4.409,9.061a10.19,10.19,0,0,0,.368,3.525,12.241,12.241,0,0,0,1.3,2.123c2.645,4.059,2.141,9.732-.712,13.646-1.4,1.925-3.417,3.8-3.237,6.173.111,1.465,1.064,2.712,1.589,4.085a8.381,8.381,0,0,1-2.09,8.66,11.385,11.385,0,0,1-8.626,3.042,5.117,5.117,0,0,1-9.477,2.947" transform="translate(-607.978 -527.672)" fill="none" stroke="#80cbc4" stroke-miterlimit="10" stroke-width="2"/>
      <path id="Trazado_11055" data-name="Trazado 11055" d="M663.943,584.567a360.526,360.526,0,0,0,16.584-51.2" transform="translate(-612.401 -529.301)" fill="none" stroke="#80cbc4" stroke-miterlimit="10" stroke-width="2"/>
      <path id="Trazado_11056" data-name="Trazado 11056" d="M675.831,559.228c-.07-2.649-1.177-5.146-2.264-7.563l-2.658-5.908" transform="translate(-614.392 -532.841)" fill="none" stroke="#80cbc4" stroke-miterlimit="10" stroke-width="2"/>
      <path id="Trazado_11057" data-name="Trazado 11057" d="M678.546,561.164q5.807-4.769,11.136-10.083" transform="translate(-616.575 -534.363)" fill="none" stroke="#80cbc4" stroke-miterlimit="10" stroke-width="2"/>
      <path id="Trazado_11058" data-name="Trazado 11058" d="M669.3,581.284a75.853,75.853,0,0,1-5.568-10.331" transform="translate(-612.34 -540.043)" fill="none" stroke="#80cbc4" stroke-miterlimit="10" stroke-width="2"/>
      <path id="Trazado_11059" data-name="Trazado 11059" d="M671.319,582.316a51.8,51.8,0,0,0,11.6-6.524" transform="translate(-614.509 -541.426)" fill="none" stroke="#80cbc4" stroke-miterlimit="10" stroke-width="2"/>
      <path id="Trazado_11060" data-name="Trazado 11060" d="M672.284,610.408a9.473,9.473,0,0,1,13.591-8.325A14.679,14.679,0,0,1,699.87,593.3a5.706,5.706,0,0,0,2.113-.094,5.443,5.443,0,0,0,1.314-.753,18.676,18.676,0,0,1,19.33-.8,6.883,6.883,0,0,1,3.555,3.9c.866,3.324-2.425,6.208-5.5,7.73A6.454,6.454,0,0,0,717.6,605.6a8.806,8.806,0,0,0-.639,2.3c-1.054,4.621-5.465,7.627-9.741,9.672-2.8,1.341-6.582,2.305-8.666,0a9.964,9.964,0,0,1-17.851.241,9.094,9.094,0,0,1-4.5.813c-1.523-.252-2.982-1.6-2.78-3.127" transform="translate(-614.785 -545.297)" fill="none" stroke="#80cbc4" stroke-miterlimit="10" stroke-width="2"/>
      <path id="Trazado_11061" data-name="Trazado 11061" d="M673.175,615.134a185.675,185.675,0,0,0,43.892-16.39" transform="translate(-615.04 -547.987)" fill="none" stroke="#80cbc4" stroke-miterlimit="10" stroke-width="2"/>
      <path id="Trazado_11062" data-name="Trazado 11062" d="M713.872,605.569a70.476,70.476,0,0,1,7.993-8.134" transform="translate(-626.672 -547.612)" fill="none" stroke="#80cbc4" stroke-miterlimit="10" stroke-width="2"/>
      <path id="Trazado_11063" data-name="Trazado 11063" d="M714.84,608.538c-.317-.331.437-.616.87-.467l8.564,2.943" transform="translate(-626.927 -550.641)" fill="none" stroke="#80cbc4" stroke-miterlimit="10" stroke-width="2"/>
      <path id="Trazado_11064" data-name="Trazado 11064" d="M694.353,612.311l5.758-8.6" transform="translate(-621.093 -549.407)" fill="none" stroke="#80cbc4" stroke-miterlimit="10" stroke-width="2"/>
      <path id="Trazado_11065" data-name="Trazado 11065" d="M694.326,615.705a82.689,82.689,0,0,1,12.075,4.773" transform="translate(-621.085 -552.834)" fill="none" stroke="#80cbc4" stroke-miterlimit="10" stroke-width="2"/>
    </g>
    <g id="Grupo_5149" data-name="Grupo 5149" transform="translate(184 3635.922)">
      <path id="Trazado_11066" data-name="Trazado 11066" d="M531.2,151.9c-1.585.452-3.244-.373-4.59-1.323a15.41,15.41,0,0,1-5.716-6.965,9.755,9.755,0,0,1,.778-8.768,12.123,12.123,0,0,1,6.765-4.4,12.434,12.434,0,0,1,5.9-.506" transform="translate(-501.62 -60.049)" fill="none" stroke="#80cbc4" stroke-miterlimit="10" stroke-width="2"/>
      <path id="Trazado_11067" data-name="Trazado 11067" d="M516.067,125.437c-5.481-2.276-8.341-9.246-6.355-14.839s8.285-9.173,14.165-8.372a1.974,1.974,0,0,0,1.092-.043c.587-.268.716-1.019.9-1.638.7-2.378,3.082-3.825,5.382-4.75,2.983-1.2,6.316-1.9,9.412-1.042s5.815,3.639,5.782,6.853" transform="translate(-498.127 -48.935)" fill="none" stroke="#80cbc4" stroke-miterlimit="10" stroke-width="2"/>
      <path id="Trazado_11068" data-name="Trazado 11068" d="M571.761,128.672c.929-3.03-.8-4.942-2.781-7.413a10.241,10.241,0,0,0-4.154-3.361c-3.01-1.143-6.53.176-8.781,2.477" transform="translate(-512.871 -56.189)" fill="none" stroke="#80cbc4" stroke-miterlimit="10" stroke-width="2"/>
      <path id="Trazado_11069" data-name="Trazado 11069" d="M575.932,161.673a14.876,14.876,0,0,0,14.311-6.953,4.3,4.3,0,0,1,2.439-2.362c4.18-2.194,7.219-6.7,7.087-11.42s-3.8-9.268-8.487-9.856" transform="translate(-519.115 -60.459)" fill="none" stroke="#80cbc4" stroke-miterlimit="10" stroke-width="2"/>
      <path id="Trazado_11070" data-name="Trazado 11070" d="M602.841,149.755c4.822.353,10.09-3.062,12.509-7.248,2.615-4.522,3.266-10.615.119-14.784a4.83,4.83,0,0,0-2.293-1.808" transform="translate(-527.563 -58.837)" fill="none" stroke="#80cbc4" stroke-miterlimit="10" stroke-width="2"/>
      <path id="Trazado_11071" data-name="Trazado 11071" d="M616.445,122c3.476-3.061,6.249-7.2,6.672-11.808s-1.968-9.627-6.27-11.341a4.851,4.851,0,0,1-1.188-.567,4.641,4.641,0,0,1-1.185-1.9,11.772,11.772,0,0,0-14.664-5.786" transform="translate(-526.612 -47.504)" fill="none" stroke="#80cbc4" stroke-miterlimit="10" stroke-width="2"/>
      <path id="Trazado_11072" data-name="Trazado 11072" d="M603.292,116.784a5.961,5.961,0,0,0,.809-5.866,12.177,12.177,0,0,0-3.721-4.887,12.357,12.357,0,0,0-5.613-3.021,6.089,6.089,0,0,0-5.846,1.869" transform="translate(-523.193 -51.609)" fill="none" stroke="#80cbc4" stroke-miterlimit="10" stroke-width="2"/>
      <path id="Trazado_11073" data-name="Trazado 11073" d="M512.941,112.487" transform="translate(-499.339 -54.622)" fill="none" stroke="#80cbc4" stroke-miterlimit="10" stroke-width="2"/>
      <path id="Trazado_11074" data-name="Trazado 11074" d="M512.092,97.749a27.474,27.474,0,0,1-1-9.861c.425-3.3,2.084-6.587,4.973-8.229a11.2,11.2,0,0,0,2.868-1.756A8.257,8.257,0,0,0,520.3,75.28a18,18,0,0,1,18.834-10.647" transform="translate(-498.716 -39.54)" fill="none" stroke="#80cbc4" stroke-miterlimit="10" stroke-width="2"/>
      <path id="Trazado_11075" data-name="Trazado 11075" d="M538.7,79.675c2.951-2.953,7.476-3.494,11.638-3.815a11.516,11.516,0,0,1,3.672.117c2.736.685,4.552,3.181,6.3,5.394a1.522,1.522,0,0,0,.8.631,1.6,1.6,0,0,0,.952-.206,12.552,12.552,0,0,1,8.414-.9,7.391,7.391,0,0,1,5.429,6.048" transform="translate(-507.427 -43.095)" fill="none" stroke="#80cbc4" stroke-miterlimit="10" stroke-width="2"/>
      <path id="Trazado_11076" data-name="Trazado 11076" d="M607.442,89.876c3.086-3.748,1.653-8.938-.46-13.309-1.5-3.112-3.574-6.088-6.555-7.836s-7.013-2.01-9.784.056c-2.822-2.988-5.892-5.94-9.747-7.367s-8.694-.952-11.382,2.156" transform="translate(-517.099 -38.348)" fill="none" stroke="#80cbc4" stroke-miterlimit="10" stroke-width="2"/>
      <path id="Trazado_11077" data-name="Trazado 11077" d="M565.176,69.623a11.8,11.8,0,0,0-5.057-7.316,9.671,9.671,0,0,0-8.739-.832c-1.245.526-2.754.72-3.3,1.958" transform="translate(-510.371 -38.391)" fill="none" stroke="#80cbc4" stroke-miterlimit="10" stroke-width="2"/>
      <path id="Trazado_11078" data-name="Trazado 11078" d="M561.992,58.259c4.5-2.8,9.133-5.657,14.34-6.662s11.191.235,14.452,4.415c1.212,1.553,1.987,3.417,3.259,4.922" transform="translate(-514.738 -35.402)" fill="none" stroke="#80cbc4" stroke-miterlimit="10" stroke-width="2"/>
      <path id="Trazado_11079" data-name="Trazado 11079" d="M602.171,55.112a17.6,17.6,0,0,1,7.472,1.32,9.2,9.2,0,0,1,3.408,2.242c2.4,2.688,2.018,6.736,2.278,10.327.048.657-.347,2.237.224,2.567" transform="translate(-527.353 -36.603)" fill="none" stroke="#80cbc4" stroke-miterlimit="10" stroke-width="2"/>
      <path id="Trazado_11080" data-name="Trazado 11080" d="M621.462,78.392A19.981,19.981,0,0,1,632.421,79.8a17.417,17.417,0,0,0,4.831,1.787,18.93,18.93,0,0,0,3.364-.137,20.494,20.494,0,0,1,7.671.982" transform="translate(-533.409 -43.845)" fill="none" stroke="#80cbc4" stroke-miterlimit="10" stroke-width="2"/>
      <path id="Trazado_11081" data-name="Trazado 11081" d="M634.1,106.016a14.43,14.43,0,0,0,11.089-12.631,3.678,3.678,0,0,1,.275-1.411,3.529,3.529,0,0,1,1.129-1.118,20.717,20.717,0,0,0,5.965-7.035" transform="translate(-537.378 -45.622)" fill="none" stroke="#80cbc4" stroke-miterlimit="10" stroke-width="2"/>
      <path id="Trazado_11082" data-name="Trazado 11082" d="M627.074,92.8c7.657-1.83,14.724-5.508,21.7-9.153" transform="translate(-535.171 -45.566)" fill="none" stroke="#80cbc4" stroke-miterlimit="10" stroke-width="2"/>
      <path id="Trazado_11083" data-name="Trazado 11083" d="M636.226,91.1a14.487,14.487,0,0,0,3.734-8.132" transform="translate(-538.044 -45.354)" fill="none" stroke="#80cbc4" stroke-miterlimit="10" stroke-width="2"/>
      <path id="Trazado_11084" data-name="Trazado 11084" d="M643.61,91.812a7.363,7.363,0,0,1,4.99,3.678" transform="translate(-540.362 -48.131)" fill="none" stroke="#80cbc4" stroke-miterlimit="10" stroke-width="2"/>
      <path id="Trazado_11085" data-name="Trazado 11085" d="M634.557,95.273a10.011,10.011,0,0,1,5.2,2.626,18.219,18.219,0,0,1,3.53,4.707" transform="translate(-537.52 -49.217)" fill="none" stroke="#80cbc4" stroke-miterlimit="10" stroke-width="2"/>
      <path id="Trazado_11086" data-name="Trazado 11086" d="M626.939,91.57a16.922,16.922,0,0,0,4.718-12.33" transform="translate(-535.128 -44.184)" fill="none" stroke="#80cbc4" stroke-miterlimit="10" stroke-width="2"/>
      <path id="Trazado_11087" data-name="Trazado 11087" d="M584.858,59.532a14.23,14.23,0,0,1,8.163-4.689" transform="translate(-521.917 -36.524)" fill="none" stroke="#80cbc4" stroke-miterlimit="10" stroke-width="2"/>
      <path id="Trazado_11088" data-name="Trazado 11088" d="M592.917,63.231a16.09,16.09,0,0,1,7.991-5.315" transform="translate(-524.447 -37.489)" fill="none" stroke="#80cbc4" stroke-miterlimit="10" stroke-width="2"/>
      <path id="Trazado_11089" data-name="Trazado 11089" d="M571.077,46.6a12.429,12.429,0,0,0-.943-5.184c-.743-1.953-1.841-3.755-2.616-5.7s-1.512-5.032-.874-7.022" transform="translate(-516.122 -28.317)" fill="none" stroke="#80cbc4" stroke-miterlimit="10" stroke-width="2"/>
      <path id="Trazado_11090" data-name="Trazado 11090" d="M555.932,28.141c-.21,1.743-2.01,2.767-3.6,3.513-1.7.8-3.406,1.6-5.133,2.345a43.191,43.191,0,0,0-7.381,3.628,17.9,17.9,0,0,0-7.18,18.248" transform="translate(-505.398 -28.141)" fill="none" stroke="#80cbc4" stroke-miterlimit="10" stroke-width="2"/>
      <path id="Trazado_11091" data-name="Trazado 11091" d="M548.182,53.611a16.5,16.5,0,0,1,1.372-4.408,47.188,47.188,0,0,1,7.705-12.151c1.38-1.579,2.978-3.419,2.588-5.479" transform="translate(-510.402 -29.218)" fill="none" stroke="#80cbc4" stroke-miterlimit="10" stroke-width="2"/>
      <path id="Trazado_11092" data-name="Trazado 11092" d="M558.658,41.119a21.591,21.591,0,0,0-.949-4.735" transform="translate(-513.393 -30.729)" fill="none" stroke="#80cbc4" stroke-miterlimit="10" stroke-width="2"/>
      <path id="Trazado_11093" data-name="Trazado 11093" d="M556.731,43.5a46.233,46.233,0,0,1,8.46-3.24" transform="translate(-513.086 -31.945)" fill="none" stroke="#80cbc4" stroke-miterlimit="10" stroke-width="2"/>
      <path id="Trazado_11094" data-name="Trazado 11094" d="M549.163,50.686c.63-1.65.1-3.5-.563-5.14a7.354,7.354,0,0,0-2.422-3.486" transform="translate(-509.773 -32.511)" fill="none" stroke="#80cbc4" stroke-miterlimit="10" stroke-width="2"/>
      <path id="Trazado_11095" data-name="Trazado 11095" d="M544.609,56.591a28.474,28.474,0,0,0-7.171-8.539" transform="translate(-507.029 -34.392)" fill="none" stroke="#80cbc4" stroke-miterlimit="10" stroke-width="2"/>
      <path id="Trazado_11096" data-name="Trazado 11096" d="M551.621,51.875a47.391,47.391,0,0,1,13.149-3.561" transform="translate(-511.482 -34.474)" fill="none" stroke="#80cbc4" stroke-miterlimit="10" stroke-width="2"/>
      <path id="Trazado_11097" data-name="Trazado 11097" d="M520.324,65.567a5.45,5.45,0,0,0-3.836-3.517,41.088,41.088,0,0,0-5.355-.907,17.581,17.581,0,0,1-6.981-2.893c-.944-.66-1.992-1.456-3.119-1.225a3.059,3.059,0,0,0-1.911,1.714c-1.733,3.279-.808,7.454-2.442,10.783-.473.964-1.143,1.815-1.7,2.735a14.281,14.281,0,0,0-.143,13.866c2.289,4.26,6.761,8.021,11.486,9.05" transform="translate(-493.114 -37.196)" fill="none" stroke="#80cbc4" stroke-miterlimit="10" stroke-width="2"/>
      <path id="Trazado_11098" data-name="Trazado 11098" d="M511.041,79.76c-.966-3.755-3.617-6.912-4.536-10.678-.489-2-.465-4.093-.779-6.131a8.677,8.677,0,0,0-2.034-4.763" transform="translate(-496.435 -37.575)" fill="none" stroke="#80cbc4" stroke-miterlimit="10" stroke-width="2"/>
      <path id="Trazado_11099" data-name="Trazado 11099" d="M510.5,75.734l2.06-6.311c.654-2,1.312-4.156.723-6.179" transform="translate(-498.572 -39.162)" fill="none" stroke="#80cbc4" stroke-miterlimit="10" stroke-width="2"/>
      <path id="Trazado_11100" data-name="Trazado 11100" d="M511.428,81.567a.429.429,0,0,0-.633.209" transform="translate(-498.665 -44.892)" fill="none" stroke="#80cbc4" stroke-miterlimit="10" stroke-width="2"/>
      <path id="Trazado_11101" data-name="Trazado 11101" d="M506.086,81.06c-2.863-1.095-6.24-.457-8.949-1.893" transform="translate(-494.377 -44.161)" fill="none" stroke="#80cbc4" stroke-miterlimit="10" stroke-width="2"/>
      <path id="Trazado_11102" data-name="Trazado 11102" d="M507.6,113.124c-.107-.11.068.083-.27.214-.846.327-.141.26-.281.324-2.144.98-4.629,1.4-6.344,3.016a8.418,8.418,0,0,0-2.2,6.491,57.147,57.147,0,0,0,1.126,6.972,42.671,42.671,0,0,1,.029,11.744,30.858,30.858,0,0,0-.311,3.759,13.139,13.139,0,0,0,7.1,11.4" transform="translate(-494.801 -54.811)" fill="none" stroke="#80cbc4" stroke-miterlimit="10" stroke-width="2"/>
      <path id="Trazado_11103" data-name="Trazado 11103" d="M510.3,172.894a10.02,10.02,0,0,1,1.4-6.437A7.187,7.187,0,0,1,516.575,163c2.293-.39,4.591.445,6.85,1s4.86.775,6.714-.631" transform="translate(-498.472 -70.449)" fill="none" stroke="#80cbc4" stroke-miterlimit="10" stroke-width="2"/>
      <path id="Trazado_11104" data-name="Trazado 11104" d="M513.137,137.243a25.237,25.237,0,0,0-5.481,11.071c-.773,4.144-.154,8.405.465,12.575a6.129,6.129,0,0,0,1.279,3.465" transform="translate(-497.566 -62.394)" fill="none" stroke="#80cbc4" stroke-miterlimit="10" stroke-width="2"/>
      <path id="Trazado_11105" data-name="Trazado 11105" d="M508.3,142.511c-.566.782-2.036.761-2.991.9a20.33,20.33,0,0,0-4.891,1.362" transform="translate(-495.406 -64.048)" fill="none" stroke="#80cbc4" stroke-miterlimit="10" stroke-width="2"/>
      <path id="Trazado_11106" data-name="Trazado 11106" d="M512.438,142.766a12.9,12.9,0,0,0,1.413,6.737,58.44,58.44,0,0,1,2.831,6.364" transform="translate(-499.162 -64.128)" fill="none" stroke="#80cbc4" stroke-miterlimit="10" stroke-width="2"/>
      <path id="Trazado_11107" data-name="Trazado 11107" d="M505.372,158.076a14.8,14.8,0,0,0-3.55,5.751" transform="translate(-495.848 -68.934)" fill="none" stroke="#80cbc4" stroke-miterlimit="10" stroke-width="2"/>
      <path id="Trazado_11108" data-name="Trazado 11108" d="M507.354,158.943a20.709,20.709,0,0,0,4.194,4.45" transform="translate(-497.584 -69.206)" fill="none" stroke="#80cbc4" stroke-miterlimit="10" stroke-width="2"/>
      <path id="Trazado_11109" data-name="Trazado 11109" d="M537.567,154.447a14.656,14.656,0,0,1,4.558-4.54c1.061-.561,2.251-.855,3.287-1.461,1.909-1.115,3.086-3.147,4.8-4.544a32.889,32.889,0,0,1,4.622-2.7,37.9,37.9,0,0,0,4.293-3.023l7.625-5.915" transform="translate(-507.07 -60.832)" fill="none" stroke="#80cbc4" stroke-miterlimit="10" stroke-width="2"/>
      <path id="Trazado_11110" data-name="Trazado 11110" d="M562.152,132.57c-.462,2.431-1.12,4.878-.817,7.335.292,2.368.938,4.706.893,7.092-.055,2.92-1.141,5.715-1.583,8.6-.5,3.245-.27,6.862-2.318,9.428s-5.7,3.163-8.978,3.087c-7.012-.163-13.765-2.517-20.381-4.846a10.2,10.2,0,0,1-2.66-1.236c-2.3-1.672-2.789-4.848-3.084-7.679" transform="translate(-502.567 -60.927)" fill="none" stroke="#80cbc4" stroke-miterlimit="10" stroke-width="2"/>
      <path id="Trazado_11111" data-name="Trazado 11111" d="M547.415,169.839c2.255-.995,3.674-3.274,4.555-5.576s1.369-4.759,2.487-6.956c2.937-5.77,9.793-8.981,12.058-15.047" transform="translate(-510.162 -63.969)" fill="none" stroke="#80cbc4" stroke-miterlimit="10" stroke-width="2"/>
      <path id="Trazado_11112" data-name="Trazado 11112" d="M564.166,152.013c.735-1.194.61-2.7.584-4.1s.158-2.982,1.258-3.851" transform="translate(-515.421 -64.535)" fill="none" stroke="#80cbc4" stroke-miterlimit="10" stroke-width="2"/>
      <path id="Trazado_11113" data-name="Trazado 11113" d="M565.084,155.138a12.255,12.255,0,0,0,8.761-2.411" transform="translate(-515.709 -67.255)" fill="none" stroke="#80cbc4" stroke-miterlimit="10" stroke-width="2"/>
      <path id="Trazado_11114" data-name="Trazado 11114" d="M555.888,162.486a10.187,10.187,0,0,0-.434-5.577c-.425-1.14-1.07-2.324-.761-3.5" transform="translate(-512.421 -67.469)" fill="none" stroke="#80cbc4" stroke-miterlimit="10" stroke-width="2"/>
      <path id="Trazado_11115" data-name="Trazado 11115" d="M557.332,165.227c2.524-1.376,5.632-.585,8.49-.9a4.325,4.325,0,0,0,2.941-1.308" transform="translate(-513.275 -70.486)" fill="none" stroke="#80cbc4" stroke-miterlimit="10" stroke-width="2"/>
      <path id="Trazado_11116" data-name="Trazado 11116" d="M549.336,174.581c.991-1.936.221-4.282-.7-6.255s-2.006-4.072-1.6-6.207" transform="translate(-510.017 -70.204)" fill="none" stroke="#80cbc4" stroke-miterlimit="10" stroke-width="2"/>
      <path id="Trazado_11117" data-name="Trazado 11117" d="M550.4,179.644c2.7-1.51,5.9-1.737,8.987-1.876a6.523,6.523,0,0,0,4.048-1.086" transform="translate(-511.099 -74.776)" fill="none" stroke="#80cbc4" stroke-miterlimit="10" stroke-width="2"/>
      <path id="Trazado_11118" data-name="Trazado 11118" d="M572.684,180.486a19.39,19.39,0,0,0,14.075.225c1.132-.426,2.224-.959,3.376-1.33a16.281,16.281,0,0,1,4.184-.712c4.784-.239,9.5,1.041,14.257,1.59,1.511.174,3.216.216,4.347-.8" transform="translate(-518.095 -75.39)" fill="none" stroke="#80cbc4" stroke-miterlimit="10" stroke-width="2"/>
      <path id="Trazado_11119" data-name="Trazado 11119" d="M620.229,150.942a9.714,9.714,0,0,1,5.234,7.756c.082,1.025,0,2.056.047,3.083a11.947,11.947,0,0,0,2.2,6.334,3.413,3.413,0,0,1,.657,1.188c.1.445-.252,1.887-.681,2.041" transform="translate(-533.022 -66.695)" fill="none" stroke="#80cbc4" stroke-miterlimit="10" stroke-width="2"/>
      <path id="Trazado_11120" data-name="Trazado 11120" d="M623.221,174.3c-2.658-2.034-6.481-1.9-9.22-3.825a14.415,14.415,0,0,1-2.6-2.589l-5.951-7.024" transform="translate(-528.381 -69.81)" fill="none" stroke="#80cbc4" stroke-miterlimit="10" stroke-width="2"/>
      <path id="Trazado_11121" data-name="Trazado 11121" d="M607.4,164.031a12.832,12.832,0,0,0,1.2,7.985" transform="translate(-528.935 -70.804)" fill="none" stroke="#80cbc4" stroke-miterlimit="10" stroke-width="2"/>
      <path id="Trazado_11122" data-name="Trazado 11122" d="M608.176,163.67a72.782,72.782,0,0,1,9.723,1.485" transform="translate(-529.238 -70.691)" fill="none" stroke="#80cbc4" stroke-miterlimit="10" stroke-width="2"/>
    </g>
  </g>
</svg>
