<svg xmlns="http://www.w3.org/2000/svg" width="124.5" height="121" viewBox="0 0 124.5 121">
  <g id="Grupo_5502" data-name="Grupo 5502" transform="translate(-110 -636)">
    <g id="Grupo_1010" data-name="Grupo 1010" transform="translate(110 636)">
      <circle id="Elipse_497" data-name="Elipse 497" cx="60.5" cy="60.5" r="60.5" fill="#80cbc4"/>
      <path id="Trazado_1178" data-name="Trazado 1178" d="M53.993,0A53.993,53.993,0,1,1,0,53.993,53.993,53.993,0,0,1,53.993,0Z" transform="translate(7 7)" fill="#fff"/>
    </g>
    <g id="Grupo_5166" data-name="Grupo 5166" transform="translate(128.142 651.969)">
      <g id="Grupo_4312" data-name="Grupo 4312">
        <path id="Trazado_8751" data-name="Trazado 8751" d="M1290.942,441.321c.428-.018.293.465.843.487.241.009.579-.921.907-.9.26.017.474.968.783,1,.268.024.649-.865.949-.831.271.031.427,1.086.723,1.126.274.037.585-.17.877-.124.275.044.626-.323.915-.27s.583-.011.869.047.568.086.852.151.417.695.7.766.5.281.784.359.547.12.824.2.667-.233.941-.142.559.13.831.228.322.748.591.853.605,0,.871.108.766-.324,1.028-.2.477.344.735.471.212.831.466.966.76-.207,1.01-.065.381.476.626.627.358.486.6.645.961-.382,1.195-.215.12.809.348.985.808-.083,1.029.1-.086.979.128,1.171.359.432.566.633.28.5.478.709.453.333.643.549.675.165.856.389.335.46.507.691.569.3.731.537-.055.718.1.962.029.63.172.88.243.492.376.748.893.186,1.016.447.025.615.138.881.519.409.622.679.016.606.109.879.083.572.166.849-.273.659-.2.939.2.521.268.8.919.388.974.672-.055.6-.009.883-.142.6-.1.886.285.543.315.831.2.561.222.85.1.574.12.864-.2.585-.192.874-.055.575-.055.864-.226.569-.232.858c-.005.428-.056.3-.086.849-.013.24.5.567.476.894-.021.259-.4.517-.429.826-.028.267.254.593.216.893-.034.271-.7.468-.746.763-.041.273-.256.52-.306.812-.047.274.474.655.419.943s.254.634.193.92-.7.429-.762.712.252.649.18.93-.386.488-.465.767.07.617-.015.893-.071.583-.163.857-.1.578-.2.849-.532.417-.636.685-.322.486-.434.751-.208.532-.327.794-.144.565-.271.823-.417.43-.55.684-.4.43-.538.679.05.691-.1.937-.825.15-.982.39.246.854.081,1.089-.712.188-.885.416-.468.344-.65.566-.2.566-.39.781-.391.407-.59.614-.239.564-.445.763-.462.342-.676.533-.6.164-.823.346-.375.429-.605.6-.566.168-.8.331-.505.235-.75.388-.437.344-.687.486-.472.29-.728.421-.179.931-.441,1.052-.587.108-.854.219-.66-.12-.931-.021-.511.253-.785.342-.659-.249-.936-.171-.431.559-.711.627-.628-.245-.911-.187-.385,1.035-.669,1.084-.69-.731-.976-.692-.469.88-.757.909-.581.041-.87.062-.587-.119-.876-.106-.573.242-.862.247-.579-.324-.869-.327-.569-.492-.856-.5-.6.43-.884.414-.565-.265-.851-.287-.632.487-.917.457-.515-.633-.8-.67-.549-.229-.832-.273-.643.33-.925.278-.606.041-.886-.019-.478-.533-.756-.6-.579-.069-.855-.143-.614.029-.888-.054-.467-.449-.738-.539-.666.14-.934.041-.416-.539-.681-.646-.625-.008-.888-.123-.461-.388-.72-.511-.534-.225-.789-.356-.281-.687-.531-.826-.873.364-1.119.218-.236-.721-.477-.875-.405-.419-.642-.581-.981.383-1.213.214.072-1.061-.154-1.236-.727-.011-.948-.193-.407-.415-.623-.6-.766-.026-.976-.222-.433-.406-.637-.607-.228-.6-.426-.809-.522-.317-.714-.53-.2-.6-.386-.822-.438-.4-.618-.618-.213-.574-.387-.8-.018-.7-.185-.936-.288-.494-.45-.729-1.016-.019-1.171-.258-.076-.646-.225-.889.143-.759,0-1-.192-.547-.328-.8-.341-.465-.471-.717-.433-.426-.557-.68-.245-.524-.363-.78-.714-.323-.825-.58c-.119-.274.359-.785.255-1.043-.113-.28-.96-.259-1.057-.517-.108-.286.567-.838.478-1.094-.1-.3-.6-.43-.681-.68-.1-.317.265-.723.2-.956-.151-.535-.748-.266-.8-.694s.235-.326.241-.878c0-.241-.467-.545-.454-.874.01-.26.174-.547.194-.857.018-.268.5-.518.53-.82.024-.272-.166-.576-.133-.873.031-.274.049-.56.089-.854.037-.275-.369-.629-.323-.92s.453-.5.5-.791,0-.581.057-.866.375-.5.439-.785-.193-.633-.122-.914.014-.593.092-.872.923-.324,1.007-.6-.155-.641-.064-.915.643-.372.741-.644-.729-.881-.625-1.15.606-.376.719-.641.458-.418.578-.68.451-.406.578-.665-.64-.967-.506-1.222.978-.12,1.119-.37.072-.614.222-.86-.056-.717.1-.958.5-.363.663-.6.249-.534.422-.764.7-.18.882-.4.2-.576.386-.793.749-.086.945-.3.212-.572.415-.776.166-.646.376-.843.854.106,1.072-.083.273-.539.5-.721.073-.834.3-1.007.393-.452.63-.617.655-.066.9-.222.8.226,1.052.077.346-.518.6-.657.3-.654.555-.785.76.264,1.022.141.193-.964.458-1.078.609-.045.877-.151.766.427,1.038.33.244-1.05.519-1.139.819.72,1.1.639.549-.1.828-.177.356-.915.637-.981.659.337.942.278.595.115.879.063.428-.878.714-.923.639.416.926.378.588.162.875.131.542-.25.83-.276S1290.654,441.341,1290.942,441.321Z" transform="translate(-1263.569 -440.908)" fill="#683c11"/>
        <path id="Trazado_8752" data-name="Trazado 8752" d="M1298.718,450.514c1.467-.059.967-.549,2.763-.358.839.089,2.183-2.12,3.264-1.917.9.169,1.842.869,2.844,1.145.9.25,2.094.113,3.043.471.891.336.869,2.895,1.765,3.343a23.087,23.087,0,0,1,2.633,1.121c.8.528,2.045.463,2.8,1.114.726.628.879,1.822,1.534,2.576.627.721.566,1.818,1.106,2.664.51.8,2.441.8,2.855,1.72a22.137,22.137,0,0,1,1.476,2.674c.268.9-.418,2.115-.246,3.119.159.926-.15,1.917-.083,2.935.062.938-.457,1.87-.48,2.889-.017,1.409,1.671,1.17,1.47,2.9-.093.8-1.465,1.558-1.664,2.6-.164.858-.406,1.725-.667,2.687-.235.869.754,2.171.423,3.087-.311.86-1.052,1.622-1.461,2.491-.393.834-1.945,1.024-2.442,1.839-.482.791-1.285,1.2-1.875,1.944-.574.726-.149,2.239-.835,2.9-.664.64-1.756.7-2.535,1.254-.745.534-1.192,1.464-2.05,1.9-.81.416-1.983-.208-2.9.108-.856.3-1.265,2.154-2.22,2.351a26.677,26.677,0,0,1-2.851.231c-.9.08-1.872,1.195-2.85,1.185-.959-.009-1.824-1.938-2.722-2.019-.955-.086-1.711-.851-2.6-1.01-.943-.169-2.292,1.641-3.161,1.4-.921-.257-1.981-.332-2.823-.663-.888-.348-.811-2.765-1.615-3.183a25.424,25.424,0,0,1-2.426-1.164c-.792-.526-2.194-.143-2.894-.722a27,27,0,0,1-1.869-2.1c-.67-.679-1.688-1.047-2.259-1.748-.606-.744-1.589-1.257-2.091-2-.543-.8.116-2.336-.316-3.108-.485-.868-2.523-.93-2.88-1.712-.437-.956.206-2.312-.064-3.061-.587-1.628-1.547-1.234-1.726-2.616-.183-1.412,1.89-1.191,2.027-2.945.064-.813-1.474-1.972-1.306-3.029.138-.87.595-1.818.833-2.8.214-.881.59-1.82.9-2.756.293-.872,2.286-1.084,2.682-1.976.377-.847-.019-2.024.465-2.864a24.576,24.576,0,0,1,1.142-2.639,10.913,10.913,0,0,1,3.772-4.342c.715-.587,1.1-1.836,1.929-2.356.779-.491,2.558.724,3.443.3a23.4,23.4,0,0,1,2.442-1.382,26.366,26.366,0,0,1,2.6-1.188c.891-.211,1.665-1.5,2.638-1.638C1296.568,448.028,1297.737,450.581,1298.718,450.514Z" transform="translate(-1270.863 -447.12)" fill="#6e8f17"/>
        <path id="Trazado_8755" data-name="Trazado 8755" d="M1391.732,553.791c0,.7-3.416,1.113-3.53,1.784-.117.691,2.969,2.206,2.742,2.851s-3.588-.1-3.923.5,2.057,3.073,1.622,3.607-3.34-1.306-3.862-.853.892,3.588.3,3.944-2.678-2.377-3.33-2.132-.413,3.673-1.1,3.8c-.67.121-1.661-3.169-2.366-3.169s-1.7,3.29-2.366,3.169c-.689-.125-.46-3.556-1.1-3.8s-2.738,2.485-3.33,2.132.819-3.49.3-3.944-3.424,1.391-3.862.853,1.962-3,1.622-3.607-3.691.156-3.923-.5,2.859-2.16,2.742-2.851c-.114-.671-3.53-1.079-3.53-1.784s3.416-1.112,3.53-1.784c.117-.691-2.969-2.206-2.742-2.851s3.588.1,3.923-.5-2.057-3.073-1.622-3.607,3.34,1.306,3.862.853-.892-3.588-.3-3.944,2.678,2.377,3.33,2.132.413-3.673,1.1-3.8c.67-.121,1.661,3.169,2.366,3.169s1.7-3.29,2.366-3.169c.689.125.46,3.556,1.1,3.8s2.738-2.485,3.33-2.132-.819,3.491-.3,3.944,3.424-1.391,3.862-.853-1.962,3-1.622,3.607,3.691-.156,3.923.5-2.859,2.16-2.742,2.851C1388.315,552.679,1391.732,553.087,1391.732,553.791Z" transform="translate(-1350.366 -526.093)" fill="#abd122"/>
        <path id="Trazado_8756" data-name="Trazado 8756" d="M1447.587,600.491c0-.884-.6,2.632-.3,1.792s-1.459,2.29-.89,1.589-2.166,1.666-1.379,1.2c.81-.484-2.642.812-1.714.644s-2.76-.168-1.83,0-2.524-1.129-1.714-.644c.787.471-1.956-1.906-1.379-1.2s-1.189-2.438-.89-1.589-.305-2.676-.305-1.792.6-2.633.305-1.793,1.459-2.29.89-1.589,2.166-1.666,1.379-1.2c-.81.484,2.642-.812,1.714-.644s2.76.168,1.83,0,2.524,1.129,1.714.644c-.787-.471,1.956,1.906,1.379,1.2s1.189,2.439.89,1.589S1447.587,601.374,1447.587,600.491Z" transform="translate(-1412.385 -573.209)" fill="#c3e34f"/>
        <path id="Trazado_8757" data-name="Trazado 8757" d="M1409.883,530.107a45.668,45.668,0,0,0,2.248,4.974c.458.773,1.7,3.142,2.918,2.949,1.643-.26-.568-3.41-.976-4.007A12.59,12.59,0,0,0,1409.883,530.107Z" transform="translate(-1388.985 -517.367)" fill="#607d14"/>
        <path id="Trazado_8758" data-name="Trazado 8758" d="M1367.469,575.689a45.74,45.74,0,0,0,4.434,3.184c.783.44,3.044,1.871,4,1.1,1.292-1.047-2.2-2.67-2.849-2.982A12.589,12.589,0,0,0,1367.469,575.689Z" transform="translate(-1352.629 -556.438)" fill="#607d14"/>
        <path id="Trazado_8759" data-name="Trazado 8759" d="M1353.528,625.927a45.747,45.747,0,0,0,5.432.54c.9-.01,3.572.1,4.013-1.052.6-1.553-3.237-1.214-3.958-1.158A12.589,12.589,0,0,0,1353.528,625.927Z" transform="translate(-1340.679 -598.009)" fill="#607d14"/>
        <path id="Trazado_8760" data-name="Trazado 8760" d="M1371.8,661.291a45.71,45.71,0,0,0,4.974-2.248c.773-.458,3.142-1.7,2.949-2.918-.26-1.642-3.41.568-4.007.976A12.588,12.588,0,0,0,1371.8,661.291Z" transform="translate(-1356.338 -624.871)" fill="#607d14"/>
        <path id="Trazado_8761" data-name="Trazado 8761" d="M1417.379,685.972a45.731,45.731,0,0,0,3.183-4.434c.44-.783,1.871-3.044,1.1-4-1.047-1.292-2.669,2.2-2.982,2.848A12.584,12.584,0,0,0,1417.379,685.972Z" transform="translate(-1395.41 -643.494)" fill="#607d14"/>
        <path id="Trazado_8762" data-name="Trazado 8762" d="M1467.617,695.19a45.707,45.707,0,0,0,.54-5.432c-.01-.9.1-3.572-1.052-4.013-1.553-.6-1.214,3.237-1.158,3.958A12.589,12.589,0,0,0,1467.617,695.19Z" transform="translate(-1436.981 -650.72)" fill="#607d14"/>
        <path id="Trazado_8763" data-name="Trazado 8763" d="M1502.98,686.363a45.746,45.746,0,0,0-2.249-4.974c-.458-.773-1.7-3.142-2.918-2.949-1.642.26.568,3.41.976,4.007A12.589,12.589,0,0,0,1502.98,686.363Z" transform="translate(-1463.842 -644.503)" fill="#607d14"/>
        <path id="Trazado_8764" data-name="Trazado 8764" d="M1527.661,661.362a45.789,45.789,0,0,0-4.434-3.183c-.783-.44-3.045-1.871-4-1.1-1.292,1.047,2.2,2.67,2.848,2.982A12.587,12.587,0,0,0,1527.661,661.362Z" transform="translate(-1482.465 -626.013)" fill="#607d14"/>
        <path id="Trazado_8765" data-name="Trazado 8765" d="M1536.879,624.472a45.777,45.777,0,0,0-5.432-.54c-.9.01-3.572-.1-4.013,1.053-.6,1.552,3.237,1.214,3.958,1.158A12.589,12.589,0,0,0,1536.879,624.472Z" transform="translate(-1489.692 -597.79)" fill="#607d14"/>
        <path id="Trazado_8766" data-name="Trazado 8766" d="M1528.052,568.193a45.768,45.768,0,0,0-4.974,2.249c-.772.458-3.142,1.7-2.949,2.918.26,1.642,3.41-.568,4.007-.976A12.588,12.588,0,0,0,1528.052,568.193Z" transform="translate(-1483.474 -550.013)" fill="#607d14"/>
        <path id="Trazado_8767" data-name="Trazado 8767" d="M1503.052,525.779a45.769,45.769,0,0,0-3.183,4.434c-.44.783-1.871,3.044-1.1,4,1.047,1.292,2.67-2.2,2.982-2.848A12.587,12.587,0,0,0,1503.052,525.779Z" transform="translate(-1464.984 -513.657)" fill="#607d14"/>
        <path id="Trazado_8768" data-name="Trazado 8768" d="M1466.161,511.839a45.734,45.734,0,0,0-.54,5.432c.01.9-.1,3.572,1.052,4.013,1.553.6,1.214-3.237,1.158-3.958A12.59,12.59,0,0,0,1466.161,511.839Z" transform="translate(-1436.761 -501.708)" fill="#607d14"/>
        <g id="Grupo_4300" data-name="Grupo 4300" transform="translate(26.372 16.041)">
          <path id="Trazado_8769" data-name="Trazado 8769" d="M1450.188,557.661c-.885-.187-2.551-3.218-1.778-4.165a.841.841,0,0,1,.678-.281c.906-.016,1.23.81,1.322,1.591a4.826,4.826,0,0,1,.027.794C1450.394,556.517,1450.839,557.372,1450.188,557.661Z" transform="translate(-1448.21 -553.214)" fill="#1a0f04"/>
        </g>
        <g id="Grupo_4301" data-name="Grupo 4301" transform="translate(21.884 18.623)">
          <path id="Trazado_8771" data-name="Trazado 8771" d="M1420.419,574.768c-.86.28-3.818-1.511-3.622-2.718a.839.839,0,0,1,.447-.582c.776-.467,1.47.086,1.941.717a4.822,4.822,0,0,1,.42.674C1420.026,573.675,1420.839,574.193,1420.419,574.768Z" transform="translate(-1416.787 -571.294)" fill="#1a0f04"/>
        </g>
        <g id="Grupo_4302" data-name="Grupo 4302" transform="translate(19.326 23.046)">
          <path id="Trazado_8773" data-name="Trazado 8773" d="M1403.414,604.122c-.6.673-4.062.6-4.5-.543a.841.841,0,0,1,.1-.728c.439-.793,1.316-.66,2.039-.35a4.792,4.792,0,0,1,.7.374C1402.527,603.372,1403.49,603.414,1403.414,604.122Z" transform="translate(-1398.873 -602.259)" fill="#1a0f04"/>
        </g>
        <g id="Grupo_4303" data-name="Grupo 4303" transform="translate(19.399 27.81)">
          <path id="Trazado_8775" data-name="Trazado 8775" d="M1403.83,635.974c-.187.885-3.218,2.551-4.165,1.778a.84.84,0,0,1-.281-.678c-.016-.906.81-1.23,1.591-1.322a4.82,4.82,0,0,1,.794-.027C1402.687,635.768,1403.542,635.322,1403.83,635.974Z" transform="translate(-1399.384 -635.616)" fill="#1a0f04"/>
        </g>
        <g id="Grupo_4304" data-name="Grupo 4304" transform="translate(21.981 30.885)">
          <path id="Trazado_8777" data-name="Trazado 8777" d="M1420.938,657.259c.28.86-1.511,3.818-2.718,3.622a.84.84,0,0,1-.582-.447c-.467-.776.086-1.47.717-1.941a4.788,4.788,0,0,1,.674-.42C1419.845,657.653,1420.363,656.839,1420.938,657.259Z" transform="translate(-1417.464 -657.142)" fill="#1a0f04"/>
        </g>
        <g id="Grupo_4305" data-name="Grupo 4305" transform="translate(26.404 32.647)">
          <path id="Trazado_8779" data-name="Trazado 8779" d="M1450.292,669.482c.673.6.6,4.062-.543,4.5a.841.841,0,0,1-.728-.1c-.793-.439-.66-1.316-.35-2.039a4.808,4.808,0,0,1,.374-.7C1449.542,670.369,1449.584,669.405,1450.292,669.482Z" transform="translate(-1448.429 -669.477)" fill="#1a0f04"/>
        </g>
        <g id="Grupo_4306" data-name="Grupo 4306" transform="translate(31.168 32.673)">
          <path id="Trazado_8781" data-name="Trazado 8781" d="M1482.144,669.662c.885.187,2.551,3.218,1.778,4.165a.84.84,0,0,1-.678.281c-.906.016-1.23-.81-1.323-1.591a4.853,4.853,0,0,1-.027-.794C1481.938,670.806,1481.492,669.95,1482.144,669.662Z" transform="translate(-1481.786 -669.662)" fill="#1a0f04"/>
        </g>
        <g id="Grupo_4307" data-name="Grupo 4307" transform="translate(34.243 31.033)">
          <path id="Trazado_8783" data-name="Trazado 8783" d="M1503.429,658.211c.86-.28,3.818,1.511,3.623,2.718a.84.84,0,0,1-.447.582c-.776.467-1.47-.086-1.941-.717a4.79,4.79,0,0,1-.42-.674C1503.823,659.3,1503.009,658.787,1503.429,658.211Z" transform="translate(-1503.312 -658.182)" fill="#1a0f04"/>
        </g>
        <g id="Grupo_4308" data-name="Grupo 4308" transform="translate(36.005 27.822)">
          <path id="Trazado_8785" data-name="Trazado 8785" d="M1515.652,636.127c.6-.673,4.062-.6,4.5.543a.841.841,0,0,1-.1.728c-.439.793-1.316.66-2.039.35a4.8,4.8,0,0,1-.7-.374C1516.539,636.877,1515.576,636.835,1515.652,636.127Z" transform="translate(-1515.647 -635.697)" fill="#1a0f04"/>
        </g>
        <g id="Grupo_4309" data-name="Grupo 4309" transform="translate(36.031 23.015)">
          <path id="Trazado_8787" data-name="Trazado 8787" d="M1515.832,604.018c.187-.885,3.218-2.551,4.165-1.778a.841.841,0,0,1,.281.678c.016.906-.81,1.23-1.591,1.322a4.824,4.824,0,0,1-.794.027C1516.976,604.224,1516.12,604.669,1515.832,604.018Z" transform="translate(-1515.832 -602.04)" fill="#1a0f04"/>
        </g>
        <g id="Grupo_4310" data-name="Grupo 4310" transform="translate(34.391 18.526)">
          <path id="Trazado_8789" data-name="Trazado 8789" d="M1504.381,574.249c-.28-.86,1.511-3.818,2.718-3.622a.84.84,0,0,1,.583.447c.467.776-.087,1.47-.717,1.941a4.791,4.791,0,0,1-.674.42C1505.474,573.855,1504.957,574.669,1504.381,574.249Z" transform="translate(-1504.352 -570.617)" fill="#1a0f04"/>
        </g>
        <g id="Grupo_4311" data-name="Grupo 4311" transform="translate(31.18 15.968)">
          <path id="Trazado_8791" data-name="Trazado 8791" d="M1482.3,557.244c-.673-.6-.6-4.062.543-4.5a.841.841,0,0,1,.728.1c.793.439.66,1.316.35,2.039a4.826,4.826,0,0,1-.374.7C1483.047,556.357,1483.005,557.321,1482.3,557.244Z" transform="translate(-1481.867 -552.703)" fill="#1a0f04"/>
        </g>
      </g>
    </g>
    <g id="Grupo_5167" data-name="Grupo 5167" transform="matrix(0.454, 0.891, -0.891, 0.454, 205.85, 662.953)">
      <path id="Trazado_8930" data-name="Trazado 8930" d="M736.428,1140.455a13.274,13.274,0,0,0-5.785,5.193,7.04,7.04,0,0,0-1.052,2.689c-.23,1.7.393,3.234,1.131,5.142,2.051,5.306,2.9,11.174,4.227,16.718,1.437,6.006,2.167,12.25,3.7,18.205a40.2,40.2,0,0,0,8.1,16.159c3.736,4.364,10.152,8.229,16.172,8.442,9.119.323,18.145-6.753,23.443-13.743,3.643-4.806,6.256-9.8,6.284-15.733a28.244,28.244,0,0,0-4.721-15.665c-2.927-4.509-7.383-7.68-11.813-10.695a93.092,93.092,0,0,0-11.54-6.694,84.816,84.816,0,0,1-10.8-6.723,22.15,22.15,0,0,0-9.328-4.11A13.746,13.746,0,0,0,736.428,1140.455Z" transform="translate(-729.542 -1139.416)" fill="#476413"/>
      <path id="Trazado_8931" data-name="Trazado 8931" d="M748.3,1153.3a11.767,11.767,0,0,0-5.269,4.76,6.4,6.4,0,0,0-.934,2.492c-.189,1.578.408,3.02,1.115,4.809,1.966,4.974,2.832,10.455,4.133,15.641,1.409,5.618,2.169,11.449,3.67,17.021a38.953,38.953,0,0,0,7.7,15.173c3.509,4.119,9.485,7.81,15.045,8.092,8.422.427,16.657-6.044,21.451-12.486,3.3-4.429,5.64-9.051,5.584-14.578a27.184,27.184,0,0,0-4.574-14.667c-2.764-4.243-6.921-7.261-11.052-10.131a89.176,89.176,0,0,0-10.745-6.4,81.377,81.377,0,0,1-10.062-6.415,21.027,21.027,0,0,0-8.668-3.96A12.449,12.449,0,0,0,748.3,1153.3Z" transform="translate(-740.229 -1150.502)" fill="#88bf27"/>
      <path id="Trazado_8932" data-name="Trazado 8932" d="M755.942,1163.32c-.965.623-1.986-.585-3.279-.051-1.636.675-1.907,3.4-1.941,3.784a8.469,8.469,0,0,0,1.02,4.4c1.8,4.548,2.589,9.561,3.779,14.3,1.289,5.137,1.983,10.469,3.356,15.564a35.617,35.617,0,0,0,7.038,13.875c3.209,3.767,8.674,7.142,13.758,7.4,7.7.39,15.232-5.527,19.616-11.418,3.015-4.05,5.157-8.277,5.106-13.33a24.86,24.86,0,0,0-4.183-13.412c-2.528-3.88-6.329-6.64-10.107-9.265a81.542,81.542,0,0,0-9.826-5.852,74.446,74.446,0,0,1-9.2-5.866,22.018,22.018,0,0,0-7.926-3.621c-1.693-.411-4.814-1.132-6.036.324C756.235,1161.2,756.923,1162.687,755.942,1163.32Z" transform="translate(-747.601 -1156.373)" fill="#f1f9ae"/>
      <path id="Trazado_8933" data-name="Trazado 8933" d="M885.5,1327.01a10.95,10.95,0,0,1,.754,4.546,11.523,11.523,0,0,1-1.941,5.461,16.775,16.775,0,0,1-6.963,6.677c-1.382.689-6.2,3.1-10.185,1.269A12.455,12.455,0,0,1,865,1343.62a17.615,17.615,0,0,1-1.839-1.6,14.854,14.854,0,0,1-1.548-1.834,21.244,21.244,0,0,1-3.122-5.9q-.893-2.691-1.587-5.447a20.535,20.535,0,0,1-.586-4.863,9.041,9.041,0,0,1,1.084-4.641l1.585-1.9a12.235,12.235,0,0,1,2.7-1.753c1.7-.778,3.124-1.587,5.049-1.5a17.386,17.386,0,0,1,5.329,1.029c.667.24,1.349.523,2.073.852a24.686,24.686,0,0,1,6.877,4.6A16.086,16.086,0,0,1,885.5,1327.01Z" transform="translate(-837.749 -1288.581)" fill="#d0660d"/>
    </g>
    <g id="Grupo_5168" data-name="Grupo 5168" transform="matrix(0.469, 0.883, -0.883, 0.469, 153.743, 664.984)">
      <path id="Trazado_8836" data-name="Trazado 8836" d="M46.649,42.374C16.96,48.073,1.1,22.494.055,20.746.018,20.684,0,20.653,0,20.653l5.342-3.69C47.413,40.058,68.384.352,69.155.349c0,0,.741-1.081,3.716.56.31.17.644.371,1.005.605C77.694,4,77.384,36.476,46.649,42.374Z" transform="translate(0.29 6.342)" fill="#fec520"/>
      <path id="Trazado_8837" data-name="Trazado 8837" d="M46.594,41.465C16.9,47.164,1.046,21.585,0,19.837a25.5,25.5,0,0,1,4.48,3c3.029,2.221,6.087,3.493,9.432,5.089a40.419,40.419,0,0,0,6.106,2.629c2.242.641,4.547,1.107,6.808,1.674,1.533.385,8.489,1.417,18.017.56a30,30,0,0,0,7.01-1.149c10.631-3.328,16.721-12.8,20.263-22.765a14.245,14.245,0,0,0,.877-3.825c.115-1.734-.215-3.379-.177-5.052.31.17.644.371,1.005.605C77.639,3.088,77.329,35.566,46.594,41.465Z" transform="translate(0.345 7.251)" fill="#cfa01a"/>
      <g id="Grupo_5069" data-name="Grupo 5069" transform="translate(68.382 0)">
        <path id="Trazado_8834" data-name="Trazado 8834" d="M7.265,10.71,0,7.336,1.085,4.464l1.55-4.1A.569.569,0,0,1,3.47.087a9,9,0,0,0,2.343,1.03,8.992,8.992,0,0,0,2.379.328.68.68,0,0,1,.581,1.037A11.5,11.5,0,0,0,8.04,3.868a11.311,11.311,0,0,0-.562,1.558A11.527,11.527,0,0,0,7.265,10.71Z" transform="translate(0 0)" fill="#fec520"/>
        <path id="Trazado_8838" data-name="Trazado 8838" d="M7.687,2.482a11.5,11.5,0,0,0-.733,1.387C6.436,3.9,5.917,3.921,5.408,4c-1.018.151-2.034.248-3.056.376A13.776,13.776,0,0,1,0,4.464L1.55.366A.569.569,0,0,1,2.384.087a9,9,0,0,0,2.343,1.03,8.993,8.993,0,0,0,2.379.328A.68.68,0,0,1,7.687,2.482Z" transform="translate(1.086 0)" fill="#a68015"/>
      </g>
      <path id="Trazado_8840" data-name="Trazado 8840" d="M.2,4.837c.369.361,1.15.135,1.351.077a2.762,2.762,0,0,0,1.217-.791C4.6,2.291,6.107,1.691,5.962.95a1.316,1.316,0,0,0-.277-.5A1.28,1.28,0,0,0,5.016.075,4.171,4.171,0,0,0,2.56.428a3.451,3.451,0,0,0-1.081.615,2.978,2.978,0,0,0-.642.869C.49,2.571-.394,4.257.2,4.837Z" transform="translate(0 22.38)" fill="#4d3825"/>
      <path id="Trazado_8841" data-name="Trazado 8841" d="M58.79,1.062a11.049,11.049,0,0,0-.831,1.062A101.409,101.409,0,0,1,52.026,10.4c-1.746,1.972-4.473,3.469-6.785,4.732-3.782,2.1-7.786,4.279-12,5.352-8.6,2.187-17.493,1.374-25.984-.991-.733-.2-6.644-3.174-7.191-2.162s2.509,3.054,3.123,3.407c7.195,4.138,15.668,4.869,23.7,4.647,7.358-.2,15.093-1.566,21.456-5.407A34.483,34.483,0,0,0,62.108,4.391a5.692,5.692,0,0,0,.6-2.259A2.174,2.174,0,0,0,61.637.171a2.2,2.2,0,0,0-2.153.281A4.044,4.044,0,0,0,58.79,1.062Z" transform="translate(7.901 10.391)" fill="#fede84"/>
      <path id="Trazado_8843" data-name="Trazado 8843" d="M5.089.323A9.625,9.625,0,0,0,3.1,2.688a7.392,7.392,0,0,0-1.25,1.888C.905,6.113-.41,8.244.123,8.764c.219.214.738.166,1.713-.318A15.713,15.713,0,0,0,6.871,3.392,2.449,2.449,0,0,0,6.809.365,1.25,1.25,0,0,0,5.089.323Z" transform="translate(62.379 10.71)" fill="#f6f6f6" opacity="0.7"/>
    </g>
  </g>
</svg>
