<svg id="Grupo_5059" data-name="Grupo 5059" xmlns="http://www.w3.org/2000/svg" width="133.356" height="83.732" viewBox="0 0 133.356 83.732">
  <g id="Grupo_5054" data-name="Grupo 5054">
    <g id="Grupo_5053" data-name="Grupo 5053">
      <path id="Trazado_10880" data-name="Trazado 10880" d="M135.036,1.652l-3.683,1.719-6.63,3.438L118.83,10c-3.192,1.719-6.384,3.683-9.576,5.648l-1.473.982A210.925,210.925,0,0,0,83.716,34.556a106.518,106.518,0,0,0-19.89,23.327,49.524,49.524,0,0,0-4.42,8.84,66.378,66.378,0,0,0-1.964-10.068A37.583,37.583,0,0,0,54,46.588,41.319,41.319,0,0,0,41.236,30.381c-5.4-4.665-11.786-7.858-18.416-10.8a101.477,101.477,0,0,0-10.313-3.438,58.348,58.348,0,0,0-9.331-2.7H2.194A59.477,59.477,0,0,0,3.913,24.979a63.206,63.206,0,0,0,2.7,11.786c2.21,7.367,5.157,14.733,9.822,20.872A45.374,45.374,0,0,0,33.87,72.125a53.545,53.545,0,0,0,11.05,3.929,83.4,83.4,0,0,0,11.3,1.964L55.724,84.4a143.334,143.334,0,0,0,18.662-8.84A146.9,146.9,0,0,0,92.311,63.039c11.05-9.576,20.381-21.608,25.292-35.6-4.174,14.242-13.014,27.01-23.818,37.078A117.9,117.9,0,0,1,76.1,78.263c-4.174,2.7-8.349,4.911-12.523,7.121l8.84-1.964A93.114,93.114,0,0,0,88.628,79c10.559-3.683,20.626-8.594,27.993-16.452a55.029,55.029,0,0,0,10.068-12.523A63.218,63.218,0,0,0,132.581,34.8a92.014,92.014,0,0,0,2.7-16.452A94.833,94.833,0,0,0,135.036,1.652ZM36.571,61.812a43.375,43.375,0,0,1-8.594-6.384,70.68,70.68,0,0,1-6.875-8.1,73.589,73.589,0,0,1-5.4-9.576A35.451,35.451,0,0,1,13,27.435h.246A72.973,72.973,0,0,0,22.82,45.851,84.218,84.218,0,0,0,36.571,61.566Zm7.121,3.438A125.469,125.469,0,0,1,31.906,54.2c-7.121-7.612-13.505-16.7-16.7-26.765,3.929,9.822,10.559,18.171,18.416,25.292a116.5,116.5,0,0,0,12.032,9.822c4.174,2.7,8.349,5.4,12.523,7.612l-1.228,4.665C52.532,71.879,47.621,68.442,43.692,65.249Zm80.54-16.7c-5.648,9.331-14.242,16.7-23.327,22.591l-.246-.246c4.174-3.683,8.349-7.121,12.032-11.05a53,53,0,0,0,9.576-12.523,58.465,58.465,0,0,0,6.139-14.487c1.473-4.911,2.455-10.313,3.683-15.715h.246C131.6,27.926,129.634,38.976,124.232,48.552Z" transform="translate(-2.194 -1.652)" fill="#7cb342"/>
    </g>
  </g>
</svg>
