<svg xmlns="http://www.w3.org/2000/svg" xmlns:xlink="http://www.w3.org/1999/xlink" width="920" height="552" viewBox="0 0 920 552">
  <defs>
    <clipPath id="clip-path">
      <circle id="Elipse_714" data-name="Elipse 714" cx="178" cy="178" r="178" fill="#d3dee8"/>
    </clipPath>
  </defs>
  <g id="Grupo_5509" data-name="Grupo 5509" transform="translate(-110 -3368)">
    <g id="Grupo_1833" data-name="Grupo 1833" transform="translate(77 1363)">
      <g id="Grupo_1009" data-name="Grupo 1009" transform="translate(33 2005)">
        <path id="Trazado_1181" data-name="Trazado 1181" d="M-2335-3648v75h435.789l25.772,17.564,25.772-17.564H-1415v-75Z" transform="translate(2335 3648)" fill="#7cb342"/>
      </g>
    </g>
    <g id="Grupo_1834" data-name="Grupo 1834" transform="translate(82 1363)">
      <text id="Frutos_no_climatéricos" data-name="Frutos no climatéricos" transform="translate(352.5 2028)" fill="#fff" font-size="22" font-family="SegoeUI-Bold, Segoe UI" font-weight="700"><tspan x="0" y="24">Frutos no climatéricos</tspan></text>
      <text id="En_estos_frutos_no_ocurre_una_maduración_organoléptica_rápida._" data-name="En estos frutos no ocurre una maduración organoléptica rápida.
" transform="translate(474 2138)" fill="#00223d" font-size="16" font-family="SegoeUI, Segoe UI"><tspan x="0" y="17">En estos frutos no ocurre una maduración organoléptica rápida.</tspan></text>
      <text id="Maduran_lentamente_unidos_a_la_planta_de_procedencia." data-name="Maduran lentamente unidos a la planta de procedencia." transform="translate(474 2200)" fill="#00223d" font-size="16" font-family="SegoeUI, Segoe UI"><tspan x="0" y="17">Maduran lentamente unidos a la planta de procedencia.</tspan></text>
      <text id="Su_calidad_como_producto_comestible_no_mejora_después_de_la_recolección._" data-name="Su calidad como producto comestible no mejora después de la recolección. " transform="translate(474 2263)" fill="#00223d" font-size="16" font-family="SegoeUI, Segoe UI"><tspan x="0" y="17">Su calidad como producto comestible no mejora después de la </tspan></text>
      <text id="Tienen_una_actividad_respiratoria_relativamente_baja_que_declina_lentamente_después_de_la_cosecha." data-name="Tienen una actividad respiratoria relativamente baja que declina lentamente después de la cosecha." transform="translate(474 2338)" fill="#00223d" font-size="16" font-family="SegoeUI, Segoe UI"><tspan x="0" y="17">Tienen una actividad respiratoria relativamente baja que declina </tspan></text>
      <text id="Si_se_almacenan_en_presencia_de_etileno_solo_se_acentúa_la_etapa_de_senescencia_produciendo_cambios_de_color_aumento_de_la_susceptibilidad_a_enfermedades_y_desarrollo_de_aromas_anómalos._" data-name="Si se almacenan en presencia de etileno, solo se acentúa la etapa de senescencia produciendo cambios de color, aumento de la susceptibilidad a enfermedades y desarrollo de aromas anómalos.   " transform="translate(474 2472)" fill="#00223d" font-size="16" font-family="SegoeUI, Segoe UI"><tspan x="0" y="17">Si se almacenan en presencia de etileno, solo se acentúa la etapa </tspan><tspan x="0" y="38">de senescencia produciendo cambios de color, aumento de la </tspan><tspan x="0" y="59" xml:space="preserve">susceptibilidad a enfermedades y desarrollo de aromas anómalos.   </tspan></text>
      <text id="Producen_poco_etileno." data-name="Producen poco etileno." transform="translate(474 2411)" fill="#00223d" font-size="16" font-family="SegoeUI, Segoe UI"><tspan x="0" y="17">Producen poco etileno.</tspan></text>
      <text id="_01" data-name="01" transform="translate(426 2140)" fill="#80cbc4" font-size="24" font-family="SegoeUI-Bold, Segoe UI" font-weight="700"><tspan x="0" y="26">01</tspan></text>
      <text id="_02" data-name="02" transform="translate(426 2200)" fill="#80cbc4" font-size="24" font-family="SegoeUI-Bold, Segoe UI" font-weight="700"><tspan x="0" y="26">02</tspan></text>
      <text id="_03" data-name="03" transform="translate(426 2261)" fill="#80cbc4" font-size="24" font-family="SegoeUI-Bold, Segoe UI" font-weight="700"><tspan x="0" y="26">03</tspan></text>
      <text id="_04" data-name="04" transform="translate(426 2334)" fill="#80cbc4" font-size="24" font-family="SegoeUI-Bold, Segoe UI" font-weight="700"><tspan x="0" y="26">04</tspan></text>
      <text id="_05" data-name="05" transform="translate(426 2407)" fill="#80cbc4" font-size="24" font-family="SegoeUI-Bold, Segoe UI" font-weight="700"><tspan x="0" y="26">05</tspan></text>
      <text id="_06" data-name="06" transform="translate(426 2479)" fill="#80cbc4" font-size="24" font-family="SegoeUI-Bold, Segoe UI" font-weight="700"><tspan x="0" y="26">06</tspan></text>
      <path id="Trazado_8720" data-name="Trazado 8720" d="M0,0H533" transform="translate(415 2546.5)" fill="none" stroke="#ccc" stroke-width="3"/>
      <path id="Trazado_11273" data-name="Trazado 11273" d="M0,0H533" transform="translate(415 2449.5)" fill="none" stroke="#ccc" stroke-width="3"/>
      <path id="Trazado_11274" data-name="Trazado 11274" d="M0,0H533" transform="translate(415 2389.5)" fill="none" stroke="#ccc" stroke-width="3"/>
      <path id="Trazado_11275" data-name="Trazado 11275" d="M0,0H533" transform="translate(415 2314.5)" fill="none" stroke="#ccc" stroke-width="3"/>
      <path id="Trazado_11276" data-name="Trazado 11276" d="M0,0H533" transform="translate(415 2239.5)" fill="none" stroke="#ccc" stroke-width="3"/>
      <path id="Trazado_11277" data-name="Trazado 11277" d="M0,0H533" transform="translate(415 2174.5)" fill="none" stroke="#ccc" stroke-width="3"/>
    </g>
    <g id="Grupo_5342" data-name="Grupo 5342" transform="translate(-365 3284)">
      <circle id="Elipse_713" data-name="Elipse 713" cx="178" cy="178" r="178" transform="translate(475 243)" fill="#d3dee8"/>
      <g id="Grupo_5341" data-name="Grupo 5341" transform="translate(475 243)" clip-path="url(#clip-path)">
        <g id="Grupo_5357" data-name="Grupo 5357" transform="translate(-32.086 108.558)">
          <g id="Grupo_4707" data-name="Grupo 4707" transform="translate(0 101.558)">
            <g id="Grupo_4705" data-name="Grupo 4705" transform="translate(209.596)">
              <path id="Rectángulo_3075" data-name="Rectángulo 3075" d="M605.841,397.874l173.872.171c-5.427,24.42-23.064,71.9-65.121,107.178-38.7,32.456-84.149,34.673-108.751,37.77Z" transform="translate(-605.841 -397.874)" fill="#e5b87c"/>
              <rect id="Rectángulo_3076" data-name="Rectángulo 3076" width="140.721" height="11.524" transform="translate(23.654 25.156)" fill="#650e00"/>
              <rect id="Rectángulo_3077" data-name="Rectángulo 3077" width="121.727" height="12.139" transform="translate(23.654 66.585)" fill="#650e00"/>
              <rect id="Rectángulo_3078" data-name="Rectángulo 3078" width="85.097" height="11.424" transform="translate(23.654 108.016)" fill="#650e00"/>
            </g>
            <g id="Grupo_4706" data-name="Grupo 4706" transform="translate(34.799)">
              <path id="Rectángulo_3079" data-name="Rectángulo 3079" d="M477,398.045l174.8-.171V542.993l.216.217c-88.185-6.783-143.809-55.624-157.376-99.038C487.853,436.032,479.713,413.42,477,398.045Z" transform="translate(-477 -397.874)" fill="#e5b87c"/>
              <rect id="Rectángulo_3080" data-name="Rectángulo 3080" width="144.36" height="11.524" transform="translate(6.783 25.156)" fill="#650e00"/>
              <rect id="Rectángulo_3081" data-name="Rectángulo 3081" width="126.723" height="12.139" transform="translate(24.42 66.585)" fill="#650e00"/>
              <rect id="Rectángulo_3082" data-name="Rectángulo 3082" width="87.379" height="11.424" transform="translate(63.764 108.016)" fill="#650e00"/>
            </g>
            <path id="Trazado_9839" data-name="Trazado 9839" d="M451.35,504.846" transform="translate(-451.35 -359.718)" fill="#eae2c2"/>
          </g>
          <g id="Grupo_5353" data-name="Grupo 5353" transform="translate(209.942)">
            <g id="Grupo_5347" data-name="Grupo 5347" transform="translate(0 9.205)">
              <path id="Trazado_8826" data-name="Trazado 8826" d="M648.794,386.6c-.421.522-.843.99-1.256,1.414a24.713,24.713,0,0,1-3.489,2.891c-2.291,1.633-9.517,6.786-19.045,5.241a26.455,26.455,0,0,1-14.333-8.341c-2.219-2.526-4.7-9.464-4.568-19.562a19.446,19.446,0,0,1,1.762-8.146,22.723,22.723,0,0,1,7.283-8.329c.568-.435,1.123-.848,1.654-1.243,4.431-3.318,8.782-2.152,13.173-1.141s9.369,5.248,9.369,5.248l1.977,1.012c.243.075.593.194,1.013.346,4.86,1.75,7.794,4.259,9.409,7.159a18.66,18.66,0,0,1,2.059,10.658A23.973,23.973,0,0,1,648.794,386.6Z" transform="translate(-606.096 -323.191)" fill="#facc0d" stroke="#707070" stroke-width="1"/>
              <path id="Trazado_8827" data-name="Trazado 8827" d="M630.792,354.277a5.673,5.673,0,0,0-2.6-1.424c-.332-.1-.544-.228-.806-.038a1.142,1.142,0,0,0-.343.779c-.129,1.148,1,2.352,1.723,3.145a7.592,7.592,0,0,0,3.546,2.088c.958.256,2.705.685,3.346-.431.529-.925-.351-1.654-1.036-2.119-.787-.533-1.734-.792-2.533-1.331-.625-.422-1.327-.686-1.948-1.084" transform="translate(-598.629 -321.629)" fill="#8a3000" stroke="#707070" stroke-width="1"/>
              <path id="Trazado_8828" data-name="Trazado 8828" d="M634.047,353.243a5.963,5.963,0,0,0-.625,1.6,11.484,11.484,0,0,0,.089,1.237,1.1,1.1,0,0,1-.456.887c.228-.393-.646-1.78-.794-2.248-.039-.133-.076-.265-.113-.4a22,22,0,0,0-.787-2.639,39.09,39.09,0,0,1-1.749-4.824,36.6,36.6,0,0,1-1.008-6.029,18.64,18.64,0,0,1-.03-3.173,19.086,19.086,0,0,1,.822-3.477,22.869,22.869,0,0,0,1.051-4.375,1.875,1.875,0,0,1,.7.989l.7,1.591c.151.347.305.695.461,1.042.977,2.2,2.584,3.994,3.455,6.231a16.025,16.025,0,0,1,.7,6.6,10.2,10.2,0,0,1-1.241,4.633C634.785,351.638,634.407,352.448,634.047,353.243Z" transform="translate(-598.097 -329.802)" fill="#335c20" stroke="#707070" stroke-width="1"/>
              <path id="Trazado_8829" data-name="Trazado 8829" d="M637.9,355.386c-.672-.087-1.237-.767-1.932-1.08l-.221-.095a13.5,13.5,0,0,0-1.921-.639,21.77,21.77,0,0,1-4.362-1.688c-1.552-.781-3.248-1.419-4.71-2.34a52.346,52.346,0,0,1-4.325-3.24,34.79,34.79,0,0,1-5.33-4.39,9.578,9.578,0,0,1-1.909-3.18,8.038,8.038,0,0,1-.678-3.458l.094.072a8.9,8.9,0,0,0,3.186,1.324,29.722,29.722,0,0,1,7.629,2.616,19.216,19.216,0,0,1,5.368,5.123,17.435,17.435,0,0,0,1.511,1.929,22.244,22.244,0,0,1,1.937,2.513,56.592,56.592,0,0,0,3.922,4.436c.486.521.846,1.133,1.327,1.652A2.268,2.268,0,0,1,637.9,355.386Z" transform="translate(-603.807 -327.849)" fill="#335c20" stroke="#707070" stroke-width="1"/>
              <path id="Trazado_8830" data-name="Trazado 8830" d="M632.16,350.105a21.68,21.68,0,0,1-1.471,4.644,14.772,14.772,0,0,1-1.1,1.815c-.237.33-.627,1.07-1.022,1.191.335.537,1.285.73,1.734,1.2.315-.126.547-.62.745-.9.3-.415.631-.807.909-1.239.478-.729.8-1.551,1.283-2.275a7.482,7.482,0,0,0,1.129-2.339,8.826,8.826,0,0,0,.426-1.589c.027-.464-.319-.549-.735-.684A2.846,2.846,0,0,0,632.16,350.105Z" transform="translate(-598.079 -322.654)" fill="#141414" stroke="#707070" stroke-width="1"/>
            </g>
            <g id="Grupo_5348" data-name="Grupo 5348" transform="translate(27.782 4.069)">
              <path id="Trazado_8826-2" data-name="Trazado 8826-2" d="M686.107,373.332c-.125.719-.279,1.387-.45,2.008a26.79,26.79,0,0,1-1.791,4.591c-1.317,2.764-5.474,11.479-15.358,15.038a28.8,28.8,0,0,1-18.043-.38c-3.445-1.239-9.467-6.526-14.664-16.2a21.174,21.174,0,0,1-2.627-8.68,24.734,24.734,0,0,1,2.541-11.776c.311-.714.621-1.4.917-2.057,2.462-5.493,7.219-6.679,11.935-8.036s11.684.047,11.684.047l2.422-.069c.266-.056.666-.129,1.146-.206,5.548-.9,9.664-.061,12.734,1.859a20.305,20.305,0,0,1,7.591,9.053A26.1,26.1,0,0,1,686.107,373.332Z" transform="translate(-624.225 -318.442)" fill="#facc0d" stroke="#707070" stroke-width="1"/>
              <path id="Trazado_8827-2" data-name="Trazado 8827-2" d="M653.9,349.041a6.192,6.192,0,0,0-3.229.019c-.369.081-.636.069-.788.388a1.244,1.244,0,0,0,.09.92c.48,1.163,2.191,1.712,3.3,2.081a8.253,8.253,0,0,0,4.476.115c1.053-.263,2.936-.776,2.953-2.176.014-1.159-1.207-1.389-2.107-1.469-1.026-.092-2.065.16-3.108.076-.817-.072-1.622.046-2.423-.005" transform="translate(-618.276 -317.876)" fill="#8a3000" stroke="#707070" stroke-width="1"/>
              <path id="Trazado_8828-2" data-name="Trazado 8828-2" d="M656.061,346.422a6.4,6.4,0,0,0,.244,1.855,12.18,12.18,0,0,0,.741,1.129,1.2,1.2,0,0,1,.035,1.084c.01-.5-1.56-1.351-1.941-1.72-.109-.106-.213-.212-.319-.319a24.121,24.121,0,0,0-2.145-2.1,42.334,42.334,0,0,1-4.21-3.659,39.778,39.778,0,0,1-4.135-5.212,20.08,20.08,0,0,1-1.7-3,20.811,20.811,0,0,1-1.054-3.743,24.814,24.814,0,0,0-1.307-4.717,2.041,2.041,0,0,1,1.186.571q.747.576,1.5,1.146c.327.252.658.5.988.75,2.087,1.57,4.572,2.437,6.58,4.1a17.477,17.477,0,0,1,4.145,5.908,11.068,11.068,0,0,1,1.262,5.063C655.915,344.506,655.984,345.475,656.061,346.422Z" transform="translate(-621.689 -326.016)" fill="#335c20" stroke="#707070" stroke-width="1"/>
              <path id="Trazado_8829-2" data-name="Trazado 8829-2" d="M661.345,346.67c-.684.271-1.583-.077-2.409-.01l-.262.026a14.7,14.7,0,0,0-2.165.4,23.751,23.751,0,0,1-5.04.7c-1.889.075-3.839.362-5.725.259a56.7,56.7,0,0,1-5.815-.8,37.886,37.886,0,0,1-7.39-1.368,10.371,10.371,0,0,1-3.5-2.023,8.721,8.721,0,0,1-2.468-2.928c.042.007.083.014.126.018a9.684,9.684,0,0,0,3.732-.421,32.312,32.312,0,0,1,8.638-1.536,20.89,20.89,0,0,1,7.805,2.05,19.218,19.218,0,0,0,2.456,1.039,24.282,24.282,0,0,1,3.176,1.359,61.687,61.687,0,0,0,6.074,2.15c.737.236,1.4.629,2.133.867A2.472,2.472,0,0,1,661.345,346.67Z" transform="translate(-626.574 -321.388)" fill="#335c20" stroke="#707070" stroke-width="1"/>
              <path id="Trazado_8830-2" data-name="Trazado 8830-2" d="M652.157,344.925a23.47,23.47,0,0,1,1.051,5.192,16.006,16.006,0,0,1-.085,2.309c-.052.438-.031,1.351-.343,1.669.6.336,1.609.019,2.282.223.231-.285.191-.878.236-1.245.068-.552.172-1.1.212-1.658.064-.943-.062-1.9.02-2.842a8.19,8.19,0,0,0-.161-2.822,9.565,9.565,0,0,0-.433-1.737c-.222-.452-.592-.349-1.06-.259A3.1,3.1,0,0,0,652.157,344.925Z" transform="translate(-617.449 -319.717)" fill="#141414" stroke="#707070" stroke-width="1"/>
            </g>
            <g id="Grupo_5349" data-name="Grupo 5349" transform="translate(66.682)">
              <path id="Trazado_8826-3" data-name="Trazado 8826-3" d="M702.815,384.816c-.444.594-.887,1.119-1.326,1.6a27.148,27.148,0,0,1-3.717,3.308c-2.453,1.882-10.183,7.809-20.707,6.481a29.055,29.055,0,0,1-16.043-8.606c-2.53-2.69-5.519-10.21-5.761-21.3a21.37,21.37,0,0,1,1.617-9.008,24.96,24.96,0,0,1,7.682-9.418c.605-.5,1.2-.975,1.768-1.43,4.732-3.81,9.552-2.7,14.411-1.749s10.483,5.4,10.483,5.4l2.211,1.036c.269.072.653.189,1.127.341,5.4,1.735,8.715,4.379,10.6,7.5a20.5,20.5,0,0,1,2.677,11.615A26.342,26.342,0,0,1,702.815,384.816Z" transform="translate(-655.247 -315.612)" fill="#facc0d" stroke="#707070" stroke-miterlimit="3.999" stroke-width="1"/>
              <path id="Trazado_8827-3" data-name="Trazado 8827-3" d="M682.018,349.853a6.256,6.256,0,0,0-2.918-1.465c-.369-.1-.6-.228-.885-.011a1.256,1.256,0,0,0-.341.87c-.1,1.266,1.19,2.544,2.011,3.388a8.327,8.327,0,0,0,3.972,2.153c1.057.244,3,.65,3.654-.6.545-1.035-.449-1.8-1.218-2.286-.889-.558-1.939-.807-2.836-1.366-.7-.44-1.483-.7-2.175-1.115" transform="translate(-647.177 -314.013)" fill="#8a3000" stroke="#707070" stroke-miterlimit="3.999" stroke-width="1"/>
              <path id="Trazado_8828-3" data-name="Trazado 8828-3" d="M685.464,348.6a6.5,6.5,0,0,0-.625,1.78,12.319,12.319,0,0,0,.149,1.355,1.213,1.213,0,0,1-.467.992c.241-.44-.783-1.931-.956-2.438-.047-.151-.095-.288-.138-.433a24.438,24.438,0,0,0-.967-2.868,42.8,42.8,0,0,1-2.108-5.221,40.161,40.161,0,0,1-1.335-6.584,20.432,20.432,0,0,1-.155-3.481,21,21,0,0,1,.768-3.848,25.172,25.172,0,0,0,.988-4.842,2.066,2.066,0,0,1,.8,1.06q.409.861.824,1.72c.179.376.362.752.545,1.126,1.163,2.37,2.994,4.287,4.036,6.7a17.6,17.6,0,0,1,1.019,7.209,11.179,11.179,0,0,1-1.186,5.132C686.212,346.815,685.831,347.72,685.464,348.6Z" transform="translate(-646.829 -323.017)" fill="#335c20" stroke="#707070" stroke-miterlimit="3.999" stroke-width="1"/>
              <path id="Trazado_8829-3" data-name="Trazado 8829-3" d="M689.871,350.784c-.738-.068-1.387-.8-2.161-1.111l-.247-.1a14.934,14.934,0,0,0-2.13-.631,23.784,23.784,0,0,1-4.852-1.685c-1.737-.788-3.627-1.43-5.271-2.38a57.5,57.5,0,0,1-4.862-3.386,38.271,38.271,0,0,1-6.02-4.614,10.483,10.483,0,0,1-2.215-3.423,8.782,8.782,0,0,1-.878-3.763c.034.027.069.052.1.076a9.8,9.8,0,0,0,3.552,1.326,32.706,32.706,0,0,1,8.468,2.583,21.152,21.152,0,0,1,6.088,5.416,19.167,19.167,0,0,0,1.731,2.061,24.459,24.459,0,0,1,2.225,2.681,62.324,62.324,0,0,0,4.477,4.719c.552.555.973,1.212,1.52,1.762A2.522,2.522,0,0,1,689.871,350.784Z" transform="translate(-653.11 -320.636)" fill="#335c20" stroke="#707070" stroke-miterlimit="3.999" stroke-width="1"/>
              <path id="Trazado_8830-3" data-name="Trazado 8830-3" d="M683.28,345.263a23.737,23.737,0,0,1-1.435,5.154,16.456,16.456,0,0,1-1.131,2.035c-.248.369-.648,1.206-1.075,1.344.388.579,1.438.75,1.95,1.245.338-.151.579-.7.783-1.012.313-.465.661-.909.95-1.393.49-.819.818-1.733,1.32-2.547a8.186,8.186,0,0,0,1.149-2.612,9.531,9.531,0,0,0,.407-1.76c.009-.509-.372-.586-.833-.72A3.129,3.129,0,0,0,683.28,345.263Z" transform="translate(-646.546 -315.203)" fill="#141414" stroke="#707070" stroke-miterlimit="3.999" stroke-width="1"/>
            </g>
            <g id="Grupo_5350" data-name="Grupo 5350" transform="translate(96.829 7.406)">
              <path id="Trazado_8826-4" data-name="Trazado 8826-4" d="M726.827,375.436c-.2.621-.421,1.194-.648,1.722A24.069,24.069,0,0,1,724.019,381c-1.509,2.283-6.269,9.483-15.459,11.406a25.737,25.737,0,0,1-15.922-2.574c-2.89-1.518-7.57-6.949-10.973-16.162a18.922,18.922,0,0,1-1.255-8.01,22.094,22.094,0,0,1,3.723-10.107c.364-.593.724-1.161,1.068-1.708,2.857-4.553,7.214-5.013,11.555-5.629s10.339,1.5,10.339,1.5l2.152.229c.244-.016.605-.03,1.04-.041,5.022-.109,8.562,1.144,11.041,3.221a18.151,18.151,0,0,1,5.6,8.956A23.332,23.332,0,0,1,726.827,375.436Z" transform="translate(-676.431 -321.475)" fill="#facc0d" stroke="#707070" stroke-miterlimit="4.002" stroke-width="1.001"/>
              <path id="Trazado_8827-4" data-name="Trazado 8827-4" d="M700.626,350.482a5.517,5.517,0,0,0-2.86-.383c-.339.019-.574-.018-.746.244a1.115,1.115,0,0,0-.039.823c.285,1.087,1.731,1.787,2.663,2.255a7.373,7.373,0,0,0,3.947.657c.959-.1,2.7-.323,2.884-1.559.157-1.024-.9-1.38-1.681-1.563-.9-.2-1.848-.111-2.76-.32-.715-.164-1.445-.159-2.146-.3" transform="translate(-670.529 -320.78)" fill="#8a3000" stroke="#707070" stroke-miterlimit="4.002" stroke-width="1.001"/>
              <path id="Trazado_8828-4" data-name="Trazado 8828-4" d="M702.825,348.5a5.794,5.794,0,0,0-.014,1.67,11.515,11.515,0,0,0,.525,1.091,1.07,1.07,0,0,1-.1.966c.071-.437-1.213-1.389-1.5-1.765-.081-.107-.159-.213-.242-.322a21.4,21.4,0,0,0-1.638-2.125,38.044,38.044,0,0,1-3.278-3.762,35.577,35.577,0,0,1-3.019-5.126,17.745,17.745,0,0,1-1.136-2.869,18.646,18.646,0,0,1-.469-3.443,22.257,22.257,0,0,0-.571-4.339,1.822,1.822,0,0,1,.979.653q.59.6,1.186,1.2c.259.263.521.524.783.786,1.657,1.651,3.743,2.723,5.307,4.446a15.6,15.6,0,0,1,2.937,5.746,9.893,9.893,0,0,1,.49,4.639C702.935,346.785,702.876,347.651,702.825,348.5Z" transform="translate(-672.507 -328.476)" fill="#335c20" stroke="#707070" stroke-miterlimit="4.002" stroke-width="1.001"/>
              <path id="Trazado_8829-4" data-name="Trazado 8829-4" d="M707.532,349c-.639.155-1.393-.262-2.13-.308l-.235-.01a13.219,13.219,0,0,0-1.966.09,21.157,21.157,0,0,1-4.549-.009c-1.673-.16-3.446-.153-5.1-.48a51.288,51.288,0,0,1-5.049-1.427,33.878,33.878,0,0,1-6.367-2.126,9.261,9.261,0,0,1-2.842-2.225,7.788,7.788,0,0,1-1.827-2.9c.036.011.072.022.11.031a8.649,8.649,0,0,0,3.355.09,28.951,28.951,0,0,1,7.838-.281,18.7,18.7,0,0,1,6.66,2.768,16.9,16.9,0,0,0,2.04,1.225,21.825,21.825,0,0,1,2.641,1.605,55.268,55.268,0,0,0,5.109,2.658c.623.3,1.169.733,1.781,1.041A2.246,2.246,0,0,1,707.532,349Z" transform="translate(-677.468 -324.614)" fill="#335c20" stroke="#707070" stroke-miterlimit="4.002" stroke-width="1.001"/>
              <path id="Trazado_8830-4" data-name="Trazado 8830-4" d="M699.751,346.62a21.075,21.075,0,0,1,.286,4.729,14.53,14.53,0,0,1-.362,2.03c-.1.381-.194,1.191-.51,1.437.493.37,1.422.213,1.992.479.24-.224.279-.754.364-1.073.128-.482.289-.952.393-1.442.174-.828.18-1.685.369-2.511a7.3,7.3,0,0,0,.209-2.519,8.566,8.566,0,0,0-.168-1.59c-.14-.43-.48-.384-.9-.364A2.77,2.77,0,0,0,699.751,346.62Z" transform="translate(-669.729 -322.303)" fill="#141414" stroke="#707070" stroke-miterlimit="4.002" stroke-width="1.001"/>
            </g>
            <g id="Grupo_5351" data-name="Grupo 5351" transform="translate(133.622 4.231)">
              <path id="Trazado_8826-5" data-name="Trazado 8826-5" d="M749.079,384.643a19.389,19.389,0,0,1-1.275,1.484,25.608,25.608,0,0,1-3.557,3.054c-2.34,1.732-9.722,7.193-19.611,5.765a27.389,27.389,0,0,1-14.967-8.372c-2.34-2.572-5.033-9.7-5.077-20.154a20.108,20.108,0,0,1,1.671-8.46,23.5,23.5,0,0,1,7.39-8.745c.579-.46,1.146-.9,1.689-1.319,4.521-3.511,9.044-2.382,13.606-1.415s9.789,5.259,9.789,5.259l2.066,1.012c.251.072.616.19,1.054.339,5.059,1.722,8.137,4.267,9.862,7.242a19.309,19.309,0,0,1,2.327,11A24.817,24.817,0,0,1,749.079,384.643Z" transform="translate(-704.588 -319.226)" fill="#facc0d" stroke="#707070" stroke-miterlimit="3.999" stroke-width="1"/>
              <path id="Trazado_8827-5" data-name="Trazado 8827-5" d="M729.972,351.441a5.888,5.888,0,0,0-2.717-1.426c-.345-.1-.566-.225-.836-.024a1.178,1.178,0,0,0-.342.81c-.113,1.19,1.074,2.416,1.84,3.225a7.845,7.845,0,0,0,3.708,2.1c1,.248,2.811.661,3.45-.506.531-.967-.393-1.707-1.111-2.175-.818-.536-1.8-.788-2.641-1.332-.654-.419-1.382-.685-2.032-1.085" transform="translate(-696.925 -317.666)" fill="#8a3000" stroke="#707070" stroke-miterlimit="3.999" stroke-width="1"/>
              <path id="Trazado_8828-5" data-name="Trazado 8828-5" d="M733.281,350.319a6.129,6.129,0,0,0-.619,1.663,11.528,11.528,0,0,0,.119,1.279,1.14,1.14,0,0,1-.456.927c.229-.411-.706-1.831-.862-2.312-.043-.137-.084-.273-.123-.411a22.836,22.836,0,0,0-.857-2.715,40.328,40.328,0,0,1-1.9-4.948,37.818,37.818,0,0,1-1.156-6.229,19.072,19.072,0,0,1-.088-3.281,19.784,19.784,0,0,1,.787-3.613,23.825,23.825,0,0,0,1.009-4.545,1.948,1.948,0,0,1,.741,1.009q.37.818.746,1.633c.163.357.33.714.5,1.069,1.055,2.252,2.754,4.089,3.693,6.374a16.569,16.569,0,0,1,.841,6.812,10.517,10.517,0,0,1-1.2,4.815C734.015,348.645,733.64,349.486,733.281,350.319Z" transform="translate(-696.484 -326.136)" fill="#335c20" stroke="#707070" stroke-miterlimit="3.999" stroke-width="1"/>
              <path id="Trazado_8829-5" data-name="Trazado 8829-5" d="M737.354,352.455c-.695-.076-1.294-.771-2.019-1.083l-.231-.1a14.257,14.257,0,0,0-2-.625,22.455,22.455,0,0,1-4.542-1.667c-1.622-.78-3.388-1.4-4.922-2.338a54.03,54.03,0,0,1-4.527-3.267,36.042,36.042,0,0,1-5.594-4.446,9.889,9.889,0,0,1-2.031-3.26,8.286,8.286,0,0,1-.765-3.56c.031.024.062.049.1.072a9.2,9.2,0,0,0,3.323,1.315,30.77,30.77,0,0,1,7.935,2.565,19.889,19.889,0,0,1,5.651,5.2,18.158,18.158,0,0,0,1.593,1.969,23.169,23.169,0,0,1,2.051,2.563,58.964,58.964,0,0,0,4.138,4.519c.513.53.9,1.156,1.4,1.684A2.357,2.357,0,0,1,737.354,352.455Z" transform="translate(-702.398 -324.004)" fill="#335c20" stroke="#707070" stroke-miterlimit="3.999" stroke-width="1"/>
              <path id="Trazado_8830-5" data-name="Trazado 8830-5" d="M731.278,347.123a22.463,22.463,0,0,1-1.438,4.831,15.424,15.424,0,0,1-1.1,1.9c-.24.346-.63,1.119-1.035,1.251.357.549,1.343.73,1.815,1.2.322-.137.555-.651.756-.94.3-.434.631-.848.917-1.3.471-.765.8-1.619,1.292-2.376a7.739,7.739,0,0,0,1.125-2.442,8.97,8.97,0,0,0,.412-1.651c.008-.482-.346-.56-.777-.693A2.945,2.945,0,0,0,731.278,347.123Z" transform="translate(-696.342 -318.756)" fill="#141414" stroke="#707070" stroke-miterlimit="3.999" stroke-width="1"/>
            </g>
            <g id="Grupo_5354" data-name="Grupo 5354" transform="translate(149.777 10.129)">
              <path id="Trazado_8826-6" data-name="Trazado 8826-6" d="M751.313,398.017a27.382,27.382,0,0,1-17.018-2.154c-3.134-1.507-8.307-7.113-12.263-16.786a20.138,20.138,0,0,1-1.621-8.472,23.511,23.511,0,0,1,3.576-10.879c.364-.644.726-1.262,1.072-1.857,2.876-4.949,7.493-5.6,12.088-6.413s11.047,1.209,11.047,1.209l2.3.163c.26-.027.643-.054,1.106-.08" transform="translate(-715.101 -323.072)" fill="#facc0d" stroke="#707070" stroke-width="1"/>
              <path id="Trazado_8826-6-2" data-name="Trazado 8826-6" d="M751.5,362.5" transform="translate(-704.009 -319.063)" fill="#facc0d" stroke="#707070" stroke-width="1"/>
              <path id="Trazado_8827-6" data-name="Trazado 8827-6" d="M741.516,353.562a5.862,5.862,0,0,0-3.055-.3c-.358.034-.609,0-.784.289a1.183,1.183,0,0,0-.012.88c.342,1.145,1.9,1.837,2.913,2.3a7.858,7.858,0,0,0,4.226.555c1.016-.144,2.855-.441,3.009-1.764.13-1.095-1-1.434-1.845-1.6-.959-.191-1.965-.057-2.949-.246-.764-.144-1.539-.117-2.292-.246" transform="translate(-708.972 -322.388)" fill="#8a3000" stroke="#707070" stroke-width="1"/>
              <path id="Trazado_8828-6" data-name="Trazado 8828-6" d="M743.79,351.357a6.116,6.116,0,0,0,.05,1.773,11.518,11.518,0,0,0,.59,1.142,1.146,1.146,0,0,1-.075,1.03c.057-.467-1.342-1.434-1.666-1.821-.092-.111-.18-.221-.269-.335a22.892,22.892,0,0,0-1.814-2.2,40.356,40.356,0,0,1-3.616-3.876,37.71,37.71,0,0,1-3.407-5.344,19.11,19.11,0,0,1-1.312-3.009,19.752,19.752,0,0,1-.624-3.645,23.733,23.733,0,0,0-.768-4.592,1.952,1.952,0,0,1,1.065.658q.651.621,1.305,1.235c.285.27.574.54.86.807,1.823,1.692,4.086,2.76,5.813,4.526a16.588,16.588,0,0,1,3.335,6,10.541,10.541,0,0,1,.69,4.917C743.844,349.528,743.812,350.449,743.79,351.357Z" transform="translate(-711.364 -330.483)" fill="#335c20" stroke="#707070" stroke-width="1"/>
              <path id="Trazado_8829-6" data-name="Trazado 8829-6" d="M748.814,351.8c-.674.189-1.488-.231-2.278-.248l-.25,0a14.193,14.193,0,0,0-2.088.17,22.526,22.526,0,0,1-4.837.156c-1.8-.115-3.668-.033-5.44-.323a54.217,54.217,0,0,1-5.423-1.332,36.126,36.126,0,0,1-6.854-2.027,9.86,9.86,0,0,1-3.105-2.263,8.268,8.268,0,0,1-2.045-3.013c.038.011.077.022.118.03a9.236,9.236,0,0,0,3.574-.027,30.761,30.761,0,0,1,8.321-.6,19.9,19.9,0,0,1,7.192,2.709,18.063,18.063,0,0,0,2.214,1.228,23.3,23.3,0,0,1,2.863,1.608,58.663,58.663,0,0,0,5.531,2.64c.674.3,1.264.735,1.928,1.038A2.272,2.272,0,0,1,748.814,351.8Z" transform="translate(-716.495 -326.281)" fill="#335c20" stroke="#707070" stroke-width="1"/>
              <path id="Trazado_8830-6" data-name="Trazado 8830-6" d="M740.365,349.5a22.369,22.369,0,0,1,.479,5.02,15.614,15.614,0,0,1-.311,2.172c-.092.41-.163,1.274-.491,1.547.537.377,1.519.175,2.135.437.247-.247.27-.811.349-1.155.118-.517.267-1.022.364-1.547.151-.886.132-1.8.308-2.688a7.768,7.768,0,0,0,.128-2.685,9.068,9.068,0,0,0-.236-1.686c-.174-.45-.531-.391-.981-.351A2.948,2.948,0,0,0,740.365,349.5Z" transform="translate(-708.096 -324.045)" fill="#141414" stroke="#707070" stroke-width="1"/>
            </g>
          </g>
          <g id="Grupo_5346" data-name="Grupo 5346" transform="translate(11.29 21.81)">
            <g id="Grupo_5341-2" data-name="Grupo 5341" transform="translate(0 2.176)">
              <g id="Grupo_4286" data-name="Grupo 4286" transform="translate(22.962)">
                <path id="Trazado_8721" data-name="Trazado 8721" d="M482.525,342.964l-.081.153c-.056.1-.137.265-.239.469-.2.411-.49,1.009-.8,1.741a30.15,30.15,0,0,0-1.811,5.478,14.78,14.78,0,0,0-.351,2.939,7.141,7.141,0,0,0,.338,2.348,4.233,4.233,0,0,0,.365.792,3.377,3.377,0,0,0,.381.526,2.22,2.22,0,0,0,.163.176c.041.043.083.084.128.123l.11.1.069.061a1.2,1.2,0,0,1-1.564,1.826h0l-.193-.157c-.067-.053-.138-.118-.224-.2s-.186-.171-.286-.282a5.835,5.835,0,0,1-.677-.852,6.743,6.743,0,0,1-.632-1.229,9.68,9.68,0,0,1-.615-3.19,17.492,17.492,0,0,1,.269-3.5,33.01,33.01,0,0,1,1.738-6.093c.307-.8.587-1.461.8-1.928.1-.225.187-.412.246-.537l.094-.2a1.566,1.566,0,0,1,2.821,1.357l-.023.049Z" transform="translate(-476.596 -340.697)" fill="#3f3b30"/>
              </g>
              <g id="Grupo_4287" data-name="Grupo 4287" transform="translate(25.958 0.824)">
                <path id="Trazado_8722" data-name="Trazado 8722" d="M496.432,353.225a26.909,26.909,0,0,1-7.68,3.679,25.325,25.325,0,0,1-4.449,1.278c-.119.022-.24.037-.361.053a9.2,9.2,0,0,1-2.757-.037,2.28,2.28,0,0,1-1.2-.456,1.141,1.141,0,0,1-.151-.163h0a2.047,2.047,0,0,1-.233-.4c-.042-.088-.084-.189-.126-.3s-.081-.214-.136-.341l-.056-.155c-.03-.111-.069-.232-.1-.35h0c-.026-.075-.047-.151-.069-.227a5.553,5.553,0,0,1-.148-.574,7.007,7.007,0,0,1-.163-1.374,5.553,5.553,0,0,1,.551-2.536,9.7,9.7,0,0,1,4.415-4.219,28.76,28.76,0,0,1,5.866-2.02l14-3.728.227-.06-.053.132c-.019.054-.043.107-.061.159l-.379.929c-.155.374-.311.75-.468,1.125C501.365,347.287,499.518,350.835,496.432,353.225Z" transform="translate(-478.805 -341.304)" fill="#42762b"/>
                <path id="Trazado_8723" data-name="Trazado 8723" d="M497.265,341.6c-.1.08-.19.165-.286.244.058-.163.111-.322.182-.478l.223-.058Z" transform="translate(-472.323 -341.303)" fill="#42762b"/>
              </g>
              <path id="Trazado_8724" data-name="Trazado 8724" d="M515.064,358.423l.057.148c2.5,6.77,3.313,14.83.8,21.7l-.008.024-.011.03a39.28,39.28,0,0,1-9.654,14.169,11.507,11.507,0,0,1-1.89,1.458l-.008,0-.038.024c-3.107,1.941-11.654,3.674-11.82,3.708h0c-.775-.167-1.416-.343-1.51-.369l-.005-.008-1.943,1.216c-1.575.984-5.473-.25-7.169-.654a26.179,26.179,0,0,1-7.044-2.823,31.105,31.105,0,0,1-8.745-7.733q-1.02-1.309-1.922-2.69a26.182,26.182,0,0,1-3.668-7.717,22.04,22.04,0,0,1-.606-3.126,20.483,20.483,0,0,1,1.507-11.156,15.1,15.1,0,0,1,5.788-7.407c4.454-2.637,11.354-2.487,15.936-2.7.861-.038,1.639-.091,2.3-.178a5.914,5.914,0,0,0,1.345-.351,9.283,9.283,0,0,0,1.469-.722,10.329,10.329,0,0,0,.9-.605h0a.511.511,0,0,0,.088-.068c1.539-1.244,9.983-3.849,16.993-1.993l.579.16a13.051,13.051,0,0,1,4.743,2.534A12.452,12.452,0,0,1,513.2,355,12.225,12.225,0,0,1,515.064,358.423Z" transform="translate(-459.672 -337.392)" fill="#e01f00"/>
            </g>
            <g id="Grupo_5342-2" data-name="Grupo 5342" transform="translate(41.45 4.921)">
              <g id="Grupo_4286-2" data-name="Grupo 4286-2" transform="translate(30.655)">
                <path id="Trazado_8721-2" data-name="Trazado 8721-2" d="M523.244,345.47l-.137.1c-.091.069-.228.176-.4.316-.347.278-.844.686-1.42,1.2a29.337,29.337,0,0,0-3.833,4.071,14.311,14.311,0,0,0-1.514,2.435,6.9,6.9,0,0,0-.665,2.2,4.092,4.092,0,0,0,0,.845,3.366,3.366,0,0,0,.119.62,2.1,2.1,0,0,0,.071.22,1.367,1.367,0,0,0,.063.161l.056.129.034.083a1.167,1.167,0,0,1-2.123.963l-.1-.216c-.034-.069-.075-.157-.115-.259s-.094-.227-.136-.368a5.7,5.7,0,0,1-.246-1.027,6.606,6.606,0,0,1-.054-1.339,9.393,9.393,0,0,1,.771-3.058,16.88,16.88,0,0,1,1.67-2.963,31.94,31.94,0,0,1,4.025-4.645c.6-.578,1.115-1.042,1.484-1.363.186-.16.335-.286.437-.372l.167-.137a1.518,1.518,0,1,1,1.928,2.346l-.043.037Z" transform="translate(-512.819 -342.72)" fill="#3f3b30" stroke="#707070" stroke-width="1"/>
              </g>
              <g id="Grupo_4287-2" data-name="Grupo 4287-2" transform="translate(33.28 7.414)">
                <path id="Trazado_8722-2" data-name="Trazado 8722-2" d="M531.173,358.746a26.1,26.1,0,0,1-8.258.085,24.743,24.743,0,0,1-4.432-.7c-.113-.031-.225-.066-.336-.095a9.036,9.036,0,0,1-2.408-1.163,2.227,2.227,0,0,1-.868-.9,1.134,1.134,0,0,1-.073-.206h0a1.892,1.892,0,0,1-.042-.445c0-.1,0-.2.011-.313s.015-.221.027-.345l.014-.161c.012-.117.027-.235.043-.35h0c.012-.079.03-.152.042-.231.03-.187.068-.373.11-.56a6.785,6.785,0,0,1,.421-1.275,5.372,5.372,0,0,1,1.522-2.005,9.4,9.4,0,0,1,5.609-1.9,27.888,27.888,0,0,1,5.983.632l13.834,2.468.224.039-.1.094c-.039.039-.08.077-.122.115-.235.221-.471.441-.711.661q-.434.4-.872.791C537.943,355.546,534.866,357.911,531.173,358.746Z" transform="translate(-514.753 -348.185)" fill="#42762b" stroke="#707070" stroke-width="1"/>
                <path id="Trazado_8723-2" data-name="Trazado 8723-2" d="M535.2,350.715a3.641,3.641,0,0,1-.351.1c.113-.118.229-.236.351-.345l.224.039Z" transform="translate(-507.586 -347.371)" fill="#42762b" stroke="#707070" stroke-width="1"/>
              </g>
              <path id="Trazado_8724-2" data-name="Trazado 8724-2" d="M546.9,370.357c0,.052-.007.1-.012.155-.574,6.975-3.165,14.39-8.189,19.4l-.016.019-.02.02a38.088,38.088,0,0,1-14.294,8.494,11.13,11.13,0,0,1-2.262.507H522.1l-.043.005c-3.523.433-11.748-1.548-11.908-1.586h0c-.613-.464-1.1-.882-1.177-.95v-.009l-2.2.271c-1.787.22-4.708-2.461-6.035-3.512a25.31,25.31,0,0,1-5.033-5.368,30.117,30.117,0,0,1-4.515-10.38q-.366-1.559-.591-3.145a25.419,25.419,0,0,1-.061-8.285,21.468,21.468,0,0,1,.75-3,19.847,19.847,0,0,1,5.91-9.185,14.618,14.618,0,0,1,8.117-4.141c5-.5,11,2.465,15.111,4.158.772.315,1.477.591,2.1.788a5.737,5.737,0,0,0,1.328.247,8.84,8.84,0,0,0,1.585-.033,9.637,9.637,0,0,0,1.039-.161h0a.418.418,0,0,0,.1-.023c1.857-.46,10.353.71,15.75,5.215.151.118.294.25.44.378a12.658,12.658,0,0,1,3.128,4.172,12.092,12.092,0,0,1,.763,2.175A11.868,11.868,0,0,1,546.9,370.357Z" transform="translate(-490.223 -340.259)" fill="#e01f00" stroke="#707070" stroke-width="1"/>
            </g>
            <g id="Grupo_5343" data-name="Grupo 5343" transform="translate(80.626)">
              <g id="Grupo_4286-3" data-name="Grupo 4286-3" transform="translate(11.769 7.985)">
                <path id="Trazado_8721-3" data-name="Trazado 8721-3" d="M530.837,346.657l-.02.167c-.01.114-.022.288-.035.51-.026.444-.054,1.087-.06,1.859a29.287,29.287,0,0,0,.457,5.573,14.411,14.411,0,0,0,.8,2.755,6.955,6.955,0,0,0,1.191,1.97,4.072,4.072,0,0,0,.627.567,3.258,3.258,0,0,0,.539.327c.069.035.14.068.212.1.053.023.107.043.161.061l.134.046.083.029a1.167,1.167,0,0,1-.706,2.222l-.229-.067c-.076-.02-.168-.05-.27-.088s-.231-.081-.365-.144a5.74,5.74,0,0,1-.928-.506,6.616,6.616,0,0,1-1.03-.856,9.416,9.416,0,0,1-1.757-2.62,16.915,16.915,0,0,1-1.083-3.225,32.09,32.09,0,0,1-.757-6.1c-.028-.832-.027-1.526-.018-2.016.005-.244.011-.44.015-.574l.011-.214a1.518,1.518,0,1,1,3.034.138l0,.056Z" transform="translate(-527.774 -344.979)" fill="#3f3b30" stroke="#707070" stroke-width="1"/>
              </g>
              <g id="Grupo_4287-3" data-name="Grupo 4287-3" transform="translate(15.945)">
                <path id="Trazado_8722-3" data-name="Trazado 8722-3" d="M546.821,352.547a26.1,26.1,0,0,1-5.466,6.192,24.839,24.839,0,0,1-3.488,2.825c-.1.062-.2.122-.3.186a8.993,8.993,0,0,1-2.476,1.011,2.221,2.221,0,0,1-1.248.045,1.241,1.241,0,0,1-.2-.083h0a1.959,1.959,0,0,1-.36-.267c-.072-.062-.145-.137-.225-.217s-.153-.16-.237-.252l-.11-.118c-.08-.087-.157-.178-.232-.267h0c-.05-.061-.092-.122-.144-.185-.118-.148-.232-.3-.342-.457a6.731,6.731,0,0,1-.666-1.165,5.389,5.389,0,0,1-.471-2.473,9.4,9.4,0,0,1,2.344-5.439,27.874,27.874,0,0,1,4.476-4.021l11.1-8.627.179-.14,0,.138c0,.054,0,.111,0,.167.007.323.012.646.016.971,0,.392,0,.786,0,1.178C548.976,345.376,548.673,349.245,546.821,352.547Z" transform="translate(-530.852 -339.093)" fill="#42762b" stroke="#707070" stroke-width="1"/>
                <path id="Trazado_8723-3" data-name="Trazado 8723-3" d="M544.243,339.4c-.047.114-.1.22-.161.327-.014-.163-.022-.328-.022-.492l.179-.138Z" transform="translate(-526.141 -339.093)" fill="#42762b" stroke="#707070" stroke-width="1"/>
              </g>
              <path id="Trazado_8724-3" data-name="Trazado 8724-3" d="M564.693,352.164c.037.037.073.073.107.111,4.8,5.1,8.573,11.988,8.934,19.075l0,.026v.029a38.1,38.1,0,0,1-3.259,16.307,11.141,11.141,0,0,1-1.137,2.019l-.005.007-.026.037c-2.036,2.907-9.015,7.691-9.151,7.785h0c-.754.146-1.393.231-1.492.24l-.008-.005-1.274,1.818c-1.034,1.473-4.98,1.849-6.65,2.131a25.291,25.291,0,0,1-7.359.145,30.1,30.1,0,0,1-10.734-3.6q-1.4-.771-2.734-1.666a25.428,25.428,0,0,1-6.2-5.5,21.417,21.417,0,0,1-1.723-2.563,19.857,19.857,0,0,1-2.868-10.54,14.63,14.63,0,0,1,2.359-8.8c2.977-4.044,9.2-6.52,13.206-8.441.752-.364,1.429-.7,1.99-1.031a5.769,5.769,0,0,0,1.072-.821,8.985,8.985,0,0,0,1.038-1.2,9.6,9.6,0,0,0,.575-.88h0a.4.4,0,0,0,.052-.092c.9-1.688,7.459-7.216,14.42-8.209.189-.034.383-.052.575-.072a12.672,12.672,0,0,1,5.195.467,12.2,12.2,0,0,1,2.126.89A11.858,11.858,0,0,1,564.693,352.164Z" transform="translate(-519.1 -335.779)" fill="#e01f00" stroke="#707070" stroke-width="1"/>
            </g>
            <g id="Grupo_5344" data-name="Grupo 5344" transform="translate(104.428 0.369)">
              <g id="Grupo_4286-4" data-name="Grupo 4286-4" transform="translate(33.95)">
                <path id="Trazado_8721-4" data-name="Trazado 8721-4" d="M573.5,342.355l-.151.1c-.1.071-.259.178-.452.317-.388.281-.947.693-1.6,1.213a31.583,31.583,0,0,0-4.36,4.168,15.547,15.547,0,0,0-1.766,2.537,7.468,7.468,0,0,0-.84,2.335,4.441,4.441,0,0,0-.052.909,3.633,3.633,0,0,0,.092.674,2.412,2.412,0,0,0,.065.242,1.576,1.576,0,0,0,.058.176l.054.147.031.091a1.256,1.256,0,0,1-2.339.917l-.1-.237c-.034-.079-.072-.175-.11-.292s-.087-.25-.126-.4a6.165,6.165,0,0,1-.209-1.121,6.937,6.937,0,0,1,.019-1.444,10.09,10.09,0,0,1,1-3.249,18.258,18.258,0,0,1,1.96-3.1,34.64,34.64,0,0,1,4.6-4.778c.677-.592,1.259-1.058,1.673-1.384l.494-.376.19-.138a1.637,1.637,0,0,1,1.941,2.635l-.049.037Z" transform="translate(-561.669 -339.365)" fill="#3f3b30" stroke="#707070" stroke-miterlimit="4.002" stroke-width="1"/>
              </g>
              <g id="Grupo_4287-4" data-name="Grupo 4287-4" transform="translate(36.716 8.008)">
                <path id="Trazado_8722-4" data-name="Trazado 8722-4" d="M581.2,357.139a28.148,28.148,0,0,1-8.9-.373,26.6,26.6,0,0,1-4.733-1c-.121-.041-.239-.084-.359-.129a9.651,9.651,0,0,1-2.526-1.385,2.387,2.387,0,0,1-.887-1.013,1.3,1.3,0,0,1-.058-.225h0a2.054,2.054,0,0,1-.02-.483c0-.1.013-.217.028-.338s.03-.237.048-.37l.024-.172c.024-.125.047-.251.065-.369h0c.012-.081.029-.163.046-.243.049-.206.1-.41.157-.609a7.4,7.4,0,0,1,.524-1.349,5.785,5.785,0,0,1,1.754-2.07,10.136,10.136,0,0,1,6.147-1.73,30.042,30.042,0,0,1,6.406,1.015l14.754,3.434.239.056-.115.095c-.045.041-.092.077-.137.117-.266.224-.532.448-.8.672q-.488.407-.984.81C588.664,354.073,585.217,356.449,581.2,357.139Z" transform="translate(-563.708 -345.267)" fill="#42762b" stroke="#707070" stroke-miterlimit="4.002" stroke-width="1"/>
                <path id="Trazado_8723-4" data-name="Trazado 8723-4" d="M585.882,348.828c-.128.024-.248.053-.383.079.128-.121.255-.24.4-.353l.239.056Z" transform="translate(-555.935 -344.095)" fill="#42762b" stroke="#707070" stroke-miterlimit="4.002" stroke-width="1"/>
              </g>
              <path id="Trazado_8724-4" data-name="Trazado 8724-4" d="M597.683,370.4c-.006.054-.012.11-.02.166-1.011,7.479-4.218,15.324-9.908,20.433l-.019.019-.024.02a41.063,41.063,0,0,1-15.864,8.34,12,12,0,0,1-2.461.419h-.008l-.049,0c-3.816.267-12.562-2.327-12.731-2.373h-.007c-.634-.535-1.138-1.009-1.214-1.083l-.007-.009-2.382.167c-1.937.137-4.931-2.92-6.3-4.122a27.3,27.3,0,0,1-5.113-6.063,32.46,32.46,0,0,1-4.278-11.44c-.2-1.133-.357-2.275-.46-3.419a27.355,27.355,0,0,1,.4-8.924,23.073,23.073,0,0,1,.976-3.184,21.41,21.41,0,0,1,6.87-9.562,15.779,15.779,0,0,1,8.976-4c5.41-.244,11.7,3.275,16.036,5.33.813.385,1.557.719,2.214.966a6.279,6.279,0,0,0,1.414.337,9.6,9.6,0,0,0,1.709.054,10.444,10.444,0,0,0,1.126-.115h0a.524.524,0,0,0,.115-.019c2.031-.393,11.107,1.344,16.665,6.5.153.141.3.286.452.431a13.668,13.668,0,0,1,3.134,4.668,13.011,13.011,0,0,1,.7,2.384A12.76,12.76,0,0,1,597.683,370.4Z" transform="translate(-536.645 -337.077)" fill="#e01f00" stroke="#707070" stroke-miterlimit="4.002" stroke-width="1"/>
            </g>
            <g id="Grupo_5356" data-name="Grupo 5356" transform="translate(134.36 1.021)">
              <g id="Grupo_4286-5" data-name="Grupo 4286-5" transform="translate(23.58)">
                <path id="Trazado_8721-5" data-name="Trazado 8721-5" d="M582.1,342.22l-.083.163c-.056.11-.141.281-.24.5-.2.434-.494,1.065-.809,1.834a31.648,31.648,0,0,0-1.794,5.755,15.4,15.4,0,0,0-.315,3.074,7.437,7.437,0,0,0,.4,2.449,4.383,4.383,0,0,0,.4.819,3.535,3.535,0,0,0,.407.544,2.19,2.19,0,0,0,.174.18,1.344,1.344,0,0,0,.137.126l.117.1.072.064a1.256,1.256,0,0,1-1.6,1.936l-.2-.16a3,3,0,0,1-.237-.2c-.091-.084-.2-.176-.3-.288a6.164,6.164,0,0,1-.726-.879,6.95,6.95,0,0,1-.684-1.271,10.126,10.126,0,0,1-.7-3.324,18.236,18.236,0,0,1,.214-3.658,34.616,34.616,0,0,1,1.707-6.4c.305-.845.589-1.536.792-2.02.107-.244.191-.437.25-.568l.1-.213a1.636,1.636,0,0,1,2.974,1.363l-.024.056Z" transform="translate(-576.087 -339.845)" fill="#3f3b30" stroke="#707070" stroke-width="1"/>
              </g>
              <g id="Grupo_4287-5" data-name="Grupo 4287-5" transform="translate(26.725 0.47)">
                <path id="Trazado_8722-5" data-name="Trazado 8722-5" d="M596.819,352.782a28.1,28.1,0,0,1-7.958,3.983,26.615,26.615,0,0,1-4.625,1.416c-.125.023-.25.042-.376.061a9.67,9.67,0,0,1-2.88.014,2.382,2.382,0,0,1-1.267-.457,1.342,1.342,0,0,1-.161-.168h0a2.128,2.128,0,0,1-.251-.412c-.047-.092-.092-.2-.137-.309s-.09-.221-.138-.346l-.062-.163c-.039-.121-.08-.242-.122-.354h0c-.029-.077-.053-.156-.077-.235-.057-.2-.11-.407-.157-.609a7.283,7.283,0,0,1-.2-1.433,5.794,5.794,0,0,1,.53-2.659,10.132,10.132,0,0,1,4.537-4.491,30.044,30.044,0,0,1,6.093-2.217l14.564-4.143.235-.068-.054.14c-.019.056-.043.111-.064.167q-.185.488-.374.977-.23.59-.468,1.183C601.865,346.483,600,350.232,596.819,352.782Z" transform="translate(-578.406 -340.192)" fill="#42762b" stroke="#707070" stroke-width="1"/>
                <path id="Trazado_8723-5" data-name="Trazado 8723-5" d="M597.537,340.5c-.1.084-.193.168-.3.255.053-.167.107-.334.176-.5l.235-.068Z" transform="translate(-571.688 -340.192)" fill="#42762b" stroke="#707070" stroke-width="1"/>
              </g>
              <path id="Trazado_8724-5" data-name="Trazado 8724-5" d="M616.332,357.95c.022.052.042.1.062.156,2.739,7.029,3.735,15.442,1.236,22.665l-.008.024-.012.03a41.057,41.057,0,0,1-9.829,14.978,12.1,12.1,0,0,1-1.948,1.557l-.008,0-.041.027c-3.207,2.082-12.11,4.05-12.281,4.093h0l-.005,0c-.813-.16-1.483-.331-1.586-.36l-.011,0-2,1.3c-1.628,1.058-5.725-.164-7.5-.554a27.269,27.269,0,0,1-7.409-2.823,32.494,32.494,0,0,1-9.281-7.93c-.727-.891-1.414-1.817-2.058-2.766a27.38,27.38,0,0,1-3.975-8,23.017,23.017,0,0,1-.689-3.256,21.394,21.394,0,0,1,1.376-11.689,15.774,15.774,0,0,1,5.911-7.844c4.613-2.833,11.819-2.8,16.6-3.107.9-.056,1.711-.125,2.405-.227a6.25,6.25,0,0,0,1.4-.392,9.577,9.577,0,0,0,1.521-.78,10.407,10.407,0,0,0,.928-.646h0a.447.447,0,0,0,.091-.072c1.586-1.328,10.364-4.206,17.721-2.391.2.05.4.1.6.16a13.64,13.64,0,0,1,5,2.563,13.08,13.08,0,0,1,1.766,1.745A12.831,12.831,0,0,1,616.332,357.95Z" transform="translate(-558.707 -336.448)" fill="#e01f00" stroke="#707070" stroke-width="1"/>
            </g>
          </g>
          <g id="Grupo_5345" data-name="Grupo 5345" transform="translate(3.916 48.429)">
            <g id="Grupo_5341-2-2" data-name="Grupo 5341-2">
              <g id="Grupo_4286-6" data-name="Grupo 4286-6" transform="translate(37.045)">
                <path id="Trazado_8721-6" data-name="Trazado 8721-6" d="M494.823,361.984l-.165.1c-.113.066-.282.168-.5.3-.431.271-1.047.659-1.764,1.157a33.474,33.474,0,0,0-4.9,4.07,16.3,16.3,0,0,0-2.046,2.54,7.919,7.919,0,0,0-1.057,2.395,4.778,4.778,0,0,0-.121.95,3.809,3.809,0,0,0,.047.715c.012.088.03.174.05.259a1.5,1.5,0,0,0,.049.19l.045.157.028.1a1.327,1.327,0,0,1-2.53.792l-.088-.258c-.03-.084-.062-.189-.095-.315s-.073-.271-.1-.433a6.627,6.627,0,0,1-.136-1.191,7.418,7.418,0,0,1,.125-1.52,10.676,10.676,0,0,1,1.292-3.344,19.36,19.36,0,0,1,2.3-3.12,36.559,36.559,0,0,1,5.188-4.687c.756-.57,1.4-1.022,1.865-1.332.231-.156.417-.271.543-.36l.208-.136a1.728,1.728,0,0,1,1.927,2.868c-.026.018-.052.034-.079.049l-.054.034Z" transform="translate(-481.542 -358.714)" fill="#3f3b30"/>
              </g>
              <g id="Grupo_4287-6" data-name="Grupo 4287-6" transform="translate(39.867 8.472)">
                <path id="Trazado_8722-6" data-name="Trazado 8722-6" d="M501.7,378.149a29.7,29.7,0,0,1-9.335-1.049,28.062,28.062,0,0,1-4.907-1.405c-.124-.052-.246-.106-.368-.161a10.225,10.225,0,0,1-2.557-1.64,2.533,2.533,0,0,1-.857-1.133,1.462,1.462,0,0,1-.046-.242h0a2.215,2.215,0,0,1,.014-.51c.011-.109.031-.225.056-.351s.049-.248.077-.387l.039-.178c.03-.136.062-.262.1-.391h0c.02-.084.043-.17.068-.252q.092-.315.2-.623a7.776,7.776,0,0,1,.651-1.381,6.125,6.125,0,0,1,2-2.049,10.7,10.7,0,0,1,6.6-1.368,31.75,31.75,0,0,1,6.667,1.54l15.275,4.7.247.076-.128.092c-.05.038-.1.075-.153.113q-.444.326-.893.648-.541.391-1.095.779C509.787,375.476,505.98,377.716,501.7,378.149Z" transform="translate(-483.622 -364.958)" fill="#42762b"/>
                <path id="Trazado_8723-6" data-name="Trazado 8723-6" d="M507.107,369.892c-.136.024-.271.043-.407.061.144-.119.292-.235.445-.342l.247.076Z" transform="translate(-475.39 -363.299)" fill="#42762b"/>
              </g>
              <path id="Trazado_8724-6" data-name="Trazado 8724-6" d="M518.381,393.135c-.011.057-.022.115-.034.172-1.616,7.8-5.569,15.809-11.939,20.772l-.022.018-.027.02a43.32,43.32,0,0,1-17.314,7.61,12.591,12.591,0,0,1-2.621.259h-.061c-4.036,0-13.047-3.377-13.224-3.442h-.007c-.627-.608-1.123-1.148-1.2-1.228l-.007-.011h-2.509c-2.049,0-4.974-3.431-6.322-4.8a28.812,28.812,0,0,1-4.934-6.758A34.268,34.268,0,0,1,454.5,393.4c-.136-1.207-.208-2.42-.232-3.632a28.941,28.941,0,0,1,1.085-9.361,24.66,24.66,0,0,1,1.262-3.279,22.591,22.591,0,0,1,7.935-9.555c2.154-1.442,5.446-3.643,9.741-3.542,5.713.136,12.074,4.308,16.484,6.783.828.467,1.586.872,2.26,1.18a6.615,6.615,0,0,0,1.464.457,10.09,10.09,0,0,0,1.795.183,10.928,10.928,0,0,0,1.194-.038h0a.48.48,0,0,0,.121-.012c2.171-.263,11.59,2.236,17.059,8.071.151.161.3.323.442.488a14.406,14.406,0,0,1,2.955,5.143,13.8,13.8,0,0,1,.559,2.56A13.473,13.473,0,0,1,518.381,393.135Z" transform="translate(-454.236 -356.819)" fill="#e01f00"/>
            </g>
            <g id="Grupo_5342-2-2" data-name="Grupo 5342-2" transform="translate(49.046 5.424)">
              <g id="Grupo_4286-7" data-name="Grupo 4286-7" transform="translate(25.922)">
                <path id="Trazado_8721-7" data-name="Trazado 8721-7" d="M517.087,365.188l-.107.129c-.069.091-.175.229-.307.408-.265.358-.638.883-1.062,1.526a29.369,29.369,0,0,0-2.648,4.925,14.266,14.266,0,0,0-.832,2.745,6.9,6.9,0,0,0-.073,2.3,4.168,4.168,0,0,0,.216.817,3.365,3.365,0,0,0,.275.567,1.845,1.845,0,0,0,.126.2,1.253,1.253,0,0,0,.1.14l.088.111.054.069a1.167,1.167,0,0,1-1.8,1.48l-.156-.18c-.052-.058-.114-.133-.179-.221s-.149-.194-.227-.319a5.7,5.7,0,0,1-.5-.929,6.535,6.535,0,0,1-.4-1.279,9.389,9.389,0,0,1-.049-3.153,16.936,16.936,0,0,1,.847-3.3,32.1,32.1,0,0,1,2.686-5.528c.429-.714.807-1.3,1.081-1.7.137-.2.248-.362.326-.472l.125-.175a1.519,1.519,0,1,1,2.47,1.768l-.032.045Z" transform="translate(-509.495 -362.712)" fill="#3f3b30" stroke="#707070" stroke-width="1"/>
              </g>
              <g id="Grupo_4287-7" data-name="Grupo 4287-7" transform="translate(28.761 4.826)">
                <path id="Trazado_8722-7" data-name="Trazado 8722-7" d="M528.608,376.395a26.085,26.085,0,0,1-7.956,2.218,24.633,24.633,0,0,1-4.462.472c-.118,0-.235-.007-.35-.005a8.986,8.986,0,0,1-2.627-.5,2.225,2.225,0,0,1-1.072-.642,1.248,1.248,0,0,1-.123-.179h0a1.965,1.965,0,0,1-.156-.421c-.027-.091-.047-.194-.07-.305s-.042-.217-.064-.341l-.027-.159c-.019-.115-.035-.233-.049-.35h0c-.008-.079-.011-.153-.02-.233-.018-.187-.031-.377-.038-.57a6.827,6.827,0,0,1,.076-1.34,5.38,5.38,0,0,1,.951-2.331,9.407,9.407,0,0,1,4.926-3.286,27.889,27.889,0,0,1,5.942-.937l14-1.2.227-.019-.073.117c-.027.048-.058.1-.088.142-.17.274-.341.548-.516.824q-.315.5-.639.989C534.318,371.552,531.957,374.633,528.608,376.395Z" transform="translate(-511.588 -366.269)" fill="#42762b" stroke="#707070" stroke-width="1"/>
                <path id="Trazado_8723-7" data-name="Trazado 8723-7" d="M530.809,366.527c-.1.069-.208.126-.315.186.079-.144.161-.288.251-.425l.225-.019Z" transform="translate(-504.844 -366.269)" fill="#42762b" stroke="#707070" stroke-width="1"/>
              </g>
              <path id="Trazado_8724-7" data-name="Trazado 8724-7" d="M546.049,383.893c.011.05.02.1.03.152,1.249,6.887.666,14.72-2.888,20.862l-.011.023-.015.024a38.087,38.087,0,0,1-11.608,11.9,11.205,11.205,0,0,1-2.053,1.076l-.008,0-.041.016c-3.291,1.33-11.748,1.545-11.913,1.551h0c-.712-.289-1.294-.566-1.382-.612l0-.009-2.058.832c-1.669.674-5.184-1.159-6.739-1.83a25.339,25.339,0,0,1-6.25-3.883,30.1,30.1,0,0,1-7.048-8.858q-.757-1.41-1.385-2.886a25.412,25.412,0,0,1-2.2-7.987,21.531,21.531,0,0,1-.052-3.089,19.865,19.865,0,0,1,3.331-10.4,14.648,14.648,0,0,1,6.77-6.1c4.7-1.772,11.262-.465,15.672.106.828.1,1.579.189,2.23.218a5.823,5.823,0,0,0,1.346-.1,8.9,8.9,0,0,0,1.524-.442,9.638,9.638,0,0,0,.961-.425h0a.435.435,0,0,0,.094-.049c1.675-.925,10.183-1.994,16.564.961.177.075.349.164.521.252a12.684,12.684,0,0,1,4.1,3.219,12.223,12.223,0,0,1,1.3,1.9A11.852,11.852,0,0,1,546.049,383.893Z" transform="translate(-490.388 -359.038)" fill="#e01f00" stroke="#707070" stroke-width="1"/>
            </g>
            <g id="Grupo_5343-2" data-name="Grupo 5343-2" transform="translate(85.787 5.783)">
              <g id="Grupo_4286-8" data-name="Grupo 4286-8" transform="translate(21.891)">
                <path id="Trazado_8721-8" data-name="Trazado 8721-8" d="M539.184,365.21l-.081.147c-.052.1-.128.259-.224.461-.19.4-.457.988-.75,1.7a29.2,29.2,0,0,0-1.661,5.343,14.391,14.391,0,0,0-.293,2.853,6.929,6.929,0,0,0,.368,2.274,4.059,4.059,0,0,0,.369.761,3.328,3.328,0,0,0,.378.5,2.3,2.3,0,0,0,.16.168,1.482,1.482,0,0,0,.126.117l.107.092.066.058a1.167,1.167,0,0,1-1.486,1.8l-.189-.148c-.062-.047-.137-.108-.217-.183s-.185-.161-.285-.27a5.7,5.7,0,0,1-.672-.817,6.578,6.578,0,0,1-.635-1.179,9.389,9.389,0,0,1-.649-3.088,16.945,16.945,0,0,1,.2-3.4,32.163,32.163,0,0,1,1.582-5.944c.285-.781.545-1.426.737-1.876.1-.225.175-.4.229-.526l.09-.2a1.52,1.52,0,0,1,2.764,1.264l-.023.052Z" transform="translate(-533.604 -362.976)" fill="#3f3b30" stroke="#707070" stroke-miterlimit="4.002" stroke-width="1"/>
              </g>
              <g id="Grupo_4287-8" data-name="Grupo 4287-8" transform="translate(24.811 0.458)">
                <path id="Trazado_8722-8" data-name="Trazado 8722-8" d="M552.846,375a26.141,26.141,0,0,1-7.389,3.7,24.7,24.7,0,0,1-4.293,1.315c-.115.022-.232.039-.345.062a8.975,8.975,0,0,1-2.675.011,2.217,2.217,0,0,1-1.175-.425,1.278,1.278,0,0,1-.156-.153h0a1.9,1.9,0,0,1-.233-.383c-.043-.084-.084-.182-.127-.286s-.083-.2-.128-.322l-.057-.151c-.041-.111-.079-.224-.115-.335h0c-.023-.075-.039-.148-.064-.225-.054-.18-.1-.365-.147-.552a6.777,6.777,0,0,1-.182-1.331,5.383,5.383,0,0,1,.49-2.471,9.411,9.411,0,0,1,4.21-4.169,27.86,27.86,0,0,1,5.657-2.055l13.522-3.85.218-.062-.049.129c-.019.052-.039.1-.06.156-.114.3-.231.6-.349.906q-.216.55-.438,1.095C557.528,369.151,555.8,372.629,552.846,375Z" transform="translate(-535.757 -363.314)" fill="#42762b" stroke="#707070" stroke-miterlimit="4.002" stroke-width="1"/>
                <path id="Trazado_8723-8" data-name="Trazado 8723-8" d="M553.51,363.6c-.087.088-.179.164-.273.243.049-.157.1-.313.164-.465l.219-.062Z" transform="translate(-529.522 -363.314)" fill="#42762b" stroke="#707070" stroke-miterlimit="4.002" stroke-width="1"/>
              </g>
              <path id="Trazado_8724-8" data-name="Trazado 8724-8" d="M570.963,379.8l.058.144c2.542,6.523,3.466,14.329,1.148,21.039l-.007.024-.009.027a38.1,38.1,0,0,1-9.125,13.909,11.142,11.142,0,0,1-1.811,1.448l-.007.005-.038.024c-2.977,1.933-11.242,3.761-11.4,3.8h0c-.756-.148-1.38-.309-1.475-.338l-.005-.008-1.863,1.21c-1.51.981-5.312-.147-6.968-.51a25.413,25.413,0,0,1-6.88-2.618,30.15,30.15,0,0,1-8.614-7.353q-1.013-1.242-1.911-2.568a25.386,25.386,0,0,1-3.689-7.424,21.315,21.315,0,0,1-.64-3.024,19.855,19.855,0,0,1,1.283-10.851,14.639,14.639,0,0,1,5.482-7.284c4.276-2.639,10.971-2.608,15.412-2.89.833-.056,1.587-.117,2.232-.212a5.876,5.876,0,0,0,1.3-.36,8.994,8.994,0,0,0,1.411-.725,9.684,9.684,0,0,0,.863-.6h0a.412.412,0,0,0,.083-.067c1.468-1.229,9.62-3.9,16.45-2.221.187.041.374.1.56.149a12.658,12.658,0,0,1,4.644,2.377,12.018,12.018,0,0,1,1.639,1.621A11.85,11.85,0,0,1,570.963,379.8Z" transform="translate(-517.469 -359.817)" fill="#e01f00" stroke="#707070" stroke-miterlimit="4.002" stroke-width="1"/>
            </g>
            <g id="Grupo_5344-2" data-name="Grupo 5344-2" transform="translate(111.801 0.713)">
              <g id="Grupo_4286-9" data-name="Grupo 4286-9" transform="translate(30.786)">
                <path id="Trazado_8721-9" data-name="Trazado 8721-9" d="M569.15,362.049l-.13.126c-.089.087-.225.22-.389.391-.334.343-.813.847-1.362,1.471a31.638,31.638,0,0,0-3.568,4.858,15.519,15.519,0,0,0-1.3,2.8,7.465,7.465,0,0,0-.422,2.443,4.423,4.423,0,0,0,.107.9,3.637,3.637,0,0,0,.208.647,2.331,2.331,0,0,0,.106.227,1.459,1.459,0,0,0,.088.164l.079.134.048.083a1.257,1.257,0,0,1-2.145,1.309l-.14-.217c-.046-.071-.1-.159-.159-.267s-.129-.231-.193-.372a6.139,6.139,0,0,1-.4-1.068,6.941,6.941,0,0,1-.232-1.425,10.08,10.08,0,0,1,.421-3.37,18.2,18.2,0,0,1,1.392-3.389,34.518,34.518,0,0,1,3.7-5.5c.564-.7,1.057-1.26,1.405-1.652l.422-.456.163-.17a1.636,1.636,0,0,1,2.367,2.258l-.041.045Z" transform="translate(-559.335 -359.239)" fill="#3f3b30" stroke="#707070" stroke-width="1"/>
              </g>
              <g id="Grupo_4287-9" data-name="Grupo 4287-9" transform="translate(33.761 7.568)">
                <path id="Trazado_8722-9" data-name="Trazado 8722-9" d="M579.591,375.224a28.137,28.137,0,0,1-8.822,1.175,26.523,26.523,0,0,1-4.834-.166c-.125-.02-.25-.042-.376-.065a9.687,9.687,0,0,1-2.726-.925,2.388,2.388,0,0,1-1.05-.844,1.217,1.217,0,0,1-.1-.213h0a2.071,2.071,0,0,1-.1-.471c-.015-.1-.023-.216-.03-.336s-.012-.24-.018-.374l-.005-.172c0-.128,0-.255,0-.374h0c0-.083,0-.166,0-.247.012-.213.028-.422.049-.628a7.329,7.329,0,0,1,.282-1.418,5.787,5.787,0,0,1,1.367-2.342,10.127,10.127,0,0,1,5.751-2.77,30.106,30.106,0,0,1,6.482-.111l15.12.824.244.014-.1.113c-.038.047-.077.092-.115.138q-.334.4-.672.8-.411.484-.829.967C586.411,370.911,583.43,373.848,579.591,375.224Z" transform="translate(-561.528 -364.818)" fill="#42762b" stroke="#707070" stroke-width="1"/>
                <path id="Trazado_8723-9" data-name="Trazado 8723-9" d="M583.066,365.787c-.121.046-.236.1-.364.144.1-.141.209-.281.33-.415l.244.014Z" transform="translate(-553.976 -364.569)" fill="#42762b" stroke="#707070" stroke-width="1"/>
              </g>
              <path id="Trazado_8724-9" data-name="Trazado 8724-9" d="M597.526,385.832q0,.081.008.167c.3,7.538-1.5,15.816-6.211,21.833l-.016.02-.02.024a41.046,41.046,0,0,1-14.171,10.961,12.025,12.025,0,0,1-2.35.838l-.007,0-.048.011c-3.712.925-12.769-.113-12.945-.128h-.007c-.715-.415-1.294-.8-1.381-.855l-.009-.008-2.316.578c-1.883.469-5.36-2.02-6.914-2.966a27.332,27.332,0,0,1-6.085-5.082,32.464,32.464,0,0,1-6.195-10.52q-.6-1.62-1.045-3.286a27.387,27.387,0,0,1-1.156-8.855,23.14,23.14,0,0,1,.408-3.3,21.415,21.415,0,0,1,5.107-10.6,15.781,15.781,0,0,1,8.143-5.492c5.284-1.178,12.089,1.2,16.709,2.468.867.239,1.658.438,2.348.567a6.257,6.257,0,0,0,1.45.087,9.729,9.729,0,0,0,1.69-.243,10.726,10.726,0,0,0,1.089-.309h0a.553.553,0,0,0,.11-.039c1.931-.738,11.167-.6,17.532,3.511.175.113.349.229.52.347a13.635,13.635,0,0,1,3.894,4.051,13.1,13.1,0,0,1,1.1,2.225A12.8,12.8,0,0,1,597.526,385.832Z" transform="translate(-536.643 -355.81)" fill="#e01f00" stroke="#707070" stroke-width="1"/>
            </g>
            <g id="Grupo_5355" data-name="Grupo 5355" transform="translate(145.432 9.61)">
              <g id="Grupo_4286-10" data-name="Grupo 4286-10" transform="translate(20.19 0.718)">
                <path id="Trazado_8721-10" data-name="Trazado 8721-10" d="M581.264,368.432l-.061.146c-.045.1-.111.259-.194.46-.166.4-.395.986-.644,1.7a28.5,28.5,0,0,0-1.354,5.3,13.973,13.973,0,0,0-.138,2.8,6.771,6.771,0,0,0,.469,2.2,3.95,3.95,0,0,0,.395.719,3.3,3.3,0,0,0,.395.473,1.968,1.968,0,0,0,.166.155,1.441,1.441,0,0,0,.13.107l.111.086.069.054a1.138,1.138,0,0,1-1.357,1.825l-.187-.132a2.612,2.612,0,0,1-.225-.171,3.286,3.286,0,0,1-.289-.248,5.593,5.593,0,0,1-.695-.76,6.34,6.34,0,0,1-.678-1.118,9.172,9.172,0,0,1-.788-2.975,16.663,16.663,0,0,1,.019-3.321,31.333,31.333,0,0,1,1.237-5.872c.237-.777.46-1.418.623-1.868.08-.225.148-.4.2-.525l.079-.2a1.482,1.482,0,1,1,2.755,1.092l-.022.052Z" transform="translate(-576.315 -366.326)" fill="#3f3b30" stroke="#707070" stroke-width="1"/>
              </g>
              <g id="Grupo_4287-10" data-name="Grupo 4287-10" transform="translate(23.086)">
                <path id="Trazado_8722-10" data-name="Trazado 8722-10" d="M595.076,377.543a25.467,25.467,0,0,1-7.013,3.983,24.186,24.186,0,0,1-4.111,1.5l-.335.075a8.782,8.782,0,0,1-2.61.155,2.174,2.174,0,0,1-1.167-.354,1.3,1.3,0,0,1-.159-.14h0a1.976,1.976,0,0,1-.247-.361c-.047-.081-.092-.174-.14-.273s-.085-.2-.133-.313l-.064-.144c-.045-.107-.087-.213-.129-.32h0c-.028-.069-.056-.14-.081-.21-.064-.176-.122-.354-.174-.535a6.616,6.616,0,0,1-.244-1.287,5.259,5.259,0,0,1,.355-2.427,9.183,9.183,0,0,1,3.887-4.282,27.3,27.3,0,0,1,5.406-2.3l12.981-4.442.209-.072-.041.128c-.016.052-.034.1-.054.157-.1.3-.193.6-.293.9-.119.364-.243.729-.368,1.094A21.67,21.67,0,0,1,595.076,377.543Z" transform="translate(-578.449 -365.797)" fill="#42762b" stroke="#707070" stroke-width="1"/>
                <path id="Trazado_8723-10" data-name="Trazado 8723-10" d="M595.3,366.081c-.083.085-.171.164-.254.25.041-.155.084-.309.137-.461l.209-.072Z" transform="translate(-572.53 -365.797)" fill="#42762b" stroke="#707070" stroke-width="1"/>
              </g>
              <path id="Trazado_8724-10" data-name="Trazado 8724-10" d="M612.846,381.517c.02.045.044.091.063.137,2.812,6.229,4.109,13.787,2.2,20.447l-.005.023-.009.027a37.159,37.159,0,0,1-8.18,14.023,10.889,10.889,0,0,1-1.688,1.5l-.042.03c-2.8,2.038-10.764,4.241-10.919,4.284h0c-.746-.1-1.359-.229-1.452-.248l-.005-.008-1.754,1.277c-1.427,1.036-5.187.128-6.815-.144a24.741,24.741,0,0,1-6.84-2.207,29.411,29.411,0,0,1-8.771-6.727q-1.05-1.16-2-2.408a24.779,24.779,0,0,1-3.975-7.045,20.861,20.861,0,0,1-.777-2.916,19.383,19.383,0,0,1,.687-10.639,14.283,14.283,0,0,1,4.976-7.374c4.035-2.789,10.56-3.1,14.873-3.6.815-.09,1.539-.193,2.165-.322a5.711,5.711,0,0,0,1.248-.422,8.654,8.654,0,0,0,1.338-.777,9.828,9.828,0,0,0,.81-.63h0a.45.45,0,0,0,.079-.069c1.372-1.275,9.175-4.3,15.918-3,.19.03.366.068.553.115a12.366,12.366,0,0,1,4.647,2.08,11.9,11.9,0,0,1,1.681,1.5A11.572,11.572,0,0,1,612.846,381.517Z" transform="translate(-561.433 -362.723)" fill="#e01f00" stroke="#707070" stroke-width="1"/>
            </g>
          </g>
          <g id="Grupo_5352" data-name="Grupo 5352" transform="translate(191.988 26.77)">
            <g id="Grupo_5347-2" data-name="Grupo 5347-2" transform="translate(0 9.198)">
              <path id="Trazado_8826-7" data-name="Trazado 8826-7" d="M662.612,391.793c.029.8.016,1.541-.026,2.241a29.188,29.188,0,0,1-.874,5.3c-.779,3.247-3.24,13.471-12.969,19.494a31.34,31.34,0,0,1-19.308,3.673c-3.948-.535-11.563-4.814-19.292-13.954a23.068,23.068,0,0,1-4.761-8.657,26.919,26.919,0,0,1,.049-13.115c.166-.836.346-1.631.512-2.4,1.384-6.41,6.185-8.749,10.905-11.255s12.462-2.59,12.462-2.59l2.559-.632c.274-.122.681-.286,1.176-.479,5.713-2.214,10.284-2.248,13.987-.9a22.109,22.109,0,0,1,10.135,7.933A28.419,28.419,0,0,1,662.612,391.793Z" transform="translate(-588.677 -343.079)" fill="#facc0d" stroke="#707070" stroke-width="1"/>
              <path id="Trazado_8827-7" data-name="Trazado 8827-7" d="M623.885,371.5a6.729,6.729,0,0,0-3.437.75c-.374.171-.663.218-.752.593a1.355,1.355,0,0,0,.3.963c.779,1.13,2.727,1.324,3.986,1.473a8.993,8.993,0,0,0,4.795-.89c1.058-.516,2.953-1.49,2.656-2.985-.246-1.239-1.6-1.207-2.575-1.089-1.114.133-2.165.638-3.3.78-.889.106-1.72.414-2.586.54" transform="translate(-583.292 -342.134)" fill="#8a3000" stroke="#707070" stroke-width="1"/>
              <path id="Trazado_8828-7" data-name="Trazado 8828-7" d="M625.641,367.714a6.99,6.99,0,0,0,.684,1.917,13.214,13.214,0,0,0,1.046,1.035,1.306,1.306,0,0,1,.282,1.148c-.106-.528-1.967-1.088-2.457-1.395-.137-.084-.275-.178-.411-.27a26.354,26.354,0,0,0-2.762-1.751,46.409,46.409,0,0,1-5.312-2.948,43.364,43.364,0,0,1-5.591-4.615,22,22,0,0,1-2.487-2.818,22.6,22.6,0,0,1-1.977-3.747,27.086,27.086,0,0,0-2.457-4.732,2.221,2.221,0,0,1,1.393.341q.926.448,1.857.883c.406.194.814.384,1.222.575,2.583,1.2,5.421,1.563,7.937,2.882a18.992,18.992,0,0,1,5.754,5.36,12.043,12.043,0,0,1,2.49,5.109C625.055,365.7,625.347,366.722,625.641,367.714Z" transform="translate(-588.818 -349.529)" fill="#335c20" stroke="#707070" stroke-width="1"/>
              <path id="Trazado_8829-7" data-name="Trazado 8829-7" d="M631.212,367.588c-.668.444-1.7.275-2.568.535l-.274.087a16.164,16.164,0,0,0-2.211.927,25.7,25.7,0,0,1-5.214,1.88c-2,.507-4.01,1.255-6.041,1.571a61.97,61.97,0,0,1-6.382.456,41.267,41.267,0,0,1-8.185.213,11.322,11.322,0,0,1-4.181-1.363,9.494,9.494,0,0,1-3.293-2.563,1.155,1.155,0,0,0,.145-.012,10.544,10.544,0,0,0,3.884-1.289,35.286,35.286,0,0,1,8.858-3.587,22.794,22.794,0,0,1,8.776.41,20.8,20.8,0,0,0,2.852.552,26.344,26.344,0,0,1,3.682.742,67.519,67.519,0,0,0,6.964.917c.84.09,1.638.355,2.471.448A2.664,2.664,0,0,1,631.212,367.588Z" transform="translate(-592.862 -344.297)" fill="#335c20" stroke="#707070" stroke-width="1"/>
              <path id="Trazado_8830-7" data-name="Trazado 8830-7" d="M621.073,367.136a25.675,25.675,0,0,1,2.3,5.3,17.788,17.788,0,0,1,.425,2.476c.043.479.271,1.446.012,1.859.712.224,1.718-.346,2.48-.279.182-.355.005-.979-.03-1.381-.053-.605-.064-1.21-.149-1.815-.145-1.02-.494-2.005-.62-3.032a8.877,8.877,0,0,0-.81-2.971,10.256,10.256,0,0,0-.853-1.753c-.339-.431-.709-.239-1.188-.038A3.376,3.376,0,0,0,621.073,367.136Z" transform="translate(-582.799 -343.911)" fill="#141414" stroke="#707070" stroke-width="1"/>
            </g>
            <g id="Grupo_5348-2" data-name="Grupo 5348-2" transform="translate(47.576 8.189)">
              <path id="Trazado_8826-8" data-name="Trazado 8826-8" d="M681.45,405.8c-.294.693-.6,1.327-.919,1.916a27.737,27.737,0,0,1-2.865,4.191c-1.963,2.466-8.156,10.246-18.9,11.521a29.645,29.645,0,0,1-18.011-4.575c-3.168-2.035-7.983-8.743-10.953-19.661a21.78,21.78,0,0,1-.62-9.318,25.464,25.464,0,0,1,5.282-11.217c.477-.643.95-1.259,1.4-1.852,3.746-4.94,8.793-5.025,13.838-5.286s11.718,2.761,11.718,2.761l2.451.482c.284.005.7.026,1.2.058,5.774.385,9.707,2.182,12.343,4.812a20.917,20.917,0,0,1,5.514,10.844A26.885,26.885,0,0,1,681.45,405.8Z" transform="translate(-627.57 -340.681)" fill="#facc0d" stroke="#707070" stroke-miterlimit="4.001" stroke-width="1"/>
              <path id="Trazado_8827-8" data-name="Trazado 8827-8" d="M653.417,374.943a6.353,6.353,0,0,0-3.244-.731c-.389,0-.655-.077-.88.208a1.28,1.28,0,0,0-.128.944c.216,1.275,1.8,2.225,2.826,2.857a8.493,8.493,0,0,0,4.464,1.159c1.111-.019,3.119-.1,3.469-1.5.284-1.16-.889-1.675-1.771-1.964-1.009-.33-2.111-.317-3.133-.653-.809-.265-1.646-.334-2.437-.571" transform="translate(-620.369 -339.72)" fill="#8a3000" stroke="#707070" stroke-miterlimit="4.001" stroke-width="1"/>
              <path id="Trazado_8828-8" data-name="Trazado 8828-8" d="M656.119,372.923a6.606,6.606,0,0,0-.18,1.916,12.758,12.758,0,0,0,.482,1.305,1.237,1.237,0,0,1-.216,1.1c.128-.5-1.251-1.719-1.549-2.179-.083-.134-.164-.269-.245-.395a24.677,24.677,0,0,0-1.665-2.6,43.743,43.743,0,0,1-3.371-4.649,40.991,40.991,0,0,1-2.945-6.192,20.832,20.832,0,0,1-1.008-3.409,21.6,21.6,0,0,1-.187-3.993,25.529,25.529,0,0,0-.221-5.036,2.1,2.1,0,0,1,1.057.849q.615.751,1.239,1.5c.27.328.544.655.818.981,1.728,2.059,4.02,3.506,5.648,5.641a17.944,17.944,0,0,1,2.788,6.889,11.4,11.4,0,0,1,.092,5.372C656.419,370.967,656.263,371.956,656.119,372.923Z" transform="translate(-621.837 -348.785)" fill="#335c20" stroke="#707070" stroke-miterlimit="4.001" stroke-width="1"/>
              <path id="Trazado_8829-8" data-name="Trazado 8829-8" d="M661.479,373.887c-.749.113-1.57-.446-2.414-.568l-.273-.037a15.228,15.228,0,0,0-2.266-.1,24.326,24.326,0,0,1-5.219-.472c-1.906-.362-3.936-.526-5.8-1.066a58.59,58.59,0,0,1-5.644-2.157,39.1,39.1,0,0,1-7.1-3.08,10.7,10.7,0,0,1-3.034-2.842,8.962,8.962,0,0,1-1.8-3.511c.041.018.08.034.122.049a10.02,10.02,0,0,0,3.844.444,33.252,33.252,0,0,1,9.022.464,21.543,21.543,0,0,1,7.363,3.861,19.662,19.662,0,0,0,2.222,1.613,24.948,24.948,0,0,1,2.861,2.107,63.858,63.858,0,0,0,5.594,3.569c.685.412,1.26.959,1.939,1.37A2.533,2.533,0,0,1,661.479,373.887Z" transform="translate(-627.93 -344.764)" fill="#335c20" stroke="#707070" stroke-miterlimit="4.001" stroke-width="1"/>
              <path id="Trazado_8830-8" data-name="Trazado 8830-8" d="M653.022,370.39a24.14,24.14,0,0,1-.151,5.457,16.542,16.542,0,0,1-.621,2.293c-.155.429-.344,1.347-.731,1.6.526.478,1.609.389,2.237.753.3-.231.392-.837.522-1.194.2-.54.43-1.064.6-1.614.282-.932.375-1.916.678-2.846a8.379,8.379,0,0,0,.494-2.869,9.612,9.612,0,0,0-.031-1.842c-.113-.507-.507-.49-1-.509A3.192,3.192,0,0,0,653.022,370.39Z" transform="translate(-619.516 -341.356)" fill="#141414" stroke="#707070" stroke-miterlimit="4.001" stroke-width="1"/>
            </g>
            <g id="Grupo_5349-2" data-name="Grupo 5349-2" transform="translate(81.899)">
              <path id="Trazado_8826-9" data-name="Trazado 8826-9" d="M705.362,413.688c-.544.628-1.085,1.188-1.617,1.695a30.546,30.546,0,0,1-4.443,3.428c-2.906,1.924-12.072,7.992-23.8,5.668a32.773,32.773,0,0,1-17.379-10.948c-2.637-3.219-5.405-11.913-4.811-24.409a24.118,24.118,0,0,1,2.526-10.01,28.158,28.158,0,0,1,9.383-9.993c.724-.513,1.427-1,2.1-1.471,5.623-3.915,10.961-2.285,16.353-.836s11.369,6.9,11.369,6.9l2.407,1.34c.3.1.726.266,1.241.472,5.941,2.376,9.463,5.606,11.336,9.274a23.116,23.116,0,0,1,2.1,13.285A29.708,29.708,0,0,1,705.362,413.688Z" transform="translate(-653.229 -334.738)" fill="#facc0d" stroke="#707070" stroke-width="1"/>
              <path id="Trazado_8827-9" data-name="Trazado 8827-9" d="M684.245,373.074a7.038,7.038,0,0,0-3.161-1.874c-.408-.138-.663-.307-1-.084a1.416,1.416,0,0,0-.457.951c-.209,1.415,1.14,2.955,2,3.968a9.4,9.4,0,0,0,4.3,2.732c1.175.36,3.32.966,4.158-.389.693-1.114-.365-2.062-1.194-2.667-.948-.692-2.11-1.056-3.076-1.754-.756-.549-1.612-.906-2.363-1.427" transform="translate(-643.82 -332.669)" fill="#8a3000" stroke="#707070" stroke-width="1"/>
              <path id="Trazado_8828-9" data-name="Trazado 8828-9" d="M688.413,371.919a7.351,7.351,0,0,0-.842,1.955,14.18,14.18,0,0,0,.062,1.537,1.371,1.371,0,0,1-.6,1.08c.3-.476-.735-2.236-.883-2.825-.045-.167-.083-.331-.123-.5a27.318,27.318,0,0,0-.863-3.308,48.24,48.24,0,0,1-1.963-6.033,45.333,45.333,0,0,1-.985-7.512,23.035,23.035,0,0,1,.092-3.93,23.869,23.869,0,0,1,1.164-4.271,28.228,28.228,0,0,0,1.5-5.366A2.32,2.32,0,0,1,685.79,344q.391,1,.792,2c.174.438.349.874.526,1.311,1.121,2.754,3.031,5.058,4.014,7.858a19.866,19.866,0,0,1,.579,8.2,12.6,12.6,0,0,1-1.736,5.68C689.395,369.964,688.893,370.952,688.413,371.919Z" transform="translate(-642.907 -342.749)" fill="#335c20" stroke="#707070" stroke-width="1"/>
              <path id="Trazado_8829-9" data-name="Trazado 8829-9" d="M692.991,374.762c-.825-.136-1.5-1-2.343-1.426l-.27-.129a17.03,17.03,0,0,0-2.35-.874,26.891,26.891,0,0,1-5.326-2.277c-1.887-1.034-3.959-1.9-5.739-3.1a64.594,64.594,0,0,1-5.207-4.187,43.127,43.127,0,0,1-6.41-5.666,11.834,11.834,0,0,1-2.224-4.024,9.915,9.915,0,0,1-.693-4.3c.038.031.073.062.114.092a11.049,11.049,0,0,0,3.888,1.777,36.775,36.775,0,0,1,9.329,3.561,23.818,23.818,0,0,1,6.425,6.572,21.876,21.876,0,0,0,1.784,2.46,27.409,27.409,0,0,1,2.287,3.19,70.29,70.29,0,0,0,4.666,5.66c.579.666,1,1.441,1.571,2.1A2.831,2.831,0,0,1,692.991,374.762Z" transform="translate(-649.954 -340.6)" fill="#335c20" stroke="#707070" stroke-width="1"/>
              <path id="Trazado_8830-9" data-name="Trazado 8830-9" d="M686.2,367.918a26.858,26.858,0,0,1-2.023,5.687,18.248,18.248,0,0,1-1.435,2.2c-.308.4-.821,1.3-1.315,1.433.389.686,1.56.958,2.1,1.555.392-.142.7-.746.961-1.077.389-.5.814-.971,1.179-1.494.615-.883,1.052-1.886,1.685-2.761a9.254,9.254,0,0,0,1.5-2.85,10.814,10.814,0,0,0,.6-1.946c.053-.575-.369-.692-.878-.879A3.533,3.533,0,0,0,686.2,367.918Z" transform="translate(-643.173 -333.869)" fill="#141414" stroke="#707070" stroke-width="1"/>
            </g>
            <g id="Grupo_5350-2" data-name="Grupo 5350-2" transform="translate(127.986 14.168)">
              <path id="Trazado_8826-10" data-name="Trazado 8826-10" d="M728.963,413.5a19.394,19.394,0,0,1-1.492,1.267,25.445,25.445,0,0,1-3.993,2.461c-2.582,1.346-10.729,5.587-20.276,2.629a27.386,27.386,0,0,1-13.479-10.611c-1.909-2.907-3.456-10.376-1.865-20.706a20.143,20.143,0,0,1,2.974-8.1,23.534,23.534,0,0,1,8.669-7.485c.644-.364,1.273-.706,1.875-1.038,5.014-2.762,9.307-.94,13.665.729s8.847,6.725,8.847,6.725l1.884,1.323c.237.111.579.284.988.5,4.729,2.492,7.374,5.488,8.611,8.7a19.31,19.31,0,0,1,.579,11.232A24.833,24.833,0,0,1,728.963,413.5Z" transform="translate(-687.199 -347.019)" fill="#facc0d" stroke="#707070" stroke-width="1"/>
              <path id="Trazado_8827-10" data-name="Trazado 8827-10" d="M714.294,378.373a5.867,5.867,0,0,0-2.462-1.833c-.324-.156-.524-.311-.821-.156a1.182,1.182,0,0,0-.465.747c-.3,1.157.685,2.555,1.313,3.473a7.857,7.857,0,0,0,3.336,2.651c.946.4,2.674,1.092,3.488.039.676-.872-.122-1.747-.758-2.323-.724-.658-1.654-1.06-2.4-1.73-.581-.516-1.259-.893-1.837-1.389" transform="translate(-678.891 -344.943)" fill="#8a3000" stroke="#707070" stroke-width="1"/>
              <path id="Trazado_8828-10" data-name="Trazado 8828-10" d="M718.143,377.732a6.167,6.167,0,0,0-.871,1.547,11.912,11.912,0,0,0-.083,1.282,1.141,1.141,0,0,1-.594.845c.29-.372-.411-1.92-.49-2.419-.022-.142-.041-.282-.058-.426a22.99,22.99,0,0,0-.423-2.816,40.422,40.422,0,0,1-1.1-5.184,37.731,37.731,0,0,1-.167-6.336,19.046,19.046,0,0,1,.425-3.255,19.855,19.855,0,0,1,1.342-3.446,23.7,23.7,0,0,0,1.708-4.332,1.94,1.94,0,0,1,.574,1.112q.238.867.483,1.731c.1.377.214.756.322,1.134.692,2.389,2.082,4.469,2.652,6.873a16.6,16.6,0,0,1-.233,6.862,10.522,10.522,0,0,1-1.94,4.569C719.13,376.192,718.628,376.965,718.143,377.732Z" transform="translate(-677.535 -353.192)" fill="#335c20" stroke="#707070" stroke-width="1"/>
              <path id="Trazado_8829-10" data-name="Trazado 8829-10" d="M721.407,380.554c-.674-.184-1.157-.963-1.823-1.385l-.213-.13a14.112,14.112,0,0,0-1.876-.931,22.431,22.431,0,0,1-4.227-2.358c-1.482-1.024-3.127-1.917-4.5-3.078a54.205,54.205,0,0,1-3.961-3.936,36.129,36.129,0,0,1-4.831-5.267,9.868,9.868,0,0,1-1.5-3.538,8.3,8.3,0,0,1-.2-3.637c.029.03.056.058.087.087a9.2,9.2,0,0,0,3.076,1.817,30.811,30.811,0,0,1,7.44,3.776A19.9,19.9,0,0,1,713.651,368a18.237,18.237,0,0,0,1.264,2.194,23.05,23.05,0,0,1,1.627,2.852,58.93,58.93,0,0,0,3.382,5.112c.423.6.7,1.282,1.118,1.882A2.372,2.372,0,0,1,721.407,380.554Z" transform="translate(-683.287 -352.086)" fill="#335c20" stroke="#707070" stroke-width="1"/>
              <path id="Trazado_8830-10" data-name="Trazado 8830-10" d="M716.549,374.146a22.459,22.459,0,0,1-2.176,4.549,15.547,15.547,0,0,1-1.384,1.7c-.29.3-.8,1.007-1.217,1.073.266.6,1.211.932,1.6,1.475.338-.085.65-.558.893-.811.368-.381.756-.738,1.11-1.138.583-.682,1.039-1.475,1.647-2.145a7.756,7.756,0,0,0,1.494-2.236,9.156,9.156,0,0,0,.665-1.567c.084-.475-.254-.608-.659-.807A2.946,2.946,0,0,0,716.549,374.146Z" transform="translate(-678.434 -345.763)" fill="#141414" stroke="#707070" stroke-width="1"/>
            </g>
            <g id="Grupo_5351-2" data-name="Grupo 5351-2" transform="translate(169.138 11.294)">
              <path id="Trazado_8826-11" data-name="Trazado 8826-11" d="M751.472,418.866a27.377,27.377,0,0,1-16.978-2.45c-3.108-1.561-8.181-7.257-11.969-17a20.138,20.138,0,0,1-1.472-8.5,23.5,23.5,0,0,1,3.765-10.816c.374-.639.749-1.248,1.1-1.838,2.962-4.9,7.589-5.466,12.2-6.2s11.024,1.4,11.024,1.4l2.293.2c.26-.022.643-.043,1.106-.061" transform="translate(-716.283 -343.642)" fill="#facc0d" stroke="#707070" stroke-width="1"/>
              <path id="Trazado_8826-11-2" data-name="Trazado 8826-11" d="M757.086,394.328" transform="translate(-703.423 -335.646)" fill="#facc0d" stroke="#707070" stroke-width="1"/>
              <path id="Trazado_8827-11" data-name="Trazado 8827-11" d="M742.365,374.327a5.883,5.883,0,0,0-3.05-.357c-.358.029-.609-.007-.788.277a1.18,1.18,0,0,0-.029.879c.322,1.152,1.87,1.87,2.874,2.351a7.846,7.846,0,0,0,4.214.628c1.02-.125,2.863-.391,3.04-1.711.149-1.092-.978-1.452-1.817-1.631-.957-.209-1.963-.092-2.945-.3-.76-.157-1.536-.144-2.286-.286" transform="translate(-710.079 -342.93)" fill="#8a3000" stroke="#707070" stroke-width="1"/>
              <path id="Trazado_8828-11" data-name="Trazado 8828-11" d="M744.673,372.169a6.124,6.124,0,0,0,.02,1.775,11.62,11.62,0,0,0,.568,1.152,1.14,1.14,0,0,1-.092,1.028c.066-.465-1.316-1.456-1.633-1.849-.091-.111-.176-.224-.263-.339a22.758,22.758,0,0,0-1.775-2.228,40.328,40.328,0,0,1-3.548-3.938,37.968,37.968,0,0,1-3.313-5.4,19.28,19.28,0,0,1-1.259-3.032,19.794,19.794,0,0,1-.56-3.655,23.683,23.683,0,0,0-.688-4.606,1.948,1.948,0,0,1,1.054.677q.639.631,1.284,1.258c.279.274.563.548.845.821,1.793,1.724,4.039,2.83,5.733,4.628a16.583,16.583,0,0,1,3.229,6.059,10.529,10.529,0,0,1,.605,4.928C744.759,370.343,744.711,371.263,744.673,372.169Z" transform="translate(-712.325 -351.074)" fill="#335c20" stroke="#707070" stroke-width="1"/>
              <path id="Trazado_8829-11" data-name="Trazado 8829-11" d="M749.691,372.659c-.676.178-1.484-.256-2.273-.289l-.25-.005a14.164,14.164,0,0,0-2.089.132,22.468,22.468,0,0,1-4.841.072c-1.795-.146-3.666-.1-5.433-.418a54.141,54.141,0,0,1-5.4-1.427,36.063,36.063,0,0,1-6.817-2.145,9.889,9.889,0,0,1-3.066-2.316,8.314,8.314,0,0,1-1.992-3.05c.038.011.077.023.118.031a9.21,9.21,0,0,0,3.574.037,30.74,30.74,0,0,1,8.33-.45,19.883,19.883,0,0,1,7.143,2.834,18.312,18.312,0,0,0,2.192,1.267,23.214,23.214,0,0,1,2.834,1.657,58.676,58.676,0,0,0,5.485,2.735c.669.312,1.251.758,1.909,1.072A2.3,2.3,0,0,1,749.691,372.659Z" transform="translate(-717.532 -346.918)" fill="#335c20" stroke="#707070" stroke-width="1"/>
              <path id="Trazado_8830-11" data-name="Trazado 8830-11" d="M741.326,370.238a22.381,22.381,0,0,1,.389,5.027,15.348,15.348,0,0,1-.347,2.165c-.1.41-.186,1.271-.518,1.538.531.387,1.517.2,2.129.475.25-.243.284-.807.368-1.148.127-.516.285-1.019.391-1.541.165-.883.163-1.8.354-2.682a7.728,7.728,0,0,0,.175-2.682,8.865,8.865,0,0,0-.207-1.69c-.164-.452-.522-.4-.974-.368A2.937,2.937,0,0,0,741.326,370.238Z" transform="translate(-709.215 -344.569)" fill="#141414" stroke="#707070" stroke-width="1"/>
            </g>
          </g>
        </g>
      </g>
    </g>
  </g>
</svg>
