<svg xmlns="http://www.w3.org/2000/svg" xmlns:xlink="http://www.w3.org/1999/xlink" width="710" height="287" viewBox="0 0 710 287">
  <defs>
    <filter id="Rectángulo_3167" x="0" y="0" width="583" height="92" filterUnits="userSpaceOnUse">
      <feOffset dy="3" input="SourceAlpha"/>
      <feGaussianBlur stdDeviation="3" result="blur"/>
      <feFlood flood-opacity="0.161"/>
      <feComposite operator="in" in2="blur"/>
      <feComposite in="SourceGraphic"/>
    </filter>
    <filter id="Rectángulo_3170" x="59" y="95" width="583" height="92" filterUnits="userSpaceOnUse">
      <feOffset dy="3" input="SourceAlpha"/>
      <feGaussianBlur stdDeviation="3" result="blur-2"/>
      <feFlood flood-opacity="0.161"/>
      <feComposite operator="in" in2="blur-2"/>
      <feComposite in="SourceGraphic"/>
    </filter>
    <filter id="Rectángulo_3171" x="115" y="195" width="583" height="92" filterUnits="userSpaceOnUse">
      <feOffset dy="3" input="SourceAlpha"/>
      <feGaussianBlur stdDeviation="3" result="blur-3"/>
      <feFlood flood-opacity="0.161"/>
      <feComposite operator="in" in2="blur-3"/>
      <feComposite in="SourceGraphic"/>
    </filter>
  </defs>
  <g id="Grupo_5508" data-name="Grupo 5508" transform="translate(-188 -2949)">
    <g transform="matrix(1, 0, 0, 1, 188, 2949)" filter="url(#Rectángulo_3167)">
      <rect id="Rectángulo_3167-2" data-name="Rectángulo 3167" width="565" height="74" rx="12" transform="translate(9 6)" fill="#fde082"/>
    </g>
    <g transform="matrix(1, 0, 0, 1, 188, 2949)" filter="url(#Rectángulo_3170)">
      <rect id="Rectángulo_3170-2" data-name="Rectángulo 3170" width="565" height="74" rx="12" transform="translate(68 101)" fill="#fde082"/>
    </g>
    <g transform="matrix(1, 0, 0, 1, 188, 2949)" filter="url(#Rectángulo_3171)">
      <rect id="Rectángulo_3171-2" data-name="Rectángulo 3171" width="565" height="74" rx="12" transform="translate(124 201)" fill="#fde082"/>
    </g>
    <text id="Debilita_la_unión_de_las_frutas_al_rabo_de_las_mismas_preparándolas_para_su_desprendimiento_de_la_planta_o_para_su_recolección." data-name="Debilita la unión de las frutas al rabo de las mismas preparándolas para su desprendimiento de la planta o para su recolección." transform="translate(212 2969)" fill="#00223d" font-size="16" font-family="OpenSans, Open Sans"><tspan x="0" y="17">Debilita la unión de las frutas al rabo de las mismas preparándolas para </tspan><tspan x="0" y="41">su desprendimiento de la planta o para su recolección.</tspan></text>
    <text id="Inicia_la_maduración_de_frutos_climatéricos." data-name="Inicia la maduración de frutos climatéricos." transform="translate(292 3072)" fill="#00223d" font-size="16" font-family="OpenSans, Open Sans"><tspan x="0" y="17">Inicia la maduración de frutos climatéricos.</tspan></text>
    <text id="Acelera_la_senescencia._" data-name="Acelera la senescencia. " transform="translate(348 3172)" fill="#00223d" font-size="16" font-family="OpenSans, Open Sans"><tspan x="0" y="17">Acelera la senescencia. </tspan></text>
    <path id="Polígono_1" data-name="Polígono 1" d="M44.532,3.571a3,3,0,0,1,4.936,0l41.28,59.724A3,3,0,0,1,88.28,68H5.72a3,3,0,0,1-2.468-4.706Z" transform="translate(782 3079) rotate(180)" fill="#80cbc4"/>
    <path id="Polígono_2" data-name="Polígono 2" d="M44.532,3.571a3,3,0,0,1,4.936,0l41.28,59.724A3,3,0,0,1,88.28,68H5.72a3,3,0,0,1-2.468-4.706Z" transform="translate(856 3185) rotate(180)" fill="#80cbc4"/>
  </g>
</svg>
