<svg xmlns="http://www.w3.org/2000/svg" width="143.914" height="163.994" viewBox="0 0 143.914 163.994">
  <g id="Grupo_5088" data-name="Grupo 5088" transform="translate(-12.85 7.863)">
    <g id="Grupo_5084" data-name="Grupo 5084" transform="matrix(-0.966, -0.259, 0.259, -0.966, 149.859, 47.675)">
      <path id="Trazado_10804" data-name="Trazado 10804" d="M5.7,0A29.934,29.934,0,0,0,1.695,27.478c1.661,4.591,5.919,9.342,10.6,7.963,4.266-1.256,5.621-6.984,4.1-11.164s-4.92-7.334-7.626-10.862S3.948,5.228,5.545,1.078" transform="translate(16.767 10.837)" fill="none" stroke="#fff" stroke-width="3"/>
      <path id="Trazado_10805" data-name="Trazado 10805" d="M11.262,0A71.52,71.52,0,0,0,.769,20.4c-1.05,3.234-1.434,7.627,1.571,9.217C6.6,27.33,7.071,21.484,6.754,16.659S6.211,6.178,9.941,3.1" transform="translate(5.346 9.308)" fill="none" stroke="#fff" stroke-width="3"/>
      <path id="Trazado_10806" data-name="Trazado 10806" d="M6.947,11.6a10.268,10.268,0,0,1-2.53,3,3.063,3.063,0,0,1-3.666.049C-.838,13.221.375,10.589,1.8,8.994,5.486,4.878,10.816,1.028,16.307,0,15.123,4,9.4,7.9,6.947,11.6Z" transform="translate(0 0)" fill="none" stroke="#fff" stroke-width="3"/>
    </g>
    <g id="Grupo_5085" data-name="Grupo 5085" transform="translate(59.37 15.999) rotate(51)">
      <path id="Trazado_10804-2" data-name="Trazado 10804" d="M9.365,0A49.157,49.157,0,0,0,2.783,45.124C5.51,52.664,12.5,60.465,20.2,58.2c7.005-2.062,9.23-11.469,6.736-18.333S18.852,27.824,14.408,22.03,6.483,8.585,9.107,1.769" transform="translate(27.535 17.796)" fill="none" stroke="#fff" stroke-width="3"/>
      <path id="Trazado_10805-2" data-name="Trazado 10805" d="M18.495,0A117.456,117.456,0,0,0,1.263,33.494C-.461,38.8-1.093,46.019,3.842,48.63c7-3.749,7.77-13.349,7.25-21.272S10.2,10.145,16.325,5.094" transform="translate(8.779 15.286)" fill="none" stroke="#fff" stroke-width="3"/>
      <path id="Trazado_10806-2" data-name="Trazado 10806" d="M11.409,19.052c-1.2,1.8-2.367,3.713-4.155,4.932s-4.413,1.529-6.02.08c-2.611-2.354-.619-6.676,1.726-9.3C9.009,8.011,17.762,1.688,26.778,0,24.835,6.562,15.437,12.972,11.409,19.052Z" transform="translate(0 0)" fill="none" stroke="#fff" stroke-width="3"/>
    </g>
    <g id="Grupo_5087" data-name="Grupo 5087" transform="translate(70.08 27.081)">
      <path id="Trazado_10887" data-name="Trazado 10887" d="M167.048,335.78l-2.74-.585,15.159-71.018a2.791,2.791,0,0,1,3-2.177c.036,0,.072.008.107.015l25.629,4.578-.493,2.759L183.351,265a1.224,1.224,0,0,0-1.412.948Z" transform="translate(-156.672 -261.986)" fill="none" stroke="#fff" stroke-width="2"/>
      <g id="Grupo_5086" data-name="Grupo 5086" transform="translate(0 32.53)">
        <path id="Trazado_10834" data-name="Trazado 10834" d="M186.537,327.413c.129-1.072.813-18.236.543-21.386H165.093c-.169,3.011.581,19.9.708,20.958.211,1.747-9.7,12.792-11.176,16.285s0,41.961,0,49.164,1.681,8.295,7.988,8.514c4.161.144,9.97.1,13.44.049,3.469.048,9.278.095,13.44-.049,6.306-.219,7.988-1.31,7.988-8.514s1.471-45.672,0-49.164S186.328,329.159,186.537,327.413Z" transform="translate(-153.971 -306.027)" fill="none" stroke="#fff" stroke-width="3"/>
      </g>
    </g>
  </g>
</svg>
