<svg xmlns="http://www.w3.org/2000/svg" width="366.901" height="279.901" viewBox="0 0 366.901 279.901">
  <g id="Grupo_5499" data-name="Grupo 5499" transform="translate(-630 -577.028)">
    <g id="Grupo_5486" data-name="Grupo 5486" transform="translate(743.099 577.028)">
      <g id="Grupo_5101" data-name="Grupo 5101" transform="translate(0)">
        <path id="Trazado_10903" data-name="Trazado 10903" d="M65.951,0A65.951,65.951,0,1,1,0,65.951,65.951,65.951,0,0,1,65.951,0Z" fill="#fde082"/>
        <path id="Trazado_1178" data-name="Trazado 1178" d="M58.857,0A58.857,58.857,0,1,1,0,58.857,58.857,58.857,0,0,1,58.857,0Z" transform="translate(7.631 7.631)" fill="#fde082"/>
      </g>
    </g>
    <g id="Grupo_5487" data-name="Grupo 5487" transform="translate(630 657.028)">
      <g id="Grupo_5101-2" data-name="Grupo 5101" transform="translate(0)">
        <path id="Trazado_10903-2" data-name="Trazado 10903" d="M65.951,0A65.951,65.951,0,1,1,0,65.951,65.951,65.951,0,0,1,65.951,0Z" fill="#fde082"/>
        <path id="Trazado_1178-2" data-name="Trazado 1178" d="M58.857,0A58.857,58.857,0,1,1,0,58.857,58.857,58.857,0,0,1,58.857,0Z" transform="translate(7.631 7.631)" fill="#fde082"/>
      </g>
    </g>
    <g id="Grupo_5488" data-name="Grupo 5488" transform="translate(748.099 725.028)">
      <g id="Grupo_5101-3" data-name="Grupo 5101" transform="translate(0)">
        <path id="Trazado_10903-3" data-name="Trazado 10903" d="M65.951,0A65.951,65.951,0,1,1,0,65.951,65.951,65.951,0,0,1,65.951,0Z" fill="#fde082"/>
        <path id="Trazado_1178-3" data-name="Trazado 1178" d="M58.857,0A58.857,58.857,0,1,1,0,58.857,58.857,58.857,0,0,1,58.857,0Z" transform="translate(7.631 7.631)" fill="#fde082"/>
      </g>
    </g>
    <g id="Grupo_5489" data-name="Grupo 5489" transform="translate(865 657.028)">
      <g id="Grupo_5101-4" data-name="Grupo 5101" transform="translate(0)">
        <path id="Trazado_10903-4" data-name="Trazado 10903" d="M65.951,0A65.951,65.951,0,1,1,0,65.951,65.951,65.951,0,0,1,65.951,0Z" fill="#fde082"/>
        <path id="Trazado_1178-4" data-name="Trazado 1178" d="M58.857,0A58.857,58.857,0,1,1,0,58.857,58.857,58.857,0,0,1,58.857,0Z" transform="translate(7.631 7.631)" fill="#fde082"/>
      </g>
    </g>
    <text id="Tamaño" transform="translate(658 712)" fill="#002b45" font-size="16" font-family="Montserrat-Bold, Montserrat" font-weight="700"><tspan x="0" y="15">Tamaño</tspan></text>
    <text id="Uniformidad" transform="translate(762 780)" fill="#002b45" font-size="16" font-family="Montserrat-Bold, Montserrat" font-weight="700"><tspan x="0" y="15">Uniformidad</tspan></text>
    <text id="Forma" transform="translate(900 709)" fill="#002b45" font-size="16" font-family="Montserrat-Bold, Montserrat" font-weight="700"><tspan x="0" y="15">Forma</tspan></text>
    <text id="Regularidad_de_la_superficie_" data-name="Regularidad
de la superficie
" transform="translate(757 616)" fill="#002b45" font-size="14" font-family="Montserrat-Bold, Montserrat" font-weight="700"><tspan x="10.831" y="14">Regularidad</tspan><tspan x="36.962" y="32">de la </tspan><tspan x="18.713" y="50">superficie</tspan><tspan x="54" y="68"></tspan></text>
  </g>
</svg>
