<svg xmlns="http://www.w3.org/2000/svg" width="121" height="121" viewBox="0 0 121 121">
  <g id="Grupo_5503" data-name="Grupo 5503" transform="translate(-110 -932)">
    <g id="Grupo_1010" data-name="Grupo 1010" transform="translate(110 932)">
      <circle id="Elipse_497" data-name="Elipse 497" cx="60.5" cy="60.5" r="60.5" fill="#80cbc4"/>
      <path id="Trazado_1178" data-name="Trazado 1178" d="M53.993,0A53.993,53.993,0,1,1,0,53.993,53.993,53.993,0,0,1,53.993,0Z" transform="translate(7 7)" fill="#fff"/>
    </g>
    <g id="Grupo_5182" data-name="Grupo 5182" transform="matrix(0.966, 0.259, -0.259, 0.966, 160.142, 930.079)">
      <path id="Trazado_8826" data-name="Trazado 8826" d="M541.139,1635.111c-.338.763-.694,1.46-1.055,2.1a30.7,30.7,0,0,1-3.259,4.6c-2.225,2.7-9.245,11.217-21.188,12.428a32.906,32.906,0,0,1-19.9-5.41c-3.477-2.319-8.694-9.853-11.785-22.025a24.193,24.193,0,0,1-.512-10.352c.918-5.155,3.565-9.082,6.074-12.349.541-.705,1.076-1.379,1.586-2.029,4.25-5.41,9.853-5.41,15.456-5.6s12.944,3.284,12.944,3.284l2.7.58c.315.011.775.042,1.329.089,6.4.537,10.732,2.6,13.607,5.576a23.207,23.207,0,0,1,5.914,12.139A29.823,29.823,0,0,1,541.139,1635.111Z" transform="translate(-482.287 -1562.268)" fill="#facc0d"/>
      <path id="Trazado_8827" data-name="Trazado 8827" d="M683.609,1624.027a7.058,7.058,0,0,0-3.584-.872c-.432-.012-.726-.1-.981.213a1.421,1.421,0,0,0-.16,1.045c.215,1.42,1.961,2.5,3.083,3.224A9.431,9.431,0,0,0,686.9,1629c1.233-.006,3.47-.048,3.877-1.6.337-1.281-.955-1.875-1.928-2.212-1.112-.385-2.335-.393-3.468-.782-.887-.3-1.814-.4-2.687-.675" transform="translate(-647.314 -1584.752)" fill="#8a3000"/>
      <path id="Trazado_8828" data-name="Trazado 8828" d="M655.465,1405.623a7.369,7.369,0,0,0-.236,2.123,14.1,14.1,0,0,0,.51,1.457,1.373,1.373,0,0,1-.261,1.214c.147-.547-1.356-1.93-1.677-2.446-.091-.147-.178-.294-.265-.443a27.57,27.57,0,0,0-1.8-2.921,48.455,48.455,0,0,1-3.656-5.222,45.426,45.426,0,0,1-3.151-6.922,22.985,22.985,0,0,1-1.059-3.8,23.816,23.816,0,0,1-.133-4.442,28.411,28.411,0,0,0-.145-5.593,2.335,2.335,0,0,1,1.157.962q.669.846,1.347,1.687c.294.369.591.736.889,1.1,1.886,2.318,4.4,3.966,6.161,6.366a19.94,19.94,0,0,1,2.964,7.7,12.651,12.651,0,0,1,0,5.964C655.834,1403.457,655.643,1404.553,655.465,1405.623Z" transform="translate(-617.588 -1378.627)" fill="#335c20"/>
      <path id="Trazado_8829" data-name="Trazado 8829" d="M514.9,1499.934c-.833.112-1.733-.524-2.668-.676-.1-.016-.2-.031-.3-.045a16.96,16.96,0,0,0-2.512-.149,26.994,26.994,0,0,1-5.782-.622c-2.115-.439-4.359-.659-6.42-1.295a65,65,0,0,1-6.229-2.5c-2.653-1.128-5.412-1.916-7.817-3.557a11.87,11.87,0,0,1-3.317-3.211,9.959,9.959,0,0,1-1.928-3.929c.044.019.089.039.135.056a11.074,11.074,0,0,0,4.256.564c3.362,0,6.729-.22,10,.686a23.915,23.915,0,0,1,8.1,4.424,21.858,21.858,0,0,0,2.436,1.831,27.7,27.7,0,0,1,3.138,2.392,70.759,70.759,0,0,0,6.14,4.065c.751.47,1.381,1.088,2.125,1.557A2.822,2.822,0,0,1,514.9,1499.934Z" transform="translate(-477.925 -1467.42)" fill="#335c20"/>
      <path id="Trazado_8830" data-name="Trazado 8830" d="M703.229,1580.7a26.915,26.915,0,0,1-.27,6.053,18.557,18.557,0,0,1-.732,2.531c-.179.472-.408,1.489-.842,1.759.576.539,1.779.462,2.468.877.335-.252.456-.922.607-1.316.228-.595.5-1.172.693-1.781.331-1.028.456-2.119.808-3.146a9.311,9.311,0,0,0,.6-3.174,10.857,10.857,0,0,0,0-2.045c-.119-.565-.557-.554-1.1-.581A3.537,3.537,0,0,0,703.229,1580.7Z" transform="translate(-666.306 -1548.288)" fill="#141414"/>
    </g>
    <g id="Grupo_5181" data-name="Grupo 5181" transform="translate(131.577 977.794)">
      <g id="Grupo_4394" data-name="Grupo 4394" transform="translate(0 34.358)">
        <path id="Trazado_8938" data-name="Trazado 8938" d="M907.806,667.537c2.865,5.415,1.415,12.046-3.115,16.4a15.974,15.974,0,0,1-3.607,2.6c-7.237,3.83-15.961,1.536-19.488-5.127s-.516-15.167,6.721-19A15.822,15.822,0,0,1,894.6,660.6,13.614,13.614,0,0,1,907.806,667.537Z" transform="translate(-880.121 -660.557)" fill="#e60000"/>
      </g>
      <g id="Grupo_4395" data-name="Grupo 4395" transform="translate(32.51 22.196)">
        <path id="Trazado_8939" data-name="Trazado 8939" d="M1101.129,593.048a12.106,12.106,0,0,1-2.725,14.346,13.981,13.981,0,0,1-3.156,2.277c-6.332,3.351-13.966,1.344-17.051-4.486s-.452-13.271,5.88-16.622a13.844,13.844,0,0,1,5.5-1.589A11.912,11.912,0,0,1,1101.129,593.048Z" transform="translate(-1076.905 -586.94)" fill="#e60000"/>
      </g>
      <g id="Grupo_4396" data-name="Grupo 4396" transform="translate(4.57 1.319)">
        <path id="Trazado_8940" data-name="Trazado 8940" d="M914.011,501.234a.618.618,0,0,1-.548-.332c-3.149-6.029-2.969-12.986-2.795-19.715s.354-13.7-2.811-19.707a.618.618,0,0,1,1.005-.7c1.25,1.385,2.536,2.889,3.9,4.48,8.376,9.79,18.8,21.974,32.21,19.5a.618.618,0,1,1,.224,1.215,20.751,20.751,0,0,1-3.767.348c-12.269,0-21.8-11.145-29.606-20.264q-.7-.818-1.374-1.6c1.751,5.357,1.6,11.137,1.456,16.761-.178,6.873-.346,13.366,2.655,19.111a.618.618,0,0,1-.547.9Z" transform="translate(-907.786 -460.574)" fill="#003b1d"/>
      </g>
      <path id="Trazado_8941" data-name="Trazado 8941" d="M936.09,695.98c-1.4-.118-3.326-.333-4.284.9.556,2.016,4.993.9,4.293-.51" transform="translate(-923.267 -655.692)" fill="#003b1d"/>
      <path id="Trazado_8942" data-name="Trazado 8942" d="M1120.523,604.59c-2.859,1.255-.969,3.62,1.4,2.4,2.126-1.092.765-3.449-1.331-2.266" transform="translate(-1079.604 -579.322)" fill="#003b1d"/>
      <path id="Trazado_8943" data-name="Trazado 8943" d="M905.359,456.689c-.955-.455-3.423-2.622-3.689-3.614,1.763-1.394,4.112.465,4.128,2.537.025,3.239-3.468-1.275-4.072-2.393" transform="translate(-898.11 -452.591)" fill="#003b1d"/>
    </g>
  </g>
</svg>
